ISO-10303-21;
HEADER;
/* Generated by software containing ST-Developer
 * from STEP Tools, Inc. (www.steptools.com) 
 */
/* OPTION: using custom renumber hook */

FILE_DESCRIPTION(
/* description */ ('STEP AP242 Edition 2',
'CAx-IF Rec.Pracs.---Representation and Presentation of Product Manufa
cturing Information (PMI)---4.0---2014-10-13',
'CAx-IF Rec.Pracs.---3D Tessellated Geometry---0.4---2014-09-14','2;1',
'CAx-IF Rec.Pracs.---User Defined Attributes---1.5---2016-08-15'),
/* implementation_level */ '2;1');

FILE_NAME(
/* name */ '9.7in AMOLED panel - 9.7in AMOLED',
/* time_stamp */ '2026-07-17T16:57:58Z',
/* author */ (''),
/* organization */ (''),
/* preprocessor_version */ 'ST-DEVELOPER v20',
/* originating_system */ 'ONSHAPE BY PTC INC, 1.217',
/* authorisation */ '  ');

FILE_SCHEMA (('AP242_MANAGED_MODEL_BASED_3D_ENGINEERING_MIM_LF { 1 0 10303 442 3 1 4 }'));
ENDSEC;

DATA;
#10=SHAPE_REPRESENTATION_RELATIONSHIP('','',#751,#11);
#11=ADVANCED_BREP_SHAPE_REPRESENTATION('',(#749),#1157);
#12=OVER_RIDING_STYLED_ITEM('',(#712),#679,#710);
#13=OVER_RIDING_STYLED_ITEM('',(#713),#680,#710);
#14=OVER_RIDING_STYLED_ITEM('',(#714),#681,#710);
#15=OVER_RIDING_STYLED_ITEM('',(#715),#682,#710);
#16=OVER_RIDING_STYLED_ITEM('',(#716),#683,#710);
#17=ORIENTED_EDGE('',*,*,#209,.F.);
#18=ORIENTED_EDGE('',*,*,#210,.T.);
#19=ORIENTED_EDGE('',*,*,#211,.T.);
#20=ORIENTED_EDGE('',*,*,#212,.T.);
#21=ORIENTED_EDGE('',*,*,#213,.F.);
#22=ORIENTED_EDGE('',*,*,#214,.T.);
#23=ORIENTED_EDGE('',*,*,#215,.T.);
#24=ORIENTED_EDGE('',*,*,#216,.T.);
#25=ORIENTED_EDGE('',*,*,#217,.F.);
#26=ORIENTED_EDGE('',*,*,#218,.F.);
#27=ORIENTED_EDGE('',*,*,#219,.T.);
#28=ORIENTED_EDGE('',*,*,#220,.T.);
#29=ORIENTED_EDGE('',*,*,#221,.F.);
#30=ORIENTED_EDGE('',*,*,#218,.T.);
#31=ORIENTED_EDGE('',*,*,#222,.T.);
#32=ORIENTED_EDGE('',*,*,#223,.F.);
#33=ORIENTED_EDGE('',*,*,#224,.F.);
#34=ORIENTED_EDGE('',*,*,#225,.T.);
#35=ORIENTED_EDGE('',*,*,#226,.T.);
#36=ORIENTED_EDGE('',*,*,#227,.F.);
#37=ORIENTED_EDGE('',*,*,#228,.F.);
#38=ORIENTED_EDGE('',*,*,#229,.F.);
#39=ORIENTED_EDGE('',*,*,#230,.T.);
#40=ORIENTED_EDGE('',*,*,#231,.F.);
#41=ORIENTED_EDGE('',*,*,#219,.F.);
#42=ORIENTED_EDGE('',*,*,#221,.T.);
#43=ORIENTED_EDGE('',*,*,#232,.T.);
#44=ORIENTED_EDGE('',*,*,#233,.F.);
#45=ORIENTED_EDGE('',*,*,#234,.T.);
#46=ORIENTED_EDGE('',*,*,#235,.F.);
#47=ORIENTED_EDGE('',*,*,#236,.T.);
#48=ORIENTED_EDGE('',*,*,#237,.T.);
#49=ORIENTED_EDGE('',*,*,#238,.T.);
#50=ORIENTED_EDGE('',*,*,#239,.F.);
#51=ORIENTED_EDGE('',*,*,#222,.F.);
#52=ORIENTED_EDGE('',*,*,#217,.T.);
#53=ORIENTED_EDGE('',*,*,#240,.F.);
#54=ORIENTED_EDGE('',*,*,#241,.F.);
#55=ORIENTED_EDGE('',*,*,#242,.T.);
#56=ORIENTED_EDGE('',*,*,#243,.F.);
#57=ORIENTED_EDGE('',*,*,#232,.F.);
#58=ORIENTED_EDGE('',*,*,#223,.T.);
#59=ORIENTED_EDGE('',*,*,#239,.T.);
#60=ORIENTED_EDGE('',*,*,#244,.F.);
#61=ORIENTED_EDGE('',*,*,#245,.F.);
#62=ORIENTED_EDGE('',*,*,#246,.T.);
#63=ORIENTED_EDGE('',*,*,#247,.T.);
#64=ORIENTED_EDGE('',*,*,#248,.F.);
#65=ORIENTED_EDGE('',*,*,#238,.F.);
#66=ORIENTED_EDGE('',*,*,#249,.T.);
#67=ORIENTED_EDGE('',*,*,#250,.T.);
#68=ORIENTED_EDGE('',*,*,#251,.F.);
#69=ORIENTED_EDGE('',*,*,#234,.F.);
#70=ORIENTED_EDGE('',*,*,#216,.F.);
#71=ORIENTED_EDGE('',*,*,#252,.T.);
#72=ORIENTED_EDGE('',*,*,#253,.T.);
#73=ORIENTED_EDGE('',*,*,#254,.F.);
#74=ORIENTED_EDGE('',*,*,#212,.F.);
#75=ORIENTED_EDGE('',*,*,#255,.T.);
#76=ORIENTED_EDGE('',*,*,#256,.F.);
#77=ORIENTED_EDGE('',*,*,#257,.F.);
#78=ORIENTED_EDGE('',*,*,#220,.F.);
#79=ORIENTED_EDGE('',*,*,#231,.T.);
#80=ORIENTED_EDGE('',*,*,#258,.T.);
#81=ORIENTED_EDGE('',*,*,#259,.F.);
#82=ORIENTED_EDGE('',*,*,#260,.F.);
#83=ORIENTED_EDGE('',*,*,#233,.T.);
#84=ORIENTED_EDGE('',*,*,#243,.T.);
#85=ORIENTED_EDGE('',*,*,#261,.T.);
#86=ORIENTED_EDGE('',*,*,#262,.F.);
#87=ORIENTED_EDGE('',*,*,#263,.F.);
#88=ORIENTED_EDGE('',*,*,#244,.T.);
#89=ORIENTED_EDGE('',*,*,#225,.F.);
#90=ORIENTED_EDGE('',*,*,#264,.F.);
#91=ORIENTED_EDGE('',*,*,#265,.T.);
#92=ORIENTED_EDGE('',*,*,#266,.T.);
#93=ORIENTED_EDGE('',*,*,#224,.T.);
#94=ORIENTED_EDGE('',*,*,#267,.F.);
#95=ORIENTED_EDGE('',*,*,#268,.F.);
#96=ORIENTED_EDGE('',*,*,#264,.T.);
#97=ORIENTED_EDGE('',*,*,#227,.T.);
#98=ORIENTED_EDGE('',*,*,#269,.F.);
#99=ORIENTED_EDGE('',*,*,#270,.F.);
#100=ORIENTED_EDGE('',*,*,#267,.T.);
#101=ORIENTED_EDGE('',*,*,#226,.F.);
#102=ORIENTED_EDGE('',*,*,#266,.F.);
#103=ORIENTED_EDGE('',*,*,#271,.T.);
#104=ORIENTED_EDGE('',*,*,#269,.T.);
#105=ORIENTED_EDGE('',*,*,#265,.F.);
#106=ORIENTED_EDGE('',*,*,#268,.T.);
#107=ORIENTED_EDGE('',*,*,#270,.T.);
#108=ORIENTED_EDGE('',*,*,#271,.F.);
#109=ORIENTED_EDGE('',*,*,#263,.T.);
#110=ORIENTED_EDGE('',*,*,#272,.F.);
#111=ORIENTED_EDGE('',*,*,#273,.F.);
#112=ORIENTED_EDGE('',*,*,#240,.T.);
#113=ORIENTED_EDGE('',*,*,#261,.F.);
#114=ORIENTED_EDGE('',*,*,#242,.F.);
#115=ORIENTED_EDGE('',*,*,#274,.T.);
#116=ORIENTED_EDGE('',*,*,#275,.T.);
#117=ORIENTED_EDGE('',*,*,#262,.T.);
#118=ORIENTED_EDGE('',*,*,#275,.F.);
#119=ORIENTED_EDGE('',*,*,#276,.F.);
#120=ORIENTED_EDGE('',*,*,#272,.T.);
#121=ORIENTED_EDGE('',*,*,#273,.T.);
#122=ORIENTED_EDGE('',*,*,#276,.T.);
#123=ORIENTED_EDGE('',*,*,#274,.F.);
#124=ORIENTED_EDGE('',*,*,#241,.T.);
#125=ORIENTED_EDGE('',*,*,#252,.F.);
#126=ORIENTED_EDGE('',*,*,#215,.F.);
#127=ORIENTED_EDGE('',*,*,#277,.T.);
#128=ORIENTED_EDGE('',*,*,#278,.T.);
#129=ORIENTED_EDGE('',*,*,#253,.F.);
#130=ORIENTED_EDGE('',*,*,#278,.F.);
#131=ORIENTED_EDGE('',*,*,#279,.T.);
#132=ORIENTED_EDGE('',*,*,#280,.T.);
#133=ORIENTED_EDGE('',*,*,#254,.T.);
#134=ORIENTED_EDGE('',*,*,#280,.F.);
#135=ORIENTED_EDGE('',*,*,#281,.F.);
#136=ORIENTED_EDGE('',*,*,#213,.T.);
#137=ORIENTED_EDGE('',*,*,#214,.F.);
#138=ORIENTED_EDGE('',*,*,#281,.T.);
#139=ORIENTED_EDGE('',*,*,#279,.F.);
#140=ORIENTED_EDGE('',*,*,#277,.F.);
#141=ORIENTED_EDGE('',*,*,#257,.T.);
#142=ORIENTED_EDGE('',*,*,#282,.F.);
#143=ORIENTED_EDGE('',*,*,#283,.F.);
#144=ORIENTED_EDGE('',*,*,#209,.T.);
#145=ORIENTED_EDGE('',*,*,#255,.F.);
#146=ORIENTED_EDGE('',*,*,#211,.F.);
#147=ORIENTED_EDGE('',*,*,#284,.T.);
#148=ORIENTED_EDGE('',*,*,#285,.T.);
#149=ORIENTED_EDGE('',*,*,#256,.T.);
#150=ORIENTED_EDGE('',*,*,#285,.F.);
#151=ORIENTED_EDGE('',*,*,#286,.F.);
#152=ORIENTED_EDGE('',*,*,#282,.T.);
#153=ORIENTED_EDGE('',*,*,#283,.T.);
#154=ORIENTED_EDGE('',*,*,#286,.T.);
#155=ORIENTED_EDGE('',*,*,#284,.F.);
#156=ORIENTED_EDGE('',*,*,#210,.F.);
#157=ORIENTED_EDGE('',*,*,#260,.T.);
#158=ORIENTED_EDGE('',*,*,#287,.F.);
#159=ORIENTED_EDGE('',*,*,#288,.F.);
#160=ORIENTED_EDGE('',*,*,#228,.T.);
#161=ORIENTED_EDGE('',*,*,#258,.F.);
#162=ORIENTED_EDGE('',*,*,#230,.F.);
#163=ORIENTED_EDGE('',*,*,#289,.T.);
#164=ORIENTED_EDGE('',*,*,#290,.T.);
#165=ORIENTED_EDGE('',*,*,#259,.T.);
#166=ORIENTED_EDGE('',*,*,#290,.F.);
#167=ORIENTED_EDGE('',*,*,#291,.F.);
#168=ORIENTED_EDGE('',*,*,#287,.T.);
#169=ORIENTED_EDGE('',*,*,#288,.T.);
#170=ORIENTED_EDGE('',*,*,#291,.T.);
#171=ORIENTED_EDGE('',*,*,#289,.F.);
#172=ORIENTED_EDGE('',*,*,#229,.T.);
#173=ORIENTED_EDGE('',*,*,#249,.F.);
#174=ORIENTED_EDGE('',*,*,#237,.F.);
#175=ORIENTED_EDGE('',*,*,#292,.T.);
#176=ORIENTED_EDGE('',*,*,#293,.T.);
#177=ORIENTED_EDGE('',*,*,#251,.T.);
#178=ORIENTED_EDGE('',*,*,#294,.F.);
#179=ORIENTED_EDGE('',*,*,#295,.F.);
#180=ORIENTED_EDGE('',*,*,#235,.T.);
#181=ORIENTED_EDGE('',*,*,#250,.F.);
#182=ORIENTED_EDGE('',*,*,#293,.F.);
#183=ORIENTED_EDGE('',*,*,#296,.T.);
#184=ORIENTED_EDGE('',*,*,#294,.T.);
#185=ORIENTED_EDGE('',*,*,#292,.F.);
#186=ORIENTED_EDGE('',*,*,#236,.F.);
#187=ORIENTED_EDGE('',*,*,#295,.T.);
#188=ORIENTED_EDGE('',*,*,#296,.F.);
#189=ORIENTED_EDGE('',*,*,#246,.F.);
#190=ORIENTED_EDGE('',*,*,#297,.F.);
#191=ORIENTED_EDGE('',*,*,#298,.T.);
#192=ORIENTED_EDGE('',*,*,#299,.T.);
#193=ORIENTED_EDGE('',*,*,#245,.T.);
#194=ORIENTED_EDGE('',*,*,#300,.F.);
#195=ORIENTED_EDGE('',*,*,#301,.F.);
#196=ORIENTED_EDGE('',*,*,#297,.T.);
#197=ORIENTED_EDGE('',*,*,#248,.T.);
#198=ORIENTED_EDGE('',*,*,#302,.F.);
#199=ORIENTED_EDGE('',*,*,#303,.F.);
#200=ORIENTED_EDGE('',*,*,#300,.T.);
#201=ORIENTED_EDGE('',*,*,#247,.F.);
#202=ORIENTED_EDGE('',*,*,#299,.F.);
#203=ORIENTED_EDGE('',*,*,#304,.T.);
#204=ORIENTED_EDGE('',*,*,#302,.T.);
#205=ORIENTED_EDGE('',*,*,#298,.F.);
#206=ORIENTED_EDGE('',*,*,#301,.T.);
#207=ORIENTED_EDGE('',*,*,#303,.T.);
#208=ORIENTED_EDGE('',*,*,#304,.F.);
#209=EDGE_CURVE('',#305,#306,#369,.T.);
#210=EDGE_CURVE('',#305,#307,#370,.T.);
#211=EDGE_CURVE('',#307,#308,#371,.T.);
#212=EDGE_CURVE('',#308,#309,#372,.T.);
#213=EDGE_CURVE('',#310,#309,#373,.T.);
#214=EDGE_CURVE('',#310,#311,#374,.T.);
#215=EDGE_CURVE('',#311,#312,#375,.T.);
#216=EDGE_CURVE('',#312,#313,#376,.T.);
#217=EDGE_CURVE('',#314,#313,#377,.T.);
#218=EDGE_CURVE('',#315,#314,#378,.T.);
#219=EDGE_CURVE('',#315,#316,#379,.T.);
#220=EDGE_CURVE('',#316,#306,#380,.T.);
#221=EDGE_CURVE('',#315,#317,#381,.T.);
#222=EDGE_CURVE('',#314,#318,#382,.T.);
#223=EDGE_CURVE('',#317,#318,#383,.T.);
#224=EDGE_CURVE('',#319,#320,#384,.T.);
#225=EDGE_CURVE('',#319,#321,#385,.T.);
#226=EDGE_CURVE('',#321,#322,#386,.T.);
#227=EDGE_CURVE('',#320,#322,#387,.T.);
#228=EDGE_CURVE('',#323,#324,#388,.T.);
#229=EDGE_CURVE('',#325,#323,#389,.T.);
#230=EDGE_CURVE('',#325,#326,#390,.T.);
#231=EDGE_CURVE('',#316,#326,#391,.T.);
#232=EDGE_CURVE('',#317,#327,#392,.T.);
#233=EDGE_CURVE('',#324,#327,#393,.T.);
#234=EDGE_CURVE('',#313,#328,#394,.T.);
#235=EDGE_CURVE('',#329,#328,#395,.T.);
#236=EDGE_CURVE('',#329,#330,#396,.T.);
#237=EDGE_CURVE('',#330,#331,#397,.T.);
#238=EDGE_CURVE('',#331,#332,#398,.T.);
#239=EDGE_CURVE('',#318,#332,#399,.T.);
#240=EDGE_CURVE('',#333,#334,#400,.T.);
#241=EDGE_CURVE('',#335,#333,#401,.T.);
#242=EDGE_CURVE('',#335,#336,#402,.T.);
#243=EDGE_CURVE('',#327,#336,#403,.T.);
#244=EDGE_CURVE('',#334,#332,#404,.T.);
#245=EDGE_CURVE('',#337,#338,#405,.T.);
#246=EDGE_CURVE('',#337,#339,#406,.T.);
#247=EDGE_CURVE('',#339,#340,#407,.T.);
#248=EDGE_CURVE('',#338,#340,#408,.T.);
#249=EDGE_CURVE('',#331,#341,#409,.T.);
#250=EDGE_CURVE('',#341,#342,#410,.T.);
#251=EDGE_CURVE('',#328,#342,#411,.T.);
#252=EDGE_CURVE('',#312,#343,#412,.T.);
#253=EDGE_CURVE('',#343,#344,#413,.T.);
#254=EDGE_CURVE('',#309,#344,#414,.T.);
#255=EDGE_CURVE('',#308,#345,#415,.T.);
#256=EDGE_CURVE('',#346,#345,#416,.T.);
#257=EDGE_CURVE('',#306,#346,#417,.T.);
#258=EDGE_CURVE('',#326,#347,#418,.T.);
#259=EDGE_CURVE('',#348,#347,#419,.T.);
#260=EDGE_CURVE('',#324,#348,#420,.T.);
#261=EDGE_CURVE('',#336,#349,#421,.T.);
#262=EDGE_CURVE('',#350,#349,#422,.T.);
#263=EDGE_CURVE('',#334,#350,#423,.T.);
#264=EDGE_CURVE('',#351,#319,#424,.T.);
#265=EDGE_CURVE('',#351,#352,#425,.T.);
#266=EDGE_CURVE('',#352,#321,#426,.T.);
#267=EDGE_CURVE('',#353,#320,#427,.T.);
#268=EDGE_CURVE('',#351,#353,#428,.T.);
#269=EDGE_CURVE('',#354,#322,#429,.T.);
#270=EDGE_CURVE('',#353,#354,#430,.T.);
#271=EDGE_CURVE('',#352,#354,#431,.T.);
#272=EDGE_CURVE('',#355,#350,#432,.T.);
#273=EDGE_CURVE('',#333,#355,#433,.T.);
#274=EDGE_CURVE('',#335,#356,#434,.T.);
#275=EDGE_CURVE('',#356,#349,#435,.T.);
#276=EDGE_CURVE('',#355,#356,#436,.T.);
#277=EDGE_CURVE('',#311,#357,#437,.T.);
#278=EDGE_CURVE('',#357,#343,#438,.T.);
#279=EDGE_CURVE('',#357,#358,#439,.T.);
#280=EDGE_CURVE('',#358,#344,#440,.T.);
#281=EDGE_CURVE('',#310,#358,#441,.T.);
#282=EDGE_CURVE('',#359,#346,#442,.T.);
#283=EDGE_CURVE('',#305,#359,#443,.T.);
#284=EDGE_CURVE('',#307,#360,#444,.T.);
#285=EDGE_CURVE('',#360,#345,#445,.T.);
#286=EDGE_CURVE('',#359,#360,#446,.T.);
#287=EDGE_CURVE('',#361,#348,#447,.T.);
#288=EDGE_CURVE('',#323,#361,#448,.T.);
#289=EDGE_CURVE('',#325,#362,#449,.T.);
#290=EDGE_CURVE('',#362,#347,#450,.T.);
#291=EDGE_CURVE('',#361,#362,#451,.T.);
#292=EDGE_CURVE('',#330,#363,#452,.T.);
#293=EDGE_CURVE('',#363,#341,#453,.T.);
#294=EDGE_CURVE('',#364,#342,#454,.T.);
#295=EDGE_CURVE('',#329,#364,#455,.T.);
#296=EDGE_CURVE('',#363,#364,#456,.T.);
#297=EDGE_CURVE('',#365,#337,#457,.T.);
#298=EDGE_CURVE('',#365,#366,#458,.T.);
#299=EDGE_CURVE('',#366,#339,#459,.T.);
#300=EDGE_CURVE('',#367,#338,#460,.T.);
#301=EDGE_CURVE('',#365,#367,#461,.T.);
#302=EDGE_CURVE('',#368,#340,#462,.T.);
#303=EDGE_CURVE('',#367,#368,#463,.T.);
#304=EDGE_CURVE('',#366,#368,#464,.T.);
#305=VERTEX_POINT('',#962);
#306=VERTEX_POINT('',#963);
#307=VERTEX_POINT('',#965);
#308=VERTEX_POINT('',#967);
#309=VERTEX_POINT('',#969);
#310=VERTEX_POINT('',#971);
#311=VERTEX_POINT('',#973);
#312=VERTEX_POINT('',#975);
#313=VERTEX_POINT('',#977);
#314=VERTEX_POINT('',#979);
#315=VERTEX_POINT('',#981);
#316=VERTEX_POINT('',#983);
#317=VERTEX_POINT('',#987);
#318=VERTEX_POINT('',#989);
#319=VERTEX_POINT('',#992);
#320=VERTEX_POINT('',#993);
#321=VERTEX_POINT('',#995);
#322=VERTEX_POINT('',#997);
#323=VERTEX_POINT('',#1001);
#324=VERTEX_POINT('',#1002);
#325=VERTEX_POINT('',#1004);
#326=VERTEX_POINT('',#1006);
#327=VERTEX_POINT('',#1009);
#328=VERTEX_POINT('',#1013);
#329=VERTEX_POINT('',#1015);
#330=VERTEX_POINT('',#1017);
#331=VERTEX_POINT('',#1019);
#332=VERTEX_POINT('',#1021);
#333=VERTEX_POINT('',#1025);
#334=VERTEX_POINT('',#1026);
#335=VERTEX_POINT('',#1028);
#336=VERTEX_POINT('',#1030);
#337=VERTEX_POINT('',#1035);
#338=VERTEX_POINT('',#1036);
#339=VERTEX_POINT('',#1038);
#340=VERTEX_POINT('',#1040);
#341=VERTEX_POINT('',#1043);
#342=VERTEX_POINT('',#1045);
#343=VERTEX_POINT('',#1048);
#344=VERTEX_POINT('',#1050);
#345=VERTEX_POINT('',#1053);
#346=VERTEX_POINT('',#1055);
#347=VERTEX_POINT('',#1058);
#348=VERTEX_POINT('',#1060);
#349=VERTEX_POINT('',#1063);
#350=VERTEX_POINT('',#1065);
#351=VERTEX_POINT('',#1069);
#352=VERTEX_POINT('',#1071);
#353=VERTEX_POINT('',#1075);
#354=VERTEX_POINT('',#1079);
#355=VERTEX_POINT('',#1086);
#356=VERTEX_POINT('',#1090);
#357=VERTEX_POINT('',#1097);
#358=VERTEX_POINT('',#1101);
#359=VERTEX_POINT('',#1108);
#360=VERTEX_POINT('',#1112);
#361=VERTEX_POINT('',#1119);
#362=VERTEX_POINT('',#1123);
#363=VERTEX_POINT('',#1130);
#364=VERTEX_POINT('',#1134);
#365=VERTEX_POINT('',#1141);
#366=VERTEX_POINT('',#1143);
#367=VERTEX_POINT('',#1147);
#368=VERTEX_POINT('',#1151);
#369=LINE('',#961,#465);
#370=LINE('',#964,#466);
#371=LINE('',#966,#467);
#372=LINE('',#968,#468);
#373=LINE('',#970,#469);
#374=LINE('',#972,#470);
#375=LINE('',#974,#471);
#376=LINE('',#976,#472);
#377=LINE('',#978,#473);
#378=LINE('',#980,#474);
#379=LINE('',#982,#475);
#380=LINE('',#984,#476);
#381=LINE('',#986,#477);
#382=LINE('',#988,#478);
#383=LINE('',#990,#479);
#384=LINE('',#991,#480);
#385=LINE('',#994,#481);
#386=LINE('',#996,#482);
#387=LINE('',#998,#483);
#388=LINE('',#1000,#484);
#389=LINE('',#1003,#485);
#390=LINE('',#1005,#486);
#391=LINE('',#1007,#487);
#392=LINE('',#1008,#488);
#393=LINE('',#1010,#489);
#394=LINE('',#1012,#490);
#395=LINE('',#1014,#491);
#396=LINE('',#1016,#492);
#397=LINE('',#1018,#493);
#398=LINE('',#1020,#494);
#399=LINE('',#1022,#495);
#400=LINE('',#1024,#496);
#401=LINE('',#1027,#497);
#402=LINE('',#1029,#498);
#403=LINE('',#1031,#499);
#404=LINE('',#1032,#500);
#405=LINE('',#1034,#501);
#406=LINE('',#1037,#502);
#407=LINE('',#1039,#503);
#408=LINE('',#1041,#504);
#409=LINE('',#1042,#505);
#410=LINE('',#1044,#506);
#411=LINE('',#1046,#507);
#412=LINE('',#1047,#508);
#413=LINE('',#1049,#509);
#414=LINE('',#1051,#510);
#415=LINE('',#1052,#511);
#416=LINE('',#1054,#512);
#417=LINE('',#1056,#513);
#418=LINE('',#1057,#514);
#419=LINE('',#1059,#515);
#420=LINE('',#1061,#516);
#421=LINE('',#1062,#517);
#422=LINE('',#1064,#518);
#423=LINE('',#1066,#519);
#424=LINE('',#1068,#520);
#425=LINE('',#1070,#521);
#426=LINE('',#1072,#522);
#427=LINE('',#1074,#523);
#428=LINE('',#1076,#524);
#429=LINE('',#1078,#525);
#430=LINE('',#1080,#526);
#431=LINE('',#1082,#527);
#432=LINE('',#1085,#528);
#433=LINE('',#1087,#529);
#434=LINE('',#1089,#530);
#435=LINE('',#1091,#531);
#436=LINE('',#1093,#532);
#437=LINE('',#1096,#533);
#438=LINE('',#1098,#534);
#439=LINE('',#1100,#535);
#440=LINE('',#1102,#536);
#441=LINE('',#1104,#537);
#442=LINE('',#1107,#538);
#443=LINE('',#1109,#539);
#444=LINE('',#1111,#540);
#445=LINE('',#1113,#541);
#446=LINE('',#1115,#542);
#447=LINE('',#1118,#543);
#448=LINE('',#1120,#544);
#449=LINE('',#1122,#545);
#450=LINE('',#1124,#546);
#451=LINE('',#1126,#547);
#452=LINE('',#1129,#548);
#453=LINE('',#1131,#549);
#454=LINE('',#1133,#550);
#455=LINE('',#1135,#551);
#456=LINE('',#1137,#552);
#457=LINE('',#1140,#553);
#458=LINE('',#1142,#554);
#459=LINE('',#1144,#555);
#460=LINE('',#1146,#556);
#461=LINE('',#1148,#557);
#462=LINE('',#1150,#558);
#463=LINE('',#1152,#559);
#464=LINE('',#1154,#560);
#465=VECTOR('',#793,1.);
#466=VECTOR('',#794,1.);
#467=VECTOR('',#795,1.);
#468=VECTOR('',#796,1.);
#469=VECTOR('',#797,1.);
#470=VECTOR('',#798,1.);
#471=VECTOR('',#799,1.);
#472=VECTOR('',#800,1.);
#473=VECTOR('',#801,1.);
#474=VECTOR('',#802,1.);
#475=VECTOR('',#803,1.);
#476=VECTOR('',#804,1.);
#477=VECTOR('',#807,1.);
#478=VECTOR('',#808,1.);
#479=VECTOR('',#809,1.);
#480=VECTOR('',#810,1.);
#481=VECTOR('',#811,1.);
#482=VECTOR('',#812,1.);
#483=VECTOR('',#813,1.);
#484=VECTOR('',#816,1.);
#485=VECTOR('',#817,1.);
#486=VECTOR('',#818,1.);
#487=VECTOR('',#819,1.);
#488=VECTOR('',#820,1.);
#489=VECTOR('',#821,1.);
#490=VECTOR('',#824,1.);
#491=VECTOR('',#825,1.);
#492=VECTOR('',#826,1.);
#493=VECTOR('',#827,1.);
#494=VECTOR('',#828,1.);
#495=VECTOR('',#829,1.);
#496=VECTOR('',#832,1.);
#497=VECTOR('',#833,1.);
#498=VECTOR('',#834,1.);
#499=VECTOR('',#835,1.);
#500=VECTOR('',#836,1.);
#501=VECTOR('',#839,1.);
#502=VECTOR('',#840,1.);
#503=VECTOR('',#841,1.);
#504=VECTOR('',#842,1.);
#505=VECTOR('',#843,1.);
#506=VECTOR('',#844,1.);
#507=VECTOR('',#845,1.);
#508=VECTOR('',#846,1.);
#509=VECTOR('',#847,1.);
#510=VECTOR('',#848,1.);
#511=VECTOR('',#849,1.);
#512=VECTOR('',#850,1.);
#513=VECTOR('',#851,1.);
#514=VECTOR('',#852,1.);
#515=VECTOR('',#853,1.);
#516=VECTOR('',#854,1.);
#517=VECTOR('',#855,1.);
#518=VECTOR('',#856,1.);
#519=VECTOR('',#857,1.);
#520=VECTOR('',#860,1.);
#521=VECTOR('',#861,1.);
#522=VECTOR('',#862,1.);
#523=VECTOR('',#865,1.);
#524=VECTOR('',#866,1.);
#525=VECTOR('',#869,1.);
#526=VECTOR('',#870,1.);
#527=VECTOR('',#873,1.);
#528=VECTOR('',#878,1.);
#529=VECTOR('',#879,1.);
#530=VECTOR('',#882,1.);
#531=VECTOR('',#883,1.);
#532=VECTOR('',#886,1.);
#533=VECTOR('',#891,1.);
#534=VECTOR('',#892,1.);
#535=VECTOR('',#895,1.);
#536=VECTOR('',#896,1.);
#537=VECTOR('',#899,1.);
#538=VECTOR('',#904,1.);
#539=VECTOR('',#905,1.);
#540=VECTOR('',#908,1.);
#541=VECTOR('',#909,1.);
#542=VECTOR('',#912,1.);
#543=VECTOR('',#917,1.);
#544=VECTOR('',#918,1.);
#545=VECTOR('',#921,1.);
#546=VECTOR('',#922,1.);
#547=VECTOR('',#925,1.);
#548=VECTOR('',#930,1.);
#549=VECTOR('',#931,1.);
#550=VECTOR('',#934,1.);
#551=VECTOR('',#935,1.);
#552=VECTOR('',#938,1.);
#553=VECTOR('',#943,1.);
#554=VECTOR('',#944,1.);
#555=VECTOR('',#945,1.);
#556=VECTOR('',#948,1.);
#557=VECTOR('',#949,1.);
#558=VECTOR('',#952,1.);
#559=VECTOR('',#953,1.);
#560=VECTOR('',#956,1.);
#561=EDGE_LOOP('',(#17,#18,#19,#20,#21,#22,#23,#24,#25,#26,#27,#28));
#562=EDGE_LOOP('',(#29,#30,#31,#32));
#563=EDGE_LOOP('',(#33,#34,#35,#36));
#564=EDGE_LOOP('',(#37,#38,#39,#40,#41,#42,#43,#44));
#565=EDGE_LOOP('',(#45,#46,#47,#48,#49,#50,#51,#52));
#566=EDGE_LOOP('',(#53,#54,#55,#56,#57,#58,#59,#60));
#567=EDGE_LOOP('',(#61,#62,#63,#64));
#568=EDGE_LOOP('',(#65,#66,#67,#68,#69,#70,#71,#72,#73,#74,#75,#76,#77,
#78,#79,#80,#81,#82,#83,#84,#85,#86,#87,#88));
#569=EDGE_LOOP('',(#89,#90,#91,#92));
#570=EDGE_LOOP('',(#93,#94,#95,#96));
#571=EDGE_LOOP('',(#97,#98,#99,#100));
#572=EDGE_LOOP('',(#101,#102,#103,#104));
#573=EDGE_LOOP('',(#105,#106,#107,#108));
#574=EDGE_LOOP('',(#109,#110,#111,#112));
#575=EDGE_LOOP('',(#113,#114,#115,#116));
#576=EDGE_LOOP('',(#117,#118,#119,#120));
#577=EDGE_LOOP('',(#121,#122,#123,#124));
#578=EDGE_LOOP('',(#125,#126,#127,#128));
#579=EDGE_LOOP('',(#129,#130,#131,#132));
#580=EDGE_LOOP('',(#133,#134,#135,#136));
#581=EDGE_LOOP('',(#137,#138,#139,#140));
#582=EDGE_LOOP('',(#141,#142,#143,#144));
#583=EDGE_LOOP('',(#145,#146,#147,#148));
#584=EDGE_LOOP('',(#149,#150,#151,#152));
#585=EDGE_LOOP('',(#153,#154,#155,#156));
#586=EDGE_LOOP('',(#157,#158,#159,#160));
#587=EDGE_LOOP('',(#161,#162,#163,#164));
#588=EDGE_LOOP('',(#165,#166,#167,#168));
#589=EDGE_LOOP('',(#169,#170,#171,#172));
#590=EDGE_LOOP('',(#173,#174,#175,#176));
#591=EDGE_LOOP('',(#177,#178,#179,#180));
#592=EDGE_LOOP('',(#181,#182,#183,#184));
#593=EDGE_LOOP('',(#185,#186,#187,#188));
#594=EDGE_LOOP('',(#189,#190,#191,#192));
#595=EDGE_LOOP('',(#193,#194,#195,#196));
#596=EDGE_LOOP('',(#197,#198,#199,#200));
#597=EDGE_LOOP('',(#201,#202,#203,#204));
#598=EDGE_LOOP('',(#205,#206,#207,#208));
#599=FACE_BOUND('',#561,.T.);
#600=FACE_BOUND('',#562,.T.);
#601=FACE_BOUND('',#563,.T.);
#602=FACE_BOUND('',#564,.T.);
#603=FACE_BOUND('',#565,.T.);
#604=FACE_BOUND('',#566,.T.);
#605=FACE_BOUND('',#567,.T.);
#606=FACE_BOUND('',#568,.T.);
#607=FACE_BOUND('',#569,.T.);
#608=FACE_BOUND('',#570,.T.);
#609=FACE_BOUND('',#571,.T.);
#610=FACE_BOUND('',#572,.T.);
#611=FACE_BOUND('',#573,.T.);
#612=FACE_BOUND('',#574,.T.);
#613=FACE_BOUND('',#575,.T.);
#614=FACE_BOUND('',#576,.T.);
#615=FACE_BOUND('',#577,.T.);
#616=FACE_BOUND('',#578,.T.);
#617=FACE_BOUND('',#579,.T.);
#618=FACE_BOUND('',#580,.T.);
#619=FACE_BOUND('',#581,.T.);
#620=FACE_BOUND('',#582,.T.);
#621=FACE_BOUND('',#583,.T.);
#622=FACE_BOUND('',#584,.T.);
#623=FACE_BOUND('',#585,.T.);
#624=FACE_BOUND('',#586,.T.);
#625=FACE_BOUND('',#587,.T.);
#626=FACE_BOUND('',#588,.T.);
#627=FACE_BOUND('',#589,.T.);
#628=FACE_BOUND('',#590,.T.);
#629=FACE_BOUND('',#591,.T.);
#630=FACE_BOUND('',#592,.T.);
#631=FACE_BOUND('',#593,.T.);
#632=FACE_BOUND('',#594,.T.);
#633=FACE_BOUND('',#595,.T.);
#634=FACE_BOUND('',#596,.T.);
#635=FACE_BOUND('',#597,.T.);
#636=FACE_BOUND('',#598,.T.);
#637=PLANE('',#753);
#638=PLANE('',#754);
#639=PLANE('',#755);
#640=PLANE('',#756);
#641=PLANE('',#757);
#642=PLANE('',#758);
#643=PLANE('',#759);
#644=PLANE('',#760);
#645=PLANE('',#761);
#646=PLANE('',#762);
#647=PLANE('',#763);
#648=PLANE('',#764);
#649=PLANE('',#765);
#650=PLANE('',#766);
#651=PLANE('',#767);
#652=PLANE('',#768);
#653=PLANE('',#769);
#654=PLANE('',#770);
#655=PLANE('',#771);
#656=PLANE('',#772);
#657=PLANE('',#773);
#658=PLANE('',#774);
#659=PLANE('',#775);
#660=PLANE('',#776);
#661=PLANE('',#777);
#662=PLANE('',#778);
#663=PLANE('',#779);
#664=PLANE('',#780);
#665=PLANE('',#781);
#666=PLANE('',#782);
#667=PLANE('',#783);
#668=PLANE('',#784);
#669=PLANE('',#785);
#670=PLANE('',#786);
#671=PLANE('',#787);
#672=PLANE('',#788);
#673=ADVANCED_FACE('',(#599),#637,.F.);
#674=ADVANCED_FACE('',(#600,#601),#638,.T.);
#675=ADVANCED_FACE('',(#602),#639,.T.);
#676=ADVANCED_FACE('',(#603),#640,.F.);
#677=ADVANCED_FACE('',(#604),#641,.T.);
#678=ADVANCED_FACE('',(#605,#606),#642,.F.);
#679=ADVANCED_FACE('Face appearance 1',(#607),#643,.T.);
#680=ADVANCED_FACE('Face appearance 1',(#608),#644,.F.);
#681=ADVANCED_FACE('Face appearance 1',(#609),#645,.F.);
#682=ADVANCED_FACE('Face appearance 1',(#610),#646,.T.);
#683=ADVANCED_FACE('Face appearance 1',(#611),#647,.T.);
#684=ADVANCED_FACE('',(#612),#648,.F.);
#685=ADVANCED_FACE('',(#613),#649,.T.);
#686=ADVANCED_FACE('',(#614),#650,.F.);
#687=ADVANCED_FACE('',(#615),#651,.F.);
#688=ADVANCED_FACE('',(#616),#652,.T.);
#689=ADVANCED_FACE('',(#617),#653,.T.);
#690=ADVANCED_FACE('',(#618),#654,.F.);
#691=ADVANCED_FACE('',(#619),#655,.F.);
#692=ADVANCED_FACE('',(#620),#656,.F.);
#693=ADVANCED_FACE('',(#621),#657,.T.);
#694=ADVANCED_FACE('',(#622),#658,.F.);
#695=ADVANCED_FACE('',(#623),#659,.F.);
#696=ADVANCED_FACE('',(#624),#660,.F.);
#697=ADVANCED_FACE('',(#625),#661,.T.);
#698=ADVANCED_FACE('',(#626),#662,.F.);
#699=ADVANCED_FACE('',(#627),#663,.F.);
#700=ADVANCED_FACE('',(#628),#664,.T.);
#701=ADVANCED_FACE('',(#629),#665,.F.);
#702=ADVANCED_FACE('',(#630),#666,.T.);
#703=ADVANCED_FACE('',(#631),#667,.T.);
#704=ADVANCED_FACE('',(#632),#668,.T.);
#705=ADVANCED_FACE('',(#633),#669,.F.);
#706=ADVANCED_FACE('',(#634),#670,.F.);
#707=ADVANCED_FACE('',(#635),#671,.T.);
#708=ADVANCED_FACE('',(#636),#672,.T.);
#709=CLOSED_SHELL('',(#673,#674,#675,#676,#677,#678,#679,#680,#681,#682,
#683,#684,#685,#686,#687,#688,#689,#690,#691,#692,#693,#694,#695,#696,#697,
#698,#699,#700,#701,#702,#703,#704,#705,#706,#707,#708));
#710=STYLED_ITEM('',(#711),#749);
#711=PRESENTATION_STYLE_ASSIGNMENT((#717));
#712=PRESENTATION_STYLE_ASSIGNMENT((#718));
#713=PRESENTATION_STYLE_ASSIGNMENT((#719));
#714=PRESENTATION_STYLE_ASSIGNMENT((#720));
#715=PRESENTATION_STYLE_ASSIGNMENT((#721));
#716=PRESENTATION_STYLE_ASSIGNMENT((#722));
#717=SURFACE_STYLE_USAGE(.BOTH.,#723);
#718=SURFACE_STYLE_USAGE(.BOTH.,#724);
#719=SURFACE_STYLE_USAGE(.BOTH.,#725);
#720=SURFACE_STYLE_USAGE(.BOTH.,#726);
#721=SURFACE_STYLE_USAGE(.BOTH.,#727);
#722=SURFACE_STYLE_USAGE(.BOTH.,#728);
#723=SURFACE_SIDE_STYLE('',(#729));
#724=SURFACE_SIDE_STYLE('',(#730));
#725=SURFACE_SIDE_STYLE('',(#731));
#726=SURFACE_SIDE_STYLE('',(#732));
#727=SURFACE_SIDE_STYLE('',(#733));
#728=SURFACE_SIDE_STYLE('',(#734));
#729=SURFACE_STYLE_FILL_AREA(#735);
#730=SURFACE_STYLE_FILL_AREA(#736);
#731=SURFACE_STYLE_FILL_AREA(#737);
#732=SURFACE_STYLE_FILL_AREA(#738);
#733=SURFACE_STYLE_FILL_AREA(#739);
#734=SURFACE_STYLE_FILL_AREA(#740);
#735=FILL_AREA_STYLE('',(#741));
#736=FILL_AREA_STYLE('',(#742));
#737=FILL_AREA_STYLE('',(#743));
#738=FILL_AREA_STYLE('',(#744));
#739=FILL_AREA_STYLE('',(#745));
#740=FILL_AREA_STYLE('',(#746));
#741=FILL_AREA_STYLE_COLOUR('',#747);
#742=FILL_AREA_STYLE_COLOUR('',#748);
#743=FILL_AREA_STYLE_COLOUR('',#748);
#744=FILL_AREA_STYLE_COLOUR('',#748);
#745=FILL_AREA_STYLE_COLOUR('',#748);
#746=FILL_AREA_STYLE_COLOUR('',#748);
#747=COLOUR_RGB('',0.647058823529412,0.647058823529412,0.647058823529412);
#748=COLOUR_RGB('',0.0627450980392157,0.266666666666666,0.490196078431373);
#749=MANIFOLD_SOLID_BREP('9.7in AMOLED',#709);
#750=SHAPE_DEFINITION_REPRESENTATION(#1162,#751);
#751=SHAPE_REPRESENTATION('9.7in AMOLED',(#752),#1157);
#752=AXIS2_PLACEMENT_3D('',#959,#789,#790);
#753=AXIS2_PLACEMENT_3D('',#960,#791,#792);
#754=AXIS2_PLACEMENT_3D('',#985,#805,#806);
#755=AXIS2_PLACEMENT_3D('',#999,#814,#815);
#756=AXIS2_PLACEMENT_3D('',#1011,#822,#823);
#757=AXIS2_PLACEMENT_3D('',#1023,#830,#831);
#758=AXIS2_PLACEMENT_3D('',#1033,#837,#838);
#759=AXIS2_PLACEMENT_3D('',#1067,#858,#859);
#760=AXIS2_PLACEMENT_3D('',#1073,#863,#864);
#761=AXIS2_PLACEMENT_3D('',#1077,#867,#868);
#762=AXIS2_PLACEMENT_3D('',#1081,#871,#872);
#763=AXIS2_PLACEMENT_3D('',#1083,#874,#875);
#764=AXIS2_PLACEMENT_3D('',#1084,#876,#877);
#765=AXIS2_PLACEMENT_3D('',#1088,#880,#881);
#766=AXIS2_PLACEMENT_3D('',#1092,#884,#885);
#767=AXIS2_PLACEMENT_3D('',#1094,#887,#888);
#768=AXIS2_PLACEMENT_3D('',#1095,#889,#890);
#769=AXIS2_PLACEMENT_3D('',#1099,#893,#894);
#770=AXIS2_PLACEMENT_3D('',#1103,#897,#898);
#771=AXIS2_PLACEMENT_3D('',#1105,#900,#901);
#772=AXIS2_PLACEMENT_3D('',#1106,#902,#903);
#773=AXIS2_PLACEMENT_3D('',#1110,#906,#907);
#774=AXIS2_PLACEMENT_3D('',#1114,#910,#911);
#775=AXIS2_PLACEMENT_3D('',#1116,#913,#914);
#776=AXIS2_PLACEMENT_3D('',#1117,#915,#916);
#777=AXIS2_PLACEMENT_3D('',#1121,#919,#920);
#778=AXIS2_PLACEMENT_3D('',#1125,#923,#924);
#779=AXIS2_PLACEMENT_3D('',#1127,#926,#927);
#780=AXIS2_PLACEMENT_3D('',#1128,#928,#929);
#781=AXIS2_PLACEMENT_3D('',#1132,#932,#933);
#782=AXIS2_PLACEMENT_3D('',#1136,#936,#937);
#783=AXIS2_PLACEMENT_3D('',#1138,#939,#940);
#784=AXIS2_PLACEMENT_3D('',#1139,#941,#942);
#785=AXIS2_PLACEMENT_3D('',#1145,#946,#947);
#786=AXIS2_PLACEMENT_3D('',#1149,#950,#951);
#787=AXIS2_PLACEMENT_3D('',#1153,#954,#955);
#788=AXIS2_PLACEMENT_3D('',#1155,#957,#958);
#789=DIRECTION('',(0.,0.,1.));
#790=DIRECTION('',(1.,0.,0.));
#791=DIRECTION('',(1.,0.,-1.6326809185664E-16));
#792=DIRECTION('',(-1.6326809185664E-16,0.,-1.));
#793=DIRECTION('',(0.,1.,0.));
#794=DIRECTION('',(-1.6326809185664E-16,0.,-1.));
#795=DIRECTION('',(0.,1.,0.));
#796=DIRECTION('',(-1.6326809185664E-16,0.,-1.));
#797=DIRECTION('',(0.,1.,0.));
#798=DIRECTION('',(-1.6326809185664E-16,0.,-1.));
#799=DIRECTION('',(0.,1.,0.));
#800=DIRECTION('',(-1.6326809185664E-16,0.,-1.));
#801=DIRECTION('',(0.,1.,0.));
#802=DIRECTION('',(-1.6326809185664E-16,0.,-1.));
#803=DIRECTION('',(0.,1.,0.));
#804=DIRECTION('',(-1.6326809185664E-16,0.,-1.));
#805=DIRECTION('',(0.,-1.,0.));
#806=DIRECTION('',(1.,0.,0.));
#807=DIRECTION('',(1.,0.,0.));
#808=DIRECTION('',(1.,0.,0.));
#809=DIRECTION('',(-1.6326809185664E-16,0.,-1.));
#810=DIRECTION('',(9.13012355777267E-17,0.,-1.));
#811=DIRECTION('',(1.,0.,0.));
#812=DIRECTION('',(9.13012355777267E-17,0.,-1.));
#813=DIRECTION('',(1.,0.,0.));
#814=DIRECTION('',(0.,0.,1.));
#815=DIRECTION('',(1.,0.,0.));
#816=DIRECTION('',(0.,1.,0.));
#817=DIRECTION('',(1.,0.,0.));
#818=DIRECTION('',(0.,1.,0.));
#819=DIRECTION('',(1.,0.,0.));
#820=DIRECTION('',(0.,1.,0.));
#821=DIRECTION('',(1.,0.,0.));
#822=DIRECTION('',(0.,0.,1.));
#823=DIRECTION('',(1.,0.,0.));
#824=DIRECTION('',(1.,0.,0.));
#825=DIRECTION('',(0.,-1.,0.));
#826=DIRECTION('',(1.,0.,0.));
#827=DIRECTION('',(0.,-1.,0.));
#828=DIRECTION('',(1.,0.,0.));
#829=DIRECTION('',(0.,1.,0.));
#830=DIRECTION('',(1.,0.,-1.6326809185664E-16));
#831=DIRECTION('',(-1.6326809185664E-16,0.,-1.));
#832=DIRECTION('',(0.,1.,0.));
#833=DIRECTION('',(-1.6326809185664E-16,0.,-1.));
#834=DIRECTION('',(0.,1.,0.));
#835=DIRECTION('',(-1.6326809185664E-16,0.,-1.));
#836=DIRECTION('',(-1.6326809185664E-16,0.,-1.));
#837=DIRECTION('',(0.,-1.,0.));
#838=DIRECTION('',(1.,0.,0.));
#839=DIRECTION('',(-1.,0.,0.));
#840=DIRECTION('',(3.46944695195362E-16,0.,1.));
#841=DIRECTION('',(-1.,0.,3.9202790417555E-16));
#842=DIRECTION('',(0.,0.,1.));
#843=DIRECTION('',(0.,0.,1.));
#844=DIRECTION('',(-1.,0.,0.));
#845=DIRECTION('',(0.,0.,1.));
#846=DIRECTION('',(-1.,0.,0.));
#847=DIRECTION('',(0.,0.,1.));
#848=DIRECTION('',(-1.,0.,0.));
#849=DIRECTION('',(-1.,0.,0.));
#850=DIRECTION('',(0.,0.,-1.));
#851=DIRECTION('',(-1.,0.,0.));
#852=DIRECTION('',(0.,0.,1.));
#853=DIRECTION('',(-1.,0.,0.));
#854=DIRECTION('',(0.,0.,1.));
#855=DIRECTION('',(1.,0.,0.));
#856=DIRECTION('',(0.,0.,1.));
#857=DIRECTION('',(1.,0.,0.));
#858=DIRECTION('',(0.,0.,-1.));
#859=DIRECTION('',(-1.,0.,0.));
#860=DIRECTION('',(0.,-1.,0.));
#861=DIRECTION('',(1.,0.,0.));
#862=DIRECTION('',(0.,-1.,0.));
#863=DIRECTION('',(-1.,0.,-9.13012355777267E-17));
#864=DIRECTION('',(-9.13012355777267E-17,0.,1.));
#865=DIRECTION('',(0.,-1.,0.));
#866=DIRECTION('',(9.13012355777267E-17,0.,-1.));
#867=DIRECTION('',(0.,0.,-1.));
#868=DIRECTION('',(-1.,0.,0.));
#869=DIRECTION('',(0.,-1.,0.));
#870=DIRECTION('',(1.,0.,0.));
#871=DIRECTION('',(-1.,0.,-9.13012355777267E-17));
#872=DIRECTION('',(-9.13012355777267E-17,0.,1.));
#873=DIRECTION('',(9.13012355777267E-17,0.,-1.));
#874=DIRECTION('',(0.,-1.,0.));
#875=DIRECTION('',(1.,0.,0.));
#876=DIRECTION('',(0.,0.,1.));
#877=DIRECTION('',(1.,0.,0.));
#878=DIRECTION('',(0.,1.,0.));
#879=DIRECTION('',(1.,0.,0.));
#880=DIRECTION('',(0.,0.,1.));
#881=DIRECTION('',(1.,0.,0.));
#882=DIRECTION('',(1.,0.,0.));
#883=DIRECTION('',(0.,1.,0.));
#884=DIRECTION('',(-1.,0.,0.));
#885=DIRECTION('',(0.,0.,1.));
#886=DIRECTION('',(0.,0.,1.));
#887=DIRECTION('',(0.,1.,0.));
#888=DIRECTION('',(-1.,0.,0.));
#889=DIRECTION('',(0.,0.,-1.));
#890=DIRECTION('',(-1.,0.,0.));
#891=DIRECTION('',(-1.,0.,0.));
#892=DIRECTION('',(0.,1.,0.));
#893=DIRECTION('',(-1.,0.,0.));
#894=DIRECTION('',(0.,0.,1.));
#895=DIRECTION('',(0.,0.,1.));
#896=DIRECTION('',(0.,1.,0.));
#897=DIRECTION('',(0.,0.,-1.));
#898=DIRECTION('',(-1.,0.,0.));
#899=DIRECTION('',(-1.,0.,0.));
#900=DIRECTION('',(0.,1.,0.));
#901=DIRECTION('',(-1.,0.,0.));
#902=DIRECTION('',(0.,0.,-1.));
#903=DIRECTION('',(-1.,0.,0.));
#904=DIRECTION('',(0.,1.,0.));
#905=DIRECTION('',(-1.,0.,0.));
#906=DIRECTION('',(0.,0.,-1.));
#907=DIRECTION('',(-1.,0.,0.));
#908=DIRECTION('',(-1.,0.,0.));
#909=DIRECTION('',(0.,1.,0.));
#910=DIRECTION('',(1.,0.,0.));
#911=DIRECTION('',(0.,0.,-1.));
#912=DIRECTION('',(0.,0.,-1.));
#913=DIRECTION('',(0.,1.,0.));
#914=DIRECTION('',(-1.,0.,0.));
#915=DIRECTION('',(-1.,0.,0.));
#916=DIRECTION('',(0.,0.,1.));
#917=DIRECTION('',(0.,1.,0.));
#918=DIRECTION('',(0.,0.,1.));
#919=DIRECTION('',(-1.,0.,0.));
#920=DIRECTION('',(0.,0.,1.));
#921=DIRECTION('',(0.,0.,1.));
#922=DIRECTION('',(0.,1.,0.));
#923=DIRECTION('',(0.,0.,-1.));
#924=DIRECTION('',(-1.,0.,0.));
#925=DIRECTION('',(-1.,0.,0.));
#926=DIRECTION('',(0.,1.,0.));
#927=DIRECTION('',(-1.,0.,0.));
#928=DIRECTION('',(1.,0.,0.));
#929=DIRECTION('',(0.,0.,-1.));
#930=DIRECTION('',(0.,0.,1.));
#931=DIRECTION('',(0.,-1.,0.));
#932=DIRECTION('',(1.,0.,0.));
#933=DIRECTION('',(0.,0.,-1.));
#934=DIRECTION('',(0.,-1.,0.));
#935=DIRECTION('',(0.,0.,1.));
#936=DIRECTION('',(0.,0.,1.));
#937=DIRECTION('',(1.,0.,0.));
#938=DIRECTION('',(-1.,0.,0.));
#939=DIRECTION('',(0.,1.,0.));
#940=DIRECTION('',(-1.,0.,0.));
#941=DIRECTION('',(1.,0.,-3.46944695195362E-16));
#942=DIRECTION('',(-3.46944695195362E-16,0.,-1.));
#943=DIRECTION('',(0.,-1.,0.));
#944=DIRECTION('',(3.46944695195362E-16,0.,1.));
#945=DIRECTION('',(0.,-1.,0.));
#946=DIRECTION('',(0.,0.,1.));
#947=DIRECTION('',(1.,0.,0.));
#948=DIRECTION('',(0.,-1.,0.));
#949=DIRECTION('',(-1.,0.,0.));
#950=DIRECTION('',(1.,0.,0.));
#951=DIRECTION('',(0.,0.,-1.));
#952=DIRECTION('',(0.,-1.,0.));
#953=DIRECTION('',(0.,0.,1.));
#954=DIRECTION('',(3.9202790417555E-16,0.,1.));
#955=DIRECTION('',(1.,0.,-3.9202790417555E-16));
#956=DIRECTION('',(-1.,0.,3.9202790417555E-16));
#957=DIRECTION('',(0.,1.,0.));
#958=DIRECTION('',(-1.,0.,0.));
#959=CARTESIAN_POINT('',(0.,0.,0.));
#960=CARTESIAN_POINT('',(-0.1055,-0.003,1.38777878078145E-17));
#961=CARTESIAN_POINT('',(-0.1055,-0.0015,0.0823));
#962=CARTESIAN_POINT('',(-0.1055,-0.0015,0.0823));
#963=CARTESIAN_POINT('',(-0.1055,0.,0.0823));
#964=CARTESIAN_POINT('',(-0.1055,-0.0015,1.38777878078145E-17));
#965=CARTESIAN_POINT('',(-0.1055,-0.0015,0.07555));
#966=CARTESIAN_POINT('',(-0.1055,-0.0015,0.07555));
#967=CARTESIAN_POINT('',(-0.1055,0.,0.07555));
#968=CARTESIAN_POINT('',(-0.1055,0.,1.38777878078145E-17));
#969=CARTESIAN_POINT('',(-0.1055,0.,-0.076));
#970=CARTESIAN_POINT('',(-0.1055,-0.0015,-0.076));
#971=CARTESIAN_POINT('',(-0.1055,-0.0015,-0.076));
#972=CARTESIAN_POINT('',(-0.1055,-0.0015,1.38777878078145E-17));
#973=CARTESIAN_POINT('',(-0.1055,-0.0015,-0.08275));
#974=CARTESIAN_POINT('',(-0.1055,-0.0015,-0.08275));
#975=CARTESIAN_POINT('',(-0.1055,0.,-0.08275));
#976=CARTESIAN_POINT('',(-0.1055,0.,1.38777878078145E-17));
#977=CARTESIAN_POINT('',(-0.1055,0.,-0.085));
#978=CARTESIAN_POINT('',(-0.1055,-0.003,-0.085));
#979=CARTESIAN_POINT('',(-0.1055,-0.003,-0.085));
#980=CARTESIAN_POINT('',(-0.1055,-0.003,1.38777878078145E-17));
#981=CARTESIAN_POINT('',(-0.1055,-0.003,0.085));
#982=CARTESIAN_POINT('',(-0.1055,-0.003,0.085));
#983=CARTESIAN_POINT('',(-0.1055,0.,0.085));
#984=CARTESIAN_POINT('',(-0.1055,0.,1.38777878078145E-17));
#985=CARTESIAN_POINT('',(0.,-0.003,0.));
#986=CARTESIAN_POINT('',(1.38777878078145E-17,-0.003,0.085));
#987=CARTESIAN_POINT('',(0.1055,-0.003,0.085));
#988=CARTESIAN_POINT('',(-1.38777878078145E-17,-0.003,-0.085));
#989=CARTESIAN_POINT('',(0.1055,-0.003,-0.085));
#990=CARTESIAN_POINT('',(0.1055,-0.003,1.38777878078145E-17));
#991=CARTESIAN_POINT('',(-0.1005,-0.003,0.002));
#992=CARTESIAN_POINT('',(-0.1005,-0.003,0.078));
#993=CARTESIAN_POINT('',(-0.1005,-0.003,-0.074));
#994=CARTESIAN_POINT('',(-0.000499999999999987,-0.003,0.078));
#995=CARTESIAN_POINT('',(0.0995,-0.003,0.078));
#996=CARTESIAN_POINT('',(0.0995,-0.003,0.002));
#997=CARTESIAN_POINT('',(0.0995,-0.003,-0.074));
#998=CARTESIAN_POINT('',(-0.000499999999999973,-0.003,-0.074));
#999=CARTESIAN_POINT('',(1.38777878078145E-17,-0.003,0.085));
#1000=CARTESIAN_POINT('',(0.1025,-0.0015,0.085));
#1001=CARTESIAN_POINT('',(0.1025,-0.0015,0.085));
#1002=CARTESIAN_POINT('',(0.1025,0.,0.085));
#1003=CARTESIAN_POINT('',(1.38777878078145E-17,-0.0015,0.085));
#1004=CARTESIAN_POINT('',(0.09575,-0.0015,0.085));
#1005=CARTESIAN_POINT('',(0.09575,-0.0015,0.085));
#1006=CARTESIAN_POINT('',(0.09575,0.,0.085));
#1007=CARTESIAN_POINT('',(1.38777878078145E-17,0.,0.085));
#1008=CARTESIAN_POINT('',(0.1055,-0.003,0.085));
#1009=CARTESIAN_POINT('',(0.1055,0.,0.085));
#1010=CARTESIAN_POINT('',(1.38777878078145E-17,0.,0.085));
#1011=CARTESIAN_POINT('',(-1.38777878078145E-17,-0.003,-0.085));
#1012=CARTESIAN_POINT('',(-1.38777878078145E-17,0.,-0.085));
#1013=CARTESIAN_POINT('',(-0.0797,0.,-0.085));
#1014=CARTESIAN_POINT('',(-0.0797,0.00215,-0.085));
#1015=CARTESIAN_POINT('',(-0.0797,0.00215,-0.085));
#1016=CARTESIAN_POINT('',(-1.38777878078145E-17,0.00215,-0.085));
#1017=CARTESIAN_POINT('',(0.0809,0.00215,-0.085));
#1018=CARTESIAN_POINT('',(0.0809,0.00215,-0.085));
#1019=CARTESIAN_POINT('',(0.0809,0.,-0.085));
#1020=CARTESIAN_POINT('',(-1.38777878078145E-17,0.,-0.085));
#1021=CARTESIAN_POINT('',(0.1055,0.,-0.085));
#1022=CARTESIAN_POINT('',(0.1055,-0.003,-0.085));
#1023=CARTESIAN_POINT('',(0.1055,-0.003,1.38777878078145E-17));
#1024=CARTESIAN_POINT('',(0.1055,-0.0015,-0.0819));
#1025=CARTESIAN_POINT('',(0.1055,-0.0015,-0.0819));
#1026=CARTESIAN_POINT('',(0.1055,0.,-0.0819));
#1027=CARTESIAN_POINT('',(0.1055,-0.0015,1.38777878078145E-17));
#1028=CARTESIAN_POINT('',(0.1055,-0.0015,-0.07515));
#1029=CARTESIAN_POINT('',(0.1055,-0.0015,-0.07515));
#1030=CARTESIAN_POINT('',(0.1055,0.,-0.07515));
#1031=CARTESIAN_POINT('',(0.1055,0.,1.38777878078145E-17));
#1032=CARTESIAN_POINT('',(0.1055,0.,1.38777878078145E-17));
#1033=CARTESIAN_POINT('',(0.,0.,0.));
#1034=CARTESIAN_POINT('',(-0.03535,0.,-0.068));
#1035=CARTESIAN_POINT('',(-0.0265,0.,-0.068));
#1036=CARTESIAN_POINT('',(-0.0442,0.,-0.068));
#1037=CARTESIAN_POINT('',(-0.0265,0.,-0.063));
#1038=CARTESIAN_POINT('',(-0.0265,0.,-0.058));
#1039=CARTESIAN_POINT('',(-0.03535,0.,-0.058));
#1040=CARTESIAN_POINT('',(-0.0442,0.,-0.058));
#1041=CARTESIAN_POINT('',(-0.0442,0.,-0.063));
#1042=CARTESIAN_POINT('',(0.0809,0.,-0.079));
#1043=CARTESIAN_POINT('',(0.0809,0.,-0.073));
#1044=CARTESIAN_POINT('',(0.000599999999999989,0.,-0.073));
#1045=CARTESIAN_POINT('',(-0.0797,0.,-0.073));
#1046=CARTESIAN_POINT('',(-0.0797,0.,-0.079));
#1047=CARTESIAN_POINT('',(-0.1073,0.,-0.08275));
#1048=CARTESIAN_POINT('',(-0.1091,0.,-0.08275));
#1049=CARTESIAN_POINT('',(-0.1091,0.,-0.079375));
#1050=CARTESIAN_POINT('',(-0.1091,0.,-0.076));
#1051=CARTESIAN_POINT('',(-0.1073,0.,-0.076));
#1052=CARTESIAN_POINT('',(-0.1073,0.,0.07555));
#1053=CARTESIAN_POINT('',(-0.1091,0.,0.07555));
#1054=CARTESIAN_POINT('',(-0.1091,0.,0.078925));
#1055=CARTESIAN_POINT('',(-0.1091,0.,0.0823));
#1056=CARTESIAN_POINT('',(-0.1073,0.,0.0823));
#1057=CARTESIAN_POINT('',(0.09575,0.,0.0868));
#1058=CARTESIAN_POINT('',(0.09575,0.,0.0886));
#1059=CARTESIAN_POINT('',(0.099125,0.,0.0886));
#1060=CARTESIAN_POINT('',(0.1025,0.,0.0886));
#1061=CARTESIAN_POINT('',(0.1025,0.,0.0868));
#1062=CARTESIAN_POINT('',(0.1073,0.,-0.07515));
#1063=CARTESIAN_POINT('',(0.1091,0.,-0.07515));
#1064=CARTESIAN_POINT('',(0.1091,0.,-0.078525));
#1065=CARTESIAN_POINT('',(0.1091,0.,-0.0819));
#1066=CARTESIAN_POINT('',(0.1073,0.,-0.0819));
#1067=CARTESIAN_POINT('',(-0.000499999999999987,-0.0028,0.078));
#1068=CARTESIAN_POINT('',(-0.1005,-0.0028,0.078));
#1069=CARTESIAN_POINT('',(-0.1005,-0.0028,0.078));
#1070=CARTESIAN_POINT('',(-0.000499999999999987,-0.0028,0.078));
#1071=CARTESIAN_POINT('',(0.0995,-0.0028,0.078));
#1072=CARTESIAN_POINT('',(0.0995,-0.0028,0.078));
#1073=CARTESIAN_POINT('',(-0.1005,-0.0028,0.002));
#1074=CARTESIAN_POINT('',(-0.1005,-0.0028,-0.074));
#1075=CARTESIAN_POINT('',(-0.1005,-0.0028,-0.074));
#1076=CARTESIAN_POINT('',(-0.1005,-0.0028,0.002));
#1077=CARTESIAN_POINT('',(-0.000499999999999973,-0.0028,-0.074));
#1078=CARTESIAN_POINT('',(0.0995,-0.0028,-0.074));
#1079=CARTESIAN_POINT('',(0.0995,-0.0028,-0.074));
#1080=CARTESIAN_POINT('',(-0.000499999999999973,-0.0028,-0.074));
#1081=CARTESIAN_POINT('',(0.0995,-0.0028,0.002));
#1082=CARTESIAN_POINT('',(0.0995,-0.0028,0.002));
#1083=CARTESIAN_POINT('',(0.,-0.0028,0.));
#1084=CARTESIAN_POINT('',(0.1073,-0.0015,-0.0819));
#1085=CARTESIAN_POINT('',(0.1091,-0.0015,-0.0819));
#1086=CARTESIAN_POINT('',(0.1091,-0.0015,-0.0819));
#1087=CARTESIAN_POINT('',(0.1073,-0.0015,-0.0819));
#1088=CARTESIAN_POINT('',(0.1073,-0.0015,-0.07515));
#1089=CARTESIAN_POINT('',(0.1073,-0.0015,-0.07515));
#1090=CARTESIAN_POINT('',(0.1091,-0.0015,-0.07515));
#1091=CARTESIAN_POINT('',(0.1091,-0.0015,-0.07515));
#1092=CARTESIAN_POINT('',(0.1091,-0.0015,-0.078525));
#1093=CARTESIAN_POINT('',(0.1091,-0.0015,-0.078525));
#1094=CARTESIAN_POINT('',(-1.38777878078145E-17,-0.0015,0.0018));
#1095=CARTESIAN_POINT('',(-0.1073,-0.0015,-0.08275));
#1096=CARTESIAN_POINT('',(-0.1073,-0.0015,-0.08275));
#1097=CARTESIAN_POINT('',(-0.1091,-0.0015,-0.08275));
#1098=CARTESIAN_POINT('',(-0.1091,-0.0015,-0.08275));
#1099=CARTESIAN_POINT('',(-0.1091,-0.0015,-0.079375));
#1100=CARTESIAN_POINT('',(-0.1091,-0.0015,-0.079375));
#1101=CARTESIAN_POINT('',(-0.1091,-0.0015,-0.076));
#1102=CARTESIAN_POINT('',(-0.1091,-0.0015,-0.076));
#1103=CARTESIAN_POINT('',(-0.1073,-0.0015,-0.076));
#1104=CARTESIAN_POINT('',(-0.1073,-0.0015,-0.076));
#1105=CARTESIAN_POINT('',(-1.38777878078145E-17,-0.0015,0.0018));
#1106=CARTESIAN_POINT('',(-0.1073,-0.0015,0.0823));
#1107=CARTESIAN_POINT('',(-0.1091,-0.0015,0.0823));
#1108=CARTESIAN_POINT('',(-0.1091,-0.0015,0.0823));
#1109=CARTESIAN_POINT('',(-0.1073,-0.0015,0.0823));
#1110=CARTESIAN_POINT('',(-0.1073,-0.0015,0.07555));
#1111=CARTESIAN_POINT('',(-0.1073,-0.0015,0.07555));
#1112=CARTESIAN_POINT('',(-0.1091,-0.0015,0.07555));
#1113=CARTESIAN_POINT('',(-0.1091,-0.0015,0.07555));
#1114=CARTESIAN_POINT('',(-0.1091,-0.0015,0.078925));
#1115=CARTESIAN_POINT('',(-0.1091,-0.0015,0.078925));
#1116=CARTESIAN_POINT('',(-1.38777878078145E-17,-0.0015,0.0018));
#1117=CARTESIAN_POINT('',(0.1025,-0.0015,0.0868));
#1118=CARTESIAN_POINT('',(0.1025,-0.0015,0.0886));
#1119=CARTESIAN_POINT('',(0.1025,-0.0015,0.0886));
#1120=CARTESIAN_POINT('',(0.1025,-0.0015,0.0868));
#1121=CARTESIAN_POINT('',(0.09575,-0.0015,0.0868));
#1122=CARTESIAN_POINT('',(0.09575,-0.0015,0.0868));
#1123=CARTESIAN_POINT('',(0.09575,-0.0015,0.0886));
#1124=CARTESIAN_POINT('',(0.09575,-0.0015,0.0886));
#1125=CARTESIAN_POINT('',(0.099125,-0.0015,0.0886));
#1126=CARTESIAN_POINT('',(0.099125,-0.0015,0.0886));
#1127=CARTESIAN_POINT('',(-1.38777878078145E-17,-0.0015,0.0018));
#1128=CARTESIAN_POINT('',(0.0809,0.00215,-0.079));
#1129=CARTESIAN_POINT('',(0.0809,0.00215,-0.079));
#1130=CARTESIAN_POINT('',(0.0809,0.00215,-0.073));
#1131=CARTESIAN_POINT('',(0.0809,0.00215,-0.073));
#1132=CARTESIAN_POINT('',(-0.0797,0.00215,-0.079));
#1133=CARTESIAN_POINT('',(-0.0797,0.00215,-0.073));
#1134=CARTESIAN_POINT('',(-0.0797,0.00215,-0.073));
#1135=CARTESIAN_POINT('',(-0.0797,0.00215,-0.079));
#1136=CARTESIAN_POINT('',(0.000599999999999989,0.00215,-0.073));
#1137=CARTESIAN_POINT('',(0.000599999999999989,0.00215,-0.073));
#1138=CARTESIAN_POINT('',(-1.38777878078145E-17,0.00215,0.0018));
#1139=CARTESIAN_POINT('',(-0.0265,0.002,-0.063));
#1140=CARTESIAN_POINT('',(-0.0265,0.002,-0.068));
#1141=CARTESIAN_POINT('',(-0.0265,0.002,-0.068));
#1142=CARTESIAN_POINT('',(-0.0265,0.002,-0.063));
#1143=CARTESIAN_POINT('',(-0.0265,0.002,-0.058));
#1144=CARTESIAN_POINT('',(-0.0265,0.002,-0.058));
#1145=CARTESIAN_POINT('',(-0.03535,0.002,-0.068));
#1146=CARTESIAN_POINT('',(-0.0442,0.002,-0.068));
#1147=CARTESIAN_POINT('',(-0.0442,0.002,-0.068));
#1148=CARTESIAN_POINT('',(-0.03535,0.002,-0.068));
#1149=CARTESIAN_POINT('',(-0.0442,0.002,-0.063));
#1150=CARTESIAN_POINT('',(-0.0442,0.002,-0.058));
#1151=CARTESIAN_POINT('',(-0.0442,0.002,-0.058));
#1152=CARTESIAN_POINT('',(-0.0442,0.002,-0.063));
#1153=CARTESIAN_POINT('',(-0.03535,0.002,-0.058));
#1154=CARTESIAN_POINT('',(-0.03535,0.002,-0.058));
#1155=CARTESIAN_POINT('',(-1.38777878078145E-17,0.002,0.0018));
#1156=MECHANICAL_DESIGN_GEOMETRIC_PRESENTATION_REPRESENTATION('',(#710,
#12,#13,#14,#15,#16),#1157);
#1157=(
GEOMETRIC_REPRESENTATION_CONTEXT(3)
GLOBAL_UNCERTAINTY_ASSIGNED_CONTEXT((#1158))
GLOBAL_UNIT_ASSIGNED_CONTEXT((#1161,#1160,#1159))
REPRESENTATION_CONTEXT('9.7in AMOLED','TOP_LEVEL_ASSEMBLY_PART')
);
#1158=UNCERTAINTY_MEASURE_WITH_UNIT(LENGTH_MEASURE(1.E-8),#1161,
'DISTANCE_ACCURACY_VALUE','Maximum Tolerance applied to model');
#1159=(
NAMED_UNIT(*)
SI_UNIT($,.STERADIAN.)
SOLID_ANGLE_UNIT()
);
#1160=(
NAMED_UNIT(*)
PLANE_ANGLE_UNIT()
SI_UNIT($,.RADIAN.)
);
#1161=(
LENGTH_UNIT()
NAMED_UNIT(*)
SI_UNIT($,.METRE.)
);
#1162=PRODUCT_DEFINITION_SHAPE('','',#1163);
#1163=PRODUCT_DEFINITION('','',#1165,#1164);
#1164=PRODUCT_DEFINITION_CONTEXT('',#1171,'design');
#1165=PRODUCT_DEFINITION_FORMATION_WITH_SPECIFIED_SOURCE('','',#1167,
 .NOT_KNOWN.);
#1166=PRODUCT_RELATED_PRODUCT_CATEGORY('','',(#1167));
#1167=PRODUCT('9.7in AMOLED','9.7in AMOLED','9.7in AMOLED',(#1169));
#1168=PRODUCT_CATEGORY('','');
#1169=PRODUCT_CONTEXT('',#1171,'mechanical');
#1170=APPLICATION_PROTOCOL_DEFINITION('international standard',
'ap242_managed_model_based_3d_engineering',2020,#1171);
#1171=APPLICATION_CONTEXT('managed model based 3d engineering');
ENDSEC;
END-ISO-10303-21;
