ISO-10303-21;
HEADER;
/* Generated by software containing ST-Developer
 * from STEP Tools, Inc. (www.steptools.com) 
 */
/* OPTION: using custom renumber hook */

FILE_DESCRIPTION(
/* description */ ('STEP AP242 Edition 2',
'CAx-IF Rec.Pracs.---Representation and Presentation of Product Manufa
cturing Information (PMI)---4.0---2014-10-13',
'CAx-IF Rec.Pracs.---3D Tessellated Geometry---0.4---2014-09-14','2;1',
'CAx-IF Rec.Pracs.---User Defined Attributes---1.5---2016-08-15'),
/* implementation_level */ '2;1');

FILE_NAME(
/* name */ 'Swivel Base - Top',
/* time_stamp */ '2026-07-13T15:44:04Z',
/* author */ (''),
/* organization */ (''),
/* preprocessor_version */ 'ST-DEVELOPER v20',
/* originating_system */ 'ONSHAPE BY PTC INC, 1.217',
/* authorisation */ '  ');

FILE_SCHEMA (('AP242_MANAGED_MODEL_BASED_3D_ENGINEERING_MIM_LF { 1 0 10303 442 3 1 4 }'));
ENDSEC;

DATA;
#10=SHAPE_REPRESENTATION_RELATIONSHIP('','',#1045,#11);
#11=ADVANCED_BREP_SHAPE_REPRESENTATION('',(#1043),#1965);
#12=CONICAL_SURFACE('',#1162,0.00655,0.59159789372518);
#13=CONICAL_SURFACE('',#1169,0.00655,0.591597893725179);
#14=CONICAL_SURFACE('',#1171,0.00655,0.59159789372518);
#15=CONICAL_SURFACE('',#1177,0.00655,0.591597893725179);
#16=CONICAL_SURFACE('',#1182,0.006,0.358770670270572);
#17=CONICAL_SURFACE('',#1183,0.006,0.358770670270572);
#18=CONICAL_SURFACE('',#1184,0.006,0.358770670270572);
#19=CONICAL_SURFACE('',#1185,0.006,0.358770670270572);
#20=CYLINDRICAL_SURFACE('',#1095,0.0015);
#21=CYLINDRICAL_SURFACE('',#1097,0.00305);
#22=CYLINDRICAL_SURFACE('',#1099,0.0015);
#23=CYLINDRICAL_SURFACE('',#1101,0.00305);
#24=CYLINDRICAL_SURFACE('',#1103,0.0015);
#25=CYLINDRICAL_SURFACE('',#1105,0.00305);
#26=CYLINDRICAL_SURFACE('',#1107,0.0015);
#27=CYLINDRICAL_SURFACE('',#1109,0.00305);
#28=CYLINDRICAL_SURFACE('',#1121,0.0031);
#29=CYLINDRICAL_SURFACE('',#1123,0.0031);
#30=CYLINDRICAL_SURFACE('',#1124,0.002);
#31=CYLINDRICAL_SURFACE('',#1126,0.002);
#32=CYLINDRICAL_SURFACE('',#1128,0.002);
#33=CYLINDRICAL_SURFACE('',#1135,0.002);
#34=CYLINDRICAL_SURFACE('',#1137,0.002);
#35=CYLINDRICAL_SURFACE('',#1139,0.002);
#36=CYLINDRICAL_SURFACE('',#1141,0.002);
#37=CYLINDRICAL_SURFACE('',#1147,0.002);
#38=CYLINDRICAL_SURFACE('',#1149,0.006);
#39=CYLINDRICAL_SURFACE('',#1151,0.006);
#40=CYLINDRICAL_SURFACE('',#1156,0.006);
#41=CYLINDRICAL_SURFACE('',#1158,0.006);
#42=ELLIPSE('',#1080,0.00213877866030965,0.002);
#43=ELLIPSE('',#1081,0.00213877866030965,0.002);
#44=ELLIPSE('',#1082,0.00213877866030965,0.002);
#45=ELLIPSE('',#1083,0.00213877866030965,0.002);
#46=ELLIPSE('',#1163,0.0643590579711855,0.0206035412399833);
#47=ELLIPSE('',#1164,0.0643590579711851,0.0206035412399833);
#48=ELLIPSE('',#1166,0.0643590579711849,0.0206035412399833);
#49=ELLIPSE('',#1168,0.0643590579711855,0.0206035412399833);
#50=ELLIPSE('',#1170,0.0643590579711854,0.0206035412399833);
#51=ELLIPSE('',#1172,0.0643590579711852,0.0206035412399833);
#52=ELLIPSE('',#1174,0.0643590579711854,0.0206035412399833);
#53=ELLIPSE('',#1176,0.0643590579711849,0.0206035412399833);
#54=B_SPLINE_CURVE_WITH_KNOTS('',3,(#1557,#1558,#1559,#1560,#1561,#1562,
#1563,#1564,#1565),.UNSPECIFIED.,.F.,.F.,(4,1,1,1,1,1,4),(2.17641966761446E-7,
0.00255047099900627,0.00382559767752603,0.00510072435604579,0.00637585103456554,
0.0076509777130853,0.0102012310701248),.UNSPECIFIED.);
#55=B_SPLINE_CURVE_WITH_KNOTS('',3,(#1570,#1571,#1572,#1573,#1574,#1575,
#1576,#1577,#1578),.UNSPECIFIED.,.F.,.F.,(4,1,1,1,1,1,4),(2.17641966761446E-7,
0.00255047099900628,0.00382559767752603,0.00510072435604579,0.00637585103456555,
0.00765097771308531,0.0102012310701248),.UNSPECIFIED.);
#56=B_SPLINE_CURVE_WITH_KNOTS('',3,(#1595,#1596,#1597,#1598,#1599),
 .UNSPECIFIED.,.F.,.F.,(4,1,4),(0.,0.00479110723440335,0.0095822144688067),
 .UNSPECIFIED.);
#57=B_SPLINE_CURVE_WITH_KNOTS('',3,(#1603,#1604,#1605,#1606,#1607),
 .UNSPECIFIED.,.F.,.F.,(4,1,4),(0.,0.00479110723440323,0.00958221446880647),
 .UNSPECIFIED.);
#58=B_SPLINE_CURVE_WITH_KNOTS('',3,(#1611,#1612,#1613,#1614,#1615,#1616,
#1617,#1618,#1619),.UNSPECIFIED.,.F.,.F.,(4,1,1,1,1,1,4),(2.1416270772097E-7,
0.00252802881092783,0.00379193613503789,0.00505584345914795,0.006319750783258,
0.00758365810736806,0.0101114727555882),.UNSPECIFIED.);
#59=B_SPLINE_CURVE_WITH_KNOTS('',3,(#1623,#1624,#1625,#1626,#1627,#1628,
#1629,#1630,#1631),.UNSPECIFIED.,.F.,.F.,(4,1,1,1,1,1,4),(2.1416270772097E-7,
0.00252802881092783,0.00379193613503789,0.00505584345914795,0.006319750783258,
0.00758365810736806,0.0101114727555882),.UNSPECIFIED.);
#60=B_SPLINE_CURVE_WITH_KNOTS('',3,(#1732,#1733,#1734,#1735),
 .UNSPECIFIED.,.F.,.F.,(4,4),(0.,0.00100807496299116),.UNSPECIFIED.);
#61=B_SPLINE_CURVE_WITH_KNOTS('',3,(#1739,#1740,#1741,#1742),
 .UNSPECIFIED.,.F.,.F.,(4,4),(0.,0.00100807496299113),.UNSPECIFIED.);
#62=B_SPLINE_CURVE_WITH_KNOTS('',3,(#1747,#1748,#1749,#1750),
 .UNSPECIFIED.,.F.,.F.,(4,4),(4.33680868994202E-19,0.00100807496299118),
 .UNSPECIFIED.);
#63=B_SPLINE_CURVE_WITH_KNOTS('',3,(#1751,#1752,#1753,#1754),
 .UNSPECIFIED.,.F.,.F.,(4,4),(0.,0.00100807496299118),.UNSPECIFIED.);
#64=B_SPLINE_CURVE_WITH_KNOTS('',3,(#1759,#1760,#1761,#1762),
 .UNSPECIFIED.,.F.,.F.,(4,4),(1.40946282423116E-18,0.00100807496299117),
 .UNSPECIFIED.);
#65=B_SPLINE_CURVE_WITH_KNOTS('',3,(#1763,#1764,#1765,#1766),
 .UNSPECIFIED.,.F.,.F.,(4,4),(0.,0.00100807496299117),.UNSPECIFIED.);
#66=B_SPLINE_CURVE_WITH_KNOTS('',3,(#1771,#1772,#1773,#1774),
 .UNSPECIFIED.,.F.,.F.,(4,4),(0.,0.00100807496299116),.UNSPECIFIED.);
#67=B_SPLINE_CURVE_WITH_KNOTS('',3,(#1775,#1776,#1777,#1778),
 .UNSPECIFIED.,.F.,.F.,(4,4),(0.,0.00100807496299116),.UNSPECIFIED.);
#68=B_SPLINE_CURVE_WITH_KNOTS('',3,(#1831,#1832,#1833,#1834,#1835,#1836,
#1837,#1838,#1839,#1840,#1841,#1842,#1843,#1844,#1845,#1846,#1847,#1848,
#1849,#1850,#1851,#1852),.UNSPECIFIED.,.T.,.F.,(1,1,1,1,1,1,1,1,1,1,1,1,
1,1,1,1,1,1,1,1,1,1,1,1,1,1),(-0.0085953165315359,-0.00573021096064676,
-0.00286510538975763,1.81131496568248E-10,0.00286510575202063,0.00573021132290976,
0.0085953168937989,0.011460422464688,0.0143255280355772,0.0171906336064663,
0.0200557391773554,0.0214882919628,0.0229208447482446,0.0243533975336891,
0.0257859503191337,0.0272185031045783,0.0286510558900228,0.031516161460912,
0.0343812670318011,0.0372463726026902,0.0401114781735794,0.0429765837444685,
0.0458416893153576,0.0487067948862468,0.0515719004571359,0.054437006028025),
 .UNSPECIFIED.);
#69=B_SPLINE_CURVE_WITH_KNOTS('',3,(#1857,#1858,#1859,#1860,#1861,#1862,
#1863,#1864,#1865,#1866,#1867,#1868,#1869,#1870,#1871,#1872,#1873,#1874,
#1875,#1876,#1877,#1878),.UNSPECIFIED.,.T.,.F.,(1,1,1,1,1,1,1,1,1,1,1,1,
1,1,1,1,1,1,1,1,1,1,1,1,1,1),(-0.00857173314358971,-0.00571448871938102,
-0.00285724429517233,1.29036359618468E-10,0.00285724455324505,0.00571448897745374,
0.00857173340166243,0.0114289778258711,0.0142862222500798,0.0171434666742885,
0.0185720888863929,0.0200007110984972,0.0214293333106015,0.0228579555227059,
0.0242865777348102,0.0257151999469146,0.0285724443711233,0.031429688795332,
0.0342869332195407,0.0371441776437493,0.040001422067958,0.0428586664921667,
0.0457159109163754,0.0485731553405841,0.0514303997647928,0.0542876441890015),
 .UNSPECIFIED.);
#70=B_SPLINE_CURVE_WITH_KNOTS('',3,(#1887,#1888,#1889,#1890,#1891,#1892,
#1893,#1894,#1895,#1896,#1897,#1898,#1899,#1900,#1901,#1902,#1903,#1904,
#1905,#1906,#1907,#1908),.UNSPECIFIED.,.T.,.F.,(1,1,1,1,1,1,1,1,1,1,1,1,
1,1,1,1,1,1,1,1,1,1,1,1,1,1),(-0.0085717331435897,-0.00571448871938102,
-0.00285724429517233,1.29036359082484E-10,0.00285724455324505,0.00571448897745373,
0.00857173340166242,0.0114289778258711,0.0142862222500798,0.0171434666742885,
0.0185720888863928,0.0200007110984972,0.0214293333106015,0.0228579555227059,
0.0242865777348102,0.0257151999469145,0.0285724443711232,0.0314296887953319,
0.0342869332195406,0.0371441776437493,0.040001422067958,0.0428586664921667,
0.0457159109163753,0.048573155340584,0.0514303997647927,0.0542876441890014),
 .UNSPECIFIED.);
#71=B_SPLINE_CURVE_WITH_KNOTS('',3,(#1913,#1914,#1915,#1916,#1917,#1918,
#1919,#1920,#1921,#1922,#1923,#1924,#1925,#1926,#1927,#1928,#1929,#1930,
#1931,#1932,#1933,#1934),.UNSPECIFIED.,.T.,.F.,(1,1,1,1,1,1,1,1,1,1,1,1,
1,1,1,1,1,1,1,1,1,1,1,1,1,1),(-0.00859531653153591,-0.00573021096064677,
-0.00286510538975763,1.81131504916012E-10,0.00286510575202064,0.00573021132290978,
0.00859531689379892,0.0114604224646881,0.0143255280355772,0.0171906336064663,
0.0200557391773555,0.0214882919628,0.0229208447482446,0.0243533975336892,
0.0257859503191337,0.0272185031045783,0.0286510558900229,0.031516161460912,
0.0343812670318012,0.0372463726026903,0.0401114781735794,0.0429765837444686,
0.0458416893153577,0.0487067948862469,0.051571900457136,0.0544370060280251),
 .UNSPECIFIED.);
#72=SPHERICAL_SURFACE('',#1054,0.0415);
#73=SPHERICAL_SURFACE('',#1071,0.045);
#74=SPHERICAL_SURFACE('',#1131,0.002);
#75=SPHERICAL_SURFACE('',#1133,0.002);
#76=SPHERICAL_SURFACE('',#1143,0.002);
#77=SPHERICAL_SURFACE('',#1145,0.002);
#78=SPHERICAL_SURFACE('',#1153,0.0415);
#79=SPHERICAL_SURFACE('',#1154,0.0415);
#80=SPHERICAL_SURFACE('',#1160,0.0415);
#81=SPHERICAL_SURFACE('',#1161,0.0415);
#82=LINE('',#1522,#126);
#83=LINE('',#1527,#127);
#84=LINE('',#1531,#128);
#85=LINE('',#1535,#129);
#86=LINE('',#1586,#130);
#87=LINE('',#1589,#131);
#88=LINE('',#1593,#132);
#89=LINE('',#1641,#133);
#90=LINE('',#1646,#134);
#91=LINE('',#1650,#135);
#92=LINE('',#1654,#136);
#93=LINE('',#1657,#137);
#94=LINE('',#1662,#138);
#95=LINE('',#1666,#139);
#96=LINE('',#1670,#140);
#97=LINE('',#1674,#141);
#98=LINE('',#1676,#142);
#99=LINE('',#1678,#143);
#100=LINE('',#1680,#144);
#101=LINE('',#1682,#145);
#102=LINE('',#1684,#146);
#103=LINE('',#1686,#147);
#104=LINE('',#1688,#148);
#105=LINE('',#1690,#149);
#106=LINE('',#1692,#150);
#107=LINE('',#1695,#151);
#108=LINE('',#1696,#152);
#109=LINE('',#1698,#153);
#110=LINE('',#1700,#154);
#111=LINE('',#1702,#155);
#112=LINE('',#1737,#156);
#113=LINE('',#1744,#157);
#114=LINE('',#1756,#158);
#115=LINE('',#1768,#159);
#116=LINE('',#1784,#160);
#117=LINE('',#1785,#161);
#118=LINE('',#1789,#162);
#119=LINE('',#1793,#163);
#120=LINE('',#1795,#164);
#121=LINE('',#1796,#165);
#122=LINE('',#1798,#166);
#123=LINE('',#1800,#167);
#124=LINE('',#1827,#168);
#125=LINE('',#1883,#169);
#126=VECTOR('',#1196,1.);
#127=VECTOR('',#1199,1.);
#128=VECTOR('',#1202,1.);
#129=VECTOR('',#1205,1.);
#130=VECTOR('',#1240,1.);
#131=VECTOR('',#1241,1.);
#132=VECTOR('',#1244,1.);
#133=VECTOR('',#1263,1.);
#134=VECTOR('',#1266,1.);
#135=VECTOR('',#1269,1.);
#136=VECTOR('',#1272,1.);
#137=VECTOR('',#1275,1.);
#138=VECTOR('',#1278,1.);
#139=VECTOR('',#1281,1.);
#140=VECTOR('',#1284,1.);
#141=VECTOR('',#1289,1.);
#142=VECTOR('',#1290,1.);
#143=VECTOR('',#1291,1.);
#144=VECTOR('',#1294,1.);
#145=VECTOR('',#1295,1.);
#146=VECTOR('',#1296,1.);
#147=VECTOR('',#1299,1.);
#148=VECTOR('',#1300,1.);
#149=VECTOR('',#1301,1.);
#150=VECTOR('',#1304,1.);
#151=VECTOR('',#1305,1.);
#152=VECTOR('',#1306,1.);
#153=VECTOR('',#1309,1.);
#154=VECTOR('',#1310,1.);
#155=VECTOR('',#1311,1.);
#156=VECTOR('',#1350,1.);
#157=VECTOR('',#1353,1.);
#158=VECTOR('',#1356,1.);
#159=VECTOR('',#1359,1.);
#160=VECTOR('',#1366,1.);
#161=VECTOR('',#1367,1.);
#162=VECTOR('',#1370,1.);
#163=VECTOR('',#1373,1.);
#164=VECTOR('',#1376,1.);
#165=VECTOR('',#1377,1.);
#166=VECTOR('',#1380,1.);
#167=VECTOR('',#1383,1.);
#168=VECTOR('',#1436,1.);
#169=VECTOR('',#1451,1.);
#170=ORIENTED_EDGE('',*,*,#442,.T.);
#171=ORIENTED_EDGE('',*,*,#443,.T.);
#172=ORIENTED_EDGE('',*,*,#444,.T.);
#173=ORIENTED_EDGE('',*,*,#445,.T.);
#174=ORIENTED_EDGE('',*,*,#446,.T.);
#175=ORIENTED_EDGE('',*,*,#447,.T.);
#176=ORIENTED_EDGE('',*,*,#448,.T.);
#177=ORIENTED_EDGE('',*,*,#449,.T.);
#178=ORIENTED_EDGE('',*,*,#450,.T.);
#179=ORIENTED_EDGE('',*,*,#451,.T.);
#180=ORIENTED_EDGE('',*,*,#452,.F.);
#181=ORIENTED_EDGE('',*,*,#453,.T.);
#182=ORIENTED_EDGE('',*,*,#454,.F.);
#183=ORIENTED_EDGE('',*,*,#455,.T.);
#184=ORIENTED_EDGE('',*,*,#445,.F.);
#185=ORIENTED_EDGE('',*,*,#456,.T.);
#186=ORIENTED_EDGE('',*,*,#457,.T.);
#187=ORIENTED_EDGE('',*,*,#458,.T.);
#188=ORIENTED_EDGE('',*,*,#451,.F.);
#189=ORIENTED_EDGE('',*,*,#459,.T.);
#190=ORIENTED_EDGE('',*,*,#460,.F.);
#191=ORIENTED_EDGE('',*,*,#461,.T.);
#192=ORIENTED_EDGE('',*,*,#462,.T.);
#193=ORIENTED_EDGE('',*,*,#463,.T.);
#194=ORIENTED_EDGE('',*,*,#464,.T.);
#195=ORIENTED_EDGE('',*,*,#465,.F.);
#196=ORIENTED_EDGE('',*,*,#466,.T.);
#197=ORIENTED_EDGE('',*,*,#467,.T.);
#198=ORIENTED_EDGE('',*,*,#468,.T.);
#199=ORIENTED_EDGE('',*,*,#469,.T.);
#200=ORIENTED_EDGE('',*,*,#470,.F.);
#201=ORIENTED_EDGE('',*,*,#471,.T.);
#202=ORIENTED_EDGE('',*,*,#470,.T.);
#203=ORIENTED_EDGE('',*,*,#472,.T.);
#204=ORIENTED_EDGE('',*,*,#473,.T.);
#205=ORIENTED_EDGE('',*,*,#474,.T.);
#206=ORIENTED_EDGE('',*,*,#475,.F.);
#207=ORIENTED_EDGE('',*,*,#476,.F.);
#208=ORIENTED_EDGE('',*,*,#477,.T.);
#209=ORIENTED_EDGE('',*,*,#478,.F.);
#210=ORIENTED_EDGE('',*,*,#479,.F.);
#211=ORIENTED_EDGE('',*,*,#480,.F.);
#212=ORIENTED_EDGE('',*,*,#481,.F.);
#213=ORIENTED_EDGE('',*,*,#482,.F.);
#214=ORIENTED_EDGE('',*,*,#483,.F.);
#215=ORIENTED_EDGE('',*,*,#484,.T.);
#216=ORIENTED_EDGE('',*,*,#485,.F.);
#217=ORIENTED_EDGE('',*,*,#486,.T.);
#218=ORIENTED_EDGE('',*,*,#487,.T.);
#219=ORIENTED_EDGE('',*,*,#488,.T.);
#220=ORIENTED_EDGE('',*,*,#489,.T.);
#221=ORIENTED_EDGE('',*,*,#490,.T.);
#222=ORIENTED_EDGE('',*,*,#491,.F.);
#223=ORIENTED_EDGE('',*,*,#492,.T.);
#224=ORIENTED_EDGE('',*,*,#493,.T.);
#225=ORIENTED_EDGE('',*,*,#494,.T.);
#226=ORIENTED_EDGE('',*,*,#495,.T.);
#227=ORIENTED_EDGE('',*,*,#496,.T.);
#228=ORIENTED_EDGE('',*,*,#497,.F.);
#229=ORIENTED_EDGE('',*,*,#498,.T.);
#230=ORIENTED_EDGE('',*,*,#485,.T.);
#231=ORIENTED_EDGE('',*,*,#499,.T.);
#232=ORIENTED_EDGE('',*,*,#500,.T.);
#233=ORIENTED_EDGE('',*,*,#501,.T.);
#234=ORIENTED_EDGE('',*,*,#487,.F.);
#235=ORIENTED_EDGE('',*,*,#502,.T.);
#236=ORIENTED_EDGE('',*,*,#503,.T.);
#237=ORIENTED_EDGE('',*,*,#504,.T.);
#238=ORIENTED_EDGE('',*,*,#489,.F.);
#239=ORIENTED_EDGE('',*,*,#505,.T.);
#240=ORIENTED_EDGE('',*,*,#506,.T.);
#241=ORIENTED_EDGE('',*,*,#507,.T.);
#242=ORIENTED_EDGE('',*,*,#508,.T.);
#243=ORIENTED_EDGE('',*,*,#509,.T.);
#244=ORIENTED_EDGE('',*,*,#483,.T.);
#245=ORIENTED_EDGE('',*,*,#510,.T.);
#246=ORIENTED_EDGE('',*,*,#473,.F.);
#247=ORIENTED_EDGE('',*,*,#511,.T.);
#248=ORIENTED_EDGE('',*,*,#512,.T.);
#249=ORIENTED_EDGE('',*,*,#513,.T.);
#250=ORIENTED_EDGE('',*,*,#514,.T.);
#251=ORIENTED_EDGE('',*,*,#515,.T.);
#252=ORIENTED_EDGE('',*,*,#482,.T.);
#253=ORIENTED_EDGE('',*,*,#516,.T.);
#254=ORIENTED_EDGE('',*,*,#517,.F.);
#255=ORIENTED_EDGE('',*,*,#466,.F.);
#256=ORIENTED_EDGE('',*,*,#481,.T.);
#257=ORIENTED_EDGE('',*,*,#518,.T.);
#258=ORIENTED_EDGE('',*,*,#519,.F.);
#259=ORIENTED_EDGE('',*,*,#467,.F.);
#260=ORIENTED_EDGE('',*,*,#480,.T.);
#261=ORIENTED_EDGE('',*,*,#520,.F.);
#262=ORIENTED_EDGE('',*,*,#521,.F.);
#263=ORIENTED_EDGE('',*,*,#515,.F.);
#264=ORIENTED_EDGE('',*,*,#479,.T.);
#265=ORIENTED_EDGE('',*,*,#522,.T.);
#266=ORIENTED_EDGE('',*,*,#523,.F.);
#267=ORIENTED_EDGE('',*,*,#514,.F.);
#268=ORIENTED_EDGE('',*,*,#493,.F.);
#269=ORIENTED_EDGE('',*,*,#524,.T.);
#270=ORIENTED_EDGE('',*,*,#525,.T.);
#271=ORIENTED_EDGE('',*,*,#526,.T.);
#272=ORIENTED_EDGE('',*,*,#527,.T.);
#273=ORIENTED_EDGE('',*,*,#528,.T.);
#274=ORIENTED_EDGE('',*,*,#491,.T.);
#275=ORIENTED_EDGE('',*,*,#529,.T.);
#276=ORIENTED_EDGE('',*,*,#530,.T.);
#277=ORIENTED_EDGE('',*,*,#531,.T.);
#278=ORIENTED_EDGE('',*,*,#497,.T.);
#279=ORIENTED_EDGE('',*,*,#532,.T.);
#280=ORIENTED_EDGE('',*,*,#533,.T.);
#281=ORIENTED_EDGE('',*,*,#534,.T.);
#282=ORIENTED_EDGE('',*,*,#495,.F.);
#283=ORIENTED_EDGE('',*,*,#535,.T.);
#284=ORIENTED_EDGE('',*,*,#536,.T.);
#285=ORIENTED_EDGE('',*,*,#537,.T.);
#286=ORIENTED_EDGE('',*,*,#454,.T.);
#287=ORIENTED_EDGE('',*,*,#538,.T.);
#288=ORIENTED_EDGE('',*,*,#460,.T.);
#289=ORIENTED_EDGE('',*,*,#539,.T.);
#290=ORIENTED_EDGE('',*,*,#540,.T.);
#291=ORIENTED_EDGE('',*,*,#541,.T.);
#292=ORIENTED_EDGE('',*,*,#542,.T.);
#293=ORIENTED_EDGE('',*,*,#543,.T.);
#294=ORIENTED_EDGE('',*,*,#475,.T.);
#295=ORIENTED_EDGE('',*,*,#544,.T.);
#296=ORIENTED_EDGE('',*,*,#463,.F.);
#297=ORIENTED_EDGE('',*,*,#545,.F.);
#298=ORIENTED_EDGE('',*,*,#476,.T.);
#299=ORIENTED_EDGE('',*,*,#545,.T.);
#300=ORIENTED_EDGE('',*,*,#462,.F.);
#301=ORIENTED_EDGE('',*,*,#546,.F.);
#302=ORIENTED_EDGE('',*,*,#546,.T.);
#303=ORIENTED_EDGE('',*,*,#465,.T.);
#304=ORIENTED_EDGE('',*,*,#547,.F.);
#305=ORIENTED_EDGE('',*,*,#477,.F.);
#306=ORIENTED_EDGE('',*,*,#478,.T.);
#307=ORIENTED_EDGE('',*,*,#547,.T.);
#308=ORIENTED_EDGE('',*,*,#464,.F.);
#309=ORIENTED_EDGE('',*,*,#544,.F.);
#310=ORIENTED_EDGE('',*,*,#486,.F.);
#311=ORIENTED_EDGE('',*,*,#501,.F.);
#312=ORIENTED_EDGE('',*,*,#548,.F.);
#313=ORIENTED_EDGE('',*,*,#502,.F.);
#314=ORIENTED_EDGE('',*,*,#484,.F.);
#315=ORIENTED_EDGE('',*,*,#509,.F.);
#316=ORIENTED_EDGE('',*,*,#549,.F.);
#317=ORIENTED_EDGE('',*,*,#499,.F.);
#318=ORIENTED_EDGE('',*,*,#550,.F.);
#319=ORIENTED_EDGE('',*,*,#500,.F.);
#320=ORIENTED_EDGE('',*,*,#551,.F.);
#321=ORIENTED_EDGE('',*,*,#471,.F.);
#322=ORIENTED_EDGE('',*,*,#474,.F.);
#323=ORIENTED_EDGE('',*,*,#513,.F.);
#324=ORIENTED_EDGE('',*,*,#548,.T.);
#325=ORIENTED_EDGE('',*,*,#550,.T.);
#326=ORIENTED_EDGE('',*,*,#552,.F.);
#327=ORIENTED_EDGE('',*,*,#551,.T.);
#328=ORIENTED_EDGE('',*,*,#549,.T.);
#329=ORIENTED_EDGE('',*,*,#553,.F.);
#330=ORIENTED_EDGE('',*,*,#552,.T.);
#331=ORIENTED_EDGE('',*,*,#512,.F.);
#332=ORIENTED_EDGE('',*,*,#554,.F.);
#333=ORIENTED_EDGE('',*,*,#503,.F.);
#334=ORIENTED_EDGE('',*,*,#488,.F.);
#335=ORIENTED_EDGE('',*,*,#504,.F.);
#336=ORIENTED_EDGE('',*,*,#555,.F.);
#337=ORIENTED_EDGE('',*,*,#505,.F.);
#338=ORIENTED_EDGE('',*,*,#490,.F.);
#339=ORIENTED_EDGE('',*,*,#507,.F.);
#340=ORIENTED_EDGE('',*,*,#556,.F.);
#341=ORIENTED_EDGE('',*,*,#510,.F.);
#342=ORIENTED_EDGE('',*,*,#553,.T.);
#343=ORIENTED_EDGE('',*,*,#508,.F.);
#344=ORIENTED_EDGE('',*,*,#557,.F.);
#345=ORIENTED_EDGE('',*,*,#468,.F.);
#346=ORIENTED_EDGE('',*,*,#555,.T.);
#347=ORIENTED_EDGE('',*,*,#554,.T.);
#348=ORIENTED_EDGE('',*,*,#558,.F.);
#349=ORIENTED_EDGE('',*,*,#557,.T.);
#350=ORIENTED_EDGE('',*,*,#556,.T.);
#351=ORIENTED_EDGE('',*,*,#559,.F.);
#352=ORIENTED_EDGE('',*,*,#472,.F.);
#353=ORIENTED_EDGE('',*,*,#469,.F.);
#354=ORIENTED_EDGE('',*,*,#559,.T.);
#355=ORIENTED_EDGE('',*,*,#506,.F.);
#356=ORIENTED_EDGE('',*,*,#558,.T.);
#357=ORIENTED_EDGE('',*,*,#511,.F.);
#358=ORIENTED_EDGE('',*,*,#457,.F.);
#359=ORIENTED_EDGE('',*,*,#560,.T.);
#360=ORIENTED_EDGE('',*,*,#561,.T.);
#361=ORIENTED_EDGE('',*,*,#562,.T.);
#362=ORIENTED_EDGE('',*,*,#563,.T.);
#363=ORIENTED_EDGE('',*,*,#564,.T.);
#364=ORIENTED_EDGE('',*,*,#562,.F.);
#365=ORIENTED_EDGE('',*,*,#564,.F.);
#366=ORIENTED_EDGE('',*,*,#452,.T.);
#367=ORIENTED_EDGE('',*,*,#565,.T.);
#368=ORIENTED_EDGE('',*,*,#566,.T.);
#369=ORIENTED_EDGE('',*,*,#567,.T.);
#370=ORIENTED_EDGE('',*,*,#568,.T.);
#371=ORIENTED_EDGE('',*,*,#569,.T.);
#372=ORIENTED_EDGE('',*,*,#569,.F.);
#373=ORIENTED_EDGE('',*,*,#567,.F.);
#374=ORIENTED_EDGE('',*,*,#570,.F.);
#375=ORIENTED_EDGE('',*,*,#447,.F.);
#376=ORIENTED_EDGE('',*,*,#571,.F.);
#377=ORIENTED_EDGE('',*,*,#532,.F.);
#378=ORIENTED_EDGE('',*,*,#496,.F.);
#379=ORIENTED_EDGE('',*,*,#534,.F.);
#380=ORIENTED_EDGE('',*,*,#455,.F.);
#381=ORIENTED_EDGE('',*,*,#543,.F.);
#382=ORIENTED_EDGE('',*,*,#572,.F.);
#383=ORIENTED_EDGE('',*,*,#530,.F.);
#384=ORIENTED_EDGE('',*,*,#571,.T.);
#385=ORIENTED_EDGE('',*,*,#446,.F.);
#386=ORIENTED_EDGE('',*,*,#570,.T.);
#387=ORIENTED_EDGE('',*,*,#533,.F.);
#388=ORIENTED_EDGE('',*,*,#573,.F.);
#389=ORIENTED_EDGE('',*,*,#448,.F.);
#390=ORIENTED_EDGE('',*,*,#572,.T.);
#391=ORIENTED_EDGE('',*,*,#542,.F.);
#392=ORIENTED_EDGE('',*,*,#574,.F.);
#393=ORIENTED_EDGE('',*,*,#529,.F.);
#394=ORIENTED_EDGE('',*,*,#498,.F.);
#395=ORIENTED_EDGE('',*,*,#531,.F.);
#396=ORIENTED_EDGE('',*,*,#494,.F.);
#397=ORIENTED_EDGE('',*,*,#526,.F.);
#398=ORIENTED_EDGE('',*,*,#575,.F.);
#399=ORIENTED_EDGE('',*,*,#449,.F.);
#400=ORIENTED_EDGE('',*,*,#573,.T.);
#401=ORIENTED_EDGE('',*,*,#535,.F.);
#402=ORIENTED_EDGE('',*,*,#574,.T.);
#403=ORIENTED_EDGE('',*,*,#541,.F.);
#404=ORIENTED_EDGE('',*,*,#576,.F.);
#405=ORIENTED_EDGE('',*,*,#527,.F.);
#406=ORIENTED_EDGE('',*,*,#575,.T.);
#407=ORIENTED_EDGE('',*,*,#525,.F.);
#408=ORIENTED_EDGE('',*,*,#577,.F.);
#409=ORIENTED_EDGE('',*,*,#539,.F.);
#410=ORIENTED_EDGE('',*,*,#459,.F.);
#411=ORIENTED_EDGE('',*,*,#450,.F.);
#412=ORIENTED_EDGE('',*,*,#576,.T.);
#413=ORIENTED_EDGE('',*,*,#540,.F.);
#414=ORIENTED_EDGE('',*,*,#577,.T.);
#415=ORIENTED_EDGE('',*,*,#524,.F.);
#416=ORIENTED_EDGE('',*,*,#492,.F.);
#417=ORIENTED_EDGE('',*,*,#528,.F.);
#418=ORIENTED_EDGE('',*,*,#522,.F.);
#419=ORIENTED_EDGE('',*,*,#523,.T.);
#420=ORIENTED_EDGE('',*,*,#520,.T.);
#421=ORIENTED_EDGE('',*,*,#521,.T.);
#422=ORIENTED_EDGE('',*,*,#518,.F.);
#423=ORIENTED_EDGE('',*,*,#519,.T.);
#424=ORIENTED_EDGE('',*,*,#516,.F.);
#425=ORIENTED_EDGE('',*,*,#517,.T.);
#426=ORIENTED_EDGE('',*,*,#442,.F.);
#427=ORIENTED_EDGE('',*,*,#561,.F.);
#428=ORIENTED_EDGE('',*,*,#443,.F.);
#429=ORIENTED_EDGE('',*,*,#563,.F.);
#430=ORIENTED_EDGE('',*,*,#536,.F.);
#431=ORIENTED_EDGE('',*,*,#568,.F.);
#432=ORIENTED_EDGE('',*,*,#537,.F.);
#433=ORIENTED_EDGE('',*,*,#566,.F.);
#434=ORIENTED_EDGE('',*,*,#458,.F.);
#435=ORIENTED_EDGE('',*,*,#560,.F.);
#436=ORIENTED_EDGE('',*,*,#456,.F.);
#437=ORIENTED_EDGE('',*,*,#444,.F.);
#438=ORIENTED_EDGE('',*,*,#461,.F.);
#439=ORIENTED_EDGE('',*,*,#538,.F.);
#440=ORIENTED_EDGE('',*,*,#453,.F.);
#441=ORIENTED_EDGE('',*,*,#565,.F.);
#442=EDGE_CURVE('',#578,#578,#674,.F.);
#443=EDGE_CURVE('',#579,#579,#675,.F.);
#444=EDGE_CURVE('',#580,#581,#82,.T.);
#445=EDGE_CURVE('',#581,#582,#676,.F.);
#446=EDGE_CURVE('',#582,#583,#83,.T.);
#447=EDGE_CURVE('',#583,#584,#677,.F.);
#448=EDGE_CURVE('',#584,#585,#84,.T.);
#449=EDGE_CURVE('',#585,#586,#678,.F.);
#450=EDGE_CURVE('',#586,#587,#85,.T.);
#451=EDGE_CURVE('',#587,#580,#679,.F.);
#452=EDGE_CURVE('',#588,#589,#680,.F.);
#453=EDGE_CURVE('',#588,#590,#681,.F.);
#454=EDGE_CURVE('',#591,#590,#682,.F.);
#455=EDGE_CURVE('',#591,#582,#683,.F.);
#456=EDGE_CURVE('',#581,#592,#684,.T.);
#457=EDGE_CURVE('',#592,#593,#685,.F.);
#458=EDGE_CURVE('',#593,#580,#686,.T.);
#459=EDGE_CURVE('',#587,#594,#687,.F.);
#460=EDGE_CURVE('',#595,#594,#688,.F.);
#461=EDGE_CURVE('',#595,#589,#689,.F.);
#462=EDGE_CURVE('',#596,#597,#54,.T.);
#463=EDGE_CURVE('',#597,#598,#690,.T.);
#464=EDGE_CURVE('',#598,#599,#55,.T.);
#465=EDGE_CURVE('',#596,#599,#691,.T.);
#466=EDGE_CURVE('',#600,#600,#692,.T.);
#467=EDGE_CURVE('',#601,#601,#693,.T.);
#468=EDGE_CURVE('',#602,#603,#86,.F.);
#469=EDGE_CURVE('',#603,#604,#87,.F.);
#470=EDGE_CURVE('',#605,#604,#694,.F.);
#471=EDGE_CURVE('',#605,#602,#88,.F.);
#472=EDGE_CURVE('',#604,#606,#56,.T.);
#473=EDGE_CURVE('',#606,#607,#695,.F.);
#474=EDGE_CURVE('',#607,#605,#57,.T.);
#475=EDGE_CURVE('',#608,#609,#696,.T.);
#476=EDGE_CURVE('',#610,#608,#58,.T.);
#477=EDGE_CURVE('',#610,#611,#697,.T.);
#478=EDGE_CURVE('',#609,#611,#59,.T.);
#479=EDGE_CURVE('',#612,#612,#698,.T.);
#480=EDGE_CURVE('',#613,#613,#699,.T.);
#481=EDGE_CURVE('',#614,#614,#700,.T.);
#482=EDGE_CURVE('',#615,#615,#701,.T.);
#483=EDGE_CURVE('',#616,#617,#89,.F.);
#484=EDGE_CURVE('',#616,#618,#42,.T.);
#485=EDGE_CURVE('',#619,#618,#90,.F.);
#486=EDGE_CURVE('',#619,#620,#43,.T.);
#487=EDGE_CURVE('',#620,#621,#91,.T.);
#488=EDGE_CURVE('',#621,#622,#44,.T.);
#489=EDGE_CURVE('',#622,#623,#92,.T.);
#490=EDGE_CURVE('',#623,#617,#45,.T.);
#491=EDGE_CURVE('',#624,#625,#93,.T.);
#492=EDGE_CURVE('',#624,#626,#702,.T.);
#493=EDGE_CURVE('',#626,#627,#94,.F.);
#494=EDGE_CURVE('',#627,#628,#703,.T.);
#495=EDGE_CURVE('',#628,#629,#95,.F.);
#496=EDGE_CURVE('',#629,#630,#704,.T.);
#497=EDGE_CURVE('',#631,#630,#96,.T.);
#498=EDGE_CURVE('',#631,#625,#705,.T.);
#499=EDGE_CURVE('',#618,#632,#97,.T.);
#500=EDGE_CURVE('',#632,#633,#98,.F.);
#501=EDGE_CURVE('',#633,#619,#99,.T.);
#502=EDGE_CURVE('',#620,#634,#100,.T.);
#503=EDGE_CURVE('',#634,#635,#101,.T.);
#504=EDGE_CURVE('',#635,#621,#102,.T.);
#505=EDGE_CURVE('',#622,#636,#103,.F.);
#506=EDGE_CURVE('',#636,#637,#104,.T.);
#507=EDGE_CURVE('',#637,#623,#105,.F.);
#508=EDGE_CURVE('',#638,#639,#106,.F.);
#509=EDGE_CURVE('',#639,#616,#107,.F.);
#510=EDGE_CURVE('',#617,#638,#108,.F.);
#511=EDGE_CURVE('',#606,#640,#109,.F.);
#512=EDGE_CURVE('',#640,#641,#110,.F.);
#513=EDGE_CURVE('',#641,#607,#111,.F.);
#514=EDGE_CURVE('',#642,#642,#706,.T.);
#515=EDGE_CURVE('',#643,#643,#707,.T.);
#516=EDGE_CURVE('',#644,#644,#708,.T.);
#517=EDGE_CURVE('',#645,#645,#709,.T.);
#518=EDGE_CURVE('',#646,#646,#710,.T.);
#519=EDGE_CURVE('',#647,#647,#711,.T.);
#520=EDGE_CURVE('',#648,#648,#712,.T.);
#521=EDGE_CURVE('',#649,#649,#713,.T.);
#522=EDGE_CURVE('',#650,#650,#714,.T.);
#523=EDGE_CURVE('',#651,#651,#715,.T.);
#524=EDGE_CURVE('',#626,#652,#60,.T.);
#525=EDGE_CURVE('',#652,#653,#112,.F.);
#526=EDGE_CURVE('',#653,#627,#61,.T.);
#527=EDGE_CURVE('',#654,#655,#113,.T.);
#528=EDGE_CURVE('',#655,#624,#62,.T.);
#529=EDGE_CURVE('',#625,#654,#63,.T.);
#530=EDGE_CURVE('',#656,#657,#114,.T.);
#531=EDGE_CURVE('',#657,#631,#64,.T.);
#532=EDGE_CURVE('',#630,#656,#65,.T.);
#533=EDGE_CURVE('',#658,#659,#115,.F.);
#534=EDGE_CURVE('',#659,#629,#66,.T.);
#535=EDGE_CURVE('',#628,#658,#67,.T.);
#536=EDGE_CURVE('',#660,#660,#716,.F.);
#537=EDGE_CURVE('',#661,#661,#717,.F.);
#538=EDGE_CURVE('',#590,#595,#116,.T.);
#539=EDGE_CURVE('',#594,#662,#117,.T.);
#540=EDGE_CURVE('',#662,#663,#718,.F.);
#541=EDGE_CURVE('',#663,#664,#118,.T.);
#542=EDGE_CURVE('',#664,#665,#719,.F.);
#543=EDGE_CURVE('',#665,#591,#119,.T.);
#544=EDGE_CURVE('',#609,#598,#120,.T.);
#545=EDGE_CURVE('',#608,#597,#121,.T.);
#546=EDGE_CURVE('',#610,#596,#122,.T.);
#547=EDGE_CURVE('',#611,#599,#123,.T.);
#548=EDGE_CURVE('',#634,#633,#720,.T.);
#549=EDGE_CURVE('',#632,#639,#721,.T.);
#550=EDGE_CURVE('',#633,#641,#722,.T.);
#551=EDGE_CURVE('',#602,#632,#723,.T.);
#552=EDGE_CURVE('',#634,#641,#724,.F.);
#553=EDGE_CURVE('',#602,#639,#725,.F.);
#554=EDGE_CURVE('',#635,#640,#726,.T.);
#555=EDGE_CURVE('',#636,#635,#727,.T.);
#556=EDGE_CURVE('',#638,#637,#728,.T.);
#557=EDGE_CURVE('',#603,#638,#729,.T.);
#558=EDGE_CURVE('',#636,#640,#730,.F.);
#559=EDGE_CURVE('',#603,#637,#731,.F.);
#560=EDGE_CURVE('',#592,#593,#124,.T.);
#561=EDGE_CURVE('',#666,#666,#732,.T.);
#562=EDGE_CURVE('',#667,#667,#68,.T.);
#563=EDGE_CURVE('',#668,#668,#733,.T.);
#564=EDGE_CURVE('',#669,#669,#69,.T.);
#565=EDGE_CURVE('',#589,#588,#125,.T.);
#566=EDGE_CURVE('',#670,#670,#734,.T.);
#567=EDGE_CURVE('',#671,#671,#70,.T.);
#568=EDGE_CURVE('',#672,#672,#735,.T.);
#569=EDGE_CURVE('',#673,#673,#71,.T.);
#570=EDGE_CURVE('',#584,#659,#46,.T.);
#571=EDGE_CURVE('',#656,#583,#47,.T.);
#572=EDGE_CURVE('',#657,#665,#48,.F.);
#573=EDGE_CURVE('',#585,#658,#49,.F.);
#574=EDGE_CURVE('',#654,#664,#50,.T.);
#575=EDGE_CURVE('',#586,#653,#51,.T.);
#576=EDGE_CURVE('',#655,#663,#52,.F.);
#577=EDGE_CURVE('',#662,#652,#53,.F.);
#578=VERTEX_POINT('',#1519);
#579=VERTEX_POINT('',#1521);
#580=VERTEX_POINT('',#1523);
#581=VERTEX_POINT('',#1524);
#582=VERTEX_POINT('',#1526);
#583=VERTEX_POINT('',#1528);
#584=VERTEX_POINT('',#1530);
#585=VERTEX_POINT('',#1532);
#586=VERTEX_POINT('',#1534);
#587=VERTEX_POINT('',#1536);
#588=VERTEX_POINT('',#1540);
#589=VERTEX_POINT('',#1541);
#590=VERTEX_POINT('',#1543);
#591=VERTEX_POINT('',#1545);
#592=VERTEX_POINT('',#1548);
#593=VERTEX_POINT('',#1550);
#594=VERTEX_POINT('',#1553);
#595=VERTEX_POINT('',#1555);
#596=VERTEX_POINT('',#1566);
#597=VERTEX_POINT('',#1567);
#598=VERTEX_POINT('',#1569);
#599=VERTEX_POINT('',#1579);
#600=VERTEX_POINT('',#1583);
#601=VERTEX_POINT('',#1585);
#602=VERTEX_POINT('',#1587);
#603=VERTEX_POINT('',#1588);
#604=VERTEX_POINT('',#1590);
#605=VERTEX_POINT('',#1592);
#606=VERTEX_POINT('',#1600);
#607=VERTEX_POINT('',#1602);
#608=VERTEX_POINT('',#1609);
#609=VERTEX_POINT('',#1610);
#610=VERTEX_POINT('',#1620);
#611=VERTEX_POINT('',#1622);
#612=VERTEX_POINT('',#1634);
#613=VERTEX_POINT('',#1636);
#614=VERTEX_POINT('',#1638);
#615=VERTEX_POINT('',#1640);
#616=VERTEX_POINT('',#1642);
#617=VERTEX_POINT('',#1643);
#618=VERTEX_POINT('',#1645);
#619=VERTEX_POINT('',#1647);
#620=VERTEX_POINT('',#1649);
#621=VERTEX_POINT('',#1651);
#622=VERTEX_POINT('',#1653);
#623=VERTEX_POINT('',#1655);
#624=VERTEX_POINT('',#1658);
#625=VERTEX_POINT('',#1659);
#626=VERTEX_POINT('',#1661);
#627=VERTEX_POINT('',#1663);
#628=VERTEX_POINT('',#1665);
#629=VERTEX_POINT('',#1667);
#630=VERTEX_POINT('',#1669);
#631=VERTEX_POINT('',#1671);
#632=VERTEX_POINT('',#1675);
#633=VERTEX_POINT('',#1677);
#634=VERTEX_POINT('',#1681);
#635=VERTEX_POINT('',#1683);
#636=VERTEX_POINT('',#1687);
#637=VERTEX_POINT('',#1689);
#638=VERTEX_POINT('',#1693);
#639=VERTEX_POINT('',#1694);
#640=VERTEX_POINT('',#1699);
#641=VERTEX_POINT('',#1701);
#642=VERTEX_POINT('',#1704);
#643=VERTEX_POINT('',#1706);
#644=VERTEX_POINT('',#1709);
#645=VERTEX_POINT('',#1712);
#646=VERTEX_POINT('',#1715);
#647=VERTEX_POINT('',#1718);
#648=VERTEX_POINT('',#1721);
#649=VERTEX_POINT('',#1724);
#650=VERTEX_POINT('',#1727);
#651=VERTEX_POINT('',#1730);
#652=VERTEX_POINT('',#1736);
#653=VERTEX_POINT('',#1738);
#654=VERTEX_POINT('',#1745);
#655=VERTEX_POINT('',#1746);
#656=VERTEX_POINT('',#1757);
#657=VERTEX_POINT('',#1758);
#658=VERTEX_POINT('',#1769);
#659=VERTEX_POINT('',#1770);
#660=VERTEX_POINT('',#1781);
#661=VERTEX_POINT('',#1783);
#662=VERTEX_POINT('',#1786);
#663=VERTEX_POINT('',#1788);
#664=VERTEX_POINT('',#1790);
#665=VERTEX_POINT('',#1792);
#666=VERTEX_POINT('',#1830);
#667=VERTEX_POINT('',#1853);
#668=VERTEX_POINT('',#1856);
#669=VERTEX_POINT('',#1879);
#670=VERTEX_POINT('',#1886);
#671=VERTEX_POINT('',#1909);
#672=VERTEX_POINT('',#1912);
#673=VERTEX_POINT('',#1935);
#674=CIRCLE('',#1048,0.009);
#675=CIRCLE('',#1049,0.009);
#676=CIRCLE('',#1050,0.0388844441904471);
#677=CIRCLE('',#1051,0.011263523695817);
#678=CIRCLE('',#1052,0.011263523695817);
#679=CIRCLE('',#1053,0.0388844441904471);
#680=CIRCLE('',#1055,0.0386943148278917);
#681=CIRCLE('',#1056,0.035016067740396);
#682=CIRCLE('',#1057,0.0388844441904471);
#683=CIRCLE('',#1058,0.0168908646998541);
#684=CIRCLE('',#1059,0.035016067740396);
#685=CIRCLE('',#1060,0.0386943148278917);
#686=CIRCLE('',#1061,0.035016067740396);
#687=CIRCLE('',#1062,0.0168908646998541);
#688=CIRCLE('',#1063,0.0388844441904471);
#689=CIRCLE('',#1064,0.035016067740396);
#690=CIRCLE('',#1065,0.0413840549004082);
#691=CIRCLE('',#1066,0.0413840549004082);
#692=CIRCLE('',#1068,0.00305);
#693=CIRCLE('',#1069,0.00305);
#694=CIRCLE('',#1070,0.0412431812546026);
#695=CIRCLE('',#1072,0.0412431812546026);
#696=CIRCLE('',#1073,0.0448930952374638);
#697=CIRCLE('',#1074,0.0448930952374638);
#698=CIRCLE('',#1076,0.0015);
#699=CIRCLE('',#1077,0.0015);
#700=CIRCLE('',#1078,0.0015);
#701=CIRCLE('',#1079,0.0015);
#702=CIRCLE('',#1084,0.00689635333406495);
#703=CIRCLE('',#1085,0.00689635333406494);
#704=CIRCLE('',#1086,0.00689635333406494);
#705=CIRCLE('',#1087,0.00689635333406495);
#706=CIRCLE('',#1093,0.00305);
#707=CIRCLE('',#1094,0.00305);
#708=CIRCLE('',#1096,0.0015);
#709=CIRCLE('',#1098,0.00305);
#710=CIRCLE('',#1100,0.0015);
#711=CIRCLE('',#1102,0.00305);
#712=CIRCLE('',#1104,0.0015);
#713=CIRCLE('',#1106,0.00305);
#714=CIRCLE('',#1108,0.0015);
#715=CIRCLE('',#1110,0.00305);
#716=CIRCLE('',#1116,0.009);
#717=CIRCLE('',#1117,0.009);
#718=CIRCLE('',#1118,0.011263523695817);
#719=CIRCLE('',#1119,0.011263523695817);
#720=CIRCLE('',#1125,0.002);
#721=CIRCLE('',#1127,0.002);
#722=CIRCLE('',#1129,0.002);
#723=CIRCLE('',#1130,0.002);
#724=CIRCLE('',#1132,0.002);
#725=CIRCLE('',#1134,0.002);
#726=CIRCLE('',#1136,0.002);
#727=CIRCLE('',#1138,0.002);
#728=CIRCLE('',#1140,0.002);
#729=CIRCLE('',#1142,0.002);
#730=CIRCLE('',#1144,0.002);
#731=CIRCLE('',#1146,0.002);
#732=CIRCLE('',#1150,0.006);
#733=CIRCLE('',#1152,0.006);
#734=CIRCLE('',#1157,0.006);
#735=CIRCLE('',#1159,0.006);
#736=EDGE_LOOP('',(#170));
#737=EDGE_LOOP('',(#171));
#738=EDGE_LOOP('',(#172,#173,#174,#175,#176,#177,#178,#179));
#739=EDGE_LOOP('',(#180,#181,#182,#183,#184,#185,#186,#187,#188,#189,#190,
#191));
#740=EDGE_LOOP('',(#192,#193,#194,#195));
#741=EDGE_LOOP('',(#196));
#742=EDGE_LOOP('',(#197));
#743=EDGE_LOOP('',(#198,#199,#200,#201));
#744=EDGE_LOOP('',(#202,#203,#204,#205));
#745=EDGE_LOOP('',(#206,#207,#208,#209));
#746=EDGE_LOOP('',(#210));
#747=EDGE_LOOP('',(#211));
#748=EDGE_LOOP('',(#212));
#749=EDGE_LOOP('',(#213));
#750=EDGE_LOOP('',(#214,#215,#216,#217,#218,#219,#220,#221));
#751=EDGE_LOOP('',(#222,#223,#224,#225,#226,#227,#228,#229));
#752=EDGE_LOOP('',(#230,#231,#232,#233));
#753=EDGE_LOOP('',(#234,#235,#236,#237));
#754=EDGE_LOOP('',(#238,#239,#240,#241));
#755=EDGE_LOOP('',(#242,#243,#244,#245));
#756=EDGE_LOOP('',(#246,#247,#248,#249));
#757=EDGE_LOOP('',(#250));
#758=EDGE_LOOP('',(#251));
#759=EDGE_LOOP('',(#252));
#760=EDGE_LOOP('',(#253));
#761=EDGE_LOOP('',(#254));
#762=EDGE_LOOP('',(#255));
#763=EDGE_LOOP('',(#256));
#764=EDGE_LOOP('',(#257));
#765=EDGE_LOOP('',(#258));
#766=EDGE_LOOP('',(#259));
#767=EDGE_LOOP('',(#260));
#768=EDGE_LOOP('',(#261));
#769=EDGE_LOOP('',(#262));
#770=EDGE_LOOP('',(#263));
#771=EDGE_LOOP('',(#264));
#772=EDGE_LOOP('',(#265));
#773=EDGE_LOOP('',(#266));
#774=EDGE_LOOP('',(#267));
#775=EDGE_LOOP('',(#268,#269,#270,#271));
#776=EDGE_LOOP('',(#272,#273,#274,#275));
#777=EDGE_LOOP('',(#276,#277,#278,#279));
#778=EDGE_LOOP('',(#280,#281,#282,#283));
#779=EDGE_LOOP('',(#284));
#780=EDGE_LOOP('',(#285));
#781=EDGE_LOOP('',(#286,#287,#288,#289,#290,#291,#292,#293));
#782=EDGE_LOOP('',(#294,#295,#296,#297));
#783=EDGE_LOOP('',(#298,#299,#300,#301));
#784=EDGE_LOOP('',(#302,#303,#304,#305));
#785=EDGE_LOOP('',(#306,#307,#308,#309));
#786=EDGE_LOOP('',(#310,#311,#312,#313));
#787=EDGE_LOOP('',(#314,#315,#316,#317));
#788=EDGE_LOOP('',(#318,#319,#320,#321,#322,#323));
#789=EDGE_LOOP('',(#324,#325,#326));
#790=EDGE_LOOP('',(#327,#328,#329));
#791=EDGE_LOOP('',(#330,#331,#332,#333));
#792=EDGE_LOOP('',(#334,#335,#336,#337));
#793=EDGE_LOOP('',(#338,#339,#340,#341));
#794=EDGE_LOOP('',(#342,#343,#344,#345));
#795=EDGE_LOOP('',(#346,#347,#348));
#796=EDGE_LOOP('',(#349,#350,#351));
#797=EDGE_LOOP('',(#352,#353,#354,#355,#356,#357));
#798=EDGE_LOOP('',(#358,#359));
#799=EDGE_LOOP('',(#360));
#800=EDGE_LOOP('',(#361));
#801=EDGE_LOOP('',(#362));
#802=EDGE_LOOP('',(#363));
#803=EDGE_LOOP('',(#364));
#804=EDGE_LOOP('',(#365));
#805=EDGE_LOOP('',(#366,#367));
#806=EDGE_LOOP('',(#368));
#807=EDGE_LOOP('',(#369));
#808=EDGE_LOOP('',(#370));
#809=EDGE_LOOP('',(#371));
#810=EDGE_LOOP('',(#372));
#811=EDGE_LOOP('',(#373));
#812=EDGE_LOOP('',(#374,#375,#376,#377,#378,#379));
#813=EDGE_LOOP('',(#380,#381,#382,#383,#384,#385));
#814=EDGE_LOOP('',(#386,#387,#388,#389));
#815=EDGE_LOOP('',(#390,#391,#392,#393,#394,#395));
#816=EDGE_LOOP('',(#396,#397,#398,#399,#400,#401));
#817=EDGE_LOOP('',(#402,#403,#404,#405));
#818=EDGE_LOOP('',(#406,#407,#408,#409,#410,#411));
#819=EDGE_LOOP('',(#412,#413,#414,#415,#416,#417));
#820=EDGE_LOOP('',(#418));
#821=EDGE_LOOP('',(#419));
#822=EDGE_LOOP('',(#420));
#823=EDGE_LOOP('',(#421));
#824=EDGE_LOOP('',(#422));
#825=EDGE_LOOP('',(#423));
#826=EDGE_LOOP('',(#424));
#827=EDGE_LOOP('',(#425));
#828=EDGE_LOOP('',(#426));
#829=EDGE_LOOP('',(#427));
#830=EDGE_LOOP('',(#428));
#831=EDGE_LOOP('',(#429));
#832=EDGE_LOOP('',(#430));
#833=EDGE_LOOP('',(#431));
#834=EDGE_LOOP('',(#432));
#835=EDGE_LOOP('',(#433));
#836=EDGE_LOOP('',(#434,#435,#436,#437));
#837=EDGE_LOOP('',(#438,#439,#440,#441));
#838=FACE_BOUND('',#736,.T.);
#839=FACE_BOUND('',#737,.T.);
#840=FACE_BOUND('',#738,.T.);
#841=FACE_BOUND('',#739,.T.);
#842=FACE_BOUND('',#740,.T.);
#843=FACE_BOUND('',#741,.T.);
#844=FACE_BOUND('',#742,.T.);
#845=FACE_BOUND('',#743,.T.);
#846=FACE_BOUND('',#744,.T.);
#847=FACE_BOUND('',#745,.T.);
#848=FACE_BOUND('',#746,.T.);
#849=FACE_BOUND('',#747,.T.);
#850=FACE_BOUND('',#748,.T.);
#851=FACE_BOUND('',#749,.T.);
#852=FACE_BOUND('',#750,.T.);
#853=FACE_BOUND('',#751,.T.);
#854=FACE_BOUND('',#752,.T.);
#855=FACE_BOUND('',#753,.T.);
#856=FACE_BOUND('',#754,.T.);
#857=FACE_BOUND('',#755,.T.);
#858=FACE_BOUND('',#756,.T.);
#859=FACE_BOUND('',#757,.T.);
#860=FACE_BOUND('',#758,.T.);
#861=FACE_BOUND('',#759,.T.);
#862=FACE_BOUND('',#760,.T.);
#863=FACE_BOUND('',#761,.T.);
#864=FACE_BOUND('',#762,.T.);
#865=FACE_BOUND('',#763,.T.);
#866=FACE_BOUND('',#764,.T.);
#867=FACE_BOUND('',#765,.T.);
#868=FACE_BOUND('',#766,.T.);
#869=FACE_BOUND('',#767,.T.);
#870=FACE_BOUND('',#768,.T.);
#871=FACE_BOUND('',#769,.T.);
#872=FACE_BOUND('',#770,.T.);
#873=FACE_BOUND('',#771,.T.);
#874=FACE_BOUND('',#772,.T.);
#875=FACE_BOUND('',#773,.T.);
#876=FACE_BOUND('',#774,.T.);
#877=FACE_BOUND('',#775,.T.);
#878=FACE_BOUND('',#776,.T.);
#879=FACE_BOUND('',#777,.T.);
#880=FACE_BOUND('',#778,.T.);
#881=FACE_BOUND('',#779,.T.);
#882=FACE_BOUND('',#780,.T.);
#883=FACE_BOUND('',#781,.T.);
#884=FACE_BOUND('',#782,.T.);
#885=FACE_BOUND('',#783,.T.);
#886=FACE_BOUND('',#784,.T.);
#887=FACE_BOUND('',#785,.T.);
#888=FACE_BOUND('',#786,.T.);
#889=FACE_BOUND('',#787,.T.);
#890=FACE_BOUND('',#788,.T.);
#891=FACE_BOUND('',#789,.T.);
#892=FACE_BOUND('',#790,.T.);
#893=FACE_BOUND('',#791,.T.);
#894=FACE_BOUND('',#792,.T.);
#895=FACE_BOUND('',#793,.T.);
#896=FACE_BOUND('',#794,.T.);
#897=FACE_BOUND('',#795,.T.);
#898=FACE_BOUND('',#796,.T.);
#899=FACE_BOUND('',#797,.T.);
#900=FACE_BOUND('',#798,.T.);
#901=FACE_BOUND('',#799,.T.);
#902=FACE_BOUND('',#800,.T.);
#903=FACE_BOUND('',#801,.T.);
#904=FACE_BOUND('',#802,.T.);
#905=FACE_BOUND('',#803,.T.);
#906=FACE_BOUND('',#804,.T.);
#907=FACE_BOUND('',#805,.T.);
#908=FACE_BOUND('',#806,.T.);
#909=FACE_BOUND('',#807,.T.);
#910=FACE_BOUND('',#808,.T.);
#911=FACE_BOUND('',#809,.T.);
#912=FACE_BOUND('',#810,.T.);
#913=FACE_BOUND('',#811,.T.);
#914=FACE_BOUND('',#812,.T.);
#915=FACE_BOUND('',#813,.T.);
#916=FACE_BOUND('',#814,.T.);
#917=FACE_BOUND('',#815,.T.);
#918=FACE_BOUND('',#816,.T.);
#919=FACE_BOUND('',#817,.T.);
#920=FACE_BOUND('',#818,.T.);
#921=FACE_BOUND('',#819,.T.);
#922=FACE_BOUND('',#820,.T.);
#923=FACE_BOUND('',#821,.T.);
#924=FACE_BOUND('',#822,.T.);
#925=FACE_BOUND('',#823,.T.);
#926=FACE_BOUND('',#824,.T.);
#927=FACE_BOUND('',#825,.T.);
#928=FACE_BOUND('',#826,.T.);
#929=FACE_BOUND('',#827,.T.);
#930=FACE_BOUND('',#828,.T.);
#931=FACE_BOUND('',#829,.T.);
#932=FACE_BOUND('',#830,.T.);
#933=FACE_BOUND('',#831,.T.);
#934=FACE_BOUND('',#832,.T.);
#935=FACE_BOUND('',#833,.T.);
#936=FACE_BOUND('',#834,.T.);
#937=FACE_BOUND('',#835,.T.);
#938=FACE_BOUND('',#836,.T.);
#939=FACE_BOUND('',#837,.T.);
#940=PLANE('',#1047);
#941=PLANE('',#1067);
#942=PLANE('',#1075);
#943=PLANE('',#1088);
#944=PLANE('',#1089);
#945=PLANE('',#1090);
#946=PLANE('',#1091);
#947=PLANE('',#1092);
#948=PLANE('',#1111);
#949=PLANE('',#1112);
#950=PLANE('',#1113);
#951=PLANE('',#1114);
#952=PLANE('',#1115);
#953=PLANE('',#1120);
#954=PLANE('',#1122);
#955=PLANE('',#1148);
#956=PLANE('',#1155);
#957=PLANE('',#1165);
#958=PLANE('',#1167);
#959=PLANE('',#1173);
#960=PLANE('',#1175);
#961=PLANE('',#1178);
#962=PLANE('',#1179);
#963=PLANE('',#1180);
#964=PLANE('',#1181);
#965=PLANE('',#1186);
#966=PLANE('',#1187);
#967=ADVANCED_FACE('',(#838,#839,#840),#940,.T.);
#968=ADVANCED_FACE('',(#841,#842),#72,.F.);
#969=ADVANCED_FACE('',(#843,#844,#845),#941,.F.);
#970=ADVANCED_FACE('',(#846,#847),#73,.T.);
#971=ADVANCED_FACE('',(#848,#849,#850,#851,#852,#853),#942,.T.);
#972=ADVANCED_FACE('',(#854),#943,.T.);
#973=ADVANCED_FACE('',(#855),#944,.T.);
#974=ADVANCED_FACE('',(#856),#945,.T.);
#975=ADVANCED_FACE('',(#857),#946,.T.);
#976=ADVANCED_FACE('',(#858,#859,#860),#947,.F.);
#977=ADVANCED_FACE('',(#861,#862),#20,.F.);
#978=ADVANCED_FACE('',(#863,#864),#21,.F.);
#979=ADVANCED_FACE('',(#865,#866),#22,.F.);
#980=ADVANCED_FACE('',(#867,#868),#23,.F.);
#981=ADVANCED_FACE('',(#869,#870),#24,.F.);
#982=ADVANCED_FACE('',(#871,#872),#25,.F.);
#983=ADVANCED_FACE('',(#873,#874),#26,.F.);
#984=ADVANCED_FACE('',(#875,#876),#27,.F.);
#985=ADVANCED_FACE('',(#877),#948,.F.);
#986=ADVANCED_FACE('',(#878),#949,.F.);
#987=ADVANCED_FACE('',(#879),#950,.F.);
#988=ADVANCED_FACE('',(#880),#951,.F.);
#989=ADVANCED_FACE('',(#881,#882,#883),#952,.T.);
#990=ADVANCED_FACE('',(#884),#953,.T.);
#991=ADVANCED_FACE('',(#885),#28,.F.);
#992=ADVANCED_FACE('',(#886),#954,.F.);
#993=ADVANCED_FACE('',(#887),#29,.F.);
#994=ADVANCED_FACE('',(#888),#30,.T.);
#995=ADVANCED_FACE('',(#889),#31,.T.);
#996=ADVANCED_FACE('',(#890),#32,.T.);
#997=ADVANCED_FACE('',(#891),#74,.T.);
#998=ADVANCED_FACE('',(#892),#75,.T.);
#999=ADVANCED_FACE('',(#893),#33,.T.);
#1000=ADVANCED_FACE('',(#894),#34,.T.);
#1001=ADVANCED_FACE('',(#895),#35,.T.);
#1002=ADVANCED_FACE('',(#896),#36,.T.);
#1003=ADVANCED_FACE('',(#897),#76,.T.);
#1004=ADVANCED_FACE('',(#898),#77,.T.);
#1005=ADVANCED_FACE('',(#899),#37,.T.);
#1006=ADVANCED_FACE('',(#900),#955,.T.);
#1007=ADVANCED_FACE('',(#901,#902),#38,.F.);
#1008=ADVANCED_FACE('',(#903,#904),#39,.F.);
#1009=ADVANCED_FACE('',(#905),#78,.F.);
#1010=ADVANCED_FACE('',(#906),#79,.F.);
#1011=ADVANCED_FACE('',(#907),#956,.F.);
#1012=ADVANCED_FACE('',(#908,#909),#40,.F.);
#1013=ADVANCED_FACE('',(#910,#911),#41,.F.);
#1014=ADVANCED_FACE('',(#912),#80,.F.);
#1015=ADVANCED_FACE('',(#913),#81,.F.);
#1016=ADVANCED_FACE('',(#914),#12,.T.);
#1017=ADVANCED_FACE('',(#915),#957,.F.);
#1018=ADVANCED_FACE('',(#916),#958,.F.);
#1019=ADVANCED_FACE('',(#917),#13,.T.);
#1020=ADVANCED_FACE('',(#918),#14,.T.);
#1021=ADVANCED_FACE('',(#919),#959,.F.);
#1022=ADVANCED_FACE('',(#920),#960,.F.);
#1023=ADVANCED_FACE('',(#921),#15,.T.);
#1024=ADVANCED_FACE('',(#922,#923),#961,.T.);
#1025=ADVANCED_FACE('',(#924,#925),#962,.T.);
#1026=ADVANCED_FACE('',(#926,#927),#963,.T.);
#1027=ADVANCED_FACE('',(#928,#929),#964,.T.);
#1028=ADVANCED_FACE('',(#930,#931),#16,.F.);
#1029=ADVANCED_FACE('',(#932,#933),#17,.F.);
#1030=ADVANCED_FACE('',(#934,#935),#18,.F.);
#1031=ADVANCED_FACE('',(#936,#937),#19,.F.);
#1032=ADVANCED_FACE('',(#938),#965,.F.);
#1033=ADVANCED_FACE('',(#939),#966,.T.);
#1034=CLOSED_SHELL('',(#967,#968,#969,#970,#971,#972,#973,#974,#975,#976,
#977,#978,#979,#980,#981,#982,#983,#984,#985,#986,#987,#988,#989,#990,#991,
#992,#993,#994,#995,#996,#997,#998,#999,#1000,#1001,#1002,#1003,#1004,#1005,
#1006,#1007,#1008,#1009,#1010,#1011,#1012,#1013,#1014,#1015,#1016,#1017,
#1018,#1019,#1020,#1021,#1022,#1023,#1024,#1025,#1026,#1027,#1028,#1029,
#1030,#1031,#1032,#1033));
#1035=STYLED_ITEM('',(#1036),#1043);
#1036=PRESENTATION_STYLE_ASSIGNMENT((#1037));
#1037=SURFACE_STYLE_USAGE(.BOTH.,#1038);
#1038=SURFACE_SIDE_STYLE('',(#1039));
#1039=SURFACE_STYLE_FILL_AREA(#1040);
#1040=FILL_AREA_STYLE('',(#1041));
#1041=FILL_AREA_STYLE_COLOUR('',#1042);
#1042=COLOUR_RGB('',0.901960784313726,0.87843137254902,0.811764705882353);
#1043=MANIFOLD_SOLID_BREP('Top',#1034);
#1044=SHAPE_DEFINITION_REPRESENTATION(#1970,#1045);
#1045=SHAPE_REPRESENTATION('Top',(#1046),#1965);
#1046=AXIS2_PLACEMENT_3D('',#1516,#1188,#1189);
#1047=AXIS2_PLACEMENT_3D('',#1517,#1190,#1191);
#1048=AXIS2_PLACEMENT_3D('',#1518,#1192,#1193);
#1049=AXIS2_PLACEMENT_3D('',#1520,#1194,#1195);
#1050=AXIS2_PLACEMENT_3D('',#1525,#1197,#1198);
#1051=AXIS2_PLACEMENT_3D('',#1529,#1200,#1201);
#1052=AXIS2_PLACEMENT_3D('',#1533,#1203,#1204);
#1053=AXIS2_PLACEMENT_3D('',#1537,#1206,#1207);
#1054=AXIS2_PLACEMENT_3D('',#1538,#1208,#1209);
#1055=AXIS2_PLACEMENT_3D('',#1539,#1210,#1211);
#1056=AXIS2_PLACEMENT_3D('',#1542,#1212,#1213);
#1057=AXIS2_PLACEMENT_3D('',#1544,#1214,#1215);
#1058=AXIS2_PLACEMENT_3D('',#1546,#1216,#1217);
#1059=AXIS2_PLACEMENT_3D('',#1547,#1218,#1219);
#1060=AXIS2_PLACEMENT_3D('',#1549,#1220,#1221);
#1061=AXIS2_PLACEMENT_3D('',#1551,#1222,#1223);
#1062=AXIS2_PLACEMENT_3D('',#1552,#1224,#1225);
#1063=AXIS2_PLACEMENT_3D('',#1554,#1226,#1227);
#1064=AXIS2_PLACEMENT_3D('',#1556,#1228,#1229);
#1065=AXIS2_PLACEMENT_3D('',#1568,#1230,#1231);
#1066=AXIS2_PLACEMENT_3D('',#1580,#1232,#1233);
#1067=AXIS2_PLACEMENT_3D('',#1581,#1234,#1235);
#1068=AXIS2_PLACEMENT_3D('',#1582,#1236,#1237);
#1069=AXIS2_PLACEMENT_3D('',#1584,#1238,#1239);
#1070=AXIS2_PLACEMENT_3D('',#1591,#1242,#1243);
#1071=AXIS2_PLACEMENT_3D('',#1594,#1245,#1246);
#1072=AXIS2_PLACEMENT_3D('',#1601,#1247,#1248);
#1073=AXIS2_PLACEMENT_3D('',#1608,#1249,#1250);
#1074=AXIS2_PLACEMENT_3D('',#1621,#1251,#1252);
#1075=AXIS2_PLACEMENT_3D('',#1632,#1253,#1254);
#1076=AXIS2_PLACEMENT_3D('',#1633,#1255,#1256);
#1077=AXIS2_PLACEMENT_3D('',#1635,#1257,#1258);
#1078=AXIS2_PLACEMENT_3D('',#1637,#1259,#1260);
#1079=AXIS2_PLACEMENT_3D('',#1639,#1261,#1262);
#1080=AXIS2_PLACEMENT_3D('',#1644,#1264,#1265);
#1081=AXIS2_PLACEMENT_3D('',#1648,#1267,#1268);
#1082=AXIS2_PLACEMENT_3D('',#1652,#1270,#1271);
#1083=AXIS2_PLACEMENT_3D('',#1656,#1273,#1274);
#1084=AXIS2_PLACEMENT_3D('',#1660,#1276,#1277);
#1085=AXIS2_PLACEMENT_3D('',#1664,#1279,#1280);
#1086=AXIS2_PLACEMENT_3D('',#1668,#1282,#1283);
#1087=AXIS2_PLACEMENT_3D('',#1672,#1285,#1286);
#1088=AXIS2_PLACEMENT_3D('',#1673,#1287,#1288);
#1089=AXIS2_PLACEMENT_3D('',#1679,#1292,#1293);
#1090=AXIS2_PLACEMENT_3D('',#1685,#1297,#1298);
#1091=AXIS2_PLACEMENT_3D('',#1691,#1302,#1303);
#1092=AXIS2_PLACEMENT_3D('',#1697,#1307,#1308);
#1093=AXIS2_PLACEMENT_3D('',#1703,#1312,#1313);
#1094=AXIS2_PLACEMENT_3D('',#1705,#1314,#1315);
#1095=AXIS2_PLACEMENT_3D('',#1707,#1316,#1317);
#1096=AXIS2_PLACEMENT_3D('',#1708,#1318,#1319);
#1097=AXIS2_PLACEMENT_3D('',#1710,#1320,#1321);
#1098=AXIS2_PLACEMENT_3D('',#1711,#1322,#1323);
#1099=AXIS2_PLACEMENT_3D('',#1713,#1324,#1325);
#1100=AXIS2_PLACEMENT_3D('',#1714,#1326,#1327);
#1101=AXIS2_PLACEMENT_3D('',#1716,#1328,#1329);
#1102=AXIS2_PLACEMENT_3D('',#1717,#1330,#1331);
#1103=AXIS2_PLACEMENT_3D('',#1719,#1332,#1333);
#1104=AXIS2_PLACEMENT_3D('',#1720,#1334,#1335);
#1105=AXIS2_PLACEMENT_3D('',#1722,#1336,#1337);
#1106=AXIS2_PLACEMENT_3D('',#1723,#1338,#1339);
#1107=AXIS2_PLACEMENT_3D('',#1725,#1340,#1341);
#1108=AXIS2_PLACEMENT_3D('',#1726,#1342,#1343);
#1109=AXIS2_PLACEMENT_3D('',#1728,#1344,#1345);
#1110=AXIS2_PLACEMENT_3D('',#1729,#1346,#1347);
#1111=AXIS2_PLACEMENT_3D('',#1731,#1348,#1349);
#1112=AXIS2_PLACEMENT_3D('',#1743,#1351,#1352);
#1113=AXIS2_PLACEMENT_3D('',#1755,#1354,#1355);
#1114=AXIS2_PLACEMENT_3D('',#1767,#1357,#1358);
#1115=AXIS2_PLACEMENT_3D('',#1779,#1360,#1361);
#1116=AXIS2_PLACEMENT_3D('',#1780,#1362,#1363);
#1117=AXIS2_PLACEMENT_3D('',#1782,#1364,#1365);
#1118=AXIS2_PLACEMENT_3D('',#1787,#1368,#1369);
#1119=AXIS2_PLACEMENT_3D('',#1791,#1371,#1372);
#1120=AXIS2_PLACEMENT_3D('',#1794,#1374,#1375);
#1121=AXIS2_PLACEMENT_3D('',#1797,#1378,#1379);
#1122=AXIS2_PLACEMENT_3D('',#1799,#1381,#1382);
#1123=AXIS2_PLACEMENT_3D('',#1801,#1384,#1385);
#1124=AXIS2_PLACEMENT_3D('',#1802,#1386,#1387);
#1125=AXIS2_PLACEMENT_3D('',#1803,#1388,#1389);
#1126=AXIS2_PLACEMENT_3D('',#1804,#1390,#1391);
#1127=AXIS2_PLACEMENT_3D('',#1805,#1392,#1393);
#1128=AXIS2_PLACEMENT_3D('',#1806,#1394,#1395);
#1129=AXIS2_PLACEMENT_3D('',#1807,#1396,#1397);
#1130=AXIS2_PLACEMENT_3D('',#1808,#1398,#1399);
#1131=AXIS2_PLACEMENT_3D('',#1809,#1400,#1401);
#1132=AXIS2_PLACEMENT_3D('',#1810,#1402,#1403);
#1133=AXIS2_PLACEMENT_3D('',#1811,#1404,#1405);
#1134=AXIS2_PLACEMENT_3D('',#1812,#1406,#1407);
#1135=AXIS2_PLACEMENT_3D('',#1813,#1408,#1409);
#1136=AXIS2_PLACEMENT_3D('',#1814,#1410,#1411);
#1137=AXIS2_PLACEMENT_3D('',#1815,#1412,#1413);
#1138=AXIS2_PLACEMENT_3D('',#1816,#1414,#1415);
#1139=AXIS2_PLACEMENT_3D('',#1817,#1416,#1417);
#1140=AXIS2_PLACEMENT_3D('',#1818,#1418,#1419);
#1141=AXIS2_PLACEMENT_3D('',#1819,#1420,#1421);
#1142=AXIS2_PLACEMENT_3D('',#1820,#1422,#1423);
#1143=AXIS2_PLACEMENT_3D('',#1821,#1424,#1425);
#1144=AXIS2_PLACEMENT_3D('',#1822,#1426,#1427);
#1145=AXIS2_PLACEMENT_3D('',#1823,#1428,#1429);
#1146=AXIS2_PLACEMENT_3D('',#1824,#1430,#1431);
#1147=AXIS2_PLACEMENT_3D('',#1825,#1432,#1433);
#1148=AXIS2_PLACEMENT_3D('',#1826,#1434,#1435);
#1149=AXIS2_PLACEMENT_3D('',#1828,#1437,#1438);
#1150=AXIS2_PLACEMENT_3D('',#1829,#1439,#1440);
#1151=AXIS2_PLACEMENT_3D('',#1854,#1441,#1442);
#1152=AXIS2_PLACEMENT_3D('',#1855,#1443,#1444);
#1153=AXIS2_PLACEMENT_3D('',#1880,#1445,#1446);
#1154=AXIS2_PLACEMENT_3D('',#1881,#1447,#1448);
#1155=AXIS2_PLACEMENT_3D('',#1882,#1449,#1450);
#1156=AXIS2_PLACEMENT_3D('',#1884,#1452,#1453);
#1157=AXIS2_PLACEMENT_3D('',#1885,#1454,#1455);
#1158=AXIS2_PLACEMENT_3D('',#1910,#1456,#1457);
#1159=AXIS2_PLACEMENT_3D('',#1911,#1458,#1459);
#1160=AXIS2_PLACEMENT_3D('',#1936,#1460,#1461);
#1161=AXIS2_PLACEMENT_3D('',#1937,#1462,#1463);
#1162=AXIS2_PLACEMENT_3D('',#1938,#1464,#1465);
#1163=AXIS2_PLACEMENT_3D('',#1939,#1466,#1467);
#1164=AXIS2_PLACEMENT_3D('',#1940,#1468,#1469);
#1165=AXIS2_PLACEMENT_3D('',#1941,#1470,#1471);
#1166=AXIS2_PLACEMENT_3D('',#1942,#1472,#1473);
#1167=AXIS2_PLACEMENT_3D('',#1943,#1474,#1475);
#1168=AXIS2_PLACEMENT_3D('',#1944,#1476,#1477);
#1169=AXIS2_PLACEMENT_3D('',#1945,#1478,#1479);
#1170=AXIS2_PLACEMENT_3D('',#1946,#1480,#1481);
#1171=AXIS2_PLACEMENT_3D('',#1947,#1482,#1483);
#1172=AXIS2_PLACEMENT_3D('',#1948,#1484,#1485);
#1173=AXIS2_PLACEMENT_3D('',#1949,#1486,#1487);
#1174=AXIS2_PLACEMENT_3D('',#1950,#1488,#1489);
#1175=AXIS2_PLACEMENT_3D('',#1951,#1490,#1491);
#1176=AXIS2_PLACEMENT_3D('',#1952,#1492,#1493);
#1177=AXIS2_PLACEMENT_3D('',#1953,#1494,#1495);
#1178=AXIS2_PLACEMENT_3D('',#1954,#1496,#1497);
#1179=AXIS2_PLACEMENT_3D('',#1955,#1498,#1499);
#1180=AXIS2_PLACEMENT_3D('',#1956,#1500,#1501);
#1181=AXIS2_PLACEMENT_3D('',#1957,#1502,#1503);
#1182=AXIS2_PLACEMENT_3D('',#1958,#1504,#1505);
#1183=AXIS2_PLACEMENT_3D('',#1959,#1506,#1507);
#1184=AXIS2_PLACEMENT_3D('',#1960,#1508,#1509);
#1185=AXIS2_PLACEMENT_3D('',#1961,#1510,#1511);
#1186=AXIS2_PLACEMENT_3D('',#1962,#1512,#1513);
#1187=AXIS2_PLACEMENT_3D('',#1963,#1514,#1515);
#1188=DIRECTION('',(0.,0.,1.));
#1189=DIRECTION('',(1.,0.,0.));
#1190=DIRECTION('',(0.,0.,1.));
#1191=DIRECTION('',(1.,0.,0.));
#1192=DIRECTION('',(0.,0.,1.));
#1193=DIRECTION('',(1.,0.,0.));
#1194=DIRECTION('',(0.,0.,1.));
#1195=DIRECTION('',(1.,0.,0.));
#1196=DIRECTION('',(0.,-1.,0.));
#1197=DIRECTION('',(0.,0.,1.));
#1198=DIRECTION('',(1.,0.,0.));
#1199=DIRECTION('',(1.,0.,0.));
#1200=DIRECTION('',(0.,0.,1.));
#1201=DIRECTION('',(1.,0.,0.));
#1202=DIRECTION('',(-8.16340459283203E-17,1.,0.));
#1203=DIRECTION('',(0.,0.,1.));
#1204=DIRECTION('',(1.,0.,0.));
#1205=DIRECTION('',(-1.,0.,0.));
#1206=DIRECTION('',(0.,0.,1.));
#1207=DIRECTION('',(1.,0.,0.));
#1208=DIRECTION('',(0.,0.,1.));
#1209=DIRECTION('',(-1.,0.,0.));
#1210=DIRECTION('',(-1.,0.,0.));
#1211=DIRECTION('',(0.,0.,1.));
#1212=DIRECTION('',(0.707106781186548,0.,0.707106781186548));
#1213=DIRECTION('',(0.707106781186548,0.,-0.707106781186548));
#1214=DIRECTION('',(0.,0.,1.));
#1215=DIRECTION('',(1.,0.,0.));
#1216=DIRECTION('',(0.,-0.78636685417602,-0.617759800127291));
#1217=DIRECTION('',(0.,0.617759800127291,-0.78636685417602));
#1218=DIRECTION('',(0.707106781186548,0.,-0.707106781186548));
#1219=DIRECTION('',(-0.707106781186548,0.,-0.707106781186548));
#1220=DIRECTION('',(-1.,0.,0.));
#1221=DIRECTION('',(0.,0.,1.));
#1222=DIRECTION('',(0.707106781186548,0.,-0.707106781186548));
#1223=DIRECTION('',(-0.707106781186548,0.,-0.707106781186548));
#1224=DIRECTION('',(0.,0.78636685417602,-0.617759800127291));
#1225=DIRECTION('',(0.,0.617759800127291,0.78636685417602));
#1226=DIRECTION('',(0.,0.,1.));
#1227=DIRECTION('',(1.,0.,0.));
#1228=DIRECTION('',(0.707106781186548,0.,0.707106781186548));
#1229=DIRECTION('',(0.707106781186548,0.,-0.707106781186548));
#1230=DIRECTION('',(-1.,0.,0.));
#1231=DIRECTION('',(0.,0.,1.));
#1232=DIRECTION('',(-1.,0.,0.));
#1233=DIRECTION('',(0.,0.,1.));
#1234=DIRECTION('',(0.,0.,1.));
#1235=DIRECTION('',(1.,0.,0.));
#1236=DIRECTION('',(0.,0.,1.));
#1237=DIRECTION('',(1.,0.,0.));
#1238=DIRECTION('',(0.,0.,1.));
#1239=DIRECTION('',(1.,0.,0.));
#1240=DIRECTION('',(-8.16340459283203E-17,1.,0.));
#1241=DIRECTION('',(1.,0.,0.));
#1242=DIRECTION('',(0.,0.,1.));
#1243=DIRECTION('',(1.,0.,0.));
#1244=DIRECTION('',(-1.,0.,0.));
#1245=DIRECTION('',(0.,0.,1.));
#1246=DIRECTION('',(-1.,0.,0.));
#1247=DIRECTION('',(0.,0.,1.));
#1248=DIRECTION('',(1.,0.,0.));
#1249=DIRECTION('',(-1.,0.,0.));
#1250=DIRECTION('',(0.,0.,1.));
#1251=DIRECTION('',(-1.,0.,0.));
#1252=DIRECTION('',(0.,0.,1.));
#1253=DIRECTION('',(0.,0.,1.));
#1254=DIRECTION('',(1.,0.,0.));
#1255=DIRECTION('',(0.,0.,1.));
#1256=DIRECTION('',(1.,0.,0.));
#1257=DIRECTION('',(0.,0.,1.));
#1258=DIRECTION('',(1.,0.,0.));
#1259=DIRECTION('',(0.,0.,1.));
#1260=DIRECTION('',(1.,0.,0.));
#1261=DIRECTION('',(0.,0.,1.));
#1262=DIRECTION('',(1.,0.,0.));
#1263=DIRECTION('',(-8.16340459283203E-17,1.,0.));
#1264=DIRECTION('',(0.,0.,1.));
#1265=DIRECTION('',(0.707106781186548,0.707106781186548,0.));
#1266=DIRECTION('',(-1.,0.,0.));
#1267=DIRECTION('',(0.,0.,1.));
#1268=DIRECTION('',(-0.707106781186548,0.707106781186548,0.));
#1269=DIRECTION('',(8.16340459283203E-17,-1.,0.));
#1270=DIRECTION('',(0.,0.,1.));
#1271=DIRECTION('',(-0.707106781186548,-0.707106781186548,0.));
#1272=DIRECTION('',(1.,0.,0.));
#1273=DIRECTION('',(0.,0.,1.));
#1274=DIRECTION('',(0.707106781186548,-0.707106781186548,0.));
#1275=DIRECTION('',(8.16340459283203E-17,-1.,0.));
#1276=DIRECTION('',(0.,0.,1.));
#1277=DIRECTION('',(1.,0.,0.));
#1278=DIRECTION('',(-1.,0.,0.));
#1279=DIRECTION('',(0.,0.,1.));
#1280=DIRECTION('',(1.,0.,0.));
#1281=DIRECTION('',(-8.16340459283203E-17,1.,0.));
#1282=DIRECTION('',(0.,0.,1.));
#1283=DIRECTION('',(1.,0.,0.));
#1284=DIRECTION('',(1.,0.,0.));
#1285=DIRECTION('',(0.,0.,1.));
#1286=DIRECTION('',(1.,0.,0.));
#1287=DIRECTION('',(0.,0.965925826289068,-0.258819045102521));
#1288=DIRECTION('',(0.,-0.258819045102521,-0.965925826289068));
#1289=DIRECTION('',(-0.250562807085731,-0.250562807085731,-0.935113126531029));
#1290=DIRECTION('',(1.,0.,0.));
#1291=DIRECTION('',(-0.250562807085731,0.250562807085731,0.935113126531029));
#1292=DIRECTION('',(-0.965925826289068,-7.88524332666326E-17,-0.258819045102521));
#1293=DIRECTION('',(0.258819045102521,2.11284458150232E-17,-0.965925826289068));
#1294=DIRECTION('',(0.250562807085731,-0.250562807085731,-0.935113126531029));
#1295=DIRECTION('',(8.16340459283203E-17,-1.,-5.74679662842892E-33));
#1296=DIRECTION('',(-0.250562807085731,-0.250562807085731,0.935113126531029));
#1297=DIRECTION('',(0.,-0.965925826289068,-0.258819045102521));
#1298=DIRECTION('',(0.,0.258819045102521,-0.965925826289068));
#1299=DIRECTION('',(-0.250562807085731,-0.250562807085731,0.935113126531029));
#1300=DIRECTION('',(1.,0.,0.));
#1301=DIRECTION('',(-0.250562807085731,0.250562807085731,-0.935113126531029));
#1302=DIRECTION('',(0.965925826289068,7.88524332666326E-17,-0.258819045102521));
#1303=DIRECTION('',(-0.258819045102521,-2.11284458150232E-17,-0.965925826289068));
#1304=DIRECTION('',(8.16340459283203E-17,-1.,6.14557050774144E-33));
#1305=DIRECTION('',(-0.250562807085731,-0.250562807085731,-0.935113126531029));
#1306=DIRECTION('',(0.250562807085731,-0.250562807085731,0.935113126531029));
#1307=DIRECTION('',(0.,0.,1.));
#1308=DIRECTION('',(1.,0.,0.));
#1309=DIRECTION('',(1.,0.,0.));
#1310=DIRECTION('',(8.16340459283203E-17,-1.,0.));
#1311=DIRECTION('',(-1.,0.,0.));
#1312=DIRECTION('',(0.,0.,1.));
#1313=DIRECTION('',(1.,0.,0.));
#1314=DIRECTION('',(0.,0.,1.));
#1315=DIRECTION('',(1.,0.,0.));
#1316=DIRECTION('',(0.,0.,1.));
#1317=DIRECTION('',(1.,0.,0.));
#1318=DIRECTION('',(0.,0.,-1.));
#1319=DIRECTION('',(-1.,0.,0.));
#1320=DIRECTION('',(0.,0.,1.));
#1321=DIRECTION('',(1.,0.,0.));
#1322=DIRECTION('',(0.,0.,-1.));
#1323=DIRECTION('',(-1.,0.,0.));
#1324=DIRECTION('',(0.,0.,1.));
#1325=DIRECTION('',(1.,0.,0.));
#1326=DIRECTION('',(0.,0.,-1.));
#1327=DIRECTION('',(-1.,0.,0.));
#1328=DIRECTION('',(0.,0.,1.));
#1329=DIRECTION('',(1.,0.,0.));
#1330=DIRECTION('',(0.,0.,-1.));
#1331=DIRECTION('',(-1.,0.,0.));
#1332=DIRECTION('',(0.,0.,1.));
#1333=DIRECTION('',(1.,0.,0.));
#1334=DIRECTION('',(0.,0.,1.));
#1335=DIRECTION('',(1.,0.,0.));
#1336=DIRECTION('',(0.,0.,1.));
#1337=DIRECTION('',(1.,0.,0.));
#1338=DIRECTION('',(0.,0.,-1.));
#1339=DIRECTION('',(-1.,0.,0.));
#1340=DIRECTION('',(0.,0.,1.));
#1341=DIRECTION('',(1.,0.,0.));
#1342=DIRECTION('',(0.,0.,-1.));
#1343=DIRECTION('',(-1.,0.,0.));
#1344=DIRECTION('',(0.,0.,1.));
#1345=DIRECTION('',(1.,0.,0.));
#1346=DIRECTION('',(0.,0.,-1.));
#1347=DIRECTION('',(-1.,0.,0.));
#1348=DIRECTION('',(0.,0.965925826289068,-0.258819045102521));
#1349=DIRECTION('',(0.,-0.258819045102521,-0.965925826289068));
#1350=DIRECTION('',(-1.,0.,0.));
#1351=DIRECTION('',(-0.965925826289068,-7.88524332666326E-17,-0.258819045102521));
#1352=DIRECTION('',(0.258819045102521,2.11284458150232E-17,-0.965925826289068));
#1353=DIRECTION('',(-8.16340459283203E-17,1.,2.76278647880252E-33));
#1354=DIRECTION('',(0.,-0.965925826289068,-0.258819045102521));
#1355=DIRECTION('',(0.,0.258819045102521,-0.965925826289068));
#1356=DIRECTION('',(-1.,0.,0.));
#1357=DIRECTION('',(0.965925826289068,7.88524332666326E-17,-0.258819045102521));
#1358=DIRECTION('',(-0.258819045102521,-2.11284458150232E-17,-0.965925826289068));
#1359=DIRECTION('',(-8.16340459283203E-17,1.,-2.36401259949001E-33));
#1360=DIRECTION('',(0.,0.,1.));
#1361=DIRECTION('',(1.,0.,0.));
#1362=DIRECTION('',(0.,0.,1.));
#1363=DIRECTION('',(1.,0.,0.));
#1364=DIRECTION('',(0.,0.,1.));
#1365=DIRECTION('',(1.,0.,0.));
#1366=DIRECTION('',(0.,1.,0.));
#1367=DIRECTION('',(-1.,0.,0.));
#1368=DIRECTION('',(0.,0.,1.));
#1369=DIRECTION('',(1.,0.,0.));
#1370=DIRECTION('',(8.16340459283203E-17,-1.,0.));
#1371=DIRECTION('',(0.,0.,1.));
#1372=DIRECTION('',(1.,0.,0.));
#1373=DIRECTION('',(1.,0.,0.));
#1374=DIRECTION('',(-1.,0.,0.));
#1375=DIRECTION('',(0.,0.,1.));
#1376=DIRECTION('',(0.,0.,1.));
#1377=DIRECTION('',(0.,0.,1.));
#1378=DIRECTION('',(0.,0.,1.));
#1379=DIRECTION('',(1.,0.,0.));
#1380=DIRECTION('',(0.,0.,1.));
#1381=DIRECTION('',(-1.,0.,0.));
#1382=DIRECTION('',(0.,0.,1.));
#1383=DIRECTION('',(0.,0.,1.));
#1384=DIRECTION('',(0.,0.,1.));
#1385=DIRECTION('',(1.,0.,0.));
#1386=DIRECTION('',(-0.250562807085731,0.250562807085731,0.935113126531029));
#1387=DIRECTION('',(0.965925826289068,0.,0.258819045102521));
#1388=DIRECTION('',(0.250562807085732,-0.250562807085733,-0.935113126531029));
#1389=DIRECTION('',(0.,0.965925826289068,-0.258819045102522));
#1390=DIRECTION('',(0.250562807085731,0.250562807085731,0.935113126531029));
#1391=DIRECTION('',(0.,-0.965925826289068,0.258819045102521));
#1392=DIRECTION('',(-0.25056280708573,-0.250562807085732,-0.93511312653103));
#1393=DIRECTION('',(0.,0.965925826289068,-0.258819045102521));
#1394=DIRECTION('',(-1.,0.,0.));
#1395=DIRECTION('',(0.,0.,1.));
#1396=DIRECTION('',(-1.,-9.29635508958593E-16,-3.46944695195361E-15));
#1397=DIRECTION('',(-3.46944695195361E-15,0.,1.));
#1398=DIRECTION('',(1.,-3.59183578855395E-15,0.));
#1399=DIRECTION('',(3.59183578855395E-15,1.,0.));
#1400=DIRECTION('',(3.46944695195361E-15,0.,-1.));
#1401=DIRECTION('',(-1.,0.,-3.46944695195361E-15));
#1402=DIRECTION('',(0.,1.,0.));
#1403=DIRECTION('',(0.,0.,1.));
#1404=DIRECTION('',(-3.46944695195361E-15,0.,-1.));
#1405=DIRECTION('',(-1.,0.,3.46944695195361E-15));
#1406=DIRECTION('',(-9.29635508958591E-16,1.,-3.46944695195361E-15));
#1407=DIRECTION('',(0.,3.46944695195361E-15,1.));
#1408=DIRECTION('',(-8.16340459283203E-17,1.,0.));
#1409=DIRECTION('',(-1.,-8.16340459283203E-17,0.));
#1410=DIRECTION('',(9.29635508958591E-16,-1.,-3.46944695195361E-15));
#1411=DIRECTION('',(0.,3.46944695195361E-15,-1.));
#1412=DIRECTION('',(-0.250562807085731,-0.250562807085731,0.935113126531029));
#1413=DIRECTION('',(0.,-0.965925826289068,-0.258819045102521));
#1414=DIRECTION('',(0.25056280708573,0.250562807085732,-0.93511312653103));
#1415=DIRECTION('',(0.,0.965925826289068,0.258819045102521));
#1416=DIRECTION('',(0.250562807085731,-0.250562807085731,0.935113126531029));
#1417=DIRECTION('',(0.965925826289068,0.,-0.258819045102521));
#1418=DIRECTION('',(-0.250562807085732,0.250562807085733,-0.935113126531029));
#1419=DIRECTION('',(0.,0.965925826289068,0.258819045102522));
#1420=DIRECTION('',(-8.16340459283203E-17,1.,0.));
#1421=DIRECTION('',(-1.,-8.16340459283203E-17,0.));
#1422=DIRECTION('',(0.,-1.,0.));
#1423=DIRECTION('',(0.,0.,-1.));
#1424=DIRECTION('',(3.46944695195361E-15,0.,-1.));
#1425=DIRECTION('',(-1.,0.,-3.46944695195361E-15));
#1426=DIRECTION('',(-1.,3.59183578855395E-15,0.));
#1427=DIRECTION('',(-3.59183578855395E-15,-1.,0.));
#1428=DIRECTION('',(-3.46944695195361E-15,0.,-1.));
#1429=DIRECTION('',(-1.,0.,3.46944695195361E-15));
#1430=DIRECTION('',(1.,9.29635508958593E-16,-3.46944695195361E-15));
#1431=DIRECTION('',(-3.46944695195361E-15,0.,-1.));
#1432=DIRECTION('',(-1.,0.,0.));
#1433=DIRECTION('',(0.,0.,1.));
#1434=DIRECTION('',(-1.,0.,0.));
#1435=DIRECTION('',(0.,0.,1.));
#1436=DIRECTION('',(0.,1.,0.));
#1437=DIRECTION('',(0.,0.,1.));
#1438=DIRECTION('',(1.,0.,0.));
#1439=DIRECTION('',(0.,0.,1.));
#1440=DIRECTION('',(1.,0.,0.));
#1441=DIRECTION('',(0.,0.,1.));
#1442=DIRECTION('',(1.,0.,0.));
#1443=DIRECTION('',(0.,0.,1.));
#1444=DIRECTION('',(1.,0.,0.));
#1445=DIRECTION('',(0.,0.,1.));
#1446=DIRECTION('',(-1.,0.,0.));
#1447=DIRECTION('',(0.,0.,1.));
#1448=DIRECTION('',(-1.,0.,0.));
#1449=DIRECTION('',(-1.,0.,0.));
#1450=DIRECTION('',(0.,0.,1.));
#1451=DIRECTION('',(0.,-1.,0.));
#1452=DIRECTION('',(0.,0.,1.));
#1453=DIRECTION('',(1.,0.,0.));
#1454=DIRECTION('',(0.,0.,1.));
#1455=DIRECTION('',(1.,0.,0.));
#1456=DIRECTION('',(0.,0.,1.));
#1457=DIRECTION('',(1.,0.,0.));
#1458=DIRECTION('',(0.,0.,1.));
#1459=DIRECTION('',(1.,0.,0.));
#1460=DIRECTION('',(0.,0.,1.));
#1461=DIRECTION('',(-1.,0.,0.));
#1462=DIRECTION('',(0.,0.,1.));
#1463=DIRECTION('',(-1.,0.,0.));
#1464=DIRECTION('',(0.,0.,-1.));
#1465=DIRECTION('',(-1.,0.,0.));
#1466=DIRECTION('',(0.786366854176021,6.4194307890314E-17,-0.61775980012729));
#1467=DIRECTION('',(-0.61775980012729,-5.04302318962612E-17,-0.786366854176021));
#1468=DIRECTION('',(0.,-0.78636685417602,-0.617759800127291));
#1469=DIRECTION('',(0.,0.617759800127291,-0.78636685417602));
#1470=DIRECTION('',(0.,-0.78636685417602,-0.617759800127291));
#1471=DIRECTION('',(1.,0.,0.));
#1472=DIRECTION('',(0.,-0.78636685417602,-0.617759800127291));
#1473=DIRECTION('',(0.,0.617759800127291,-0.78636685417602));
#1474=DIRECTION('',(0.786366854176021,6.4194307890314E-17,-0.61775980012729));
#1475=DIRECTION('',(8.16340459283203E-17,-1.,0.));
#1476=DIRECTION('',(0.786366854176021,6.4194307890314E-17,-0.61775980012729));
#1477=DIRECTION('',(-0.61775980012729,-5.04302318962612E-17,-0.786366854176021));
#1478=DIRECTION('',(0.,0.,-1.));
#1479=DIRECTION('',(-1.,0.,0.));
#1480=DIRECTION('',(-0.786366854176021,-6.4194307890314E-17,-0.61775980012729));
#1481=DIRECTION('',(0.61775980012729,5.04302318962612E-17,-0.786366854176021));
#1482=DIRECTION('',(0.,0.,-1.));
#1483=DIRECTION('',(-1.,0.,0.));
#1484=DIRECTION('',(0.,0.78636685417602,-0.617759800127291));
#1485=DIRECTION('',(0.,-0.617759800127291,-0.78636685417602));
#1486=DIRECTION('',(-0.786366854176021,-6.4194307890314E-17,-0.61775980012729));
#1487=DIRECTION('',(8.16340459283203E-17,-1.,0.));
#1488=DIRECTION('',(-0.786366854176021,-6.4194307890314E-17,-0.61775980012729));
#1489=DIRECTION('',(0.61775980012729,5.04302318962612E-17,-0.786366854176021));
#1490=DIRECTION('',(0.,0.78636685417602,-0.617759800127291));
#1491=DIRECTION('',(1.,0.,0.));
#1492=DIRECTION('',(0.,0.78636685417602,-0.617759800127291));
#1493=DIRECTION('',(0.,-0.617759800127291,-0.78636685417602));
#1494=DIRECTION('',(0.,0.,-1.));
#1495=DIRECTION('',(-1.,0.,0.));
#1496=DIRECTION('',(0.,0.,-1.));
#1497=DIRECTION('',(1.,0.,0.));
#1498=DIRECTION('',(0.,0.,-1.));
#1499=DIRECTION('',(1.,0.,0.));
#1500=DIRECTION('',(0.,0.,-1.));
#1501=DIRECTION('',(1.,0.,0.));
#1502=DIRECTION('',(0.,0.,-1.));
#1503=DIRECTION('',(1.,0.,0.));
#1504=DIRECTION('',(0.,0.,1.));
#1505=DIRECTION('',(1.,0.,0.));
#1506=DIRECTION('',(0.,0.,1.));
#1507=DIRECTION('',(1.,0.,0.));
#1508=DIRECTION('',(0.,0.,1.));
#1509=DIRECTION('',(1.,0.,0.));
#1510=DIRECTION('',(0.,0.,1.));
#1511=DIRECTION('',(1.,0.,0.));
#1512=DIRECTION('',(0.707106781186548,0.,-0.707106781186548));
#1513=DIRECTION('',(0.,-1.,0.));
#1514=DIRECTION('',(0.707106781186548,0.,0.707106781186548));
#1515=DIRECTION('',(0.,1.,0.));
#1516=CARTESIAN_POINT('',(0.,0.,0.));
#1517=CARTESIAN_POINT('',(0.,6.93889390390723E-18,-0.0065));
#1518=CARTESIAN_POINT('',(0.027,0.01,-0.0065));
#1519=CARTESIAN_POINT('',(0.036,0.01,-0.0065));
#1520=CARTESIAN_POINT('',(0.027,-0.01,-0.0065));
#1521=CARTESIAN_POINT('',(0.036,-0.01,-0.0065));
#1522=CARTESIAN_POINT('',(0.017,6.93889390390723E-18,-0.0065));
#1523=CARTESIAN_POINT('',(0.017,0.0349714169000914,-0.0065));
#1524=CARTESIAN_POINT('',(0.017,-0.0349714169000914,-0.0065));
#1525=CARTESIAN_POINT('',(1.0092238946392E-17,0.,-0.0065));
#1526=CARTESIAN_POINT('',(0.012518115913419,-0.0368143555420736,-0.0065));
#1527=CARTESIAN_POINT('',(0.,-0.0368143555420736,-0.0065));
#1528=CARTESIAN_POINT('',(0.0387573642892983,-0.0368143555420736,-0.0065));
#1529=CARTESIAN_POINT('',(0.05,-0.0375,-0.0065));
#1530=CARTESIAN_POINT('',(0.0493143555420736,-0.0262573642892983,-0.0065));
#1531=CARTESIAN_POINT('',(0.0493143555420736,0.0313724998225317,-0.0065));
#1532=CARTESIAN_POINT('',(0.0493143555420736,0.0262573642892983,-0.0065));
#1533=CARTESIAN_POINT('',(0.05,0.0375,-0.0065));
#1534=CARTESIAN_POINT('',(0.0387573642892983,0.0368143555420736,-0.0065));
#1535=CARTESIAN_POINT('',(-0.0438724998225318,0.0368143555420736,-0.0065));
#1536=CARTESIAN_POINT('',(0.0125181159134189,0.0368143555420736,-0.0065));
#1537=CARTESIAN_POINT('',(1.0092238946392E-17,0.,-0.0065));
#1538=CARTESIAN_POINT('',(1.0092238946392E-17,0.,0.008));
#1539=CARTESIAN_POINT('',(-0.015,0.,0.008));
#1540=CARTESIAN_POINT('',(-0.015,-0.035,-0.0085));
#1541=CARTESIAN_POINT('',(-0.015,0.035,-0.0085));
#1542=CARTESIAN_POINT('',(-0.01575,0.,-0.00775));
#1543=CARTESIAN_POINT('',(-0.017,-0.0349714169000914,-0.0065));
#1544=CARTESIAN_POINT('',(1.0092238946392E-17,0.,-0.0065));
#1545=CARTESIAN_POINT('',(-0.0125181159134189,-0.0368143555420736,-0.0065));
#1546=CARTESIAN_POINT('',(1.0092238946392E-17,-0.0298088917417334,-0.015417486261784));
#1547=CARTESIAN_POINT('',(0.01575,0.,-0.00775));
#1548=CARTESIAN_POINT('',(0.015,-0.035,-0.0085));
#1549=CARTESIAN_POINT('',(0.015,0.,0.008));
#1550=CARTESIAN_POINT('',(0.015,0.035,-0.0085));
#1551=CARTESIAN_POINT('',(0.01575,0.,-0.00775));
#1552=CARTESIAN_POINT('',(1.0092238946392E-17,0.0298088917417334,-0.015417486261784));
#1553=CARTESIAN_POINT('',(-0.0125181159134189,0.0368143555420736,-0.0065));
#1554=CARTESIAN_POINT('',(1.0092238946392E-17,0.,-0.0065));
#1555=CARTESIAN_POINT('',(-0.017,0.0349714169000914,-0.0065));
#1556=CARTESIAN_POINT('',(-0.01575,0.,-0.00775));
#1557=CARTESIAN_POINT('',(-0.0031,0.0175,-0.0295018666202097));
#1558=CARTESIAN_POINT('',(-0.0031,0.0182811729448221,-0.0291373373909628));
#1559=CARTESIAN_POINT('',(-0.00265480756973218,0.0194353755173329,-0.0285895088375605));
#1560=CARTESIAN_POINT('',(-0.00128848519980138,0.0204151367411443,-0.0281161736325324));
#1561=CARTESIAN_POINT('',(-8.61267594927714E-6,0.0206906581843653,-0.0279821347481746));
#1562=CARTESIAN_POINT('',(0.00127395097899865,0.0204221660179805,-0.0281127613277115));
#1563=CARTESIAN_POINT('',(0.00265269112535789,0.019442401740012,-0.028586162162613));
#1564=CARTESIAN_POINT('',(0.0031,0.01828190129424,-0.0291369975114858));
#1565=CARTESIAN_POINT('',(0.0031,0.0175,-0.0295018666202097));
#1566=CARTESIAN_POINT('',(-0.0031,0.0175,-0.0295018666202097));
#1567=CARTESIAN_POINT('',(0.0031,0.0175,-0.0295018666202097));
#1568=CARTESIAN_POINT('',(0.0031,0.,0.008));
#1569=CARTESIAN_POINT('',(0.0031,-0.0175,-0.0295018666202097));
#1570=CARTESIAN_POINT('',(0.0031,-0.0175,-0.0295018666202097));
#1571=CARTESIAN_POINT('',(0.0031,-0.0182811729448221,-0.0291373373909628));
#1572=CARTESIAN_POINT('',(0.00265480756973218,-0.0194353755173329,-0.0285895088375605));
#1573=CARTESIAN_POINT('',(0.00128848519980137,-0.0204151367411443,-0.0281161736325324));
#1574=CARTESIAN_POINT('',(8.61267594927862E-6,-0.0206906581843653,-0.0279821347481746));
#1575=CARTESIAN_POINT('',(-0.00127395097899865,-0.0204221660179805,-0.0281127613277116));
#1576=CARTESIAN_POINT('',(-0.00265269112535789,-0.019442401740012,-0.0285861621626129));
#1577=CARTESIAN_POINT('',(-0.0031,-0.01828190129424,-0.0291369975114858));
#1578=CARTESIAN_POINT('',(-0.0031,-0.0175,-0.0295018666202097));
#1579=CARTESIAN_POINT('',(-0.0031,-0.0175,-0.0295018666202097));
#1580=CARTESIAN_POINT('',(-0.0031,0.,0.008));
#1581=CARTESIAN_POINT('',(0.,6.93889390390723E-18,-0.01));
#1582=CARTESIAN_POINT('',(0.05,0.0375,-0.01));
#1583=CARTESIAN_POINT('',(0.05305,0.0375,-0.01));
#1584=CARTESIAN_POINT('',(0.05,-0.0375,-0.01));
#1585=CARTESIAN_POINT('',(0.05305,-0.0375,-0.01));
#1586=CARTESIAN_POINT('',(0.0534653460240421,1.13034864168074E-17,-0.01));
#1587=CARTESIAN_POINT('',(0.0534653460240421,0.0409653460240421,-0.01));
#1588=CARTESIAN_POINT('',(0.0534653460240421,-0.0409653460240421,-0.01));
#1589=CARTESIAN_POINT('',(-0.055,-0.0409653460240421,-0.01));
#1590=CARTESIAN_POINT('',(0.00477916573582673,-0.0409653460240421,-0.01));
#1591=CARTESIAN_POINT('',(1.0092238946392E-17,0.,-0.01));
#1592=CARTESIAN_POINT('',(0.00477916573582661,0.0409653460240421,-0.01));
#1593=CARTESIAN_POINT('',(0.,0.0409653460240421,-0.01));
#1594=CARTESIAN_POINT('',(1.0092238946392E-17,0.,0.008));
#1595=CARTESIAN_POINT('',(0.00477916573582673,-0.0409653460240421,-0.01));
#1596=CARTESIAN_POINT('',(0.0031911579568622,-0.0411506087668735,-0.01));
#1597=CARTESIAN_POINT('',(-4.98989815229055E-6,-0.0413538066539147,-0.00995864369384793));
#1598=CARTESIAN_POINT('',(-0.00319143291215944,-0.0411505766895921,-0.01));
#1599=CARTESIAN_POINT('',(-0.00477916573582671,-0.0409653460240421,-0.01));
#1600=CARTESIAN_POINT('',(-0.00477916573582671,-0.0409653460240421,-0.01));
#1601=CARTESIAN_POINT('',(1.0092238946392E-17,0.,-0.01));
#1602=CARTESIAN_POINT('',(-0.00477916573582659,0.0409653460240421,-0.01));
#1603=CARTESIAN_POINT('',(-0.00477916573582659,0.0409653460240421,-0.01));
#1604=CARTESIAN_POINT('',(-0.0031911579568621,0.0411506087668736,-0.01));
#1605=CARTESIAN_POINT('',(4.98989815230465E-6,0.0413538066539147,-0.00995864369384792));
#1606=CARTESIAN_POINT('',(0.00319143291215939,0.0411505766895921,-0.01));
#1607=CARTESIAN_POINT('',(0.00477916573582662,0.0409653460240421,-0.01));
#1608=CARTESIAN_POINT('',(0.0031,0.,0.008));
#1609=CARTESIAN_POINT('',(0.0031,0.0175,-0.0333417464556107));
#1610=CARTESIAN_POINT('',(0.0031,-0.0175,-0.0333417464556107));
#1611=CARTESIAN_POINT('',(-0.0031,0.0175,-0.0333417464556107));
#1612=CARTESIAN_POINT('',(-0.0031,0.018286878858879,-0.0330086598975678));
#1613=CARTESIAN_POINT('',(-0.00264550686718596,0.0194494571994571,-0.0325095345057082));
#1614=CARTESIAN_POINT('',(-0.00127553988476003,0.0204196136837106,-0.0320869962277551));
#1615=CARTESIAN_POINT('',(-7.26007299290159E-6,0.0206887344855689,-0.0319691384066588));
#1616=CARTESIAN_POINT('',(0.00126353944840398,0.0204254030959647,-0.0320844651517545));
#1617=CARTESIAN_POINT('',(0.00264383297852954,0.0194551312391997,-0.032507091946749));
#1618=CARTESIAN_POINT('',(0.0031,0.0182873852287464,-0.0330084455507286));
#1619=CARTESIAN_POINT('',(0.0031,0.0175,-0.0333417464556107));
#1620=CARTESIAN_POINT('',(-0.0031,0.0175,-0.0333417464556107));
#1621=CARTESIAN_POINT('',(-0.0031,0.,0.008));
#1622=CARTESIAN_POINT('',(-0.0031,-0.0175,-0.0333417464556107));
#1623=CARTESIAN_POINT('',(0.0031,-0.0175,-0.0333417464556107));
#1624=CARTESIAN_POINT('',(0.0031,-0.018286878858879,-0.0330086598975678));
#1625=CARTESIAN_POINT('',(0.00264550686718596,-0.0194494571994571,-0.0325095345057083));
#1626=CARTESIAN_POINT('',(0.00127553988476003,-0.0204196136837106,-0.0320869962277551));
#1627=CARTESIAN_POINT('',(7.26007299290176E-6,-0.0206887344855689,-0.0319691384066588));
#1628=CARTESIAN_POINT('',(-0.00126353944840398,-0.0204254030959647,-0.0320844651517545));
#1629=CARTESIAN_POINT('',(-0.00264383297852954,-0.0194551312391997,-0.032507091946749));
#1630=CARTESIAN_POINT('',(-0.0031,-0.0182873852287464,-0.0330084455507286));
#1631=CARTESIAN_POINT('',(-0.0031,-0.0175,-0.0333417464556107));
#1632=CARTESIAN_POINT('',(0.,6.93889390390723E-18,0.));
#1633=CARTESIAN_POINT('',(-0.05,0.0375,0.));
#1634=CARTESIAN_POINT('',(-0.0485,0.0375,0.));
#1635=CARTESIAN_POINT('',(-0.05,-0.0375,0.));
#1636=CARTESIAN_POINT('',(-0.0485,-0.0375,0.));
#1637=CARTESIAN_POINT('',(0.05,-0.0375,0.));
#1638=CARTESIAN_POINT('',(0.0515,-0.0375,0.));
#1639=CARTESIAN_POINT('',(0.05,0.0375,0.));
#1640=CARTESIAN_POINT('',(0.0515,0.0375,0.));
#1641=CARTESIAN_POINT('',(0.0576794919243112,1.16475041967786E-17,0.));
#1642=CARTESIAN_POINT('',(0.0576794919243112,0.0432476402717331,0.));
#1643=CARTESIAN_POINT('',(0.0576794919243112,-0.043247640271733,0.));
#1644=CARTESIAN_POINT('',(0.0556089395634911,0.0431089395634911,0.));
#1645=CARTESIAN_POINT('',(0.0557476402717331,0.0451794919243112,0.));
#1646=CARTESIAN_POINT('',(0.,0.0451794919243112,0.));
#1647=CARTESIAN_POINT('',(-0.0557476402717331,0.0451794919243112,0.));
#1648=CARTESIAN_POINT('',(-0.0556089395634911,0.0431089395634911,0.));
#1649=CARTESIAN_POINT('',(-0.0576794919243112,0.0432476402717331,0.));
#1650=CARTESIAN_POINT('',(-0.0576794919243112,2.23028361103582E-18,0.));
#1651=CARTESIAN_POINT('',(-0.0576794919243112,-0.0432476402717331,0.));
#1652=CARTESIAN_POINT('',(-0.0556089395634911,-0.0431089395634911,0.));
#1653=CARTESIAN_POINT('',(-0.0557476402717331,-0.0451794919243112,0.));
#1654=CARTESIAN_POINT('',(0.,-0.0451794919243112,0.));
#1655=CARTESIAN_POINT('',(0.0557476402717331,-0.0451794919243112,0.));
#1656=CARTESIAN_POINT('',(0.0556089395634911,-0.0431089395634911,0.));
#1657=CARTESIAN_POINT('',(-0.054056025292876,2.52608185244615E-18,0.));
#1658=CARTESIAN_POINT('',(-0.054056025292876,0.0319225141746644,0.));
#1659=CARTESIAN_POINT('',(-0.054056025292876,-0.0319225141746644,0.));
#1660=CARTESIAN_POINT('',(-0.05,0.0375,0.));
#1661=CARTESIAN_POINT('',(-0.0444225141746644,0.0415560252928759,0.));
#1662=CARTESIAN_POINT('',(0.,0.0415560252928759,0.));
#1663=CARTESIAN_POINT('',(0.0444225141746644,0.0415560252928759,0.));
#1664=CARTESIAN_POINT('',(0.05,0.0375,0.));
#1665=CARTESIAN_POINT('',(0.0540560252928759,0.0319225141746644,0.));
#1666=CARTESIAN_POINT('',(0.0540560252928759,1.13517059553683E-17,0.));
#1667=CARTESIAN_POINT('',(0.0540560252928759,-0.0319225141746644,0.));
#1668=CARTESIAN_POINT('',(0.05,-0.0375,0.));
#1669=CARTESIAN_POINT('',(0.0444225141746644,-0.0415560252928759,0.));
#1670=CARTESIAN_POINT('',(0.,-0.0415560252928759,0.));
#1671=CARTESIAN_POINT('',(-0.0444225141746644,-0.0415560252928759,0.));
#1672=CARTESIAN_POINT('',(-0.05,-0.0375,0.));
#1673=CARTESIAN_POINT('',(0.,0.0425,-0.01));
#1674=CARTESIAN_POINT('',(0.0497364387013174,0.0391682903538955,-0.0224341096753293));
#1675=CARTESIAN_POINT('',(0.0534653460240421,0.0428971976766203,-0.00851763809020504));
#1676=CARTESIAN_POINT('',(0.,0.0428971976766203,-0.00851763809020504));
#1677=CARTESIAN_POINT('',(-0.0534653460240421,0.0428971976766203,-0.00851763809020504));
#1678=CARTESIAN_POINT('',(-0.0558689252418361,0.0453007768944142,0.000452641670618788));
#1679=CARTESIAN_POINT('',(-0.055,2.44902137784961E-18,-0.01));
#1680=CARTESIAN_POINT('',(-0.055121284970103,0.0406894333175249,-0.00954735832938121));
#1681=CARTESIAN_POINT('',(-0.0553971976766202,0.0409653460240421,-0.00851763809020504));
#1682=CARTESIAN_POINT('',(-0.0553971976766202,-0.0425,-0.00851763809020504));
#1683=CARTESIAN_POINT('',(-0.0553971976766202,-0.0409653460240421,-0.00851763809020504));
#1684=CARTESIAN_POINT('',(-0.052453061857579,-0.0380212102050008,-0.0195053025512502));
#1685=CARTESIAN_POINT('',(0.,-0.0425,-0.01));
#1686=CARTESIAN_POINT('',(-0.0497364387013174,-0.0391682903538955,-0.0224341096753293));
#1687=CARTESIAN_POINT('',(-0.0534653460240421,-0.0428971976766202,-0.00851763809020504));
#1688=CARTESIAN_POINT('',(0.055,-0.0428971976766202,-0.00851763809020504));
#1689=CARTESIAN_POINT('',(0.0534653460240421,-0.0428971976766202,-0.00851763809020504));
#1690=CARTESIAN_POINT('',(0.0558689252418361,-0.0453007768944142,0.000452641670618788));
#1691=CARTESIAN_POINT('',(0.055,1.14287664299648E-17,-0.01));
#1692=CARTESIAN_POINT('',(0.0553971976766202,1.14611912833407E-17,-0.00851763809020504));
#1693=CARTESIAN_POINT('',(0.0553971976766202,-0.0409653460240421,-0.00851763809020504));
#1694=CARTESIAN_POINT('',(0.0553971976766202,0.0409653460240421,-0.00851763809020504));
#1695=CARTESIAN_POINT('',(0.052453061857579,0.0380212102050009,-0.0195053025512502));
#1696=CARTESIAN_POINT('',(0.055121284970103,-0.0406894333175249,-0.00954735832938121));
#1697=CARTESIAN_POINT('',(0.,6.93889390390723E-18,-0.01));
#1698=CARTESIAN_POINT('',(-0.055,-0.0409653460240421,-0.01));
#1699=CARTESIAN_POINT('',(-0.0534653460240421,-0.0409653460240421,-0.01));
#1700=CARTESIAN_POINT('',(-0.0534653460240421,0.0425,-0.01));
#1701=CARTESIAN_POINT('',(-0.0534653460240421,0.0409653460240421,-0.01));
#1702=CARTESIAN_POINT('',(0.,0.0409653460240421,-0.01));
#1703=CARTESIAN_POINT('',(-0.05,0.0375,-0.01));
#1704=CARTESIAN_POINT('',(-0.04695,0.0375,-0.01));
#1705=CARTESIAN_POINT('',(-0.05,-0.0375,-0.01));
#1706=CARTESIAN_POINT('',(-0.04695,-0.0375,-0.01));
#1707=CARTESIAN_POINT('',(0.05,0.0375,-0.01));
#1708=CARTESIAN_POINT('',(0.05,0.0375,-0.004));
#1709=CARTESIAN_POINT('',(0.0485,0.0375,-0.004));
#1710=CARTESIAN_POINT('',(0.05,0.0375,-0.01));
#1711=CARTESIAN_POINT('',(0.05,0.0375,-0.004));
#1712=CARTESIAN_POINT('',(0.04695,0.0375,-0.004));
#1713=CARTESIAN_POINT('',(0.05,-0.0375,-0.01));
#1714=CARTESIAN_POINT('',(0.05,-0.0375,-0.004));
#1715=CARTESIAN_POINT('',(0.0485,-0.0375,-0.004));
#1716=CARTESIAN_POINT('',(0.05,-0.0375,-0.01));
#1717=CARTESIAN_POINT('',(0.05,-0.0375,-0.004));
#1718=CARTESIAN_POINT('',(0.04695,-0.0375,-0.004));
#1719=CARTESIAN_POINT('',(-0.05,-0.0375,-0.01));
#1720=CARTESIAN_POINT('',(-0.05,-0.0375,-0.004));
#1721=CARTESIAN_POINT('',(-0.0485,-0.0375,-0.004));
#1722=CARTESIAN_POINT('',(-0.05,-0.0375,-0.01));
#1723=CARTESIAN_POINT('',(-0.05,-0.0375,-0.004));
#1724=CARTESIAN_POINT('',(-0.05305,-0.0375,-0.004));
#1725=CARTESIAN_POINT('',(-0.05,0.0375,-0.01));
#1726=CARTESIAN_POINT('',(-0.05,0.0375,-0.004));
#1727=CARTESIAN_POINT('',(-0.0515,0.0375,-0.004));
#1728=CARTESIAN_POINT('',(-0.05,0.0375,-0.01));
#1729=CARTESIAN_POINT('',(-0.05,0.0375,-0.004));
#1730=CARTESIAN_POINT('',(-0.05305,0.0375,-0.004));
#1731=CARTESIAN_POINT('',(0.,0.0391192596079883,-0.00909413334214118));
#1732=CARTESIAN_POINT('',(-0.0444225141746644,0.0415560252928759,0.));
#1733=CARTESIAN_POINT('',(-0.0441859853083478,0.0414942296366071,-0.000230624528882556));
#1734=CARTESIAN_POINT('',(-0.043954365947947,0.0414312214084405,-0.000465774437695082));
#1735=CARTESIAN_POINT('',(-0.0437265661290918,0.0413672698126888,-0.000704445042265588));
#1736=CARTESIAN_POINT('',(-0.0437265661290918,0.0413672698126888,-0.000704445042265591));
#1737=CARTESIAN_POINT('',(0.0438724998225318,0.0413672698126888,-0.000704445042265591));
#1738=CARTESIAN_POINT('',(0.0437265661290918,0.0413672698126888,-0.000704445042265591));
#1739=CARTESIAN_POINT('',(0.0437265661290918,0.0413672698126888,-0.000704445042265591));
#1740=CARTESIAN_POINT('',(0.0439543659479471,0.0414312214084405,-0.000465774437695093));
#1741=CARTESIAN_POINT('',(0.0441859853083478,0.0414942296366071,-0.000230624528882546));
#1742=CARTESIAN_POINT('',(0.0444225141746644,0.0415560252928759,2.51381366887238E-18));
#1743=CARTESIAN_POINT('',(-0.0516192596079883,2.72500489428282E-18,-0.00909413334214118));
#1744=CARTESIAN_POINT('',(-0.0538672698126888,2.54149072598497E-18,-0.000704445042265592));
#1745=CARTESIAN_POINT('',(-0.0538672698126888,-0.0312265661290917,-0.000704445042265591));
#1746=CARTESIAN_POINT('',(-0.0538672698126888,0.0312265661290917,-0.000704445042265592));
#1747=CARTESIAN_POINT('',(-0.0538672698126888,0.0312265661290917,-0.000704445042265591));
#1748=CARTESIAN_POINT('',(-0.0539312214084405,0.031454365947947,-0.000465774437695081));
#1749=CARTESIAN_POINT('',(-0.0539942296366071,0.0316859853083478,-0.000230624528882555));
#1750=CARTESIAN_POINT('',(-0.054056025292876,0.0319225141746644,3.65179995196669E-18));
#1751=CARTESIAN_POINT('',(-0.054056025292876,-0.0319225141746644,0.));
#1752=CARTESIAN_POINT('',(-0.0539942296366071,-0.0316859853083478,-0.000230624528882559));
#1753=CARTESIAN_POINT('',(-0.0539312214084405,-0.031454365947947,-0.000465774437695079));
#1754=CARTESIAN_POINT('',(-0.0538672698126888,-0.0312265661290917,-0.000704445042265589));
#1755=CARTESIAN_POINT('',(0.,-0.0391192596079882,-0.00909413334214118));
#1756=CARTESIAN_POINT('',(0.,-0.0413672698126888,-0.000704445042265594));
#1757=CARTESIAN_POINT('',(0.0437265661290918,-0.0413672698126888,-0.000704445042265591));
#1758=CARTESIAN_POINT('',(-0.0437265661290918,-0.0413672698126888,-0.000704445042265594));
#1759=CARTESIAN_POINT('',(-0.0437265661290918,-0.0413672698126888,-0.000704445042265591));
#1760=CARTESIAN_POINT('',(-0.043954365947947,-0.0414312214084405,-0.000465774437695082));
#1761=CARTESIAN_POINT('',(-0.0441859853083478,-0.0414942296366071,-0.000230624528882554));
#1762=CARTESIAN_POINT('',(-0.0444225141746644,-0.0415560252928759,4.40060003160149E-18));
#1763=CARTESIAN_POINT('',(0.0444225141746644,-0.0415560252928759,0.));
#1764=CARTESIAN_POINT('',(0.0441859853083478,-0.0414942296366071,-0.000230624528882558));
#1765=CARTESIAN_POINT('',(0.043954365947947,-0.0414312214084405,-0.000465774437695084));
#1766=CARTESIAN_POINT('',(0.0437265661290918,-0.0413672698126888,-0.000704445042265593));
#1767=CARTESIAN_POINT('',(0.0516192596079883,1.11527829135316E-17,-0.00909413334214118));
#1768=CARTESIAN_POINT('',(0.0538672698126888,-0.0313724998225318,-0.000704445042265592));
#1769=CARTESIAN_POINT('',(0.0538672698126888,0.0312265661290917,-0.000704445042265592));
#1770=CARTESIAN_POINT('',(0.0538672698126888,-0.0312265661290917,-0.000704445042265592));
#1771=CARTESIAN_POINT('',(0.0538672698126888,-0.0312265661290917,-0.000704445042265592));
#1772=CARTESIAN_POINT('',(0.0539312214084405,-0.031454365947947,-0.000465774437695086));
#1773=CARTESIAN_POINT('',(0.053994229636607,-0.0316859853083478,-0.000230624528882556));
#1774=CARTESIAN_POINT('',(0.0540560252928759,-0.0319225141746644,2.65020810046171E-19));
#1775=CARTESIAN_POINT('',(0.0540560252928759,0.0319225141746644,0.));
#1776=CARTESIAN_POINT('',(0.053994229636607,0.0316859853083478,-0.000230624528882556));
#1777=CARTESIAN_POINT('',(0.0539312214084405,0.031454365947947,-0.000465774437695085));
#1778=CARTESIAN_POINT('',(0.0538672698126888,0.0312265661290917,-0.000704445042265591));
#1779=CARTESIAN_POINT('',(0.,6.93889390390723E-18,-0.0065));
#1780=CARTESIAN_POINT('',(-0.027,-0.01,-0.0065));
#1781=CARTESIAN_POINT('',(-0.018,-0.01,-0.0065));
#1782=CARTESIAN_POINT('',(-0.027,0.01,-0.0065));
#1783=CARTESIAN_POINT('',(-0.018,0.01,-0.0065));
#1784=CARTESIAN_POINT('',(-0.017,0.0358747822293042,-0.0065));
#1785=CARTESIAN_POINT('',(-0.0438724998225318,0.0368143555420736,-0.0065));
#1786=CARTESIAN_POINT('',(-0.0387573642892983,0.0368143555420736,-0.0065));
#1787=CARTESIAN_POINT('',(-0.05,0.0375,-0.0065));
#1788=CARTESIAN_POINT('',(-0.0493143555420737,0.0262573642892983,-0.0065));
#1789=CARTESIAN_POINT('',(-0.0493143555420736,2.91316353866007E-18,-0.0065));
#1790=CARTESIAN_POINT('',(-0.0493143555420736,-0.0262573642892983,-0.0065));
#1791=CARTESIAN_POINT('',(-0.05,-0.0375,-0.0065));
#1792=CARTESIAN_POINT('',(-0.0387573642892983,-0.0368143555420736,-0.0065));
#1793=CARTESIAN_POINT('',(0.,-0.0368143555420736,-0.0065));
#1794=CARTESIAN_POINT('',(0.0031,0.,-0.151143851657206));
#1795=CARTESIAN_POINT('',(0.0031,-0.0175,-0.151143851657206));
#1796=CARTESIAN_POINT('',(0.0031,0.0175,-0.151143851657206));
#1797=CARTESIAN_POINT('',(0.,0.0175,-0.151143851657206));
#1798=CARTESIAN_POINT('',(-0.0031,0.0175,-0.151143851657206));
#1799=CARTESIAN_POINT('',(-0.0031,0.,-0.151143851657206));
#1800=CARTESIAN_POINT('',(-0.0031,-0.0175,-0.151143851657206));
#1801=CARTESIAN_POINT('',(0.,-0.0175,-0.151143851657206));
#1802=CARTESIAN_POINT('',(-0.0497364387013174,0.0372364387013173,-0.0219164715851243));
#1803=CARTESIAN_POINT('',(-0.0534653460240421,0.0409653460240421,-0.008));
#1804=CARTESIAN_POINT('',(0.0505212102050009,0.0380212102050009,-0.0189876644610452));
#1805=CARTESIAN_POINT('',(0.0534653460240421,0.0409653460240421,-0.008));
#1806=CARTESIAN_POINT('',(0.,0.0409653460240421,-0.008));
#1807=CARTESIAN_POINT('',(-0.0534653460240421,0.0409653460240421,-0.008));
#1808=CARTESIAN_POINT('',(0.0534653460240421,0.0409653460240421,-0.008));
#1809=CARTESIAN_POINT('',(-0.0534653460240421,0.0409653460240421,-0.008));
#1810=CARTESIAN_POINT('',(-0.0534653460240421,0.0409653460240421,-0.008));
#1811=CARTESIAN_POINT('',(0.0534653460240421,0.0409653460240421,-0.008));
#1812=CARTESIAN_POINT('',(0.0534653460240421,0.0409653460240421,-0.008));
#1813=CARTESIAN_POINT('',(-0.0534653460240421,2.57430139100704E-18,-0.008));
#1814=CARTESIAN_POINT('',(-0.0534653460240421,-0.0409653460240421,-0.008));
#1815=CARTESIAN_POINT('',(-0.0505212102050009,-0.0380212102050009,-0.0189876644610452));
#1816=CARTESIAN_POINT('',(-0.0534653460240421,-0.0409653460240421,-0.008));
#1817=CARTESIAN_POINT('',(0.0497364387013174,-0.0372364387013173,-0.0219164715851243));
#1818=CARTESIAN_POINT('',(0.0534653460240421,-0.0409653460240421,-0.008));
#1819=CARTESIAN_POINT('',(0.0534653460240421,1.13034864168074E-17,-0.008));
#1820=CARTESIAN_POINT('',(0.0534653460240421,-0.0409653460240421,-0.008));
#1821=CARTESIAN_POINT('',(-0.0534653460240421,-0.0409653460240421,-0.008));
#1822=CARTESIAN_POINT('',(-0.0534653460240421,-0.0409653460240421,-0.008));
#1823=CARTESIAN_POINT('',(0.0534653460240421,-0.0409653460240421,-0.008));
#1824=CARTESIAN_POINT('',(0.0534653460240421,-0.0409653460240421,-0.008));
#1825=CARTESIAN_POINT('',(0.,-0.0409653460240421,-0.008));
#1826=CARTESIAN_POINT('',(0.015,8.67361737988404E-19,-0.0368950952374638));
#1827=CARTESIAN_POINT('',(0.015,8.67361737988404E-19,-0.0085));
#1828=CARTESIAN_POINT('',(0.027,0.01,-0.0368950952374638));
#1829=CARTESIAN_POINT('',(0.027,0.01,-0.0145));
#1830=CARTESIAN_POINT('',(0.033,0.01,-0.0145));
#1831=CARTESIAN_POINT('',(0.024394034431895,0.00440688671550536,-0.025326237109226));
#1832=CARTESIAN_POINT('',(0.0222169987234445,0.00601539555131304,-0.0265744046229808));
#1833=CARTESIAN_POINT('',(0.0208934195087104,0.0087130842936471,-0.0268243071192688));
#1834=CARTESIAN_POINT('',(0.0210119290686945,0.0115729390348238,-0.0259072760817264));
#1835=CARTESIAN_POINT('',(0.0221421070403768,0.0137598653979936,-0.0243328420952219));
#1836=CARTESIAN_POINT('',(0.02378929043587,0.0152119647760065,-0.0224577940897151));
#1837=CARTESIAN_POINT('',(0.0257093163431113,0.0159753780404037,-0.0204400508153937));
#1838=CARTESIAN_POINT('',(0.0277452528542219,0.0160690570376205,-0.0184003777327234));
#1839=CARTESIAN_POINT('',(0.0294456675771173,0.0155690446933596,-0.0167874123576437));
#1840=CARTESIAN_POINT('',(0.0307607131682692,0.0147278478773782,-0.0156604181267436));
#1841=CARTESIAN_POINT('',(0.0316790492656177,0.0138352912210559,-0.01497774028975));
#1842=CARTESIAN_POINT('',(0.0324475151867402,0.0126516048599239,-0.0145843735809155));
#1843=CARTESIAN_POINT('',(0.0329245403257594,0.0112634291908224,-0.0146290205362254));
#1844=CARTESIAN_POINT('',(0.0330470945641239,0.00987550059786887,-0.015093683325781));
#1845=CARTESIAN_POINT('',(0.032827040435467,0.00821875936164404,-0.0160562904841223));
#1846=CARTESIAN_POINT('',(0.0320425007906623,0.0065298723111461,-0.0176058741721438));
#1847=CARTESIAN_POINT('',(0.0306020358431493,0.00506117023831319,-0.019620885273726));
#1848=CARTESIAN_POINT('',(0.0287740515782537,0.00414775269566417,-0.0216619704422192));
#1849=CARTESIAN_POINT('',(0.0266817624588662,0.00387673683483352,-0.0235918760520229));
#1850=CARTESIAN_POINT('',(0.024394034431895,0.00440688671550536,-0.025326237109226));
#1851=CARTESIAN_POINT('',(0.0222169987234445,0.00601539555131304,-0.0265744046229808));
#1852=CARTESIAN_POINT('',(0.0208934195087104,0.0087130842936471,-0.0268243071192688));
#1853=CARTESIAN_POINT('',(0.0223592425087454,0.00619692625533451,-0.0264080278339381));
#1854=CARTESIAN_POINT('',(0.027,-0.01,-0.0368950952374638));
#1855=CARTESIAN_POINT('',(0.027,-0.01,-0.0145));
#1856=CARTESIAN_POINT('',(0.033,-0.01,-0.0145));
#1857=CARTESIAN_POINT('',(0.0208909632158846,-0.00872022291477166,-0.026824173122592));
#1858=CARTESIAN_POINT('',(0.0222197052974057,-0.00601195092886274,-0.0265732933658467));
#1859=CARTESIAN_POINT('',(0.0243856644288763,-0.00441352658418193,-0.0253308161344389));
#1860=CARTESIAN_POINT('',(0.0266659165480707,-0.00387594645353816,-0.0236058154555797));
#1861=CARTESIAN_POINT('',(0.0287811396746089,-0.00414812010931269,-0.0216557309847368));
#1862=CARTESIAN_POINT('',(0.0306042381921128,-0.00506492353996824,-0.0196170106086612));
#1863=CARTESIAN_POINT('',(0.0320371599508854,-0.00652220025153632,-0.0176145036377759));
#1864=CARTESIAN_POINT('',(0.0328276823487597,-0.00821874740937814,-0.0160556593991889));
#1865=CARTESIAN_POINT('',(0.0330469273102824,-0.00987670790933103,-0.0150933302076824));
#1866=CARTESIAN_POINT('',(0.0329247980691263,-0.0112600056225899,-0.0146302273791245));
#1867=CARTESIAN_POINT('',(0.0324505008918206,-0.0126461993821345,-0.0145832029504601));
#1868=CARTESIAN_POINT('',(0.0316786959629846,-0.0138358768512102,-0.0149778934975924));
#1869=CARTESIAN_POINT('',(0.0307640157058804,-0.0147249179379411,-0.0156578621484288));
#1870=CARTESIAN_POINT('',(0.0294461481577034,-0.015569872066772,-0.0167866793490983));
#1871=CARTESIAN_POINT('',(0.0277353097289901,-0.01607058753612,-0.0184100711363628));
#1872=CARTESIAN_POINT('',(0.0257081215580612,-0.0159733604026766,-0.0204415258550026));
#1873=CARTESIAN_POINT('',(0.0237982513733665,-0.0152172551774063,-0.0224481101884462));
#1874=CARTESIAN_POINT('',(0.0221430654076769,-0.0137628040770791,-0.0243312530265315));
#1875=CARTESIAN_POINT('',(0.02101332952553,-0.0115745029369494,-0.025905679048496));
#1876=CARTESIAN_POINT('',(0.0208909632158846,-0.00872022291477166,-0.026824173122592));
#1877=CARTESIAN_POINT('',(0.0222197052974057,-0.00601195092886274,-0.0265732933658467));
#1878=CARTESIAN_POINT('',(0.0243856644288763,-0.00441352658418193,-0.0253308161344389));
#1879=CARTESIAN_POINT('',(0.0223592425820535,-0.00619692616587924,-0.0264080278024116));
#1880=CARTESIAN_POINT('',(1.0092238946392E-17,0.,0.008));
#1881=CARTESIAN_POINT('',(1.0092238946392E-17,0.,0.008));
#1882=CARTESIAN_POINT('',(-0.015,8.67361737988404E-19,-0.0368950952374638));
#1883=CARTESIAN_POINT('',(-0.015,-0.0358747822293042,-0.0085));
#1884=CARTESIAN_POINT('',(-0.027,0.01,-0.0368950952374638));
#1885=CARTESIAN_POINT('',(-0.027,0.01,-0.0145));
#1886=CARTESIAN_POINT('',(-0.021,0.01,-0.0145));
#1887=CARTESIAN_POINT('',(-0.0208909632158845,0.00872022291477165,-0.026824173122592));
#1888=CARTESIAN_POINT('',(-0.0222197052974057,0.00601195092886275,-0.0265732933658467));
#1889=CARTESIAN_POINT('',(-0.0243856644288763,0.00441352658418194,-0.0253308161344389));
#1890=CARTESIAN_POINT('',(-0.0266659165480707,0.00387594645353816,-0.0236058154555797));
#1891=CARTESIAN_POINT('',(-0.0287811396746089,0.00414812010931268,-0.0216557309847368));
#1892=CARTESIAN_POINT('',(-0.0306042381921128,0.00506492353996823,-0.0196170106086612));
#1893=CARTESIAN_POINT('',(-0.0320371599508854,0.00652220025153631,-0.0176145036377759));
#1894=CARTESIAN_POINT('',(-0.0328276823487596,0.00821874740937809,-0.0160556593991889));
#1895=CARTESIAN_POINT('',(-0.0330469273102824,0.009876707909331,-0.0150933302076824));
#1896=CARTESIAN_POINT('',(-0.0329247980691263,0.0112600056225899,-0.0146302273791245));
#1897=CARTESIAN_POINT('',(-0.0324505008918206,0.0126461993821345,-0.0145832029504601));
#1898=CARTESIAN_POINT('',(-0.0316786959629846,0.0138358768512102,-0.0149778934975924));
#1899=CARTESIAN_POINT('',(-0.0307640157058804,0.0147249179379411,-0.0156578621484288));
#1900=CARTESIAN_POINT('',(-0.0294461481577035,0.0155698720667719,-0.0167866793490982));
#1901=CARTESIAN_POINT('',(-0.02773530972899,0.01607058753612,-0.0184100711363627));
#1902=CARTESIAN_POINT('',(-0.0257081215580613,0.0159733604026766,-0.0204415258550026));
#1903=CARTESIAN_POINT('',(-0.0237982513733665,0.0152172551774063,-0.0224481101884462));
#1904=CARTESIAN_POINT('',(-0.0221430654076769,0.0137628040770791,-0.0243312530265315));
#1905=CARTESIAN_POINT('',(-0.02101332952553,0.0115745029369495,-0.0259056790484959));
#1906=CARTESIAN_POINT('',(-0.0208909632158845,0.00872022291477165,-0.026824173122592));
#1907=CARTESIAN_POINT('',(-0.0222197052974057,0.00601195092886275,-0.0265732933658467));
#1908=CARTESIAN_POINT('',(-0.0243856644288763,0.00441352658418194,-0.0253308161344389));
#1909=CARTESIAN_POINT('',(-0.0223592425820535,0.00619692616587925,-0.0264080278024116));
#1910=CARTESIAN_POINT('',(-0.027,-0.01,-0.0368950952374638));
#1911=CARTESIAN_POINT('',(-0.027,-0.01,-0.0145));
#1912=CARTESIAN_POINT('',(-0.021,-0.01,-0.0145));
#1913=CARTESIAN_POINT('',(-0.024394034431895,-0.00440688671550536,-0.025326237109226));
#1914=CARTESIAN_POINT('',(-0.0222169987234445,-0.00601539555131304,-0.0265744046229808));
#1915=CARTESIAN_POINT('',(-0.0208934195087104,-0.00871308429364711,-0.0268243071192687));
#1916=CARTESIAN_POINT('',(-0.0210119290686945,-0.0115729390348238,-0.0259072760817263));
#1917=CARTESIAN_POINT('',(-0.0221421070403768,-0.0137598653979936,-0.0243328420952219));
#1918=CARTESIAN_POINT('',(-0.02378929043587,-0.0152119647760065,-0.0224577940897151));
#1919=CARTESIAN_POINT('',(-0.0257093163431113,-0.0159753780404037,-0.0204400508153937));
#1920=CARTESIAN_POINT('',(-0.0277452528542219,-0.0160690570376205,-0.0184003777327234));
#1921=CARTESIAN_POINT('',(-0.0294456675771173,-0.0155690446933596,-0.0167874123576437));
#1922=CARTESIAN_POINT('',(-0.0307607131682692,-0.0147278478773782,-0.0156604181267436));
#1923=CARTESIAN_POINT('',(-0.0316790492656176,-0.0138352912210559,-0.01497774028975));
#1924=CARTESIAN_POINT('',(-0.0324475151867402,-0.0126516048599239,-0.0145843735809154));
#1925=CARTESIAN_POINT('',(-0.0329245403257594,-0.0112634291908223,-0.0146290205362254));
#1926=CARTESIAN_POINT('',(-0.0330470945641239,-0.00987550059786886,-0.0150936833257809));
#1927=CARTESIAN_POINT('',(-0.032827040435467,-0.00821875936164406,-0.0160562904841223));
#1928=CARTESIAN_POINT('',(-0.0320425007906623,-0.00652987231114611,-0.0176058741721438));
#1929=CARTESIAN_POINT('',(-0.0306020358431493,-0.00506117023831318,-0.0196208852737259));
#1930=CARTESIAN_POINT('',(-0.0287740515782537,-0.00414775269566417,-0.0216619704422192));
#1931=CARTESIAN_POINT('',(-0.0266817624588662,-0.00387673683483352,-0.0235918760520229));
#1932=CARTESIAN_POINT('',(-0.024394034431895,-0.00440688671550536,-0.025326237109226));
#1933=CARTESIAN_POINT('',(-0.0222169987234445,-0.00601539555131304,-0.0265744046229808));
#1934=CARTESIAN_POINT('',(-0.0208934195087104,-0.00871308429364711,-0.0268243071192687));
#1935=CARTESIAN_POINT('',(-0.0223592425087454,-0.00619692625533452,-0.0264080278339381));
#1936=CARTESIAN_POINT('',(1.0092238946392E-17,0.,0.008));
#1937=CARTESIAN_POINT('',(1.0092238946392E-17,0.,0.008));
#1938=CARTESIAN_POINT('',(0.05,-0.0375,0.000515504659753868));
#1939=CARTESIAN_POINT('',(0.0159966539398849,-0.0375,-0.0489112028524518));
#1940=CARTESIAN_POINT('',(0.05,-0.00349665393988509,-0.0489112028524514));
#1941=CARTESIAN_POINT('',(0.,-0.0368143555420736,-0.0065));
#1942=CARTESIAN_POINT('',(-0.05,-0.00349665393988517,-0.0489112028524513));
#1943=CARTESIAN_POINT('',(0.0538672698126888,1.13362970818295E-17,-0.000704445042265592));
#1944=CARTESIAN_POINT('',(0.0159966539398849,0.0375,-0.0489112028524518));
#1945=CARTESIAN_POINT('',(-0.05,-0.0375,0.000515504659753868));
#1946=CARTESIAN_POINT('',(-0.015996653939885,-0.0375,-0.0489112028524517));
#1947=CARTESIAN_POINT('',(0.05,0.0375,0.000515504659753868));
#1948=CARTESIAN_POINT('',(0.05,0.00349665393988501,-0.0489112028524515));
#1949=CARTESIAN_POINT('',(-0.0493143555420736,2.91316353866007E-18,-0.0065));
#1950=CARTESIAN_POINT('',(-0.0159966539398849,0.0375,-0.0489112028524517));
#1951=CARTESIAN_POINT('',(0.,0.0413672698126888,-0.000704445042265592));
#1952=CARTESIAN_POINT('',(-0.05,0.00349665393988518,-0.0489112028524513));
#1953=CARTESIAN_POINT('',(-0.05,0.0375,0.000515504659753868));
#1954=CARTESIAN_POINT('',(0.,0.,-0.004));
#1955=CARTESIAN_POINT('',(0.,0.,-0.004));
#1956=CARTESIAN_POINT('',(0.,0.,-0.004));
#1957=CARTESIAN_POINT('',(0.,0.,-0.004));
#1958=CARTESIAN_POINT('',(0.027,0.01,-0.0145));
#1959=CARTESIAN_POINT('',(0.027,-0.01,-0.0145));
#1960=CARTESIAN_POINT('',(-0.027,-0.01,-0.0145));
#1961=CARTESIAN_POINT('',(-0.027,0.01,-0.0145));
#1962=CARTESIAN_POINT('',(0.017,6.93889390390723E-18,-0.0065));
#1963=CARTESIAN_POINT('',(-0.015,8.67361737988404E-19,-0.0085));
#1964=MECHANICAL_DESIGN_GEOMETRIC_PRESENTATION_REPRESENTATION('',(#1035),
#1965);
#1965=(
GEOMETRIC_REPRESENTATION_CONTEXT(3)
GLOBAL_UNCERTAINTY_ASSIGNED_CONTEXT((#1966))
GLOBAL_UNIT_ASSIGNED_CONTEXT((#1969,#1968,#1967))
REPRESENTATION_CONTEXT('Top','TOP_LEVEL_ASSEMBLY_PART')
);
#1966=UNCERTAINTY_MEASURE_WITH_UNIT(LENGTH_MEASURE(2.E-5),#1969,
'DISTANCE_ACCURACY_VALUE','Maximum Tolerance applied to model');
#1967=(
NAMED_UNIT(*)
SI_UNIT($,.STERADIAN.)
SOLID_ANGLE_UNIT()
);
#1968=(
NAMED_UNIT(*)
PLANE_ANGLE_UNIT()
SI_UNIT($,.RADIAN.)
);
#1969=(
LENGTH_UNIT()
NAMED_UNIT(*)
SI_UNIT($,.METRE.)
);
#1970=PRODUCT_DEFINITION_SHAPE('','',#1971);
#1971=PRODUCT_DEFINITION('','',#1973,#1972);
#1972=PRODUCT_DEFINITION_CONTEXT('',#1979,'design');
#1973=PRODUCT_DEFINITION_FORMATION_WITH_SPECIFIED_SOURCE('','',#1975,
 .NOT_KNOWN.);
#1974=PRODUCT_RELATED_PRODUCT_CATEGORY('','',(#1975));
#1975=PRODUCT('Top','Top','Top',(#1977));
#1976=PRODUCT_CATEGORY('','');
#1977=PRODUCT_CONTEXT('',#1979,'mechanical');
#1978=APPLICATION_PROTOCOL_DEFINITION('international standard',
'ap242_managed_model_based_3d_engineering',2020,#1979);
#1979=APPLICATION_CONTEXT('managed model based 3d engineering');
ENDSEC;
END-ISO-10303-21;
