ISO-10303-21;
HEADER;
/* Generated by software containing ST-Developer
 * from STEP Tools, Inc. (www.steptools.com) 
 */
/* OPTION: using custom renumber hook */

FILE_DESCRIPTION(
/* description */ ('STEP AP242 Edition 2',
'CAx-IF Rec.Pracs.---Representation and Presentation of Product Manufa
cturing Information (PMI)---4.0---2014-10-13',
'CAx-IF Rec.Pracs.---3D Tessellated Geometry---0.4---2014-09-14','2;1',
'CAx-IF Rec.Pracs.---User Defined Attributes---1.5---2016-08-15'),
/* implementation_level */ '2;1');

FILE_NAME(
/* name */ '9.7in IPS - Speaker Bracket Large',
/* time_stamp */ '2026-07-13T15:43:09Z',
/* author */ (''),
/* organization */ (''),
/* preprocessor_version */ 'ST-DEVELOPER v20',
/* originating_system */ 'ONSHAPE BY PTC INC, 1.217',
/* authorisation */ '  ');

FILE_SCHEMA (('AP242_MANAGED_MODEL_BASED_3D_ENGINEERING_MIM_LF { 1 0 10303 442 3 1 4 }'));
ENDSEC;

DATA;
#10=SHAPE_REPRESENTATION_RELATIONSHIP('','',#671,#11);
#11=ADVANCED_BREP_SHAPE_REPRESENTATION('',(#669),#1111);
#12=CYLINDRICAL_SURFACE('',#713,0.019875);
#13=CYLINDRICAL_SURFACE('',#714,0.0025);
#14=CYLINDRICAL_SURFACE('',#715,0.0025);
#15=CYLINDRICAL_SURFACE('',#716,0.00155);
#16=CYLINDRICAL_SURFACE('',#720,0.00305);
#17=CYLINDRICAL_SURFACE('',#721,0.00155);
#18=CYLINDRICAL_SURFACE('',#725,0.00305);
#19=CYLINDRICAL_SURFACE('',#726,0.00155);
#20=CYLINDRICAL_SURFACE('',#730,0.00305);
#21=CYLINDRICAL_SURFACE('',#731,0.00155);
#22=CYLINDRICAL_SURFACE('',#735,0.00305);
#23=CYLINDRICAL_SURFACE('',#736,0.004);
#24=CYLINDRICAL_SURFACE('',#737,0.004);
#25=CYLINDRICAL_SURFACE('',#738,0.004);
#26=CYLINDRICAL_SURFACE('',#739,0.004);
#27=LINE('',#934,#79);
#28=LINE('',#937,#80);
#29=LINE('',#939,#81);
#30=LINE('',#941,#82);
#31=LINE('',#943,#83);
#32=LINE('',#946,#84);
#33=LINE('',#947,#85);
#34=LINE('',#953,#86);
#35=LINE('',#956,#87);
#36=LINE('',#957,#88);
#37=LINE('',#959,#89);
#38=LINE('',#962,#90);
#39=LINE('',#964,#91);
#40=LINE('',#966,#92);
#41=LINE('',#967,#93);
#42=LINE('',#975,#94);
#43=LINE('',#978,#95);
#44=LINE('',#980,#96);
#45=LINE('',#982,#97);
#46=LINE('',#984,#98);
#47=LINE('',#987,#99);
#48=LINE('',#989,#100);
#49=LINE('',#991,#101);
#50=LINE('',#993,#102);
#51=LINE('',#995,#103);
#52=LINE('',#1001,#104);
#53=LINE('',#1004,#105);
#54=LINE('',#1005,#106);
#55=LINE('',#1007,#107);
#56=LINE('',#1010,#108);
#57=LINE('',#1011,#109);
#58=LINE('',#1017,#110);
#59=LINE('',#1020,#111);
#60=LINE('',#1021,#112);
#61=LINE('',#1023,#113);
#62=LINE('',#1026,#114);
#63=LINE('',#1028,#115);
#64=LINE('',#1030,#116);
#65=LINE('',#1031,#117);
#66=LINE('',#1039,#118);
#67=LINE('',#1042,#119);
#68=LINE('',#1044,#120);
#69=LINE('',#1046,#121);
#70=LINE('',#1048,#122);
#71=LINE('',#1051,#123);
#72=LINE('',#1053,#124);
#73=LINE('',#1055,#125);
#74=LINE('',#1056,#126);
#75=LINE('',#1059,#127);
#76=LINE('',#1062,#128);
#77=LINE('',#1067,#129);
#78=LINE('',#1070,#130);
#79=VECTOR('',#748,1.);
#80=VECTOR('',#749,1.);
#81=VECTOR('',#750,1.);
#82=VECTOR('',#751,1.);
#83=VECTOR('',#754,1.);
#84=VECTOR('',#755,1.);
#85=VECTOR('',#756,1.);
#86=VECTOR('',#763,1.);
#87=VECTOR('',#764,1.);
#88=VECTOR('',#765,1.);
#89=VECTOR('',#768,1.);
#90=VECTOR('',#769,1.);
#91=VECTOR('',#770,1.);
#92=VECTOR('',#771,1.);
#93=VECTOR('',#772,1.);
#94=VECTOR('',#781,1.);
#95=VECTOR('',#782,1.);
#96=VECTOR('',#783,1.);
#97=VECTOR('',#784,1.);
#98=VECTOR('',#787,1.);
#99=VECTOR('',#788,1.);
#100=VECTOR('',#789,1.);
#101=VECTOR('',#790,1.);
#102=VECTOR('',#791,1.);
#103=VECTOR('',#792,1.);
#104=VECTOR('',#799,1.);
#105=VECTOR('',#800,1.);
#106=VECTOR('',#801,1.);
#107=VECTOR('',#804,1.);
#108=VECTOR('',#805,1.);
#109=VECTOR('',#806,1.);
#110=VECTOR('',#813,1.);
#111=VECTOR('',#814,1.);
#112=VECTOR('',#815,1.);
#113=VECTOR('',#818,1.);
#114=VECTOR('',#819,1.);
#115=VECTOR('',#820,1.);
#116=VECTOR('',#821,1.);
#117=VECTOR('',#822,1.);
#118=VECTOR('',#831,1.);
#119=VECTOR('',#832,1.);
#120=VECTOR('',#833,1.);
#121=VECTOR('',#834,1.);
#122=VECTOR('',#837,1.);
#123=VECTOR('',#838,1.);
#124=VECTOR('',#839,1.);
#125=VECTOR('',#840,1.);
#126=VECTOR('',#841,1.);
#127=VECTOR('',#846,1.);
#128=VECTOR('',#851,1.);
#129=VECTOR('',#860,1.);
#130=VECTOR('',#865,1.);
#131=ORIENTED_EDGE('',*,*,#295,.F.);
#132=ORIENTED_EDGE('',*,*,#296,.F.);
#133=ORIENTED_EDGE('',*,*,#297,.F.);
#134=ORIENTED_EDGE('',*,*,#298,.T.);
#135=ORIENTED_EDGE('',*,*,#299,.T.);
#136=ORIENTED_EDGE('',*,*,#300,.T.);
#137=ORIENTED_EDGE('',*,*,#301,.F.);
#138=ORIENTED_EDGE('',*,*,#302,.T.);
#139=ORIENTED_EDGE('',*,*,#297,.T.);
#140=ORIENTED_EDGE('',*,*,#303,.T.);
#141=ORIENTED_EDGE('',*,*,#304,.T.);
#142=ORIENTED_EDGE('',*,*,#305,.T.);
#143=ORIENTED_EDGE('',*,*,#306,.F.);
#144=ORIENTED_EDGE('',*,*,#307,.T.);
#145=ORIENTED_EDGE('',*,*,#301,.T.);
#146=ORIENTED_EDGE('',*,*,#308,.T.);
#147=ORIENTED_EDGE('',*,*,#309,.T.);
#148=ORIENTED_EDGE('',*,*,#310,.T.);
#149=ORIENTED_EDGE('',*,*,#311,.F.);
#150=ORIENTED_EDGE('',*,*,#312,.T.);
#151=ORIENTED_EDGE('',*,*,#306,.T.);
#152=ORIENTED_EDGE('',*,*,#313,.T.);
#153=ORIENTED_EDGE('',*,*,#314,.F.);
#154=ORIENTED_EDGE('',*,*,#315,.F.);
#155=ORIENTED_EDGE('',*,*,#316,.F.);
#156=ORIENTED_EDGE('',*,*,#317,.T.);
#157=ORIENTED_EDGE('',*,*,#318,.T.);
#158=ORIENTED_EDGE('',*,*,#319,.F.);
#159=ORIENTED_EDGE('',*,*,#320,.T.);
#160=ORIENTED_EDGE('',*,*,#321,.F.);
#161=ORIENTED_EDGE('',*,*,#322,.T.);
#162=ORIENTED_EDGE('',*,*,#323,.T.);
#163=ORIENTED_EDGE('',*,*,#324,.T.);
#164=ORIENTED_EDGE('',*,*,#325,.F.);
#165=ORIENTED_EDGE('',*,*,#326,.T.);
#166=ORIENTED_EDGE('',*,*,#327,.T.);
#167=ORIENTED_EDGE('',*,*,#328,.T.);
#168=ORIENTED_EDGE('',*,*,#329,.F.);
#169=ORIENTED_EDGE('',*,*,#330,.T.);
#170=ORIENTED_EDGE('',*,*,#325,.T.);
#171=ORIENTED_EDGE('',*,*,#331,.T.);
#172=ORIENTED_EDGE('',*,*,#332,.F.);
#173=ORIENTED_EDGE('',*,*,#333,.T.);
#174=ORIENTED_EDGE('',*,*,#329,.T.);
#175=ORIENTED_EDGE('',*,*,#334,.T.);
#176=ORIENTED_EDGE('',*,*,#335,.F.);
#177=ORIENTED_EDGE('',*,*,#336,.F.);
#178=ORIENTED_EDGE('',*,*,#337,.F.);
#179=ORIENTED_EDGE('',*,*,#338,.T.);
#180=ORIENTED_EDGE('',*,*,#332,.T.);
#181=ORIENTED_EDGE('',*,*,#339,.T.);
#182=ORIENTED_EDGE('',*,*,#340,.F.);
#183=ORIENTED_EDGE('',*,*,#341,.T.);
#184=ORIENTED_EDGE('',*,*,#342,.T.);
#185=ORIENTED_EDGE('',*,*,#343,.T.);
#186=ORIENTED_EDGE('',*,*,#337,.T.);
#187=ORIENTED_EDGE('',*,*,#344,.T.);
#188=ORIENTED_EDGE('',*,*,#345,.T.);
#189=ORIENTED_EDGE('',*,*,#346,.T.);
#190=ORIENTED_EDGE('',*,*,#347,.T.);
#191=ORIENTED_EDGE('',*,*,#348,.F.);
#192=ORIENTED_EDGE('',*,*,#349,.T.);
#193=ORIENTED_EDGE('',*,*,#350,.T.);
#194=ORIENTED_EDGE('',*,*,#351,.T.);
#195=ORIENTED_EDGE('',*,*,#352,.T.);
#196=ORIENTED_EDGE('',*,*,#353,.T.);
#197=ORIENTED_EDGE('',*,*,#354,.F.);
#198=ORIENTED_EDGE('',*,*,#355,.T.);
#199=ORIENTED_EDGE('',*,*,#299,.F.);
#200=ORIENTED_EDGE('',*,*,#356,.T.);
#201=ORIENTED_EDGE('',*,*,#319,.T.);
#202=ORIENTED_EDGE('',*,*,#357,.T.);
#203=ORIENTED_EDGE('',*,*,#321,.T.);
#204=ORIENTED_EDGE('',*,*,#358,.T.);
#205=ORIENTED_EDGE('',*,*,#342,.F.);
#206=ORIENTED_EDGE('',*,*,#359,.T.);
#207=ORIENTED_EDGE('',*,*,#350,.F.);
#208=ORIENTED_EDGE('',*,*,#360,.T.);
#209=ORIENTED_EDGE('',*,*,#352,.F.);
#210=ORIENTED_EDGE('',*,*,#361,.T.);
#211=ORIENTED_EDGE('',*,*,#311,.T.);
#212=ORIENTED_EDGE('',*,*,#362,.T.);
#213=ORIENTED_EDGE('',*,*,#323,.F.);
#214=ORIENTED_EDGE('',*,*,#363,.T.);
#215=ORIENTED_EDGE('',*,*,#317,.F.);
#216=ORIENTED_EDGE('',*,*,#364,.T.);
#217=ORIENTED_EDGE('',*,*,#309,.F.);
#218=ORIENTED_EDGE('',*,*,#365,.T.);
#219=ORIENTED_EDGE('',*,*,#354,.T.);
#220=ORIENTED_EDGE('',*,*,#366,.T.);
#221=ORIENTED_EDGE('',*,*,#348,.T.);
#222=ORIENTED_EDGE('',*,*,#367,.T.);
#223=ORIENTED_EDGE('',*,*,#340,.T.);
#224=ORIENTED_EDGE('',*,*,#368,.T.);
#225=ORIENTED_EDGE('',*,*,#330,.F.);
#226=ORIENTED_EDGE('',*,*,#333,.F.);
#227=ORIENTED_EDGE('',*,*,#338,.F.);
#228=ORIENTED_EDGE('',*,*,#343,.F.);
#229=ORIENTED_EDGE('',*,*,#358,.F.);
#230=ORIENTED_EDGE('',*,*,#326,.F.);
#231=ORIENTED_EDGE('',*,*,#324,.F.);
#232=ORIENTED_EDGE('',*,*,#368,.F.);
#233=ORIENTED_EDGE('',*,*,#344,.F.);
#234=ORIENTED_EDGE('',*,*,#339,.F.);
#235=ORIENTED_EDGE('',*,*,#334,.F.);
#236=ORIENTED_EDGE('',*,*,#331,.F.);
#237=ORIENTED_EDGE('',*,*,#298,.F.);
#238=ORIENTED_EDGE('',*,*,#302,.F.);
#239=ORIENTED_EDGE('',*,*,#307,.F.);
#240=ORIENTED_EDGE('',*,*,#312,.F.);
#241=ORIENTED_EDGE('',*,*,#361,.F.);
#242=ORIENTED_EDGE('',*,*,#356,.F.);
#243=ORIENTED_EDGE('',*,*,#355,.F.);
#244=ORIENTED_EDGE('',*,*,#365,.F.);
#245=ORIENTED_EDGE('',*,*,#313,.F.);
#246=ORIENTED_EDGE('',*,*,#308,.F.);
#247=ORIENTED_EDGE('',*,*,#303,.F.);
#248=ORIENTED_EDGE('',*,*,#300,.F.);
#249=ORIENTED_EDGE('',*,*,#316,.T.);
#250=ORIENTED_EDGE('',*,*,#347,.F.);
#251=ORIENTED_EDGE('',*,*,#315,.T.);
#252=ORIENTED_EDGE('',*,*,#346,.F.);
#253=ORIENTED_EDGE('',*,*,#314,.T.);
#254=ORIENTED_EDGE('',*,*,#345,.F.);
#255=ORIENTED_EDGE('',*,*,#336,.T.);
#256=ORIENTED_EDGE('',*,*,#369,.F.);
#257=ORIENTED_EDGE('',*,*,#369,.T.);
#258=ORIENTED_EDGE('',*,*,#370,.F.);
#259=ORIENTED_EDGE('',*,*,#370,.T.);
#260=ORIENTED_EDGE('',*,*,#328,.F.);
#261=ORIENTED_EDGE('',*,*,#335,.T.);
#262=ORIENTED_EDGE('',*,*,#371,.F.);
#263=ORIENTED_EDGE('',*,*,#371,.T.);
#264=ORIENTED_EDGE('',*,*,#372,.F.);
#265=ORIENTED_EDGE('',*,*,#372,.T.);
#266=ORIENTED_EDGE('',*,*,#327,.F.);
#267=ORIENTED_EDGE('',*,*,#296,.T.);
#268=ORIENTED_EDGE('',*,*,#373,.F.);
#269=ORIENTED_EDGE('',*,*,#373,.T.);
#270=ORIENTED_EDGE('',*,*,#374,.F.);
#271=ORIENTED_EDGE('',*,*,#374,.T.);
#272=ORIENTED_EDGE('',*,*,#305,.F.);
#273=ORIENTED_EDGE('',*,*,#295,.T.);
#274=ORIENTED_EDGE('',*,*,#375,.F.);
#275=ORIENTED_EDGE('',*,*,#375,.T.);
#276=ORIENTED_EDGE('',*,*,#376,.F.);
#277=ORIENTED_EDGE('',*,*,#376,.T.);
#278=ORIENTED_EDGE('',*,*,#304,.F.);
#279=ORIENTED_EDGE('',*,*,#357,.F.);
#280=ORIENTED_EDGE('',*,*,#318,.F.);
#281=ORIENTED_EDGE('',*,*,#363,.F.);
#282=ORIENTED_EDGE('',*,*,#322,.F.);
#283=ORIENTED_EDGE('',*,*,#362,.F.);
#284=ORIENTED_EDGE('',*,*,#310,.F.);
#285=ORIENTED_EDGE('',*,*,#364,.F.);
#286=ORIENTED_EDGE('',*,*,#320,.F.);
#287=ORIENTED_EDGE('',*,*,#360,.F.);
#288=ORIENTED_EDGE('',*,*,#349,.F.);
#289=ORIENTED_EDGE('',*,*,#366,.F.);
#290=ORIENTED_EDGE('',*,*,#353,.F.);
#291=ORIENTED_EDGE('',*,*,#359,.F.);
#292=ORIENTED_EDGE('',*,*,#341,.F.);
#293=ORIENTED_EDGE('',*,*,#367,.F.);
#294=ORIENTED_EDGE('',*,*,#351,.F.);
#295=EDGE_CURVE('',#377,#377,#439,.T.);
#296=EDGE_CURVE('',#378,#378,#440,.T.);
#297=EDGE_CURVE('',#379,#380,#27,.T.);
#298=EDGE_CURVE('',#379,#381,#28,.T.);
#299=EDGE_CURVE('',#381,#382,#29,.T.);
#300=EDGE_CURVE('',#382,#380,#30,.F.);
#301=EDGE_CURVE('',#383,#384,#31,.T.);
#302=EDGE_CURVE('',#383,#379,#32,.T.);
#303=EDGE_CURVE('',#380,#384,#33,.T.);
#304=EDGE_CURVE('',#385,#385,#441,.T.);
#305=EDGE_CURVE('',#386,#386,#442,.T.);
#306=EDGE_CURVE('',#387,#388,#34,.T.);
#307=EDGE_CURVE('',#387,#383,#35,.T.);
#308=EDGE_CURVE('',#384,#388,#36,.F.);
#309=EDGE_CURVE('',#389,#390,#37,.T.);
#310=EDGE_CURVE('',#390,#391,#38,.F.);
#311=EDGE_CURVE('',#392,#391,#39,.T.);
#312=EDGE_CURVE('',#392,#387,#40,.T.);
#313=EDGE_CURVE('',#388,#389,#41,.F.);
#314=EDGE_CURVE('',#393,#393,#443,.T.);
#315=EDGE_CURVE('',#394,#394,#444,.T.);
#316=EDGE_CURVE('',#395,#395,#445,.T.);
#317=EDGE_CURVE('',#396,#397,#42,.T.);
#318=EDGE_CURVE('',#397,#398,#43,.F.);
#319=EDGE_CURVE('',#399,#398,#44,.T.);
#320=EDGE_CURVE('',#399,#396,#45,.T.);
#321=EDGE_CURVE('',#400,#401,#46,.T.);
#322=EDGE_CURVE('',#400,#402,#47,.T.);
#323=EDGE_CURVE('',#402,#403,#48,.T.);
#324=EDGE_CURVE('',#403,#404,#49,.F.);
#325=EDGE_CURVE('',#405,#404,#50,.T.);
#326=EDGE_CURVE('',#405,#401,#51,.T.);
#327=EDGE_CURVE('',#406,#406,#446,.T.);
#328=EDGE_CURVE('',#407,#407,#447,.T.);
#329=EDGE_CURVE('',#408,#409,#52,.T.);
#330=EDGE_CURVE('',#408,#405,#53,.T.);
#331=EDGE_CURVE('',#404,#409,#54,.F.);
#332=EDGE_CURVE('',#410,#411,#55,.T.);
#333=EDGE_CURVE('',#410,#408,#56,.T.);
#334=EDGE_CURVE('',#409,#411,#57,.T.);
#335=EDGE_CURVE('',#412,#412,#448,.T.);
#336=EDGE_CURVE('',#413,#413,#449,.T.);
#337=EDGE_CURVE('',#414,#415,#58,.T.);
#338=EDGE_CURVE('',#414,#410,#59,.T.);
#339=EDGE_CURVE('',#411,#415,#60,.F.);
#340=EDGE_CURVE('',#416,#417,#61,.T.);
#341=EDGE_CURVE('',#416,#418,#62,.F.);
#342=EDGE_CURVE('',#418,#419,#63,.T.);
#343=EDGE_CURVE('',#419,#414,#64,.T.);
#344=EDGE_CURVE('',#415,#417,#65,.F.);
#345=EDGE_CURVE('',#420,#420,#450,.F.);
#346=EDGE_CURVE('',#421,#421,#451,.F.);
#347=EDGE_CURVE('',#422,#422,#452,.F.);
#348=EDGE_CURVE('',#423,#424,#66,.T.);
#349=EDGE_CURVE('',#423,#425,#67,.F.);
#350=EDGE_CURVE('',#425,#426,#68,.T.);
#351=EDGE_CURVE('',#426,#424,#69,.T.);
#352=EDGE_CURVE('',#427,#428,#70,.T.);
#353=EDGE_CURVE('',#428,#429,#71,.T.);
#354=EDGE_CURVE('',#430,#429,#72,.T.);
#355=EDGE_CURVE('',#430,#382,#73,.F.);
#356=EDGE_CURVE('',#381,#427,#74,.T.);
#357=EDGE_CURVE('',#398,#400,#453,.T.);
#358=EDGE_CURVE('',#401,#419,#75,.T.);
#359=EDGE_CURVE('',#418,#426,#454,.F.);
#360=EDGE_CURVE('',#425,#428,#455,.F.);
#361=EDGE_CURVE('',#427,#392,#76,.T.);
#362=EDGE_CURVE('',#391,#399,#456,.T.);
#363=EDGE_CURVE('',#402,#397,#457,.F.);
#364=EDGE_CURVE('',#396,#390,#458,.F.);
#365=EDGE_CURVE('',#389,#430,#77,.T.);
#366=EDGE_CURVE('',#429,#423,#459,.T.);
#367=EDGE_CURVE('',#424,#416,#460,.T.);
#368=EDGE_CURVE('',#417,#403,#78,.T.);
#369=EDGE_CURVE('',#431,#431,#461,.T.);
#370=EDGE_CURVE('',#432,#432,#462,.T.);
#371=EDGE_CURVE('',#433,#433,#463,.T.);
#372=EDGE_CURVE('',#434,#434,#464,.T.);
#373=EDGE_CURVE('',#435,#435,#465,.T.);
#374=EDGE_CURVE('',#436,#436,#466,.T.);
#375=EDGE_CURVE('',#437,#437,#467,.T.);
#376=EDGE_CURVE('',#438,#438,#468,.T.);
#377=VERTEX_POINT('',#931);
#378=VERTEX_POINT('',#933);
#379=VERTEX_POINT('',#935);
#380=VERTEX_POINT('',#936);
#381=VERTEX_POINT('',#938);
#382=VERTEX_POINT('',#940);
#383=VERTEX_POINT('',#944);
#384=VERTEX_POINT('',#945);
#385=VERTEX_POINT('',#950);
#386=VERTEX_POINT('',#952);
#387=VERTEX_POINT('',#954);
#388=VERTEX_POINT('',#955);
#389=VERTEX_POINT('',#960);
#390=VERTEX_POINT('',#961);
#391=VERTEX_POINT('',#963);
#392=VERTEX_POINT('',#965);
#393=VERTEX_POINT('',#970);
#394=VERTEX_POINT('',#972);
#395=VERTEX_POINT('',#974);
#396=VERTEX_POINT('',#976);
#397=VERTEX_POINT('',#977);
#398=VERTEX_POINT('',#979);
#399=VERTEX_POINT('',#981);
#400=VERTEX_POINT('',#985);
#401=VERTEX_POINT('',#986);
#402=VERTEX_POINT('',#988);
#403=VERTEX_POINT('',#990);
#404=VERTEX_POINT('',#992);
#405=VERTEX_POINT('',#994);
#406=VERTEX_POINT('',#998);
#407=VERTEX_POINT('',#1000);
#408=VERTEX_POINT('',#1002);
#409=VERTEX_POINT('',#1003);
#410=VERTEX_POINT('',#1008);
#411=VERTEX_POINT('',#1009);
#412=VERTEX_POINT('',#1014);
#413=VERTEX_POINT('',#1016);
#414=VERTEX_POINT('',#1018);
#415=VERTEX_POINT('',#1019);
#416=VERTEX_POINT('',#1024);
#417=VERTEX_POINT('',#1025);
#418=VERTEX_POINT('',#1027);
#419=VERTEX_POINT('',#1029);
#420=VERTEX_POINT('',#1034);
#421=VERTEX_POINT('',#1036);
#422=VERTEX_POINT('',#1038);
#423=VERTEX_POINT('',#1040);
#424=VERTEX_POINT('',#1041);
#425=VERTEX_POINT('',#1043);
#426=VERTEX_POINT('',#1045);
#427=VERTEX_POINT('',#1049);
#428=VERTEX_POINT('',#1050);
#429=VERTEX_POINT('',#1052);
#430=VERTEX_POINT('',#1054);
#431=VERTEX_POINT('',#1080);
#432=VERTEX_POINT('',#1083);
#433=VERTEX_POINT('',#1087);
#434=VERTEX_POINT('',#1090);
#435=VERTEX_POINT('',#1094);
#436=VERTEX_POINT('',#1097);
#437=VERTEX_POINT('',#1101);
#438=VERTEX_POINT('',#1104);
#439=CIRCLE('',#674,0.00155);
#440=CIRCLE('',#675,0.00155);
#441=CIRCLE('',#678,0.00305);
#442=CIRCLE('',#679,0.00305);
#443=CIRCLE('',#682,0.0025);
#444=CIRCLE('',#683,0.0025);
#445=CIRCLE('',#684,0.019875);
#446=CIRCLE('',#687,0.00305);
#447=CIRCLE('',#688,0.00305);
#448=CIRCLE('',#691,0.00155);
#449=CIRCLE('',#692,0.00155);
#450=CIRCLE('',#695,0.0025);
#451=CIRCLE('',#696,0.0025);
#452=CIRCLE('',#697,0.019875);
#453=CIRCLE('',#700,0.004);
#454=CIRCLE('',#701,0.004);
#455=CIRCLE('',#702,0.004);
#456=CIRCLE('',#703,0.004);
#457=CIRCLE('',#705,0.004);
#458=CIRCLE('',#706,0.004);
#459=CIRCLE('',#707,0.004);
#460=CIRCLE('',#708,0.004);
#461=CIRCLE('',#717,0.00155);
#462=CIRCLE('',#719,0.00305);
#463=CIRCLE('',#722,0.00155);
#464=CIRCLE('',#724,0.00305);
#465=CIRCLE('',#727,0.00155);
#466=CIRCLE('',#729,0.00305);
#467=CIRCLE('',#732,0.00155);
#468=CIRCLE('',#734,0.00305);
#469=EDGE_LOOP('',(#131));
#470=EDGE_LOOP('',(#132));
#471=EDGE_LOOP('',(#133,#134,#135,#136));
#472=EDGE_LOOP('',(#137,#138,#139,#140));
#473=EDGE_LOOP('',(#141));
#474=EDGE_LOOP('',(#142));
#475=EDGE_LOOP('',(#143,#144,#145,#146));
#476=EDGE_LOOP('',(#147,#148,#149,#150,#151,#152));
#477=EDGE_LOOP('',(#153));
#478=EDGE_LOOP('',(#154));
#479=EDGE_LOOP('',(#155));
#480=EDGE_LOOP('',(#156,#157,#158,#159));
#481=EDGE_LOOP('',(#160,#161,#162,#163,#164,#165));
#482=EDGE_LOOP('',(#166));
#483=EDGE_LOOP('',(#167));
#484=EDGE_LOOP('',(#168,#169,#170,#171));
#485=EDGE_LOOP('',(#172,#173,#174,#175));
#486=EDGE_LOOP('',(#176));
#487=EDGE_LOOP('',(#177));
#488=EDGE_LOOP('',(#178,#179,#180,#181));
#489=EDGE_LOOP('',(#182,#183,#184,#185,#186,#187));
#490=EDGE_LOOP('',(#188));
#491=EDGE_LOOP('',(#189));
#492=EDGE_LOOP('',(#190));
#493=EDGE_LOOP('',(#191,#192,#193,#194));
#494=EDGE_LOOP('',(#195,#196,#197,#198,#199,#200));
#495=EDGE_LOOP('',(#201,#202,#203,#204,#205,#206,#207,#208,#209,#210,#211,
#212));
#496=EDGE_LOOP('',(#213,#214,#215,#216,#217,#218,#219,#220,#221,#222,#223,
#224));
#497=EDGE_LOOP('',(#225,#226,#227,#228,#229,#230));
#498=EDGE_LOOP('',(#231,#232,#233,#234,#235,#236));
#499=EDGE_LOOP('',(#237,#238,#239,#240,#241,#242));
#500=EDGE_LOOP('',(#243,#244,#245,#246,#247,#248));
#501=EDGE_LOOP('',(#249));
#502=EDGE_LOOP('',(#250));
#503=EDGE_LOOP('',(#251));
#504=EDGE_LOOP('',(#252));
#505=EDGE_LOOP('',(#253));
#506=EDGE_LOOP('',(#254));
#507=EDGE_LOOP('',(#255));
#508=EDGE_LOOP('',(#256));
#509=EDGE_LOOP('',(#257));
#510=EDGE_LOOP('',(#258));
#511=EDGE_LOOP('',(#259));
#512=EDGE_LOOP('',(#260));
#513=EDGE_LOOP('',(#261));
#514=EDGE_LOOP('',(#262));
#515=EDGE_LOOP('',(#263));
#516=EDGE_LOOP('',(#264));
#517=EDGE_LOOP('',(#265));
#518=EDGE_LOOP('',(#266));
#519=EDGE_LOOP('',(#267));
#520=EDGE_LOOP('',(#268));
#521=EDGE_LOOP('',(#269));
#522=EDGE_LOOP('',(#270));
#523=EDGE_LOOP('',(#271));
#524=EDGE_LOOP('',(#272));
#525=EDGE_LOOP('',(#273));
#526=EDGE_LOOP('',(#274));
#527=EDGE_LOOP('',(#275));
#528=EDGE_LOOP('',(#276));
#529=EDGE_LOOP('',(#277));
#530=EDGE_LOOP('',(#278));
#531=EDGE_LOOP('',(#279,#280,#281,#282));
#532=EDGE_LOOP('',(#283,#284,#285,#286));
#533=EDGE_LOOP('',(#287,#288,#289,#290));
#534=EDGE_LOOP('',(#291,#292,#293,#294));
#535=FACE_BOUND('',#469,.T.);
#536=FACE_BOUND('',#470,.T.);
#537=FACE_BOUND('',#471,.T.);
#538=FACE_BOUND('',#472,.T.);
#539=FACE_BOUND('',#473,.T.);
#540=FACE_BOUND('',#474,.T.);
#541=FACE_BOUND('',#475,.T.);
#542=FACE_BOUND('',#476,.T.);
#543=FACE_BOUND('',#477,.T.);
#544=FACE_BOUND('',#478,.T.);
#545=FACE_BOUND('',#479,.T.);
#546=FACE_BOUND('',#480,.T.);
#547=FACE_BOUND('',#481,.T.);
#548=FACE_BOUND('',#482,.T.);
#549=FACE_BOUND('',#483,.T.);
#550=FACE_BOUND('',#484,.T.);
#551=FACE_BOUND('',#485,.T.);
#552=FACE_BOUND('',#486,.T.);
#553=FACE_BOUND('',#487,.T.);
#554=FACE_BOUND('',#488,.T.);
#555=FACE_BOUND('',#489,.T.);
#556=FACE_BOUND('',#490,.T.);
#557=FACE_BOUND('',#491,.T.);
#558=FACE_BOUND('',#492,.T.);
#559=FACE_BOUND('',#493,.T.);
#560=FACE_BOUND('',#494,.T.);
#561=FACE_BOUND('',#495,.T.);
#562=FACE_BOUND('',#496,.T.);
#563=FACE_BOUND('',#497,.T.);
#564=FACE_BOUND('',#498,.T.);
#565=FACE_BOUND('',#499,.T.);
#566=FACE_BOUND('',#500,.T.);
#567=FACE_BOUND('',#501,.T.);
#568=FACE_BOUND('',#502,.T.);
#569=FACE_BOUND('',#503,.T.);
#570=FACE_BOUND('',#504,.T.);
#571=FACE_BOUND('',#505,.T.);
#572=FACE_BOUND('',#506,.T.);
#573=FACE_BOUND('',#507,.T.);
#574=FACE_BOUND('',#508,.T.);
#575=FACE_BOUND('',#509,.T.);
#576=FACE_BOUND('',#510,.T.);
#577=FACE_BOUND('',#511,.T.);
#578=FACE_BOUND('',#512,.T.);
#579=FACE_BOUND('',#513,.T.);
#580=FACE_BOUND('',#514,.T.);
#581=FACE_BOUND('',#515,.T.);
#582=FACE_BOUND('',#516,.T.);
#583=FACE_BOUND('',#517,.T.);
#584=FACE_BOUND('',#518,.T.);
#585=FACE_BOUND('',#519,.T.);
#586=FACE_BOUND('',#520,.T.);
#587=FACE_BOUND('',#521,.T.);
#588=FACE_BOUND('',#522,.T.);
#589=FACE_BOUND('',#523,.T.);
#590=FACE_BOUND('',#524,.T.);
#591=FACE_BOUND('',#525,.T.);
#592=FACE_BOUND('',#526,.T.);
#593=FACE_BOUND('',#527,.T.);
#594=FACE_BOUND('',#528,.T.);
#595=FACE_BOUND('',#529,.T.);
#596=FACE_BOUND('',#530,.T.);
#597=FACE_BOUND('',#531,.T.);
#598=FACE_BOUND('',#532,.T.);
#599=FACE_BOUND('',#533,.T.);
#600=FACE_BOUND('',#534,.T.);
#601=PLANE('',#673);
#602=PLANE('',#676);
#603=PLANE('',#677);
#604=PLANE('',#680);
#605=PLANE('',#681);
#606=PLANE('',#685);
#607=PLANE('',#686);
#608=PLANE('',#689);
#609=PLANE('',#690);
#610=PLANE('',#693);
#611=PLANE('',#694);
#612=PLANE('',#698);
#613=PLANE('',#699);
#614=PLANE('',#704);
#615=PLANE('',#709);
#616=PLANE('',#710);
#617=PLANE('',#711);
#618=PLANE('',#712);
#619=PLANE('',#718);
#620=PLANE('',#723);
#621=PLANE('',#728);
#622=PLANE('',#733);
#623=ADVANCED_FACE('',(#535,#536,#537),#601,.T.);
#624=ADVANCED_FACE('',(#538),#602,.F.);
#625=ADVANCED_FACE('',(#539,#540,#541),#603,.F.);
#626=ADVANCED_FACE('',(#542),#604,.F.);
#627=ADVANCED_FACE('',(#543,#544,#545,#546),#605,.F.);
#628=ADVANCED_FACE('',(#547),#606,.F.);
#629=ADVANCED_FACE('',(#548,#549,#550),#607,.F.);
#630=ADVANCED_FACE('',(#551),#608,.F.);
#631=ADVANCED_FACE('',(#552,#553,#554),#609,.T.);
#632=ADVANCED_FACE('',(#555),#610,.T.);
#633=ADVANCED_FACE('',(#556,#557,#558,#559),#611,.T.);
#634=ADVANCED_FACE('',(#560),#612,.T.);
#635=ADVANCED_FACE('',(#561),#613,.T.);
#636=ADVANCED_FACE('',(#562),#614,.F.);
#637=ADVANCED_FACE('',(#563),#615,.T.);
#638=ADVANCED_FACE('',(#564),#616,.F.);
#639=ADVANCED_FACE('',(#565),#617,.T.);
#640=ADVANCED_FACE('',(#566),#618,.F.);
#641=ADVANCED_FACE('',(#567,#568),#12,.F.);
#642=ADVANCED_FACE('',(#569,#570),#13,.F.);
#643=ADVANCED_FACE('',(#571,#572),#14,.F.);
#644=ADVANCED_FACE('',(#573,#574),#15,.F.);
#645=ADVANCED_FACE('',(#575,#576),#619,.T.);
#646=ADVANCED_FACE('',(#577,#578),#16,.F.);
#647=ADVANCED_FACE('',(#579,#580),#17,.F.);
#648=ADVANCED_FACE('',(#581,#582),#620,.T.);
#649=ADVANCED_FACE('',(#583,#584),#18,.F.);
#650=ADVANCED_FACE('',(#585,#586),#19,.F.);
#651=ADVANCED_FACE('',(#587,#588),#621,.T.);
#652=ADVANCED_FACE('',(#589,#590),#20,.F.);
#653=ADVANCED_FACE('',(#591,#592),#21,.F.);
#654=ADVANCED_FACE('',(#593,#594),#622,.T.);
#655=ADVANCED_FACE('',(#595,#596),#22,.F.);
#656=ADVANCED_FACE('',(#597),#23,.T.);
#657=ADVANCED_FACE('',(#598),#24,.T.);
#658=ADVANCED_FACE('',(#599),#25,.F.);
#659=ADVANCED_FACE('',(#600),#26,.F.);
#660=CLOSED_SHELL('',(#623,#624,#625,#626,#627,#628,#629,#630,#631,#632,
#633,#634,#635,#636,#637,#638,#639,#640,#641,#642,#643,#644,#645,#646,#647,
#648,#649,#650,#651,#652,#653,#654,#655,#656,#657,#658,#659));
#661=STYLED_ITEM('',(#662),#669);
#662=PRESENTATION_STYLE_ASSIGNMENT((#663));
#663=SURFACE_STYLE_USAGE(.BOTH.,#664);
#664=SURFACE_SIDE_STYLE('',(#665));
#665=SURFACE_STYLE_FILL_AREA(#666);
#666=FILL_AREA_STYLE('',(#667));
#667=FILL_AREA_STYLE_COLOUR('',#668);
#668=COLOUR_RGB('',0.231372549019608,0.380392156862745,0.705882352941177);
#669=MANIFOLD_SOLID_BREP('Speaker Bracket Large',#660);
#670=SHAPE_DEFINITION_REPRESENTATION(#1116,#671);
#671=SHAPE_REPRESENTATION('Speaker Bracket Large',(#672),#1111);
#672=AXIS2_PLACEMENT_3D('',#928,#740,#741);
#673=AXIS2_PLACEMENT_3D('',#929,#742,#743);
#674=AXIS2_PLACEMENT_3D('',#930,#744,#745);
#675=AXIS2_PLACEMENT_3D('',#932,#746,#747);
#676=AXIS2_PLACEMENT_3D('',#942,#752,#753);
#677=AXIS2_PLACEMENT_3D('',#948,#757,#758);
#678=AXIS2_PLACEMENT_3D('',#949,#759,#760);
#679=AXIS2_PLACEMENT_3D('',#951,#761,#762);
#680=AXIS2_PLACEMENT_3D('',#958,#766,#767);
#681=AXIS2_PLACEMENT_3D('',#968,#773,#774);
#682=AXIS2_PLACEMENT_3D('',#969,#775,#776);
#683=AXIS2_PLACEMENT_3D('',#971,#777,#778);
#684=AXIS2_PLACEMENT_3D('',#973,#779,#780);
#685=AXIS2_PLACEMENT_3D('',#983,#785,#786);
#686=AXIS2_PLACEMENT_3D('',#996,#793,#794);
#687=AXIS2_PLACEMENT_3D('',#997,#795,#796);
#688=AXIS2_PLACEMENT_3D('',#999,#797,#798);
#689=AXIS2_PLACEMENT_3D('',#1006,#802,#803);
#690=AXIS2_PLACEMENT_3D('',#1012,#807,#808);
#691=AXIS2_PLACEMENT_3D('',#1013,#809,#810);
#692=AXIS2_PLACEMENT_3D('',#1015,#811,#812);
#693=AXIS2_PLACEMENT_3D('',#1022,#816,#817);
#694=AXIS2_PLACEMENT_3D('',#1032,#823,#824);
#695=AXIS2_PLACEMENT_3D('',#1033,#825,#826);
#696=AXIS2_PLACEMENT_3D('',#1035,#827,#828);
#697=AXIS2_PLACEMENT_3D('',#1037,#829,#830);
#698=AXIS2_PLACEMENT_3D('',#1047,#835,#836);
#699=AXIS2_PLACEMENT_3D('',#1057,#842,#843);
#700=AXIS2_PLACEMENT_3D('',#1058,#844,#845);
#701=AXIS2_PLACEMENT_3D('',#1060,#847,#848);
#702=AXIS2_PLACEMENT_3D('',#1061,#849,#850);
#703=AXIS2_PLACEMENT_3D('',#1063,#852,#853);
#704=AXIS2_PLACEMENT_3D('',#1064,#854,#855);
#705=AXIS2_PLACEMENT_3D('',#1065,#856,#857);
#706=AXIS2_PLACEMENT_3D('',#1066,#858,#859);
#707=AXIS2_PLACEMENT_3D('',#1068,#861,#862);
#708=AXIS2_PLACEMENT_3D('',#1069,#863,#864);
#709=AXIS2_PLACEMENT_3D('',#1071,#866,#867);
#710=AXIS2_PLACEMENT_3D('',#1072,#868,#869);
#711=AXIS2_PLACEMENT_3D('',#1073,#870,#871);
#712=AXIS2_PLACEMENT_3D('',#1074,#872,#873);
#713=AXIS2_PLACEMENT_3D('',#1075,#874,#875);
#714=AXIS2_PLACEMENT_3D('',#1076,#876,#877);
#715=AXIS2_PLACEMENT_3D('',#1077,#878,#879);
#716=AXIS2_PLACEMENT_3D('',#1078,#880,#881);
#717=AXIS2_PLACEMENT_3D('',#1079,#882,#883);
#718=AXIS2_PLACEMENT_3D('',#1081,#884,#885);
#719=AXIS2_PLACEMENT_3D('',#1082,#886,#887);
#720=AXIS2_PLACEMENT_3D('',#1084,#888,#889);
#721=AXIS2_PLACEMENT_3D('',#1085,#890,#891);
#722=AXIS2_PLACEMENT_3D('',#1086,#892,#893);
#723=AXIS2_PLACEMENT_3D('',#1088,#894,#895);
#724=AXIS2_PLACEMENT_3D('',#1089,#896,#897);
#725=AXIS2_PLACEMENT_3D('',#1091,#898,#899);
#726=AXIS2_PLACEMENT_3D('',#1092,#900,#901);
#727=AXIS2_PLACEMENT_3D('',#1093,#902,#903);
#728=AXIS2_PLACEMENT_3D('',#1095,#904,#905);
#729=AXIS2_PLACEMENT_3D('',#1096,#906,#907);
#730=AXIS2_PLACEMENT_3D('',#1098,#908,#909);
#731=AXIS2_PLACEMENT_3D('',#1099,#910,#911);
#732=AXIS2_PLACEMENT_3D('',#1100,#912,#913);
#733=AXIS2_PLACEMENT_3D('',#1102,#914,#915);
#734=AXIS2_PLACEMENT_3D('',#1103,#916,#917);
#735=AXIS2_PLACEMENT_3D('',#1105,#918,#919);
#736=AXIS2_PLACEMENT_3D('',#1106,#920,#921);
#737=AXIS2_PLACEMENT_3D('',#1107,#922,#923);
#738=AXIS2_PLACEMENT_3D('',#1108,#924,#925);
#739=AXIS2_PLACEMENT_3D('',#1109,#926,#927);
#740=DIRECTION('',(0.,0.,1.));
#741=DIRECTION('',(1.,0.,0.));
#742=DIRECTION('',(0.996194698091746,0.0871557427476556,0.));
#743=DIRECTION('',(-0.0871557427476556,0.996194698091746,0.));
#744=DIRECTION('',(0.996194698091746,0.0871557427476556,0.));
#745=DIRECTION('',(-0.0871557427476556,0.996194698091746,0.));
#746=DIRECTION('',(0.996194698091746,0.0871557427476556,0.));
#747=DIRECTION('',(-0.0871557427476556,0.996194698091746,0.));
#748=DIRECTION('',(0.0871557427476556,-0.996194698091746,0.));
#749=DIRECTION('',(-0.0435778713738278,0.498097349045873,0.866025403784439));
#750=DIRECTION('',(0.0871557427476556,-0.996194698091746,0.));
#751=DIRECTION('',(0.0435778713738278,-0.498097349045873,0.866025403784439));
#752=DIRECTION('',(0.,0.,1.));
#753=DIRECTION('',(1.,0.,0.));
#754=DIRECTION('',(0.0871557427476556,-0.996194698091746,0.));
#755=DIRECTION('',(0.996194698091746,0.0871557427476556,0.));
#756=DIRECTION('',(-0.996194698091746,-0.0871557427476556,0.));
#757=DIRECTION('',(0.996194698091746,0.0871557427476556,0.));
#758=DIRECTION('',(-0.0871557427476556,0.996194698091746,0.));
#759=DIRECTION('',(0.996194698091746,0.0871557427476556,0.));
#760=DIRECTION('',(-0.0871557427476556,0.996194698091746,0.));
#761=DIRECTION('',(0.996194698091746,0.0871557427476556,0.));
#762=DIRECTION('',(-0.0871557427476556,0.996194698091746,0.));
#763=DIRECTION('',(0.0871557427476556,-0.996194698091746,0.));
#764=DIRECTION('',(0.0435778713738278,-0.498097349045873,-0.866025403784439));
#765=DIRECTION('',(-0.0435778713738278,0.498097349045873,-0.866025403784439));
#766=DIRECTION('',(0.697070609514519,0.0609857760096246,0.714404157655568));
#767=DIRECTION('',(0.715736404188058,0.,-0.698370531823865));
#768=DIRECTION('',(-0.711685634151177,-0.0622644249824843,0.699733305999106));
#769=DIRECTION('',(0.0871557427476556,-0.996194698091746,-1.99726999629433E-17));
#770=DIRECTION('',(-0.711685634151177,-0.0622644249824843,0.699733305999106));
#771=DIRECTION('',(0.692518137485637,-0.315422028226459,-0.648789313539404));
#772=DIRECTION('',(0.6272247704999,0.430884571443927,-0.648789313539404));
#773=DIRECTION('',(0.996194698091746,0.0871557427476556,0.));
#774=DIRECTION('',(-0.0871557427476556,0.996194698091746,0.));
#775=DIRECTION('',(-0.996194698091746,-0.0871557427476556,0.));
#776=DIRECTION('',(0.0871557427476556,-0.996194698091746,0.));
#777=DIRECTION('',(-0.996194698091746,-0.0871557427476556,0.));
#778=DIRECTION('',(0.0871557427476556,-0.996194698091746,0.));
#779=DIRECTION('',(-0.996194698091746,-0.0871557427476556,0.));
#780=DIRECTION('',(0.0871557427476556,-0.996194698091746,0.));
#781=DIRECTION('',(0.,0.,1.));
#782=DIRECTION('',(0.0871557427476556,-0.996194698091746,0.));
#783=DIRECTION('',(0.,0.,1.));
#784=DIRECTION('',(0.0871557427476556,-0.996194698091746,-1.64502263453915E-17));
#785=DIRECTION('',(0.69707060951452,0.0609857760096248,-0.714404157655567));
#786=DIRECTION('',(-0.715736404188057,0.,-0.698370531823867));
#787=DIRECTION('',(0.711685634151175,0.0622644249824841,0.699733305999107));
#788=DIRECTION('',(0.0871557427476556,-0.996194698091746,2.53000958944186E-18));
#789=DIRECTION('',(0.711685634151175,0.0622644249824841,0.699733305999107));
#790=DIRECTION('',(-0.627224770499899,-0.430884571443927,-0.648789313539405));
#791=DIRECTION('',(0.0871557427476556,-0.996194698091746,0.));
#792=DIRECTION('',(-0.692518137485636,0.31542202822646,-0.648789313539405));
#793=DIRECTION('',(0.996194698091746,0.0871557427476556,0.));
#794=DIRECTION('',(-0.0871557427476556,0.996194698091746,0.));
#795=DIRECTION('',(0.996194698091746,0.0871557427476556,0.));
#796=DIRECTION('',(-0.0871557427476556,0.996194698091746,0.));
#797=DIRECTION('',(0.996194698091746,0.0871557427476556,0.));
#798=DIRECTION('',(-0.0871557427476556,0.996194698091746,0.));
#799=DIRECTION('',(0.0871557427476556,-0.996194698091746,0.));
#800=DIRECTION('',(-0.0435778713738278,0.498097349045873,-0.866025403784439));
#801=DIRECTION('',(0.0435778713738278,-0.498097349045873,-0.866025403784439));
#802=DIRECTION('',(0.,0.,-1.));
#803=DIRECTION('',(-1.,0.,0.));
#804=DIRECTION('',(0.0871557427476556,-0.996194698091746,0.));
#805=DIRECTION('',(-0.996194698091746,-0.0871557427476556,0.));
#806=DIRECTION('',(0.996194698091746,0.0871557427476556,0.));
#807=DIRECTION('',(0.996194698091746,0.0871557427476556,0.));
#808=DIRECTION('',(-0.0871557427476556,0.996194698091746,0.));
#809=DIRECTION('',(0.996194698091746,0.0871557427476556,0.));
#810=DIRECTION('',(-0.0871557427476556,0.996194698091746,0.));
#811=DIRECTION('',(0.996194698091746,0.0871557427476556,0.));
#812=DIRECTION('',(-0.0871557427476556,0.996194698091746,0.));
#813=DIRECTION('',(0.0871557427476556,-0.996194698091746,0.));
#814=DIRECTION('',(0.0435778713738278,-0.498097349045873,0.866025403784439));
#815=DIRECTION('',(-0.0435778713738278,0.498097349045873,0.866025403784439));
#816=DIRECTION('',(0.697070609514518,0.0609857760096246,-0.714404157655568));
#817=DIRECTION('',(-0.715736404188059,0.,-0.698370531823865));
#818=DIRECTION('',(0.711685634151177,0.0622644249824843,0.699733305999106));
#819=DIRECTION('',(0.0871557427476556,-0.996194698091746,1.57596242566316E-17));
#820=DIRECTION('',(0.711685634151177,0.0622644249824843,0.699733305999106));
#821=DIRECTION('',(0.692518137485637,-0.315422028226459,0.648789313539404));
#822=DIRECTION('',(0.6272247704999,0.430884571443927,0.648789313539404));
#823=DIRECTION('',(0.996194698091746,0.0871557427476556,0.));
#824=DIRECTION('',(-0.0871557427476556,0.996194698091746,0.));
#825=DIRECTION('',(0.996194698091746,0.0871557427476556,0.));
#826=DIRECTION('',(-0.0871557427476556,0.996194698091746,0.));
#827=DIRECTION('',(0.996194698091746,0.0871557427476556,0.));
#828=DIRECTION('',(-0.0871557427476556,0.996194698091746,0.));
#829=DIRECTION('',(0.996194698091746,0.0871557427476556,0.));
#830=DIRECTION('',(-0.0871557427476556,0.996194698091746,0.));
#831=DIRECTION('',(0.,0.,1.));
#832=DIRECTION('',(0.0871557427476556,-0.996194698091746,1.16945601246494E-17));
#833=DIRECTION('',(0.,0.,1.));
#834=DIRECTION('',(0.0871557427476556,-0.996194698091746,2.33891202492987E-17));
#835=DIRECTION('',(0.697070609514519,0.0609857760096247,0.714404157655568));
#836=DIRECTION('',(0.715736404188058,0.,-0.698370531823865));
#837=DIRECTION('',(-0.711685634151177,-0.0622644249824843,0.699733305999106));
#838=DIRECTION('',(0.0871557427476556,-0.996194698091746,9.06847278836829E-18));
#839=DIRECTION('',(-0.711685634151177,-0.0622644249824843,0.699733305999106));
#840=DIRECTION('',(-0.6272247704999,-0.430884571443927,0.648789313539404));
#841=DIRECTION('',(-0.692518137485637,0.315422028226459,0.648789313539404));
#842=DIRECTION('',(-0.0871557427476556,0.996194698091746,0.));
#843=DIRECTION('',(-0.996194698091746,-0.0871557427476556,0.));
#844=DIRECTION('',(-0.0871557427476556,0.996194698091746,0.));
#845=DIRECTION('',(-0.996194698091746,-0.0871557427476556,0.));
#846=DIRECTION('',(0.996194698091746,0.0871557427476556,0.));
#847=DIRECTION('',(-0.0871557427476556,0.996194698091746,0.));
#848=DIRECTION('',(-0.996194698091746,-0.0871557427476556,0.));
#849=DIRECTION('',(-0.0871557427476556,0.996194698091746,0.));
#850=DIRECTION('',(-0.996194698091746,-0.0871557427476556,0.));
#851=DIRECTION('',(-0.996194698091746,-0.0871557427476556,0.));
#852=DIRECTION('',(-0.0871557427476556,0.996194698091746,0.));
#853=DIRECTION('',(-0.996194698091746,-0.0871557427476556,0.));
#854=DIRECTION('',(-0.0871557427476556,0.996194698091746,0.));
#855=DIRECTION('',(-0.996194698091746,-0.0871557427476556,0.));
#856=DIRECTION('',(-0.0871557427476556,0.996194698091746,0.));
#857=DIRECTION('',(-0.996194698091746,-0.0871557427476556,0.));
#858=DIRECTION('',(-0.0871557427476556,0.996194698091746,0.));
#859=DIRECTION('',(-0.996194698091746,-0.0871557427476556,0.));
#860=DIRECTION('',(0.996194698091746,0.0871557427476556,0.));
#861=DIRECTION('',(-0.0871557427476556,0.996194698091746,0.));
#862=DIRECTION('',(-0.996194698091746,-0.0871557427476556,0.));
#863=DIRECTION('',(-0.0871557427476556,0.996194698091746,0.));
#864=DIRECTION('',(-0.996194698091746,-0.0871557427476556,0.));
#865=DIRECTION('',(-0.996194698091746,-0.0871557427476556,0.));
#866=DIRECTION('',(-0.0754790873051711,0.862729915662821,0.5));
#867=DIRECTION('',(-0.996194698091746,-0.0871557427476556,0.));
#868=DIRECTION('',(-0.0754790873051711,0.862729915662821,-0.5));
#869=DIRECTION('',(0.996194698091746,0.0871557427476556,0.));
#870=DIRECTION('',(-0.0754790873051711,0.862729915662821,-0.5));
#871=DIRECTION('',(0.996194698091746,0.0871557427476556,0.));
#872=DIRECTION('',(-0.0754790873051711,0.862729915662821,0.5));
#873=DIRECTION('',(-0.996194698091746,-0.0871557427476556,0.));
#874=DIRECTION('',(-0.996194698091746,-0.0871557427476556,0.));
#875=DIRECTION('',(0.0871557427476556,-0.996194698091746,0.));
#876=DIRECTION('',(-0.996194698091746,-0.0871557427476556,0.));
#877=DIRECTION('',(0.0871557427476556,-0.996194698091746,0.));
#878=DIRECTION('',(-0.996194698091746,-0.0871557427476556,0.));
#879=DIRECTION('',(0.0871557427476556,-0.996194698091746,0.));
#880=DIRECTION('',(0.996194698091746,0.0871557427476556,0.));
#881=DIRECTION('',(-0.0871557427476556,0.996194698091746,0.));
#882=DIRECTION('',(0.996194698091746,0.0871557427476556,0.));
#883=DIRECTION('',(-0.0871557427476556,0.996194698091746,0.));
#884=DIRECTION('',(-0.996194698091746,-0.0871557427476556,0.));
#885=DIRECTION('',(0.0871557427476556,-0.996194698091746,0.));
#886=DIRECTION('',(0.996194698091746,0.0871557427476556,0.));
#887=DIRECTION('',(-0.0871557427476556,0.996194698091746,0.));
#888=DIRECTION('',(0.996194698091746,0.0871557427476556,0.));
#889=DIRECTION('',(-0.0871557427476556,0.996194698091746,0.));
#890=DIRECTION('',(0.996194698091746,0.0871557427476556,0.));
#891=DIRECTION('',(-0.0871557427476556,0.996194698091746,0.));
#892=DIRECTION('',(0.996194698091746,0.0871557427476556,0.));
#893=DIRECTION('',(-0.0871557427476556,0.996194698091746,0.));
#894=DIRECTION('',(-0.996194698091746,-0.0871557427476556,0.));
#895=DIRECTION('',(0.0871557427476556,-0.996194698091746,0.));
#896=DIRECTION('',(0.996194698091746,0.0871557427476556,0.));
#897=DIRECTION('',(-0.0871557427476556,0.996194698091746,0.));
#898=DIRECTION('',(0.996194698091746,0.0871557427476556,0.));
#899=DIRECTION('',(-0.0871557427476556,0.996194698091746,0.));
#900=DIRECTION('',(0.996194698091746,0.0871557427476556,0.));
#901=DIRECTION('',(-0.0871557427476556,0.996194698091746,0.));
#902=DIRECTION('',(0.996194698091746,0.0871557427476556,0.));
#903=DIRECTION('',(-0.0871557427476556,0.996194698091746,0.));
#904=DIRECTION('',(-0.996194698091746,-0.0871557427476556,0.));
#905=DIRECTION('',(0.0871557427476556,-0.996194698091746,0.));
#906=DIRECTION('',(0.996194698091746,0.0871557427476556,0.));
#907=DIRECTION('',(-0.0871557427476556,0.996194698091746,0.));
#908=DIRECTION('',(0.996194698091746,0.0871557427476556,0.));
#909=DIRECTION('',(-0.0871557427476556,0.996194698091746,0.));
#910=DIRECTION('',(0.996194698091746,0.0871557427476556,0.));
#911=DIRECTION('',(-0.0871557427476556,0.996194698091746,0.));
#912=DIRECTION('',(0.996194698091746,0.0871557427476556,0.));
#913=DIRECTION('',(-0.0871557427476556,0.996194698091746,0.));
#914=DIRECTION('',(-0.996194698091746,-0.0871557427476556,0.));
#915=DIRECTION('',(0.0871557427476556,-0.996194698091746,0.));
#916=DIRECTION('',(0.996194698091746,0.0871557427476556,0.));
#917=DIRECTION('',(-0.0871557427476556,0.996194698091746,0.));
#918=DIRECTION('',(0.996194698091746,0.0871557427476556,0.));
#919=DIRECTION('',(-0.0871557427476556,0.996194698091746,0.));
#920=DIRECTION('',(0.0871557427476556,-0.996194698091746,0.));
#921=DIRECTION('',(0.996194698091746,0.0871557427476556,0.));
#922=DIRECTION('',(0.0871557427476556,-0.996194698091746,-1.64502263453915E-17));
#923=DIRECTION('',(0.996194698091746,0.0871557427476556,0.));
#924=DIRECTION('',(-0.0871557427476556,0.996194698091746,-1.16945601246494E-17));
#925=DIRECTION('',(-0.996194698091746,-0.0871557427476556,0.));
#926=DIRECTION('',(-0.0871557427476556,0.996194698091746,-2.33891202492988E-17));
#927=DIRECTION('',(-0.996194698091746,-0.0871557427476556,0.));
#928=CARTESIAN_POINT('',(0.,0.,0.));
#929=CARTESIAN_POINT('',(0.102011427391191,0.107909119410879,-0.04425));
#930=CARTESIAN_POINT('',(0.10484398903049,0.075532791722897,-0.0435));
#931=CARTESIAN_POINT('',(0.104708897629231,0.0770768935049392,-0.0435));
#932=CARTESIAN_POINT('',(0.103536652889275,0.0904757121942732,-0.0435));
#933=CARTESIAN_POINT('',(0.103401561488016,0.0920198139763154,-0.0435));
#934=CARTESIAN_POINT('',(0.102011427391191,0.107909119410879,-0.04875));
#935=CARTESIAN_POINT('',(0.10279582907592,0.098943367128053,-0.04875));
#936=CARTESIAN_POINT('',(0.105584812843845,0.0670651367891172,-0.04875));
#937=CARTESIAN_POINT('',(0.102429900708301,0.103125947509001,-0.04147788568297));
#938=CARTESIAN_POINT('',(0.102342954552089,0.10411974662203,-0.03975));
#939=CARTESIAN_POINT('',(0.102011427391191,0.107909119410879,-0.03975));
#940=CARTESIAN_POINT('',(0.106037687367676,0.0618887572951403,-0.03975));
#941=CARTESIAN_POINT('',(0.104861294427118,0.0753349901343162,-0.063128520777581));
#942=CARTESIAN_POINT('',(0.0995199914302128,0.107691147008392,-0.04875));
#943=CARTESIAN_POINT('',(0.0970285554692343,0.107473174605906,-0.04875));
#944=CARTESIAN_POINT('',(0.0978129571539632,0.0985074223230802,-0.04875));
#945=CARTESIAN_POINT('',(0.100601940921888,0.0666291919841443,-0.04875));
#946=CARTESIAN_POINT('',(0.10279582907592,0.098943367128053,-0.04875));
#947=CARTESIAN_POINT('',(0.103093376882867,0.0668471643866308,-0.04875));
#948=CARTESIAN_POINT('',(0.0970285554692343,0.107473174605906,-0.04425));
#949=CARTESIAN_POINT('',(0.0998611171085331,0.0750968469179242,-0.0435));
#950=CARTESIAN_POINT('',(0.0995952920931528,0.078135240747104,-0.0435));
#951=CARTESIAN_POINT('',(0.0985537809673183,0.0900397673893004,-0.0435));
#952=CARTESIAN_POINT('',(0.098287955951938,0.0930781612184802,-0.0435));
#953=CARTESIAN_POINT('',(0.0970285554692343,0.107473174605906,-0.03975));
#954=CARTESIAN_POINT('',(0.0973600826301322,0.103683801817057,-0.03975));
#955=CARTESIAN_POINT('',(0.101054815445719,0.0614528124901674,-0.03975));
#956=CARTESIAN_POINT('',(0.0970285554692343,0.107473174605906,-0.0331615427318801));
#957=CARTESIAN_POINT('',(0.100601940921888,0.0666291919841443,-0.04875));
#958=CARTESIAN_POINT('',(0.0930447258926165,0.107124634680533,-0.0358330764224873));
#959=CARTESIAN_POINT('',(0.0974025130299992,0.0573148997759453,-0.0358330764224873));
#960=CARTESIAN_POINT('',(0.0946853461716327,0.0570771784789299,-0.0331615427318801));
#961=CARTESIAN_POINT('',(0.0946151798076903,0.0570710397175241,-0.0330925547694213));
#962=CARTESIAN_POINT('',(0.0902573926703076,0.106880774622111,-0.0330925547694213));
#963=CARTESIAN_POINT('',(0.0902573926703076,0.106880774622111,-0.0330925547694213));
#964=CARTESIAN_POINT('',(0.0930447258926165,0.107124634680533,-0.0358330764224873));
#965=CARTESIAN_POINT('',(0.0903275590342499,0.106886913383517,-0.0331615427318801));
#966=CARTESIAN_POINT('',(0.0927259682440886,0.10579450719726,-0.0354085052020437));
#967=CARTESIAN_POINT('',(0.106977123823901,0.0655212604015247,-0.0458759225846378));
#968=CARTESIAN_POINT('',(0.0890608963159986,0.106776094755159,-0.0065));
#969=CARTESIAN_POINT('',(0.0929829047396431,0.0619473333410307,-0.0265));
#970=CARTESIAN_POINT('',(0.0932007940965122,0.0594568465958013,-0.0265));
#971=CARTESIAN_POINT('',(0.0929829047396431,0.0619473333410307,0.0135));
#972=CARTESIAN_POINT('',(0.0932007940965122,0.0594568465958013,0.0135));
#973=CARTESIAN_POINT('',(0.09123978988469,0.0818712273028656,-0.0065));
#974=CARTESIAN_POINT('',(0.0929720102717997,0.0620718576782921,-0.0065));
#975=CARTESIAN_POINT('',(0.0934186834533814,0.056966359850572,-0.0065));
#976=CARTESIAN_POINT('',(0.0934186834533814,0.056966359850572,-0.030234938138799));
#977=CARTESIAN_POINT('',(0.0934186834533814,0.056966359850572,0.0172349381387989));
#978=CARTESIAN_POINT('',(0.0890608963159986,0.106776094755159,0.0172349381387989));
#979=CARTESIAN_POINT('',(0.0890608963159986,0.106776094755159,0.0172349381387989));
#980=CARTESIAN_POINT('',(0.0890608963159986,0.106776094755159,-0.0065));
#981=CARTESIAN_POINT('',(0.0890608963159986,0.106776094755159,-0.030234938138799));
#982=CARTESIAN_POINT('',(0.0890608963159986,0.106776094755159,-0.030234938138799));
#983=CARTESIAN_POINT('',(0.0930447258926165,0.107124634680533,0.0228330764224873));
#984=CARTESIAN_POINT('',(0.0930447258926165,0.107124634680533,0.0228330764224873));
#985=CARTESIAN_POINT('',(0.0902573926703076,0.106880774622111,0.0200925547694212));
#986=CARTESIAN_POINT('',(0.09032755903425,0.106886913383517,0.0201615427318801));
#987=CARTESIAN_POINT('',(0.0902573926703076,0.106880774622111,0.0200925547694212));
#988=CARTESIAN_POINT('',(0.0946151798076903,0.0570710397175241,0.0200925547694212));
#989=CARTESIAN_POINT('',(0.0974025130299992,0.0573148997759453,0.0228330764224873));
#990=CARTESIAN_POINT('',(0.0946853461716327,0.0570771784789299,0.0201615427318801));
#991=CARTESIAN_POINT('',(0.106977123823901,0.0655212604015247,0.0328759225846377));
#992=CARTESIAN_POINT('',(0.101054815445719,0.0614528124901674,0.02675));
#993=CARTESIAN_POINT('',(0.0970285554692343,0.107473174605906,0.02675));
#994=CARTESIAN_POINT('',(0.0973600826301322,0.103683801817057,0.02675));
#995=CARTESIAN_POINT('',(0.0927259682440886,0.10579450719726,0.0224085052020437));
#996=CARTESIAN_POINT('',(0.0970285554692343,0.107473174605906,0.03125));
#997=CARTESIAN_POINT('',(0.0985537809673183,0.0900397673893004,0.0305));
#998=CARTESIAN_POINT('',(0.098287955951938,0.0930781612184802,0.0305));
#999=CARTESIAN_POINT('',(0.0998611171085331,0.0750968469179242,0.0305));
#1000=CARTESIAN_POINT('',(0.0995952920931528,0.078135240747104,0.0305));
#1001=CARTESIAN_POINT('',(0.0970285554692343,0.107473174605906,0.03575));
#1002=CARTESIAN_POINT('',(0.0978129571539632,0.0985074223230802,0.03575));
#1003=CARTESIAN_POINT('',(0.100601940921888,0.0666291919841443,0.03575));
#1004=CARTESIAN_POINT('',(0.0970285554692343,0.107473174605906,0.0201615427318801));
#1005=CARTESIAN_POINT('',(0.100601940921888,0.0666291919841443,0.03575));
#1006=CARTESIAN_POINT('',(0.0995199914302128,0.107691147008392,0.03575));
#1007=CARTESIAN_POINT('',(0.102011427391191,0.107909119410879,0.03575));
#1008=CARTESIAN_POINT('',(0.10279582907592,0.098943367128053,0.03575));
#1009=CARTESIAN_POINT('',(0.105584812843845,0.0670651367891172,0.03575));
#1010=CARTESIAN_POINT('',(0.0978129571539632,0.0985074223230802,0.03575));
#1011=CARTESIAN_POINT('',(0.103093376882867,0.0668471643866308,0.03575));
#1012=CARTESIAN_POINT('',(0.102011427391191,0.107909119410879,0.03125));
#1013=CARTESIAN_POINT('',(0.103536652889275,0.0904757121942732,0.0305));
#1014=CARTESIAN_POINT('',(0.103401561488016,0.0920198139763154,0.0305));
#1015=CARTESIAN_POINT('',(0.10484398903049,0.075532791722897,0.0305));
#1016=CARTESIAN_POINT('',(0.104708897629231,0.0770768935049392,0.0305));
#1017=CARTESIAN_POINT('',(0.102011427391191,0.107909119410879,0.02675));
#1018=CARTESIAN_POINT('',(0.102342954552089,0.10411974662203,0.02675));
#1019=CARTESIAN_POINT('',(0.106037687367676,0.0618887572951403,0.02675));
#1020=CARTESIAN_POINT('',(0.102429900708301,0.103125947509001,0.02847788568297));
#1021=CARTESIAN_POINT('',(0.104861294427118,0.0753349901343162,0.050128520777581));
#1022=CARTESIAN_POINT('',(0.0975285512497785,0.107516918568514,0.0223424110417704));
#1023=CARTESIAN_POINT('',(0.101886338387161,0.057707183663927,0.0223424110417704));
#1024=CARTESIAN_POINT('',(0.0985999586000573,0.0574196626885147,0.0191112240079875));
#1025=CARTESIAN_POINT('',(0.0996682180935897,0.0575131232839027,0.0201615427318801));
#1026=CARTESIAN_POINT('',(0.0942421714626746,0.107229397593102,0.0191112240079875));
#1027=CARTESIAN_POINT('',(0.0942421714626746,0.107229397593102,0.0191112240079875));
#1028=CARTESIAN_POINT('',(0.0975285512497785,0.107516918568514,0.0223424110417704));
#1029=CARTESIAN_POINT('',(0.0953104309562069,0.10732285818849,0.0201615427318801));
#1030=CARTESIAN_POINT('',(0.0973116710260382,0.106411351084739,0.0220364151732683));
#1031=CARTESIAN_POINT('',(0.113228024763499,0.0668283030418224,0.0341875475627895));
#1032=CARTESIAN_POINT('',(0.0930456751083656,0.10712471772615,-0.0065));
#1033=CARTESIAN_POINT('',(0.0969676835320101,0.0622959563120213,-0.0265));
#1034=CARTESIAN_POINT('',(0.096749794175141,0.0647864430572507,-0.0265));
#1035=CARTESIAN_POINT('',(0.0969676835320101,0.0622959563120213,0.0135));
#1036=CARTESIAN_POINT('',(0.096749794175141,0.0647864430572507,0.0135));
#1037=CARTESIAN_POINT('',(0.095224568677057,0.0822198502738562,-0.0065));
#1038=CARTESIAN_POINT('',(0.0934923482899473,0.10201921989843,-0.0065));
#1039=CARTESIAN_POINT('',(0.0974034622457484,0.0573149828215626,-0.0065));
#1040=CARTESIAN_POINT('',(0.0974034622457484,0.0573149828215626,-0.0292536073773653));
#1041=CARTESIAN_POINT('',(0.0974034622457484,0.0573149828215626,0.0162536073773652));
#1042=CARTESIAN_POINT('',(0.0930456751083656,0.10712471772615,-0.0292536073773653));
#1043=CARTESIAN_POINT('',(0.0930456751083656,0.10712471772615,-0.0292536073773653));
#1044=CARTESIAN_POINT('',(0.0930456751083656,0.10712471772615,-0.0065));
#1045=CARTESIAN_POINT('',(0.0930456751083656,0.10712471772615,0.0162536073773652));
#1046=CARTESIAN_POINT('',(0.0974034622457484,0.0573149828215626,0.0162536073773652));
#1047=CARTESIAN_POINT('',(0.0975285512497785,0.107516918568514,-0.0353424110417705));
#1048=CARTESIAN_POINT('',(0.0975285512497785,0.107516918568514,-0.0353424110417705));
#1049=CARTESIAN_POINT('',(0.0953104309562069,0.10732285818849,-0.0331615427318801));
#1050=CARTESIAN_POINT('',(0.0942421714626746,0.107229397593102,-0.0321112240079875));
#1051=CARTESIAN_POINT('',(0.0985999586000573,0.0574196626885147,-0.0321112240079875));
#1052=CARTESIAN_POINT('',(0.0985999586000573,0.0574196626885147,-0.0321112240079875));
#1053=CARTESIAN_POINT('',(0.101886338387161,0.057707183663927,-0.0353424110417705));
#1054=CARTESIAN_POINT('',(0.0996682180935897,0.0575131232839027,-0.0331615427318801));
#1055=CARTESIAN_POINT('',(0.113228024763499,0.0668283030418224,-0.0471875475627896));
#1056=CARTESIAN_POINT('',(0.0973116710260382,0.106411351084739,-0.0350364151732684));
#1057=CARTESIAN_POINT('',(0.095536161853595,0.107342607083019,-0.0065));
#1058=CARTESIAN_POINT('',(0.0930456751083656,0.10712471772615,0.0172349381387989));
#1059=CARTESIAN_POINT('',(0.102011427391191,0.107909119410879,0.0201615427318801));
#1060=CARTESIAN_POINT('',(0.0970304539007326,0.10747334069714,0.0162536073773652));
#1061=CARTESIAN_POINT('',(0.0970304539007326,0.10747334069714,-0.0292536073773653));
#1062=CARTESIAN_POINT('',(0.0970285554692343,0.107473174605906,-0.0331615427318801));
#1063=CARTESIAN_POINT('',(0.0930456751083656,0.10712471772615,-0.030234938138799));
#1064=CARTESIAN_POINT('',(0.0998939489909778,0.0575328721784317,-0.0065));
#1065=CARTESIAN_POINT('',(0.0974034622457484,0.0573149828215626,0.0172349381387989));
#1066=CARTESIAN_POINT('',(0.0974034622457484,0.0573149828215626,-0.030234938138799));
#1067=CARTESIAN_POINT('',(0.0998939489909778,0.0575328721784317,-0.0331615427318801));
#1068=CARTESIAN_POINT('',(0.101388241038115,0.0576636057925532,-0.0292536073773653));
#1069=CARTESIAN_POINT('',(0.101388241038115,0.0576636057925532,0.0162536073773652));
#1070=CARTESIAN_POINT('',(0.0998939489909778,0.0575328721784317,0.0201615427318801));
#1071=CARTESIAN_POINT('',(0.095536161853595,0.107342607083019,0.0201615427318801));
#1072=CARTESIAN_POINT('',(0.103093376882867,0.0668471643866308,0.03575));
#1073=CARTESIAN_POINT('',(0.095536161853595,0.107342607083019,-0.0331615427318801));
#1074=CARTESIAN_POINT('',(0.103093376882867,0.0668471643866308,-0.04875));
#1075=CARTESIAN_POINT('',(0.104192313349279,0.0830044262700706,-0.0065));
#1076=CARTESIAN_POINT('',(0.105935428204232,0.0630805323082357,0.0135));
#1077=CARTESIAN_POINT('',(0.105935428204232,0.0630805323082357,-0.0265));
#1078=CARTESIAN_POINT('',(0.0998611171085331,0.0750968469179242,0.0305));
#1079=CARTESIAN_POINT('',(0.102849701202808,0.0753583141461671,0.0305));
#1080=CARTESIAN_POINT('',(0.10271460980155,0.0769024159282093,0.0305));
#1081=CARTESIAN_POINT('',(0.103115526218189,0.0723199203169873,0.0305));
#1082=CARTESIAN_POINT('',(0.102849701202808,0.0753583141461671,0.0305));
#1083=CARTESIAN_POINT('',(0.102583876187428,0.0783967079753469,0.0305));
#1084=CARTESIAN_POINT('',(0.0998611171085331,0.0750968469179242,0.0305));
#1085=CARTESIAN_POINT('',(0.0985537809673183,0.0900397673893004,0.0305));
#1086=CARTESIAN_POINT('',(0.101542365061593,0.0903012346175433,0.0305));
#1087=CARTESIAN_POINT('',(0.101407273660335,0.0918453363995855,0.0305));
#1088=CARTESIAN_POINT('',(0.101808190076974,0.0872628407883635,0.0305));
#1089=CARTESIAN_POINT('',(0.101542365061593,0.0903012346175433,0.0305));
#1090=CARTESIAN_POINT('',(0.101276540046213,0.0933396284467231,0.0305));
#1091=CARTESIAN_POINT('',(0.0985537809673183,0.0900397673893004,0.0305));
#1092=CARTESIAN_POINT('',(0.0985537809673183,0.0900397673893004,-0.0435));
#1093=CARTESIAN_POINT('',(0.101542365061593,0.0903012346175433,-0.0435));
#1094=CARTESIAN_POINT('',(0.101407273660335,0.0918453363995855,-0.0435));
#1095=CARTESIAN_POINT('',(0.101808190076974,0.0872628407883635,-0.0435));
#1096=CARTESIAN_POINT('',(0.101542365061593,0.0903012346175433,-0.0435));
#1097=CARTESIAN_POINT('',(0.101276540046213,0.0933396284467231,-0.0435));
#1098=CARTESIAN_POINT('',(0.0985537809673183,0.0900397673893004,-0.0435));
#1099=CARTESIAN_POINT('',(0.0998611171085331,0.0750968469179242,-0.0435));
#1100=CARTESIAN_POINT('',(0.102849701202808,0.0753583141461671,-0.0435));
#1101=CARTESIAN_POINT('',(0.10271460980155,0.0769024159282093,-0.0435));
#1102=CARTESIAN_POINT('',(0.103115526218189,0.0723199203169873,-0.0435));
#1103=CARTESIAN_POINT('',(0.102849701202808,0.0753583141461671,-0.0435));
#1104=CARTESIAN_POINT('',(0.102583876187428,0.0783967079753469,-0.0435));
#1105=CARTESIAN_POINT('',(0.0998611171085331,0.0750968469179242,-0.0435));
#1106=CARTESIAN_POINT('',(0.0930456751083656,0.10712471772615,0.0172349381387989));
#1107=CARTESIAN_POINT('',(0.0930456751083656,0.10712471772615,-0.030234938138799));
#1108=CARTESIAN_POINT('',(0.0970304539007326,0.10747334069714,-0.0292536073773653));
#1109=CARTESIAN_POINT('',(0.0970304539007326,0.10747334069714,0.0162536073773652));
#1110=MECHANICAL_DESIGN_GEOMETRIC_PRESENTATION_REPRESENTATION('',(#661),
#1111);
#1111=(
GEOMETRIC_REPRESENTATION_CONTEXT(3)
GLOBAL_UNCERTAINTY_ASSIGNED_CONTEXT((#1112))
GLOBAL_UNIT_ASSIGNED_CONTEXT((#1115,#1114,#1113))
REPRESENTATION_CONTEXT('Speaker Bracket Large',
'TOP_LEVEL_ASSEMBLY_PART')
);
#1112=UNCERTAINTY_MEASURE_WITH_UNIT(LENGTH_MEASURE(1.E-8),#1115,
'DISTANCE_ACCURACY_VALUE','Maximum Tolerance applied to model');
#1113=(
NAMED_UNIT(*)
SI_UNIT($,.STERADIAN.)
SOLID_ANGLE_UNIT()
);
#1114=(
NAMED_UNIT(*)
PLANE_ANGLE_UNIT()
SI_UNIT($,.RADIAN.)
);
#1115=(
LENGTH_UNIT()
NAMED_UNIT(*)
SI_UNIT($,.METRE.)
);
#1116=PRODUCT_DEFINITION_SHAPE('','',#1117);
#1117=PRODUCT_DEFINITION('','',#1119,#1118);
#1118=PRODUCT_DEFINITION_CONTEXT('',#1125,'design');
#1119=PRODUCT_DEFINITION_FORMATION_WITH_SPECIFIED_SOURCE('','',#1121,
 .NOT_KNOWN.);
#1120=PRODUCT_RELATED_PRODUCT_CATEGORY('','',(#1121));
#1121=PRODUCT('Speaker Bracket Large','Speaker Bracket Large',
'Speaker Bracket Large',(#1123));
#1122=PRODUCT_CATEGORY('','');
#1123=PRODUCT_CONTEXT('',#1125,'mechanical');
#1124=APPLICATION_PROTOCOL_DEFINITION('international standard',
'ap242_managed_model_based_3d_engineering',2020,#1125);
#1125=APPLICATION_CONTEXT('managed model based 3d engineering');
ENDSEC;
END-ISO-10303-21;
