ISO-10303-21;
HEADER;
/* Generated by software containing ST-Developer
 * from STEP Tools, Inc. (www.steptools.com) 
 */
/* OPTION: using custom renumber hook */

FILE_DESCRIPTION(
/* description */ ('STEP AP242 Edition 2',
'CAx-IF Rec.Pracs.---Representation and Presentation of Product Manufa
cturing Information (PMI)---4.0---2014-10-13',
'CAx-IF Rec.Pracs.---3D Tessellated Geometry---0.4---2014-09-14','2;1',
'CAx-IF Rec.Pracs.---User Defined Attributes---1.5---2016-08-15'),
/* implementation_level */ '2;1');

FILE_NAME(
/* name */ '9.7in IPS - LCD ribbon pcb bracket',
/* time_stamp */ '2026-07-13T15:43:40Z',
/* author */ (''),
/* organization */ (''),
/* preprocessor_version */ 'ST-DEVELOPER v20',
/* originating_system */ 'ONSHAPE BY PTC INC, 1.217',
/* authorisation */ '  ');

FILE_SCHEMA (('AP242_MANAGED_MODEL_BASED_3D_ENGINEERING_MIM_LF { 1 0 10303 442 3 1 4 }'));
ENDSEC;

DATA;
#10=SHAPE_REPRESENTATION_RELATIONSHIP('','',#395,#11);
#11=ADVANCED_BREP_SHAPE_REPRESENTATION('',(#393),#653);
#12=CIRCLE('',#399,0.0025);
#13=CIRCLE('',#400,0.0025);
#14=CIRCLE('',#404,0.003);
#15=CIRCLE('',#405,0.003);
#16=CIRCLE('',#408,0.003);
#17=CIRCLE('',#409,0.003);
#18=CIRCLE('',#413,0.0025);
#19=CIRCLE('',#414,0.0025);
#20=CIRCLE('',#418,0.003);
#21=CIRCLE('',#419,0.003);
#22=CIRCLE('',#422,0.003);
#23=CIRCLE('',#423,0.003);
#24=CIRCLE('',#426,0.00155);
#25=CIRCLE('',#427,0.00155);
#26=CIRCLE('',#429,0.00155);
#27=CIRCLE('',#430,0.00155);
#28=CYLINDRICAL_SURFACE('',#398,0.0025);
#29=CYLINDRICAL_SURFACE('',#403,0.003);
#30=CYLINDRICAL_SURFACE('',#407,0.003);
#31=CYLINDRICAL_SURFACE('',#412,0.0025);
#32=CYLINDRICAL_SURFACE('',#417,0.003);
#33=CYLINDRICAL_SURFACE('',#421,0.003);
#34=CYLINDRICAL_SURFACE('',#425,0.00155);
#35=CYLINDRICAL_SURFACE('',#428,0.00155);
#36=ORIENTED_EDGE('',*,*,#140,.F.);
#37=ORIENTED_EDGE('',*,*,#141,.F.);
#38=ORIENTED_EDGE('',*,*,#142,.T.);
#39=ORIENTED_EDGE('',*,*,#143,.T.);
#40=ORIENTED_EDGE('',*,*,#144,.T.);
#41=ORIENTED_EDGE('',*,*,#145,.F.);
#42=ORIENTED_EDGE('',*,*,#146,.F.);
#43=ORIENTED_EDGE('',*,*,#141,.T.);
#44=ORIENTED_EDGE('',*,*,#147,.F.);
#45=ORIENTED_EDGE('',*,*,#148,.F.);
#46=ORIENTED_EDGE('',*,*,#149,.T.);
#47=ORIENTED_EDGE('',*,*,#145,.T.);
#48=ORIENTED_EDGE('',*,*,#150,.T.);
#49=ORIENTED_EDGE('',*,*,#151,.F.);
#50=ORIENTED_EDGE('',*,*,#152,.F.);
#51=ORIENTED_EDGE('',*,*,#148,.T.);
#52=ORIENTED_EDGE('',*,*,#153,.T.);
#53=ORIENTED_EDGE('',*,*,#154,.F.);
#54=ORIENTED_EDGE('',*,*,#155,.F.);
#55=ORIENTED_EDGE('',*,*,#151,.T.);
#56=ORIENTED_EDGE('',*,*,#156,.T.);
#57=ORIENTED_EDGE('',*,*,#157,.F.);
#58=ORIENTED_EDGE('',*,*,#158,.F.);
#59=ORIENTED_EDGE('',*,*,#154,.T.);
#60=ORIENTED_EDGE('',*,*,#159,.T.);
#61=ORIENTED_EDGE('',*,*,#160,.F.);
#62=ORIENTED_EDGE('',*,*,#161,.F.);
#63=ORIENTED_EDGE('',*,*,#157,.T.);
#64=ORIENTED_EDGE('',*,*,#162,.F.);
#65=ORIENTED_EDGE('',*,*,#163,.F.);
#66=ORIENTED_EDGE('',*,*,#164,.T.);
#67=ORIENTED_EDGE('',*,*,#160,.T.);
#68=ORIENTED_EDGE('',*,*,#165,.F.);
#69=ORIENTED_EDGE('',*,*,#166,.F.);
#70=ORIENTED_EDGE('',*,*,#167,.T.);
#71=ORIENTED_EDGE('',*,*,#163,.T.);
#72=ORIENTED_EDGE('',*,*,#168,.T.);
#73=ORIENTED_EDGE('',*,*,#169,.F.);
#74=ORIENTED_EDGE('',*,*,#170,.F.);
#75=ORIENTED_EDGE('',*,*,#166,.T.);
#76=ORIENTED_EDGE('',*,*,#171,.F.);
#77=ORIENTED_EDGE('',*,*,#172,.F.);
#78=ORIENTED_EDGE('',*,*,#173,.T.);
#79=ORIENTED_EDGE('',*,*,#169,.T.);
#80=ORIENTED_EDGE('',*,*,#174,.F.);
#81=ORIENTED_EDGE('',*,*,#175,.F.);
#82=ORIENTED_EDGE('',*,*,#176,.T.);
#83=ORIENTED_EDGE('',*,*,#172,.T.);
#84=ORIENTED_EDGE('',*,*,#177,.T.);
#85=ORIENTED_EDGE('',*,*,#178,.F.);
#86=ORIENTED_EDGE('',*,*,#179,.F.);
#87=ORIENTED_EDGE('',*,*,#175,.T.);
#88=ORIENTED_EDGE('',*,*,#180,.F.);
#89=ORIENTED_EDGE('',*,*,#181,.F.);
#90=ORIENTED_EDGE('',*,*,#182,.T.);
#91=ORIENTED_EDGE('',*,*,#178,.T.);
#92=ORIENTED_EDGE('',*,*,#183,.T.);
#93=ORIENTED_EDGE('',*,*,#184,.F.);
#94=ORIENTED_EDGE('',*,*,#185,.F.);
#95=ORIENTED_EDGE('',*,*,#181,.T.);
#96=ORIENTED_EDGE('',*,*,#186,.T.);
#97=ORIENTED_EDGE('',*,*,#143,.F.);
#98=ORIENTED_EDGE('',*,*,#187,.F.);
#99=ORIENTED_EDGE('',*,*,#184,.T.);
#100=ORIENTED_EDGE('',*,*,#188,.T.);
#101=ORIENTED_EDGE('',*,*,#189,.F.);
#102=ORIENTED_EDGE('',*,*,#190,.T.);
#103=ORIENTED_EDGE('',*,*,#191,.F.);
#104=ORIENTED_EDGE('',*,*,#188,.F.);
#105=ORIENTED_EDGE('',*,*,#142,.F.);
#106=ORIENTED_EDGE('',*,*,#146,.T.);
#107=ORIENTED_EDGE('',*,*,#149,.F.);
#108=ORIENTED_EDGE('',*,*,#152,.T.);
#109=ORIENTED_EDGE('',*,*,#155,.T.);
#110=ORIENTED_EDGE('',*,*,#158,.T.);
#111=ORIENTED_EDGE('',*,*,#161,.T.);
#112=ORIENTED_EDGE('',*,*,#164,.F.);
#113=ORIENTED_EDGE('',*,*,#167,.F.);
#114=ORIENTED_EDGE('',*,*,#170,.T.);
#115=ORIENTED_EDGE('',*,*,#173,.F.);
#116=ORIENTED_EDGE('',*,*,#176,.F.);
#117=ORIENTED_EDGE('',*,*,#179,.T.);
#118=ORIENTED_EDGE('',*,*,#182,.F.);
#119=ORIENTED_EDGE('',*,*,#185,.T.);
#120=ORIENTED_EDGE('',*,*,#187,.T.);
#121=ORIENTED_EDGE('',*,*,#190,.F.);
#122=ORIENTED_EDGE('',*,*,#189,.T.);
#123=ORIENTED_EDGE('',*,*,#140,.T.);
#124=ORIENTED_EDGE('',*,*,#186,.F.);
#125=ORIENTED_EDGE('',*,*,#183,.F.);
#126=ORIENTED_EDGE('',*,*,#180,.T.);
#127=ORIENTED_EDGE('',*,*,#177,.F.);
#128=ORIENTED_EDGE('',*,*,#174,.T.);
#129=ORIENTED_EDGE('',*,*,#171,.T.);
#130=ORIENTED_EDGE('',*,*,#168,.F.);
#131=ORIENTED_EDGE('',*,*,#165,.T.);
#132=ORIENTED_EDGE('',*,*,#162,.T.);
#133=ORIENTED_EDGE('',*,*,#159,.F.);
#134=ORIENTED_EDGE('',*,*,#156,.F.);
#135=ORIENTED_EDGE('',*,*,#153,.F.);
#136=ORIENTED_EDGE('',*,*,#150,.F.);
#137=ORIENTED_EDGE('',*,*,#147,.T.);
#138=ORIENTED_EDGE('',*,*,#144,.F.);
#139=ORIENTED_EDGE('',*,*,#191,.T.);
#140=EDGE_CURVE('',#192,#193,#228,.T.);
#141=EDGE_CURVE('',#194,#192,#229,.T.);
#142=EDGE_CURVE('',#194,#195,#230,.T.);
#143=EDGE_CURVE('',#195,#193,#231,.T.);
#144=EDGE_CURVE('',#192,#196,#12,.T.);
#145=EDGE_CURVE('',#197,#196,#232,.T.);
#146=EDGE_CURVE('',#194,#197,#13,.T.);
#147=EDGE_CURVE('',#198,#196,#233,.T.);
#148=EDGE_CURVE('',#199,#198,#234,.T.);
#149=EDGE_CURVE('',#199,#197,#235,.T.);
#150=EDGE_CURVE('',#198,#200,#236,.T.);
#151=EDGE_CURVE('',#201,#200,#237,.T.);
#152=EDGE_CURVE('',#199,#201,#238,.T.);
#153=EDGE_CURVE('',#200,#202,#14,.T.);
#154=EDGE_CURVE('',#203,#202,#239,.T.);
#155=EDGE_CURVE('',#201,#203,#15,.T.);
#156=EDGE_CURVE('',#202,#204,#240,.T.);
#157=EDGE_CURVE('',#205,#204,#241,.T.);
#158=EDGE_CURVE('',#203,#205,#242,.T.);
#159=EDGE_CURVE('',#204,#206,#16,.T.);
#160=EDGE_CURVE('',#207,#206,#243,.T.);
#161=EDGE_CURVE('',#205,#207,#17,.T.);
#162=EDGE_CURVE('',#208,#206,#244,.T.);
#163=EDGE_CURVE('',#209,#208,#245,.T.);
#164=EDGE_CURVE('',#209,#207,#246,.T.);
#165=EDGE_CURVE('',#210,#208,#247,.T.);
#166=EDGE_CURVE('',#211,#210,#248,.T.);
#167=EDGE_CURVE('',#211,#209,#249,.T.);
#168=EDGE_CURVE('',#210,#212,#18,.T.);
#169=EDGE_CURVE('',#213,#212,#250,.T.);
#170=EDGE_CURVE('',#211,#213,#19,.T.);
#171=EDGE_CURVE('',#214,#212,#251,.T.);
#172=EDGE_CURVE('',#215,#214,#252,.T.);
#173=EDGE_CURVE('',#215,#213,#253,.T.);
#174=EDGE_CURVE('',#216,#214,#254,.T.);
#175=EDGE_CURVE('',#217,#216,#255,.T.);
#176=EDGE_CURVE('',#217,#215,#256,.T.);
#177=EDGE_CURVE('',#216,#218,#20,.T.);
#178=EDGE_CURVE('',#219,#218,#257,.T.);
#179=EDGE_CURVE('',#217,#219,#21,.T.);
#180=EDGE_CURVE('',#220,#218,#258,.T.);
#181=EDGE_CURVE('',#221,#220,#259,.T.);
#182=EDGE_CURVE('',#221,#219,#260,.T.);
#183=EDGE_CURVE('',#220,#222,#22,.T.);
#184=EDGE_CURVE('',#223,#222,#261,.T.);
#185=EDGE_CURVE('',#221,#223,#23,.T.);
#186=EDGE_CURVE('',#222,#193,#262,.T.);
#187=EDGE_CURVE('',#223,#195,#263,.T.);
#188=EDGE_CURVE('',#224,#224,#24,.T.);
#189=EDGE_CURVE('',#225,#225,#25,.T.);
#190=EDGE_CURVE('',#226,#226,#26,.T.);
#191=EDGE_CURVE('',#227,#227,#27,.T.);
#192=VERTEX_POINT('',#546);
#193=VERTEX_POINT('',#547);
#194=VERTEX_POINT('',#549);
#195=VERTEX_POINT('',#551);
#196=VERTEX_POINT('',#555);
#197=VERTEX_POINT('',#557);
#198=VERTEX_POINT('',#561);
#199=VERTEX_POINT('',#563);
#200=VERTEX_POINT('',#567);
#201=VERTEX_POINT('',#569);
#202=VERTEX_POINT('',#573);
#203=VERTEX_POINT('',#575);
#204=VERTEX_POINT('',#579);
#205=VERTEX_POINT('',#581);
#206=VERTEX_POINT('',#585);
#207=VERTEX_POINT('',#587);
#208=VERTEX_POINT('',#591);
#209=VERTEX_POINT('',#593);
#210=VERTEX_POINT('',#597);
#211=VERTEX_POINT('',#599);
#212=VERTEX_POINT('',#603);
#213=VERTEX_POINT('',#605);
#214=VERTEX_POINT('',#609);
#215=VERTEX_POINT('',#611);
#216=VERTEX_POINT('',#615);
#217=VERTEX_POINT('',#617);
#218=VERTEX_POINT('',#621);
#219=VERTEX_POINT('',#623);
#220=VERTEX_POINT('',#627);
#221=VERTEX_POINT('',#629);
#222=VERTEX_POINT('',#633);
#223=VERTEX_POINT('',#635);
#224=VERTEX_POINT('',#642);
#225=VERTEX_POINT('',#644);
#226=VERTEX_POINT('',#647);
#227=VERTEX_POINT('',#649);
#228=LINE('',#545,#264);
#229=LINE('',#548,#265);
#230=LINE('',#550,#266);
#231=LINE('',#552,#267);
#232=LINE('',#556,#268);
#233=LINE('',#560,#269);
#234=LINE('',#562,#270);
#235=LINE('',#564,#271);
#236=LINE('',#566,#272);
#237=LINE('',#568,#273);
#238=LINE('',#570,#274);
#239=LINE('',#574,#275);
#240=LINE('',#578,#276);
#241=LINE('',#580,#277);
#242=LINE('',#582,#278);
#243=LINE('',#586,#279);
#244=LINE('',#590,#280);
#245=LINE('',#592,#281);
#246=LINE('',#594,#282);
#247=LINE('',#596,#283);
#248=LINE('',#598,#284);
#249=LINE('',#600,#285);
#250=LINE('',#604,#286);
#251=LINE('',#608,#287);
#252=LINE('',#610,#288);
#253=LINE('',#612,#289);
#254=LINE('',#614,#290);
#255=LINE('',#616,#291);
#256=LINE('',#618,#292);
#257=LINE('',#622,#293);
#258=LINE('',#626,#294);
#259=LINE('',#628,#295);
#260=LINE('',#630,#296);
#261=LINE('',#634,#297);
#262=LINE('',#638,#298);
#263=LINE('',#639,#299);
#264=VECTOR('',#437,1.);
#265=VECTOR('',#438,1.);
#266=VECTOR('',#439,1.);
#267=VECTOR('',#440,1.);
#268=VECTOR('',#445,1.);
#269=VECTOR('',#450,1.);
#270=VECTOR('',#451,1.);
#271=VECTOR('',#452,1.);
#272=VECTOR('',#455,1.);
#273=VECTOR('',#456,1.);
#274=VECTOR('',#457,1.);
#275=VECTOR('',#462,1.);
#276=VECTOR('',#467,1.);
#277=VECTOR('',#468,1.);
#278=VECTOR('',#469,1.);
#279=VECTOR('',#474,1.);
#280=VECTOR('',#479,1.);
#281=VECTOR('',#480,1.);
#282=VECTOR('',#481,1.);
#283=VECTOR('',#484,1.);
#284=VECTOR('',#485,1.);
#285=VECTOR('',#486,1.);
#286=VECTOR('',#491,1.);
#287=VECTOR('',#496,1.);
#288=VECTOR('',#497,1.);
#289=VECTOR('',#498,1.);
#290=VECTOR('',#501,1.);
#291=VECTOR('',#502,1.);
#292=VECTOR('',#503,1.);
#293=VECTOR('',#508,1.);
#294=VECTOR('',#513,1.);
#295=VECTOR('',#514,1.);
#296=VECTOR('',#515,1.);
#297=VECTOR('',#520,1.);
#298=VECTOR('',#525,1.);
#299=VECTOR('',#526,1.);
#300=EDGE_LOOP('',(#36,#37,#38,#39));
#301=EDGE_LOOP('',(#40,#41,#42,#43));
#302=EDGE_LOOP('',(#44,#45,#46,#47));
#303=EDGE_LOOP('',(#48,#49,#50,#51));
#304=EDGE_LOOP('',(#52,#53,#54,#55));
#305=EDGE_LOOP('',(#56,#57,#58,#59));
#306=EDGE_LOOP('',(#60,#61,#62,#63));
#307=EDGE_LOOP('',(#64,#65,#66,#67));
#308=EDGE_LOOP('',(#68,#69,#70,#71));
#309=EDGE_LOOP('',(#72,#73,#74,#75));
#310=EDGE_LOOP('',(#76,#77,#78,#79));
#311=EDGE_LOOP('',(#80,#81,#82,#83));
#312=EDGE_LOOP('',(#84,#85,#86,#87));
#313=EDGE_LOOP('',(#88,#89,#90,#91));
#314=EDGE_LOOP('',(#92,#93,#94,#95));
#315=EDGE_LOOP('',(#96,#97,#98,#99));
#316=EDGE_LOOP('',(#100));
#317=EDGE_LOOP('',(#101));
#318=EDGE_LOOP('',(#102));
#319=EDGE_LOOP('',(#103));
#320=EDGE_LOOP('',(#104));
#321=EDGE_LOOP('',(#105,#106,#107,#108,#109,#110,#111,#112,#113,#114,#115,
#116,#117,#118,#119,#120));
#322=EDGE_LOOP('',(#121));
#323=EDGE_LOOP('',(#122));
#324=EDGE_LOOP('',(#123,#124,#125,#126,#127,#128,#129,#130,#131,#132,#133,
#134,#135,#136,#137,#138));
#325=EDGE_LOOP('',(#139));
#326=FACE_BOUND('',#300,.T.);
#327=FACE_BOUND('',#301,.T.);
#328=FACE_BOUND('',#302,.T.);
#329=FACE_BOUND('',#303,.T.);
#330=FACE_BOUND('',#304,.T.);
#331=FACE_BOUND('',#305,.T.);
#332=FACE_BOUND('',#306,.T.);
#333=FACE_BOUND('',#307,.T.);
#334=FACE_BOUND('',#308,.T.);
#335=FACE_BOUND('',#309,.T.);
#336=FACE_BOUND('',#310,.T.);
#337=FACE_BOUND('',#311,.T.);
#338=FACE_BOUND('',#312,.T.);
#339=FACE_BOUND('',#313,.T.);
#340=FACE_BOUND('',#314,.T.);
#341=FACE_BOUND('',#315,.T.);
#342=FACE_BOUND('',#316,.T.);
#343=FACE_BOUND('',#317,.T.);
#344=FACE_BOUND('',#318,.T.);
#345=FACE_BOUND('',#319,.T.);
#346=FACE_BOUND('',#320,.T.);
#347=FACE_BOUND('',#321,.T.);
#348=FACE_BOUND('',#322,.T.);
#349=FACE_BOUND('',#323,.T.);
#350=FACE_BOUND('',#324,.T.);
#351=FACE_BOUND('',#325,.T.);
#352=PLANE('',#397);
#353=PLANE('',#401);
#354=PLANE('',#402);
#355=PLANE('',#406);
#356=PLANE('',#410);
#357=PLANE('',#411);
#358=PLANE('',#415);
#359=PLANE('',#416);
#360=PLANE('',#420);
#361=PLANE('',#424);
#362=PLANE('',#431);
#363=PLANE('',#432);
#364=ADVANCED_FACE('',(#326),#352,.T.);
#365=ADVANCED_FACE('',(#327),#28,.T.);
#366=ADVANCED_FACE('',(#328),#353,.T.);
#367=ADVANCED_FACE('',(#329),#354,.F.);
#368=ADVANCED_FACE('',(#330),#29,.T.);
#369=ADVANCED_FACE('',(#331),#355,.F.);
#370=ADVANCED_FACE('',(#332),#30,.T.);
#371=ADVANCED_FACE('',(#333),#356,.T.);
#372=ADVANCED_FACE('',(#334),#357,.T.);
#373=ADVANCED_FACE('',(#335),#31,.T.);
#374=ADVANCED_FACE('',(#336),#358,.T.);
#375=ADVANCED_FACE('',(#337),#359,.T.);
#376=ADVANCED_FACE('',(#338),#32,.T.);
#377=ADVANCED_FACE('',(#339),#360,.T.);
#378=ADVANCED_FACE('',(#340),#33,.T.);
#379=ADVANCED_FACE('',(#341),#361,.F.);
#380=ADVANCED_FACE('',(#342,#343),#34,.F.);
#381=ADVANCED_FACE('',(#344,#345),#35,.F.);
#382=ADVANCED_FACE('',(#346,#347,#348),#362,.T.);
#383=ADVANCED_FACE('',(#349,#350,#351),#363,.F.);
#384=CLOSED_SHELL('',(#364,#365,#366,#367,#368,#369,#370,#371,#372,#373,
#374,#375,#376,#377,#378,#379,#380,#381,#382,#383));
#385=STYLED_ITEM('',(#386),#393);
#386=PRESENTATION_STYLE_ASSIGNMENT((#387));
#387=SURFACE_STYLE_USAGE(.BOTH.,#388);
#388=SURFACE_SIDE_STYLE('',(#389));
#389=SURFACE_STYLE_FILL_AREA(#390);
#390=FILL_AREA_STYLE('',(#391));
#391=FILL_AREA_STYLE_COLOUR('',#392);
#392=COLOUR_RGB('',0.980392156862745,0.713725490196078,0.00392156862745098);
#393=MANIFOLD_SOLID_BREP('LCD ribbon pcb bracket',#384);
#394=SHAPE_DEFINITION_REPRESENTATION(#658,#395);
#395=SHAPE_REPRESENTATION('LCD ribbon pcb bracket',(#396),#653);
#396=AXIS2_PLACEMENT_3D('',#543,#433,#434);
#397=AXIS2_PLACEMENT_3D('',#544,#435,#436);
#398=AXIS2_PLACEMENT_3D('',#553,#441,#442);
#399=AXIS2_PLACEMENT_3D('',#554,#443,#444);
#400=AXIS2_PLACEMENT_3D('',#558,#446,#447);
#401=AXIS2_PLACEMENT_3D('',#559,#448,#449);
#402=AXIS2_PLACEMENT_3D('',#565,#453,#454);
#403=AXIS2_PLACEMENT_3D('',#571,#458,#459);
#404=AXIS2_PLACEMENT_3D('',#572,#460,#461);
#405=AXIS2_PLACEMENT_3D('',#576,#463,#464);
#406=AXIS2_PLACEMENT_3D('',#577,#465,#466);
#407=AXIS2_PLACEMENT_3D('',#583,#470,#471);
#408=AXIS2_PLACEMENT_3D('',#584,#472,#473);
#409=AXIS2_PLACEMENT_3D('',#588,#475,#476);
#410=AXIS2_PLACEMENT_3D('',#589,#477,#478);
#411=AXIS2_PLACEMENT_3D('',#595,#482,#483);
#412=AXIS2_PLACEMENT_3D('',#601,#487,#488);
#413=AXIS2_PLACEMENT_3D('',#602,#489,#490);
#414=AXIS2_PLACEMENT_3D('',#606,#492,#493);
#415=AXIS2_PLACEMENT_3D('',#607,#494,#495);
#416=AXIS2_PLACEMENT_3D('',#613,#499,#500);
#417=AXIS2_PLACEMENT_3D('',#619,#504,#505);
#418=AXIS2_PLACEMENT_3D('',#620,#506,#507);
#419=AXIS2_PLACEMENT_3D('',#624,#509,#510);
#420=AXIS2_PLACEMENT_3D('',#625,#511,#512);
#421=AXIS2_PLACEMENT_3D('',#631,#516,#517);
#422=AXIS2_PLACEMENT_3D('',#632,#518,#519);
#423=AXIS2_PLACEMENT_3D('',#636,#521,#522);
#424=AXIS2_PLACEMENT_3D('',#637,#523,#524);
#425=AXIS2_PLACEMENT_3D('',#640,#527,#528);
#426=AXIS2_PLACEMENT_3D('',#641,#529,#530);
#427=AXIS2_PLACEMENT_3D('',#643,#531,#532);
#428=AXIS2_PLACEMENT_3D('',#645,#533,#534);
#429=AXIS2_PLACEMENT_3D('',#646,#535,#536);
#430=AXIS2_PLACEMENT_3D('',#648,#537,#538);
#431=AXIS2_PLACEMENT_3D('',#650,#539,#540);
#432=AXIS2_PLACEMENT_3D('',#651,#541,#542);
#433=DIRECTION('',(0.,0.,1.));
#434=DIRECTION('',(1.,0.,0.));
#435=DIRECTION('',(-6.26930320438554E-35,0.0523359562429438,0.998629534754574));
#436=DIRECTION('',(0.,-0.998629534754574,0.0523359562429438));
#437=DIRECTION('',(-1.,-1.06143207300397E-17,5.56272978059327E-19));
#438=DIRECTION('',(1.06288872506142E-17,-0.998629534754574,0.0523359562429438));
#439=DIRECTION('',(-1.,-1.06143207300397E-17,5.56272978059327E-19));
#440=DIRECTION('',(1.06288872506142E-17,-0.998629534754574,0.0523359562429438));
#441=DIRECTION('',(1.06288872506142E-17,-0.998629534754574,0.0523359562429438));
#442=DIRECTION('',(0.,-0.0523359562429438,-0.998629534754574));
#443=DIRECTION('',(-1.06288872506142E-17,0.998629534754574,-0.0523359562429438));
#444=DIRECTION('',(0.,0.0523359562429438,0.998629534754574));
#445=DIRECTION('',(1.06288872506142E-17,-0.998629534754574,0.0523359562429438));
#446=DIRECTION('',(-1.06288872506142E-17,0.998629534754574,-0.0523359562429438));
#447=DIRECTION('',(0.,0.0523359562429438,0.998629534754574));
#448=DIRECTION('',(6.26930320438554E-35,-0.0523359562429438,-0.998629534754574));
#449=DIRECTION('',(0.,0.998629534754574,-0.0523359562429438));
#450=DIRECTION('',(1.,1.06143207300397E-17,-5.56272978059327E-19));
#451=DIRECTION('',(1.06288872506142E-17,-0.998629534754574,0.0523359562429438));
#452=DIRECTION('',(1.,1.06143207300397E-17,-5.56272978059327E-19));
#453=DIRECTION('',(-1.,-1.06143207300397E-17,5.56272978059225E-19));
#454=DIRECTION('',(1.06143207300397E-17,-1.,0.));
#455=DIRECTION('',(1.02811293002354E-31,-0.0523359562429438,-0.998629534754574));
#456=DIRECTION('',(1.06288872506142E-17,-0.998629534754574,0.0523359562429438));
#457=DIRECTION('',(1.02811293002354E-31,-0.0523359562429438,-0.998629534754574));
#458=DIRECTION('',(1.06288872506142E-17,-0.998629534754574,0.0523359562429438));
#459=DIRECTION('',(0.,-0.0523359562429438,-0.998629534754574));
#460=DIRECTION('',(-1.06288872506142E-17,0.998629534754574,-0.0523359562429438));
#461=DIRECTION('',(0.,0.0523359562429438,0.998629534754574));
#462=DIRECTION('',(1.06288872506142E-17,-0.998629534754574,0.0523359562429438));
#463=DIRECTION('',(-1.06288872506142E-17,0.998629534754574,-0.0523359562429438));
#464=DIRECTION('',(0.,0.0523359562429438,0.998629534754574));
#465=DIRECTION('',(-6.26930320438554E-35,0.0523359562429438,0.998629534754574));
#466=DIRECTION('',(0.,-0.998629534754574,0.0523359562429438));
#467=DIRECTION('',(-1.,-1.06143207300397E-17,5.56272978059327E-19));
#468=DIRECTION('',(1.06288872506142E-17,-0.998629534754574,0.0523359562429438));
#469=DIRECTION('',(-1.,-1.06143207300397E-17,5.56272978059327E-19));
#470=DIRECTION('',(1.06288872506142E-17,-0.998629534754574,0.0523359562429438));
#471=DIRECTION('',(0.,-0.0523359562429438,-0.998629534754574));
#472=DIRECTION('',(-1.06288872506142E-17,0.998629534754574,-0.0523359562429438));
#473=DIRECTION('',(0.,0.0523359562429438,0.998629534754574));
#474=DIRECTION('',(1.06288872506142E-17,-0.998629534754574,0.0523359562429438));
#475=DIRECTION('',(-1.06288872506142E-17,0.998629534754574,-0.0523359562429438));
#476=DIRECTION('',(0.,0.0523359562429438,0.998629534754574));
#477=DIRECTION('',(-1.,-1.06143207300397E-17,5.56272978059225E-19));
#478=DIRECTION('',(1.06143207300397E-17,-1.,0.));
#479=DIRECTION('',(1.02811293002354E-31,-0.0523359562429438,-0.998629534754574));
#480=DIRECTION('',(1.06288872506142E-17,-0.998629534754574,0.0523359562429438));
#481=DIRECTION('',(1.02811293002354E-31,-0.0523359562429438,-0.998629534754574));
#482=DIRECTION('',(6.26930320438554E-35,-0.0523359562429438,-0.998629534754574));
#483=DIRECTION('',(0.,0.998629534754574,-0.0523359562429438));
#484=DIRECTION('',(1.,1.06143207300397E-17,-5.56272978059327E-19));
#485=DIRECTION('',(1.06288872506142E-17,-0.998629534754574,0.0523359562429438));
#486=DIRECTION('',(1.,1.06143207300397E-17,-5.56272978059327E-19));
#487=DIRECTION('',(1.06288872506142E-17,-0.998629534754574,0.0523359562429438));
#488=DIRECTION('',(0.,-0.0523359562429438,-0.998629534754574));
#489=DIRECTION('',(-1.06288872506142E-17,0.998629534754574,-0.0523359562429438));
#490=DIRECTION('',(0.,0.0523359562429438,0.998629534754574));
#491=DIRECTION('',(1.06288872506142E-17,-0.998629534754574,0.0523359562429438));
#492=DIRECTION('',(-1.06288872506142E-17,0.998629534754574,-0.0523359562429438));
#493=DIRECTION('',(0.,0.0523359562429438,0.998629534754574));
#494=DIRECTION('',(-6.26930320438554E-35,0.0523359562429438,0.998629534754574));
#495=DIRECTION('',(0.,-0.998629534754574,0.0523359562429438));
#496=DIRECTION('',(-1.,-1.06143207300397E-17,5.56272978059327E-19));
#497=DIRECTION('',(1.06288872506142E-17,-0.998629534754574,0.0523359562429438));
#498=DIRECTION('',(-1.,-1.06143207300397E-17,5.56272978059327E-19));
#499=DIRECTION('',(-1.,-1.06143207300397E-17,5.5627297805941E-19));
#500=DIRECTION('',(1.06143207300397E-17,-1.,0.));
#501=DIRECTION('',(-8.23817892995907E-32,-0.0523359562429438,-0.998629534754574));
#502=DIRECTION('',(1.06288872506142E-17,-0.998629534754574,0.0523359562429438));
#503=DIRECTION('',(-8.23817892995907E-32,-0.0523359562429438,-0.998629534754574));
#504=DIRECTION('',(1.06288872506142E-17,-0.998629534754574,0.0523359562429438));
#505=DIRECTION('',(0.,-0.0523359562429438,-0.998629534754574));
#506=DIRECTION('',(-1.06288872506142E-17,0.998629534754574,-0.0523359562429438));
#507=DIRECTION('',(0.,0.0523359562429438,0.998629534754574));
#508=DIRECTION('',(1.06288872506142E-17,-0.998629534754574,0.0523359562429438));
#509=DIRECTION('',(-1.06288872506142E-17,0.998629534754574,-0.0523359562429438));
#510=DIRECTION('',(0.,0.0523359562429438,0.998629534754574));
#511=DIRECTION('',(-6.26930320438554E-35,0.0523359562429438,0.998629534754574));
#512=DIRECTION('',(0.,-0.998629534754574,0.0523359562429438));
#513=DIRECTION('',(-1.,-1.06143207300397E-17,5.56272978059327E-19));
#514=DIRECTION('',(1.06288872506142E-17,-0.998629534754574,0.0523359562429438));
#515=DIRECTION('',(-1.,-1.06143207300397E-17,5.56272978059327E-19));
#516=DIRECTION('',(1.06288872506142E-17,-0.998629534754574,0.0523359562429438));
#517=DIRECTION('',(0.,-0.0523359562429438,-0.998629534754574));
#518=DIRECTION('',(-1.06288872506142E-17,0.998629534754574,-0.0523359562429438));
#519=DIRECTION('',(0.,0.0523359562429438,0.998629534754574));
#520=DIRECTION('',(1.06288872506142E-17,-0.998629534754574,0.0523359562429438));
#521=DIRECTION('',(-1.06288872506142E-17,0.998629534754574,-0.0523359562429438));
#522=DIRECTION('',(0.,0.0523359562429438,0.998629534754574));
#523=DIRECTION('',(-1.,-1.06143207300397E-17,5.5627297805941E-19));
#524=DIRECTION('',(1.06143207300397E-17,-1.,0.));
#525=DIRECTION('',(-8.23817892995907E-32,-0.0523359562429438,-0.998629534754574));
#526=DIRECTION('',(-8.23817892995907E-32,-0.0523359562429438,-0.998629534754574));
#527=DIRECTION('',(1.06288872506142E-17,-0.998629534754574,0.0523359562429438));
#528=DIRECTION('',(0.,-0.0523359562429438,-0.998629534754574));
#529=DIRECTION('',(-1.06288872506142E-17,0.998629534754574,-0.0523359562429438));
#530=DIRECTION('',(0.,0.0523359562429438,0.998629534754574));
#531=DIRECTION('',(-1.06288872506142E-17,0.998629534754574,-0.0523359562429438));
#532=DIRECTION('',(0.,0.0523359562429438,0.998629534754574));
#533=DIRECTION('',(1.06288872506142E-17,-0.998629534754574,0.0523359562429438));
#534=DIRECTION('',(0.,-0.0523359562429438,-0.998629534754574));
#535=DIRECTION('',(-1.06288872506142E-17,0.998629534754574,-0.0523359562429438));
#536=DIRECTION('',(0.,0.0523359562429438,0.998629534754574));
#537=DIRECTION('',(-1.06288872506142E-17,0.998629534754574,-0.0523359562429438));
#538=DIRECTION('',(0.,0.0523359562429438,0.998629534754574));
#539=DIRECTION('',(-1.06288872506142E-17,0.998629534754574,-0.0523359562429438));
#540=DIRECTION('',(-1.,-1.06143207300397E-17,5.56272978059327E-19));
#541=DIRECTION('',(-1.06288872506142E-17,0.998629534754574,-0.0523359562429438));
#542=DIRECTION('',(-1.,-1.06143207300397E-17,5.56272978059327E-19));
#543=CARTESIAN_POINT('',(0.,0.,0.));
#544=CARTESIAN_POINT('',(0.059,-0.0043458667121962,0.0620546099038817));
#545=CARTESIAN_POINT('',(0.059,-0.0103376439207236,0.0623686256413393));
#546=CARTESIAN_POINT('',(0.0594545454545455,-0.0103376439207236,0.0623686256413393));
#547=CARTESIAN_POINT('',(0.0505,-0.0103376439207236,0.0623686256413393));
#548=CARTESIAN_POINT('',(0.0594545454545455,-0.0043458667121962,0.0620546099038817));
#549=CARTESIAN_POINT('',(0.0594545454545455,-0.0043458667121962,0.0620546099038817));
#550=CARTESIAN_POINT('',(0.059,-0.0043458667121962,0.0620546099038817));
#551=CARTESIAN_POINT('',(0.0505,-0.0043458667121962,0.0620546099038817));
#552=CARTESIAN_POINT('',(0.0505,-0.0043458667121962,0.0620546099038817));
#553=CARTESIAN_POINT('',(0.059,-0.004474525785231,0.0595996485451882));
#554=CARTESIAN_POINT('',(0.059,-0.0104663029937584,0.0599136642826459));
#555=CARTESIAN_POINT('',(0.0594545454545455,-0.0105949620667932,0.0574587029239525));
#556=CARTESIAN_POINT('',(0.0594545454545455,-0.0046031848582658,0.0571446871864948));
#557=CARTESIAN_POINT('',(0.0594545454545455,-0.0046031848582658,0.0571446871864948));
#558=CARTESIAN_POINT('',(0.059,-0.004474525785231,0.0595996485451882));
#559=CARTESIAN_POINT('',(0.059,-0.0046031848582658,0.0571446871864948));
#560=CARTESIAN_POINT('',(0.059,-0.0105949620667932,0.0574587029239525));
#561=CARTESIAN_POINT('',(0.0505,-0.0105949620667932,0.0574587029239525));
#562=CARTESIAN_POINT('',(0.0505,-0.0046031848582658,0.0571446871864948));
#563=CARTESIAN_POINT('',(0.0505,-0.0046031848582658,0.0571446871864948));
#564=CARTESIAN_POINT('',(0.059,-0.0046031848582658,0.0571446871864948));
#565=CARTESIAN_POINT('',(0.0505,-0.00460427526705208,0.0571238809473983));
#566=CARTESIAN_POINT('',(0.0505,-0.0105960524755795,0.057437896684856));
#567=CARTESIAN_POINT('',(0.0505,-0.0105971428843658,0.0574170904457595));
#568=CARTESIAN_POINT('',(0.0505,-0.00460536567583836,0.0571030747083018));
#569=CARTESIAN_POINT('',(0.0505,-0.00460536567583836,0.0571030747083018));
#570=CARTESIAN_POINT('',(0.0505,-0.00460427526705208,0.0571238809473983));
#571=CARTESIAN_POINT('',(0.0475,-0.00460536567583836,0.0571030747083018));
#572=CARTESIAN_POINT('',(0.0475,-0.0105971428843658,0.0574170904457595));
#573=CARTESIAN_POINT('',(0.0475,-0.0107541507530946,0.0544212018414957));
#574=CARTESIAN_POINT('',(0.0475,-0.00476237354456719,0.0541071861040381));
#575=CARTESIAN_POINT('',(0.0475,-0.00476237354456719,0.0541071861040381));
#576=CARTESIAN_POINT('',(0.0475,-0.00460536567583836,0.0571030747083018));
#577=CARTESIAN_POINT('',(0.0395,-0.00476237354456719,0.0541071861040381));
#578=CARTESIAN_POINT('',(0.0395,-0.0107541507530946,0.0544212018414957));
#579=CARTESIAN_POINT('',(0.0315,-0.0107541507530946,0.0544212018414957));
#580=CARTESIAN_POINT('',(0.0315,-0.00476237354456719,0.0541071861040381));
#581=CARTESIAN_POINT('',(0.0315,-0.00476237354456719,0.0541071861040381));
#582=CARTESIAN_POINT('',(0.0395,-0.00476237354456719,0.0541071861040381));
#583=CARTESIAN_POINT('',(0.0315,-0.00460536567583836,0.0571030747083018));
#584=CARTESIAN_POINT('',(0.0315,-0.0105971428843658,0.0574170904457595));
#585=CARTESIAN_POINT('',(0.0285,-0.0105971428843658,0.0574170904457595));
#586=CARTESIAN_POINT('',(0.0285,-0.00460536567583836,0.0571030747083018));
#587=CARTESIAN_POINT('',(0.0285,-0.00460536567583836,0.0571030747083018));
#588=CARTESIAN_POINT('',(0.0315,-0.00460536567583836,0.0571030747083018));
#589=CARTESIAN_POINT('',(0.0285,-0.00460427526705208,0.0571238809473983));
#590=CARTESIAN_POINT('',(0.0285,-0.0105960524755795,0.057437896684856));
#591=CARTESIAN_POINT('',(0.0285,-0.0105949620667932,0.0574587029239525));
#592=CARTESIAN_POINT('',(0.0285,-0.0046031848582658,0.0571446871864948));
#593=CARTESIAN_POINT('',(0.0285,-0.0046031848582658,0.0571446871864948));
#594=CARTESIAN_POINT('',(0.0285,-0.00460427526705208,0.0571238809473983));
#595=CARTESIAN_POINT('',(0.0244772727272728,-0.0046031848582658,0.0571446871864948));
#596=CARTESIAN_POINT('',(0.0244772727272728,-0.0105949620667932,0.0574587029239525));
#597=CARTESIAN_POINT('',(0.0195454545454545,-0.0105949620667932,0.0574587029239525));
#598=CARTESIAN_POINT('',(0.0195454545454545,-0.0046031848582658,0.0571446871864948));
#599=CARTESIAN_POINT('',(0.0195454545454545,-0.0046031848582658,0.0571446871864948));
#600=CARTESIAN_POINT('',(0.0244772727272728,-0.0046031848582658,0.0571446871864948));
#601=CARTESIAN_POINT('',(0.02,-0.004474525785231,0.0595996485451882));
#602=CARTESIAN_POINT('',(0.02,-0.0104663029937584,0.0599136642826459));
#603=CARTESIAN_POINT('',(0.0195454545454546,-0.0103376439207236,0.0623686256413393));
#604=CARTESIAN_POINT('',(0.0195454545454546,-0.0043458667121962,0.0620546099038817));
#605=CARTESIAN_POINT('',(0.0195454545454546,-0.0043458667121962,0.0620546099038817));
#606=CARTESIAN_POINT('',(0.02,-0.004474525785231,0.0595996485451882));
#607=CARTESIAN_POINT('',(0.0244772727272727,-0.0043458667121962,0.0620546099038817));
#608=CARTESIAN_POINT('',(0.0244772727272727,-0.0103376439207236,0.0623686256413393));
#609=CARTESIAN_POINT('',(0.0285,-0.0103376439207236,0.0623686256413393));
#610=CARTESIAN_POINT('',(0.0285,-0.0043458667121962,0.0620546099038817));
#611=CARTESIAN_POINT('',(0.0285,-0.0043458667121962,0.0620546099038817));
#612=CARTESIAN_POINT('',(0.0244772727272727,-0.0043458667121962,0.0620546099038817));
#613=CARTESIAN_POINT('',(0.0285,-0.00434477630340992,0.0620754161429782));
#614=CARTESIAN_POINT('',(0.0285,-0.0103365535119374,0.0623894318804358));
#615=CARTESIAN_POINT('',(0.0285,-0.0103354631031511,0.0624102381195323));
#616=CARTESIAN_POINT('',(0.0285,-0.00434368589462364,0.0620962223820747));
#617=CARTESIAN_POINT('',(0.0285,-0.00434368589462364,0.0620962223820747));
#618=CARTESIAN_POINT('',(0.0285,-0.00434477630340992,0.0620754161429782));
#619=CARTESIAN_POINT('',(0.0315,-0.00434368589462364,0.0620962223820747));
#620=CARTESIAN_POINT('',(0.0315,-0.0103354631031511,0.0624102381195323));
#621=CARTESIAN_POINT('',(0.0315,-0.0101784552344222,0.0654061267237961));
#622=CARTESIAN_POINT('',(0.0315,-0.00418667802589481,0.0650921109863384));
#623=CARTESIAN_POINT('',(0.0315,-0.00418667802589481,0.0650921109863384));
#624=CARTESIAN_POINT('',(0.0315,-0.00434368589462364,0.0620962223820747));
#625=CARTESIAN_POINT('',(0.0395,-0.00418667802589481,0.0650921109863384));
#626=CARTESIAN_POINT('',(0.0395,-0.0101784552344222,0.0654061267237961));
#627=CARTESIAN_POINT('',(0.0475,-0.0101784552344222,0.0654061267237961));
#628=CARTESIAN_POINT('',(0.0475,-0.00418667802589481,0.0650921109863384));
#629=CARTESIAN_POINT('',(0.0475,-0.00418667802589481,0.0650921109863384));
#630=CARTESIAN_POINT('',(0.0395,-0.00418667802589481,0.0650921109863384));
#631=CARTESIAN_POINT('',(0.0475,-0.00434368589462364,0.0620962223820747));
#632=CARTESIAN_POINT('',(0.0475,-0.0103354631031511,0.0624102381195323));
#633=CARTESIAN_POINT('',(0.0505,-0.0103354631031511,0.0624102381195323));
#634=CARTESIAN_POINT('',(0.0505,-0.00434368589462364,0.0620962223820747));
#635=CARTESIAN_POINT('',(0.0505,-0.00434368589462364,0.0620962223820747));
#636=CARTESIAN_POINT('',(0.0475,-0.00434368589462364,0.0620962223820747));
#637=CARTESIAN_POINT('',(0.0505,-0.00434477630340992,0.0620754161429782));
#638=CARTESIAN_POINT('',(0.0505,-0.0103365535119374,0.0623894318804358));
#639=CARTESIAN_POINT('',(0.0505,-0.00434477630340992,0.0620754161429782));
#640=CARTESIAN_POINT('',(0.059,-0.004474525785231,0.0595996485451882));
#641=CARTESIAN_POINT('',(0.059,-0.004474525785231,0.0595996485451882));
#642=CARTESIAN_POINT('',(0.059,-0.00439340505305444,0.0611475243240578));
#643=CARTESIAN_POINT('',(0.059,-0.0104663029937584,0.0599136642826459));
#644=CARTESIAN_POINT('',(0.059,-0.0103851822615819,0.0614615400615155));
#645=CARTESIAN_POINT('',(0.02,-0.004474525785231,0.0595996485451882));
#646=CARTESIAN_POINT('',(0.02,-0.004474525785231,0.0595996485451882));
#647=CARTESIAN_POINT('',(0.02,-0.00439340505305444,0.0611475243240578));
#648=CARTESIAN_POINT('',(0.02,-0.0104663029937584,0.0599136642826459));
#649=CARTESIAN_POINT('',(0.02,-0.0103851822615819,0.0614615400615155));
#650=CARTESIAN_POINT('',(0.0395,-0.004474525785231,0.0595996485451882));
#651=CARTESIAN_POINT('',(0.0395,-0.0104663029937584,0.0599136642826459));
#652=MECHANICAL_DESIGN_GEOMETRIC_PRESENTATION_REPRESENTATION('',(#385),
#653);
#653=(
GEOMETRIC_REPRESENTATION_CONTEXT(3)
GLOBAL_UNCERTAINTY_ASSIGNED_CONTEXT((#654))
GLOBAL_UNIT_ASSIGNED_CONTEXT((#657,#656,#655))
REPRESENTATION_CONTEXT('LCD ribbon pcb bracket',
'TOP_LEVEL_ASSEMBLY_PART')
);
#654=UNCERTAINTY_MEASURE_WITH_UNIT(LENGTH_MEASURE(1.E-8),#657,
'DISTANCE_ACCURACY_VALUE','Maximum Tolerance applied to model');
#655=(
NAMED_UNIT(*)
SI_UNIT($,.STERADIAN.)
SOLID_ANGLE_UNIT()
);
#656=(
NAMED_UNIT(*)
PLANE_ANGLE_UNIT()
SI_UNIT($,.RADIAN.)
);
#657=(
LENGTH_UNIT()
NAMED_UNIT(*)
SI_UNIT($,.METRE.)
);
#658=PRODUCT_DEFINITION_SHAPE('','',#659);
#659=PRODUCT_DEFINITION('','',#661,#660);
#660=PRODUCT_DEFINITION_CONTEXT('',#667,'design');
#661=PRODUCT_DEFINITION_FORMATION_WITH_SPECIFIED_SOURCE('','',#663,
 .NOT_KNOWN.);
#662=PRODUCT_RELATED_PRODUCT_CATEGORY('','',(#663));
#663=PRODUCT('LCD ribbon pcb bracket','LCD ribbon pcb bracket',
'LCD ribbon pcb bracket',(#665));
#664=PRODUCT_CATEGORY('','');
#665=PRODUCT_CONTEXT('',#667,'mechanical');
#666=APPLICATION_PROTOCOL_DEFINITION('international standard',
'ap242_managed_model_based_3d_engineering',2020,#667);
#667=APPLICATION_CONTEXT('managed model based 3d engineering');
ENDSEC;
END-ISO-10303-21;
