ISO-10303-21;
HEADER;
/* Generated by software containing ST-Developer
 * from STEP Tools, Inc. (www.steptools.com) 
 */
/* OPTION: using custom renumber hook */

FILE_DESCRIPTION(
/* description */ ('STEP AP242 Edition 2',
'CAx-IF Rec.Pracs.---Representation and Presentation of Product Manufa
cturing Information (PMI)---4.0---2014-10-13',
'CAx-IF Rec.Pracs.---3D Tessellated Geometry---0.4---2014-09-14','2;1',
'CAx-IF Rec.Pracs.---User Defined Attributes---1.5---2016-08-15'),
/* implementation_level */ '2;1');

FILE_NAME(
/* name */ '9.7in IPS - Speaker Bracket Small',
/* time_stamp */ '2026-07-13T15:43:54Z',
/* author */ (''),
/* organization */ (''),
/* preprocessor_version */ 'ST-DEVELOPER v20',
/* originating_system */ 'ONSHAPE BY PTC INC, 1.217',
/* authorisation */ '  ');

FILE_SCHEMA (('AP242_MANAGED_MODEL_BASED_3D_ENGINEERING_MIM_LF { 1 0 10303 442 3 1 4 }'));
ENDSEC;

DATA;
#10=SHAPE_REPRESENTATION_RELATIONSHIP('','',#565,#11);
#11=ADVANCED_BREP_SHAPE_REPRESENTATION('',(#563),#969);
#12=CIRCLE('',#569,0.005);
#13=CIRCLE('',#570,0.005);
#14=CIRCLE('',#573,0.01425);
#15=CIRCLE('',#574,0.01425);
#16=CIRCLE('',#577,0.002);
#17=CIRCLE('',#578,0.002);
#18=CIRCLE('',#581,0.00200000000000003);
#19=CIRCLE('',#582,0.00200000000000003);
#20=CIRCLE('',#585,0.00200000000000003);
#21=CIRCLE('',#586,0.00200000000000003);
#22=CIRCLE('',#589,0.002);
#23=CIRCLE('',#590,0.002);
#24=CIRCLE('',#593,0.01425);
#25=CIRCLE('',#594,0.01425);
#26=CIRCLE('',#597,0.005);
#27=CIRCLE('',#598,0.005);
#28=CIRCLE('',#601,0.00155);
#29=CIRCLE('',#602,0.00155);
#30=CIRCLE('',#604,0.00155);
#31=CIRCLE('',#605,0.00155);
#32=CIRCLE('',#607,0.01425);
#33=CIRCLE('',#608,0.01425);
#34=CIRCLE('',#610,0.01125);
#35=CIRCLE('',#611,0.01125);
#36=CIRCLE('',#613,0.005);
#37=CIRCLE('',#614,0.005);
#38=CIRCLE('',#615,0.005);
#39=CIRCLE('',#616,0.005);
#40=CIRCLE('',#617,0.005);
#41=CIRCLE('',#618,0.005);
#42=CIRCLE('',#620,0.005);
#43=CIRCLE('',#621,0.005);
#44=CIRCLE('',#622,0.005);
#45=CIRCLE('',#623,0.005);
#46=CIRCLE('',#624,0.005);
#47=CIRCLE('',#625,0.005);
#48=CYLINDRICAL_SURFACE('',#568,0.005);
#49=CYLINDRICAL_SURFACE('',#572,0.01425);
#50=CYLINDRICAL_SURFACE('',#576,0.002);
#51=CYLINDRICAL_SURFACE('',#580,0.00200000000000003);
#52=CYLINDRICAL_SURFACE('',#584,0.00200000000000003);
#53=CYLINDRICAL_SURFACE('',#588,0.002);
#54=CYLINDRICAL_SURFACE('',#592,0.01425);
#55=CYLINDRICAL_SURFACE('',#596,0.005);
#56=CYLINDRICAL_SURFACE('',#600,0.00155);
#57=CYLINDRICAL_SURFACE('',#603,0.00155);
#58=CYLINDRICAL_SURFACE('',#606,0.01425);
#59=CYLINDRICAL_SURFACE('',#609,0.01125);
#60=CYLINDRICAL_SURFACE('',#626,0.005);
#61=CYLINDRICAL_SURFACE('',#627,0.005);
#62=CYLINDRICAL_SURFACE('',#628,0.005);
#63=CYLINDRICAL_SURFACE('',#629,0.005);
#64=CYLINDRICAL_SURFACE('',#630,0.005);
#65=CYLINDRICAL_SURFACE('',#631,0.005);
#66=ORIENTED_EDGE('',*,*,#222,.T.);
#67=ORIENTED_EDGE('',*,*,#223,.T.);
#68=ORIENTED_EDGE('',*,*,#224,.F.);
#69=ORIENTED_EDGE('',*,*,#225,.F.);
#70=ORIENTED_EDGE('',*,*,#226,.T.);
#71=ORIENTED_EDGE('',*,*,#227,.F.);
#72=ORIENTED_EDGE('',*,*,#228,.F.);
#73=ORIENTED_EDGE('',*,*,#225,.T.);
#74=ORIENTED_EDGE('',*,*,#229,.T.);
#75=ORIENTED_EDGE('',*,*,#230,.T.);
#76=ORIENTED_EDGE('',*,*,#231,.F.);
#77=ORIENTED_EDGE('',*,*,#227,.T.);
#78=ORIENTED_EDGE('',*,*,#232,.T.);
#79=ORIENTED_EDGE('',*,*,#233,.T.);
#80=ORIENTED_EDGE('',*,*,#234,.F.);
#81=ORIENTED_EDGE('',*,*,#235,.T.);
#82=ORIENTED_EDGE('',*,*,#236,.T.);
#83=ORIENTED_EDGE('',*,*,#237,.T.);
#84=ORIENTED_EDGE('',*,*,#238,.F.);
#85=ORIENTED_EDGE('',*,*,#239,.F.);
#86=ORIENTED_EDGE('',*,*,#240,.F.);
#87=ORIENTED_EDGE('',*,*,#241,.F.);
#88=ORIENTED_EDGE('',*,*,#242,.T.);
#89=ORIENTED_EDGE('',*,*,#239,.T.);
#90=ORIENTED_EDGE('',*,*,#243,.F.);
#91=ORIENTED_EDGE('',*,*,#244,.F.);
#92=ORIENTED_EDGE('',*,*,#245,.T.);
#93=ORIENTED_EDGE('',*,*,#241,.T.);
#94=ORIENTED_EDGE('',*,*,#246,.T.);
#95=ORIENTED_EDGE('',*,*,#247,.F.);
#96=ORIENTED_EDGE('',*,*,#248,.F.);
#97=ORIENTED_EDGE('',*,*,#244,.T.);
#98=ORIENTED_EDGE('',*,*,#249,.T.);
#99=ORIENTED_EDGE('',*,*,#250,.F.);
#100=ORIENTED_EDGE('',*,*,#251,.F.);
#101=ORIENTED_EDGE('',*,*,#247,.T.);
#102=ORIENTED_EDGE('',*,*,#252,.T.);
#103=ORIENTED_EDGE('',*,*,#253,.F.);
#104=ORIENTED_EDGE('',*,*,#254,.F.);
#105=ORIENTED_EDGE('',*,*,#250,.T.);
#106=ORIENTED_EDGE('',*,*,#255,.T.);
#107=ORIENTED_EDGE('',*,*,#256,.F.);
#108=ORIENTED_EDGE('',*,*,#257,.F.);
#109=ORIENTED_EDGE('',*,*,#253,.T.);
#110=ORIENTED_EDGE('',*,*,#258,.F.);
#111=ORIENTED_EDGE('',*,*,#259,.F.);
#112=ORIENTED_EDGE('',*,*,#260,.T.);
#113=ORIENTED_EDGE('',*,*,#256,.T.);
#114=ORIENTED_EDGE('',*,*,#261,.T.);
#115=ORIENTED_EDGE('',*,*,#262,.T.);
#116=ORIENTED_EDGE('',*,*,#263,.F.);
#117=ORIENTED_EDGE('',*,*,#259,.T.);
#118=ORIENTED_EDGE('',*,*,#264,.F.);
#119=ORIENTED_EDGE('',*,*,#265,.T.);
#120=ORIENTED_EDGE('',*,*,#266,.T.);
#121=ORIENTED_EDGE('',*,*,#267,.T.);
#122=ORIENTED_EDGE('',*,*,#268,.F.);
#123=ORIENTED_EDGE('',*,*,#269,.T.);
#124=ORIENTED_EDGE('',*,*,#270,.T.);
#125=ORIENTED_EDGE('',*,*,#271,.F.);
#126=ORIENTED_EDGE('',*,*,#272,.T.);
#127=ORIENTED_EDGE('',*,*,#273,.F.);
#128=ORIENTED_EDGE('',*,*,#274,.F.);
#129=ORIENTED_EDGE('',*,*,#271,.T.);
#130=ORIENTED_EDGE('',*,*,#275,.F.);
#131=ORIENTED_EDGE('',*,*,#276,.T.);
#132=ORIENTED_EDGE('',*,*,#277,.T.);
#133=ORIENTED_EDGE('',*,*,#273,.T.);
#134=ORIENTED_EDGE('',*,*,#278,.T.);
#135=ORIENTED_EDGE('',*,*,#279,.F.);
#136=ORIENTED_EDGE('',*,*,#280,.T.);
#137=ORIENTED_EDGE('',*,*,#281,.F.);
#138=ORIENTED_EDGE('',*,*,#282,.F.);
#139=ORIENTED_EDGE('',*,*,#283,.T.);
#140=ORIENTED_EDGE('',*,*,#284,.T.);
#141=ORIENTED_EDGE('',*,*,#285,.T.);
#142=ORIENTED_EDGE('',*,*,#286,.T.);
#143=ORIENTED_EDGE('',*,*,#287,.F.);
#144=ORIENTED_EDGE('',*,*,#222,.F.);
#145=ORIENTED_EDGE('',*,*,#228,.T.);
#146=ORIENTED_EDGE('',*,*,#231,.T.);
#147=ORIENTED_EDGE('',*,*,#288,.T.);
#148=ORIENTED_EDGE('',*,*,#234,.T.);
#149=ORIENTED_EDGE('',*,*,#289,.T.);
#150=ORIENTED_EDGE('',*,*,#236,.F.);
#151=ORIENTED_EDGE('',*,*,#242,.F.);
#152=ORIENTED_EDGE('',*,*,#245,.F.);
#153=ORIENTED_EDGE('',*,*,#248,.T.);
#154=ORIENTED_EDGE('',*,*,#251,.T.);
#155=ORIENTED_EDGE('',*,*,#254,.T.);
#156=ORIENTED_EDGE('',*,*,#257,.T.);
#157=ORIENTED_EDGE('',*,*,#260,.F.);
#158=ORIENTED_EDGE('',*,*,#263,.T.);
#159=ORIENTED_EDGE('',*,*,#290,.T.);
#160=ORIENTED_EDGE('',*,*,#264,.T.);
#161=ORIENTED_EDGE('',*,*,#291,.T.);
#162=ORIENTED_EDGE('',*,*,#268,.T.);
#163=ORIENTED_EDGE('',*,*,#274,.T.);
#164=ORIENTED_EDGE('',*,*,#277,.F.);
#165=ORIENTED_EDGE('',*,*,#292,.T.);
#166=ORIENTED_EDGE('',*,*,#282,.T.);
#167=ORIENTED_EDGE('',*,*,#293,.T.);
#168=ORIENTED_EDGE('',*,*,#280,.F.);
#169=ORIENTED_EDGE('',*,*,#278,.F.);
#170=ORIENTED_EDGE('',*,*,#286,.F.);
#171=ORIENTED_EDGE('',*,*,#224,.T.);
#172=ORIENTED_EDGE('',*,*,#294,.T.);
#173=ORIENTED_EDGE('',*,*,#284,.F.);
#174=ORIENTED_EDGE('',*,*,#295,.T.);
#175=ORIENTED_EDGE('',*,*,#275,.T.);
#176=ORIENTED_EDGE('',*,*,#272,.F.);
#177=ORIENTED_EDGE('',*,*,#270,.F.);
#178=ORIENTED_EDGE('',*,*,#296,.T.);
#179=ORIENTED_EDGE('',*,*,#266,.F.);
#180=ORIENTED_EDGE('',*,*,#297,.T.);
#181=ORIENTED_EDGE('',*,*,#261,.F.);
#182=ORIENTED_EDGE('',*,*,#258,.T.);
#183=ORIENTED_EDGE('',*,*,#255,.F.);
#184=ORIENTED_EDGE('',*,*,#252,.F.);
#185=ORIENTED_EDGE('',*,*,#249,.F.);
#186=ORIENTED_EDGE('',*,*,#246,.F.);
#187=ORIENTED_EDGE('',*,*,#243,.T.);
#188=ORIENTED_EDGE('',*,*,#240,.T.);
#189=ORIENTED_EDGE('',*,*,#238,.T.);
#190=ORIENTED_EDGE('',*,*,#298,.T.);
#191=ORIENTED_EDGE('',*,*,#232,.F.);
#192=ORIENTED_EDGE('',*,*,#299,.T.);
#193=ORIENTED_EDGE('',*,*,#229,.F.);
#194=ORIENTED_EDGE('',*,*,#226,.F.);
#195=ORIENTED_EDGE('',*,*,#281,.T.);
#196=ORIENTED_EDGE('',*,*,#279,.T.);
#197=ORIENTED_EDGE('',*,*,#287,.T.);
#198=ORIENTED_EDGE('',*,*,#289,.F.);
#199=ORIENTED_EDGE('',*,*,#233,.F.);
#200=ORIENTED_EDGE('',*,*,#298,.F.);
#201=ORIENTED_EDGE('',*,*,#237,.F.);
#202=ORIENTED_EDGE('',*,*,#290,.F.);
#203=ORIENTED_EDGE('',*,*,#262,.F.);
#204=ORIENTED_EDGE('',*,*,#297,.F.);
#205=ORIENTED_EDGE('',*,*,#265,.F.);
#206=ORIENTED_EDGE('',*,*,#291,.F.);
#207=ORIENTED_EDGE('',*,*,#267,.F.);
#208=ORIENTED_EDGE('',*,*,#296,.F.);
#209=ORIENTED_EDGE('',*,*,#269,.F.);
#210=ORIENTED_EDGE('',*,*,#292,.F.);
#211=ORIENTED_EDGE('',*,*,#276,.F.);
#212=ORIENTED_EDGE('',*,*,#295,.F.);
#213=ORIENTED_EDGE('',*,*,#283,.F.);
#214=ORIENTED_EDGE('',*,*,#293,.F.);
#215=ORIENTED_EDGE('',*,*,#285,.F.);
#216=ORIENTED_EDGE('',*,*,#294,.F.);
#217=ORIENTED_EDGE('',*,*,#223,.F.);
#218=ORIENTED_EDGE('',*,*,#288,.F.);
#219=ORIENTED_EDGE('',*,*,#230,.F.);
#220=ORIENTED_EDGE('',*,*,#299,.F.);
#221=ORIENTED_EDGE('',*,*,#235,.F.);
#222=EDGE_CURVE('',#300,#301,#354,.T.);
#223=EDGE_CURVE('',#301,#302,#355,.T.);
#224=EDGE_CURVE('',#303,#302,#356,.T.);
#225=EDGE_CURVE('',#300,#303,#357,.T.);
#226=EDGE_CURVE('',#303,#304,#12,.T.);
#227=EDGE_CURVE('',#305,#304,#358,.T.);
#228=EDGE_CURVE('',#300,#305,#13,.T.);
#229=EDGE_CURVE('',#304,#306,#359,.T.);
#230=EDGE_CURVE('',#306,#307,#360,.T.);
#231=EDGE_CURVE('',#305,#307,#361,.T.);
#232=EDGE_CURVE('',#308,#309,#14,.T.);
#233=EDGE_CURVE('',#309,#310,#362,.F.);
#234=EDGE_CURVE('',#311,#310,#15,.T.);
#235=EDGE_CURVE('',#311,#308,#363,.T.);
#236=EDGE_CURVE('',#312,#313,#364,.T.);
#237=EDGE_CURVE('',#313,#314,#365,.T.);
#238=EDGE_CURVE('',#315,#314,#366,.T.);
#239=EDGE_CURVE('',#312,#315,#367,.T.);
#240=EDGE_CURVE('',#316,#315,#16,.T.);
#241=EDGE_CURVE('',#317,#316,#368,.T.);
#242=EDGE_CURVE('',#317,#312,#17,.T.);
#243=EDGE_CURVE('',#318,#316,#369,.T.);
#244=EDGE_CURVE('',#319,#318,#370,.T.);
#245=EDGE_CURVE('',#319,#317,#371,.T.);
#246=EDGE_CURVE('',#318,#320,#18,.T.);
#247=EDGE_CURVE('',#321,#320,#372,.T.);
#248=EDGE_CURVE('',#319,#321,#19,.T.);
#249=EDGE_CURVE('',#320,#322,#373,.T.);
#250=EDGE_CURVE('',#323,#322,#374,.T.);
#251=EDGE_CURVE('',#321,#323,#375,.T.);
#252=EDGE_CURVE('',#322,#324,#20,.T.);
#253=EDGE_CURVE('',#325,#324,#376,.T.);
#254=EDGE_CURVE('',#323,#325,#21,.T.);
#255=EDGE_CURVE('',#324,#326,#377,.T.);
#256=EDGE_CURVE('',#327,#326,#378,.T.);
#257=EDGE_CURVE('',#325,#327,#379,.T.);
#258=EDGE_CURVE('',#328,#326,#22,.T.);
#259=EDGE_CURVE('',#329,#328,#380,.T.);
#260=EDGE_CURVE('',#329,#327,#23,.T.);
#261=EDGE_CURVE('',#328,#330,#381,.T.);
#262=EDGE_CURVE('',#330,#331,#382,.T.);
#263=EDGE_CURVE('',#329,#331,#383,.T.);
#264=EDGE_CURVE('',#332,#333,#24,.T.);
#265=EDGE_CURVE('',#332,#334,#384,.T.);
#266=EDGE_CURVE('',#334,#335,#25,.T.);
#267=EDGE_CURVE('',#335,#333,#385,.F.);
#268=EDGE_CURVE('',#336,#337,#386,.T.);
#269=EDGE_CURVE('',#336,#338,#387,.F.);
#270=EDGE_CURVE('',#338,#339,#388,.T.);
#271=EDGE_CURVE('',#337,#339,#389,.T.);
#272=EDGE_CURVE('',#339,#340,#26,.T.);
#273=EDGE_CURVE('',#341,#340,#390,.T.);
#274=EDGE_CURVE('',#337,#341,#27,.T.);
#275=EDGE_CURVE('',#342,#340,#391,.T.);
#276=EDGE_CURVE('',#342,#343,#392,.F.);
#277=EDGE_CURVE('',#343,#341,#393,.T.);
#278=EDGE_CURVE('',#344,#344,#28,.T.);
#279=EDGE_CURVE('',#345,#345,#29,.T.);
#280=EDGE_CURVE('',#346,#346,#30,.T.);
#281=EDGE_CURVE('',#347,#347,#31,.T.);
#282=EDGE_CURVE('',#348,#349,#32,.T.);
#283=EDGE_CURVE('',#348,#350,#394,.T.);
#284=EDGE_CURVE('',#350,#351,#33,.T.);
#285=EDGE_CURVE('',#351,#349,#395,.F.);
#286=EDGE_CURVE('',#352,#352,#34,.T.);
#287=EDGE_CURVE('',#353,#353,#35,.T.);
#288=EDGE_CURVE('',#307,#311,#36,.F.);
#289=EDGE_CURVE('',#310,#313,#37,.F.);
#290=EDGE_CURVE('',#331,#332,#38,.F.);
#291=EDGE_CURVE('',#333,#336,#39,.F.);
#292=EDGE_CURVE('',#343,#348,#40,.F.);
#293=EDGE_CURVE('',#349,#301,#41,.F.);
#294=EDGE_CURVE('',#302,#351,#42,.T.);
#295=EDGE_CURVE('',#350,#342,#43,.T.);
#296=EDGE_CURVE('',#338,#335,#44,.T.);
#297=EDGE_CURVE('',#334,#330,#45,.T.);
#298=EDGE_CURVE('',#314,#309,#46,.T.);
#299=EDGE_CURVE('',#308,#306,#47,.T.);
#300=VERTEX_POINT('',#809);
#301=VERTEX_POINT('',#810);
#302=VERTEX_POINT('',#812);
#303=VERTEX_POINT('',#814);
#304=VERTEX_POINT('',#818);
#305=VERTEX_POINT('',#820);
#306=VERTEX_POINT('',#824);
#307=VERTEX_POINT('',#826);
#308=VERTEX_POINT('',#830);
#309=VERTEX_POINT('',#831);
#310=VERTEX_POINT('',#833);
#311=VERTEX_POINT('',#835);
#312=VERTEX_POINT('',#839);
#313=VERTEX_POINT('',#840);
#314=VERTEX_POINT('',#842);
#315=VERTEX_POINT('',#844);
#316=VERTEX_POINT('',#848);
#317=VERTEX_POINT('',#850);
#318=VERTEX_POINT('',#854);
#319=VERTEX_POINT('',#856);
#320=VERTEX_POINT('',#860);
#321=VERTEX_POINT('',#862);
#322=VERTEX_POINT('',#866);
#323=VERTEX_POINT('',#868);
#324=VERTEX_POINT('',#872);
#325=VERTEX_POINT('',#874);
#326=VERTEX_POINT('',#878);
#327=VERTEX_POINT('',#880);
#328=VERTEX_POINT('',#884);
#329=VERTEX_POINT('',#886);
#330=VERTEX_POINT('',#890);
#331=VERTEX_POINT('',#892);
#332=VERTEX_POINT('',#896);
#333=VERTEX_POINT('',#897);
#334=VERTEX_POINT('',#899);
#335=VERTEX_POINT('',#901);
#336=VERTEX_POINT('',#905);
#337=VERTEX_POINT('',#906);
#338=VERTEX_POINT('',#908);
#339=VERTEX_POINT('',#910);
#340=VERTEX_POINT('',#914);
#341=VERTEX_POINT('',#916);
#342=VERTEX_POINT('',#920);
#343=VERTEX_POINT('',#922);
#344=VERTEX_POINT('',#926);
#345=VERTEX_POINT('',#928);
#346=VERTEX_POINT('',#931);
#347=VERTEX_POINT('',#933);
#348=VERTEX_POINT('',#936);
#349=VERTEX_POINT('',#937);
#350=VERTEX_POINT('',#939);
#351=VERTEX_POINT('',#941);
#352=VERTEX_POINT('',#945);
#353=VERTEX_POINT('',#947);
#354=LINE('',#808,#396);
#355=LINE('',#811,#397);
#356=LINE('',#813,#398);
#357=LINE('',#815,#399);
#358=LINE('',#819,#400);
#359=LINE('',#823,#401);
#360=LINE('',#825,#402);
#361=LINE('',#827,#403);
#362=LINE('',#832,#404);
#363=LINE('',#836,#405);
#364=LINE('',#838,#406);
#365=LINE('',#841,#407);
#366=LINE('',#843,#408);
#367=LINE('',#845,#409);
#368=LINE('',#849,#410);
#369=LINE('',#853,#411);
#370=LINE('',#855,#412);
#371=LINE('',#857,#413);
#372=LINE('',#861,#414);
#373=LINE('',#865,#415);
#374=LINE('',#867,#416);
#375=LINE('',#869,#417);
#376=LINE('',#873,#418);
#377=LINE('',#877,#419);
#378=LINE('',#879,#420);
#379=LINE('',#881,#421);
#380=LINE('',#885,#422);
#381=LINE('',#889,#423);
#382=LINE('',#891,#424);
#383=LINE('',#893,#425);
#384=LINE('',#898,#426);
#385=LINE('',#902,#427);
#386=LINE('',#904,#428);
#387=LINE('',#907,#429);
#388=LINE('',#909,#430);
#389=LINE('',#911,#431);
#390=LINE('',#915,#432);
#391=LINE('',#919,#433);
#392=LINE('',#921,#434);
#393=LINE('',#923,#435);
#394=LINE('',#938,#436);
#395=LINE('',#942,#437);
#396=VECTOR('',#636,1.);
#397=VECTOR('',#637,1.);
#398=VECTOR('',#638,1.);
#399=VECTOR('',#639,1.);
#400=VECTOR('',#644,1.);
#401=VECTOR('',#649,1.);
#402=VECTOR('',#650,1.);
#403=VECTOR('',#651,1.);
#404=VECTOR('',#656,1.);
#405=VECTOR('',#659,1.);
#406=VECTOR('',#662,1.);
#407=VECTOR('',#663,1.);
#408=VECTOR('',#664,1.);
#409=VECTOR('',#665,1.);
#410=VECTOR('',#670,1.);
#411=VECTOR('',#675,1.);
#412=VECTOR('',#676,1.);
#413=VECTOR('',#677,1.);
#414=VECTOR('',#682,1.);
#415=VECTOR('',#687,1.);
#416=VECTOR('',#688,1.);
#417=VECTOR('',#689,1.);
#418=VECTOR('',#694,1.);
#419=VECTOR('',#699,1.);
#420=VECTOR('',#700,1.);
#421=VECTOR('',#701,1.);
#422=VECTOR('',#706,1.);
#423=VECTOR('',#711,1.);
#424=VECTOR('',#712,1.);
#425=VECTOR('',#713,1.);
#426=VECTOR('',#718,1.);
#427=VECTOR('',#721,1.);
#428=VECTOR('',#724,1.);
#429=VECTOR('',#725,1.);
#430=VECTOR('',#726,1.);
#431=VECTOR('',#727,1.);
#432=VECTOR('',#732,1.);
#433=VECTOR('',#737,1.);
#434=VECTOR('',#738,1.);
#435=VECTOR('',#739,1.);
#436=VECTOR('',#756,1.);
#437=VECTOR('',#759,1.);
#438=EDGE_LOOP('',(#66,#67,#68,#69));
#439=EDGE_LOOP('',(#70,#71,#72,#73));
#440=EDGE_LOOP('',(#74,#75,#76,#77));
#441=EDGE_LOOP('',(#78,#79,#80,#81));
#442=EDGE_LOOP('',(#82,#83,#84,#85));
#443=EDGE_LOOP('',(#86,#87,#88,#89));
#444=EDGE_LOOP('',(#90,#91,#92,#93));
#445=EDGE_LOOP('',(#94,#95,#96,#97));
#446=EDGE_LOOP('',(#98,#99,#100,#101));
#447=EDGE_LOOP('',(#102,#103,#104,#105));
#448=EDGE_LOOP('',(#106,#107,#108,#109));
#449=EDGE_LOOP('',(#110,#111,#112,#113));
#450=EDGE_LOOP('',(#114,#115,#116,#117));
#451=EDGE_LOOP('',(#118,#119,#120,#121));
#452=EDGE_LOOP('',(#122,#123,#124,#125));
#453=EDGE_LOOP('',(#126,#127,#128,#129));
#454=EDGE_LOOP('',(#130,#131,#132,#133));
#455=EDGE_LOOP('',(#134));
#456=EDGE_LOOP('',(#135));
#457=EDGE_LOOP('',(#136));
#458=EDGE_LOOP('',(#137));
#459=EDGE_LOOP('',(#138,#139,#140,#141));
#460=EDGE_LOOP('',(#142));
#461=EDGE_LOOP('',(#143));
#462=EDGE_LOOP('',(#144,#145,#146,#147,#148,#149,#150,#151,#152,#153,#154,
#155,#156,#157,#158,#159,#160,#161,#162,#163,#164,#165,#166,#167));
#463=EDGE_LOOP('',(#168));
#464=EDGE_LOOP('',(#169));
#465=EDGE_LOOP('',(#170));
#466=EDGE_LOOP('',(#171,#172,#173,#174,#175,#176,#177,#178,#179,#180,#181,
#182,#183,#184,#185,#186,#187,#188,#189,#190,#191,#192,#193,#194));
#467=EDGE_LOOP('',(#195));
#468=EDGE_LOOP('',(#196));
#469=EDGE_LOOP('',(#197));
#470=EDGE_LOOP('',(#198,#199,#200,#201));
#471=EDGE_LOOP('',(#202,#203,#204,#205));
#472=EDGE_LOOP('',(#206,#207,#208,#209));
#473=EDGE_LOOP('',(#210,#211,#212,#213));
#474=EDGE_LOOP('',(#214,#215,#216,#217));
#475=EDGE_LOOP('',(#218,#219,#220,#221));
#476=FACE_BOUND('',#438,.T.);
#477=FACE_BOUND('',#439,.T.);
#478=FACE_BOUND('',#440,.T.);
#479=FACE_BOUND('',#441,.T.);
#480=FACE_BOUND('',#442,.T.);
#481=FACE_BOUND('',#443,.T.);
#482=FACE_BOUND('',#444,.T.);
#483=FACE_BOUND('',#445,.T.);
#484=FACE_BOUND('',#446,.T.);
#485=FACE_BOUND('',#447,.T.);
#486=FACE_BOUND('',#448,.T.);
#487=FACE_BOUND('',#449,.T.);
#488=FACE_BOUND('',#450,.T.);
#489=FACE_BOUND('',#451,.T.);
#490=FACE_BOUND('',#452,.T.);
#491=FACE_BOUND('',#453,.T.);
#492=FACE_BOUND('',#454,.T.);
#493=FACE_BOUND('',#455,.T.);
#494=FACE_BOUND('',#456,.T.);
#495=FACE_BOUND('',#457,.T.);
#496=FACE_BOUND('',#458,.T.);
#497=FACE_BOUND('',#459,.T.);
#498=FACE_BOUND('',#460,.T.);
#499=FACE_BOUND('',#461,.T.);
#500=FACE_BOUND('',#462,.T.);
#501=FACE_BOUND('',#463,.T.);
#502=FACE_BOUND('',#464,.T.);
#503=FACE_BOUND('',#465,.T.);
#504=FACE_BOUND('',#466,.T.);
#505=FACE_BOUND('',#467,.T.);
#506=FACE_BOUND('',#468,.T.);
#507=FACE_BOUND('',#469,.T.);
#508=FACE_BOUND('',#470,.T.);
#509=FACE_BOUND('',#471,.T.);
#510=FACE_BOUND('',#472,.T.);
#511=FACE_BOUND('',#473,.T.);
#512=FACE_BOUND('',#474,.T.);
#513=FACE_BOUND('',#475,.T.);
#514=PLANE('',#567);
#515=PLANE('',#571);
#516=PLANE('',#575);
#517=PLANE('',#579);
#518=PLANE('',#583);
#519=PLANE('',#587);
#520=PLANE('',#591);
#521=PLANE('',#595);
#522=PLANE('',#599);
#523=PLANE('',#612);
#524=PLANE('',#619);
#525=ADVANCED_FACE('',(#476),#514,.T.);
#526=ADVANCED_FACE('',(#477),#48,.T.);
#527=ADVANCED_FACE('',(#478),#515,.F.);
#528=ADVANCED_FACE('',(#479),#49,.T.);
#529=ADVANCED_FACE('',(#480),#516,.T.);
#530=ADVANCED_FACE('',(#481),#50,.F.);
#531=ADVANCED_FACE('',(#482),#517,.T.);
#532=ADVANCED_FACE('',(#483),#51,.T.);
#533=ADVANCED_FACE('',(#484),#518,.F.);
#534=ADVANCED_FACE('',(#485),#52,.T.);
#535=ADVANCED_FACE('',(#486),#519,.F.);
#536=ADVANCED_FACE('',(#487),#53,.F.);
#537=ADVANCED_FACE('',(#488),#520,.F.);
#538=ADVANCED_FACE('',(#489),#54,.T.);
#539=ADVANCED_FACE('',(#490),#521,.F.);
#540=ADVANCED_FACE('',(#491),#55,.T.);
#541=ADVANCED_FACE('',(#492),#522,.T.);
#542=ADVANCED_FACE('',(#493,#494),#56,.F.);
#543=ADVANCED_FACE('',(#495,#496),#57,.F.);
#544=ADVANCED_FACE('',(#497),#58,.T.);
#545=ADVANCED_FACE('',(#498,#499),#59,.F.);
#546=ADVANCED_FACE('',(#500,#501,#502,#503),#523,.T.);
#547=ADVANCED_FACE('',(#504,#505,#506,#507),#524,.F.);
#548=ADVANCED_FACE('',(#508),#60,.F.);
#549=ADVANCED_FACE('',(#509),#61,.F.);
#550=ADVANCED_FACE('',(#510),#62,.F.);
#551=ADVANCED_FACE('',(#511),#63,.F.);
#552=ADVANCED_FACE('',(#512),#64,.F.);
#553=ADVANCED_FACE('',(#513),#65,.F.);
#554=CLOSED_SHELL('',(#525,#526,#527,#528,#529,#530,#531,#532,#533,#534,
#535,#536,#537,#538,#539,#540,#541,#542,#543,#544,#545,#546,#547,#548,#549,
#550,#551,#552,#553));
#555=STYLED_ITEM('',(#556),#563);
#556=PRESENTATION_STYLE_ASSIGNMENT((#557));
#557=SURFACE_STYLE_USAGE(.BOTH.,#558);
#558=SURFACE_SIDE_STYLE('',(#559));
#559=SURFACE_STYLE_FILL_AREA(#560);
#560=FILL_AREA_STYLE('',(#561));
#561=FILL_AREA_STYLE_COLOUR('',#562);
#562=COLOUR_RGB('',0.980392156862745,0.796078431372549,0.262745098039216);
#563=MANIFOLD_SOLID_BREP('Speaker Bracket Small',#554);
#564=SHAPE_DEFINITION_REPRESENTATION(#974,#565);
#565=SHAPE_REPRESENTATION('Speaker Bracket Small',(#566),#969);
#566=AXIS2_PLACEMENT_3D('',#806,#632,#633);
#567=AXIS2_PLACEMENT_3D('',#807,#634,#635);
#568=AXIS2_PLACEMENT_3D('',#816,#640,#641);
#569=AXIS2_PLACEMENT_3D('',#817,#642,#643);
#570=AXIS2_PLACEMENT_3D('',#821,#645,#646);
#571=AXIS2_PLACEMENT_3D('',#822,#647,#648);
#572=AXIS2_PLACEMENT_3D('',#828,#652,#653);
#573=AXIS2_PLACEMENT_3D('',#829,#654,#655);
#574=AXIS2_PLACEMENT_3D('',#834,#657,#658);
#575=AXIS2_PLACEMENT_3D('',#837,#660,#661);
#576=AXIS2_PLACEMENT_3D('',#846,#666,#667);
#577=AXIS2_PLACEMENT_3D('',#847,#668,#669);
#578=AXIS2_PLACEMENT_3D('',#851,#671,#672);
#579=AXIS2_PLACEMENT_3D('',#852,#673,#674);
#580=AXIS2_PLACEMENT_3D('',#858,#678,#679);
#581=AXIS2_PLACEMENT_3D('',#859,#680,#681);
#582=AXIS2_PLACEMENT_3D('',#863,#683,#684);
#583=AXIS2_PLACEMENT_3D('',#864,#685,#686);
#584=AXIS2_PLACEMENT_3D('',#870,#690,#691);
#585=AXIS2_PLACEMENT_3D('',#871,#692,#693);
#586=AXIS2_PLACEMENT_3D('',#875,#695,#696);
#587=AXIS2_PLACEMENT_3D('',#876,#697,#698);
#588=AXIS2_PLACEMENT_3D('',#882,#702,#703);
#589=AXIS2_PLACEMENT_3D('',#883,#704,#705);
#590=AXIS2_PLACEMENT_3D('',#887,#707,#708);
#591=AXIS2_PLACEMENT_3D('',#888,#709,#710);
#592=AXIS2_PLACEMENT_3D('',#894,#714,#715);
#593=AXIS2_PLACEMENT_3D('',#895,#716,#717);
#594=AXIS2_PLACEMENT_3D('',#900,#719,#720);
#595=AXIS2_PLACEMENT_3D('',#903,#722,#723);
#596=AXIS2_PLACEMENT_3D('',#912,#728,#729);
#597=AXIS2_PLACEMENT_3D('',#913,#730,#731);
#598=AXIS2_PLACEMENT_3D('',#917,#733,#734);
#599=AXIS2_PLACEMENT_3D('',#918,#735,#736);
#600=AXIS2_PLACEMENT_3D('',#924,#740,#741);
#601=AXIS2_PLACEMENT_3D('',#925,#742,#743);
#602=AXIS2_PLACEMENT_3D('',#927,#744,#745);
#603=AXIS2_PLACEMENT_3D('',#929,#746,#747);
#604=AXIS2_PLACEMENT_3D('',#930,#748,#749);
#605=AXIS2_PLACEMENT_3D('',#932,#750,#751);
#606=AXIS2_PLACEMENT_3D('',#934,#752,#753);
#607=AXIS2_PLACEMENT_3D('',#935,#754,#755);
#608=AXIS2_PLACEMENT_3D('',#940,#757,#758);
#609=AXIS2_PLACEMENT_3D('',#943,#760,#761);
#610=AXIS2_PLACEMENT_3D('',#944,#762,#763);
#611=AXIS2_PLACEMENT_3D('',#946,#764,#765);
#612=AXIS2_PLACEMENT_3D('',#948,#766,#767);
#613=AXIS2_PLACEMENT_3D('',#949,#768,#769);
#614=AXIS2_PLACEMENT_3D('',#950,#770,#771);
#615=AXIS2_PLACEMENT_3D('',#951,#772,#773);
#616=AXIS2_PLACEMENT_3D('',#952,#774,#775);
#617=AXIS2_PLACEMENT_3D('',#953,#776,#777);
#618=AXIS2_PLACEMENT_3D('',#954,#778,#779);
#619=AXIS2_PLACEMENT_3D('',#955,#780,#781);
#620=AXIS2_PLACEMENT_3D('',#956,#782,#783);
#621=AXIS2_PLACEMENT_3D('',#957,#784,#785);
#622=AXIS2_PLACEMENT_3D('',#958,#786,#787);
#623=AXIS2_PLACEMENT_3D('',#959,#788,#789);
#624=AXIS2_PLACEMENT_3D('',#960,#790,#791);
#625=AXIS2_PLACEMENT_3D('',#961,#792,#793);
#626=AXIS2_PLACEMENT_3D('',#962,#794,#795);
#627=AXIS2_PLACEMENT_3D('',#963,#796,#797);
#628=AXIS2_PLACEMENT_3D('',#964,#798,#799);
#629=AXIS2_PLACEMENT_3D('',#965,#800,#801);
#630=AXIS2_PLACEMENT_3D('',#966,#802,#803);
#631=AXIS2_PLACEMENT_3D('',#967,#804,#805);
#632=DIRECTION('',(0.,0.,1.));
#633=DIRECTION('',(1.,0.,0.));
#634=DIRECTION('',(-1.,-1.06143207300397E-17,5.56272978059327E-19));
#635=DIRECTION('',(1.06143207300397E-17,-1.,0.));
#636=DIRECTION('',(2.21258162845812E-34,-0.0523359562429438,-0.998629534754574));
#637=DIRECTION('',(1.06288872506142E-17,-0.998629534754574,0.0523359562429438));
#638=DIRECTION('',(2.21258162845812E-34,-0.0523359562429438,-0.998629534754574));
#639=DIRECTION('',(1.06288872506142E-17,-0.998629534754574,0.0523359562429438));
#640=DIRECTION('',(1.06288872506142E-17,-0.998629534754574,0.0523359562429438));
#641=DIRECTION('',(0.,-0.0523359562429438,-0.998629534754574));
#642=DIRECTION('',(-1.06288872506142E-17,0.998629534754574,-0.0523359562429438));
#643=DIRECTION('',(0.,0.0523359562429438,0.998629534754574));
#644=DIRECTION('',(1.06288872506142E-17,-0.998629534754574,0.0523359562429438));
#645=DIRECTION('',(-1.06288872506142E-17,0.998629534754574,-0.0523359562429438));
#646=DIRECTION('',(0.,0.0523359562429438,0.998629534754574));
#647=DIRECTION('',(-1.,-1.06143207300397E-17,5.56272978059325E-19));
#648=DIRECTION('',(1.06143207300397E-17,-1.,0.));
#649=DIRECTION('',(1.8438180237151E-33,-0.0523359562429438,-0.998629534754574));
#650=DIRECTION('',(-1.06288872506142E-17,0.998629534754574,-0.0523359562429438));
#651=DIRECTION('',(1.8438180237151E-33,-0.0523359562429438,-0.998629534754574));
#652=DIRECTION('',(1.06288872506142E-17,-0.998629534754574,0.0523359562429438));
#653=DIRECTION('',(0.,-0.0523359562429438,-0.998629534754574));
#654=DIRECTION('',(-1.06288872506142E-17,0.998629534754574,-0.0523359562429438));
#655=DIRECTION('',(0.,0.0523359562429438,0.998629534754574));
#656=DIRECTION('',(1.06288872506142E-17,-0.998629534754574,0.0523359562429438));
#657=DIRECTION('',(-1.06288872506142E-17,0.998629534754574,-0.0523359562429438));
#658=DIRECTION('',(0.,0.0523359562429438,0.998629534754574));
#659=DIRECTION('',(1.06288872506142E-17,-0.998629534754574,0.0523359562429438));
#660=DIRECTION('',(-6.26930320438554E-35,0.0523359562429438,0.998629534754574));
#661=DIRECTION('',(0.,-0.998629534754574,0.0523359562429438));
#662=DIRECTION('',(-1.,-1.06143207300397E-17,5.56272978059327E-19));
#663=DIRECTION('',(1.06288872506142E-17,-0.998629534754574,0.0523359562429438));
#664=DIRECTION('',(-1.,-1.06143207300397E-17,5.56272978059327E-19));
#665=DIRECTION('',(1.06288872506142E-17,-0.998629534754574,0.0523359562429438));
#666=DIRECTION('',(1.06288872506142E-17,-0.998629534754574,0.0523359562429438));
#667=DIRECTION('',(0.,-0.0523359562429438,-0.998629534754574));
#668=DIRECTION('',(-1.06288872506142E-17,0.998629534754574,-0.0523359562429438));
#669=DIRECTION('',(0.,0.0523359562429438,0.998629534754574));
#670=DIRECTION('',(1.06288872506142E-17,-0.998629534754574,0.0523359562429438));
#671=DIRECTION('',(-1.06288872506142E-17,0.998629534754574,-0.0523359562429438));
#672=DIRECTION('',(0.,0.0523359562429438,0.998629534754574));
#673=DIRECTION('',(-6.26930320438554E-35,0.0523359562429438,0.998629534754574));
#674=DIRECTION('',(0.,-0.998629534754574,0.0523359562429438));
#675=DIRECTION('',(-1.,-1.06143207300397E-17,5.56272978059327E-19));
#676=DIRECTION('',(1.06288872506142E-17,-0.998629534754574,0.0523359562429438));
#677=DIRECTION('',(-1.,-1.06143207300397E-17,5.56272978059327E-19));
#678=DIRECTION('',(1.06288872506142E-17,-0.998629534754574,0.0523359562429438));
#679=DIRECTION('',(0.,-0.0523359562429438,-0.998629534754574));
#680=DIRECTION('',(-1.06288872506142E-17,0.998629534754574,-0.0523359562429438));
#681=DIRECTION('',(0.,0.0523359562429438,0.998629534754574));
#682=DIRECTION('',(1.06288872506142E-17,-0.998629534754574,0.0523359562429438));
#683=DIRECTION('',(-1.06288872506142E-17,0.998629534754574,-0.0523359562429438));
#684=DIRECTION('',(0.,0.0523359562429438,0.998629534754574));
#685=DIRECTION('',(-1.,-1.06143207300397E-17,5.5627297805933E-19));
#686=DIRECTION('',(1.06143207300397E-17,-1.,0.));
#687=DIRECTION('',(-2.72885067509835E-33,-0.0523359562429438,-0.998629534754574));
#688=DIRECTION('',(1.06288872506142E-17,-0.998629534754574,0.0523359562429438));
#689=DIRECTION('',(-2.72885067509835E-33,-0.0523359562429438,-0.998629534754574));
#690=DIRECTION('',(1.06288872506142E-17,-0.998629534754574,0.0523359562429438));
#691=DIRECTION('',(0.,-0.0523359562429438,-0.998629534754574));
#692=DIRECTION('',(-1.06288872506142E-17,0.998629534754574,-0.0523359562429438));
#693=DIRECTION('',(0.,0.0523359562429438,0.998629534754574));
#694=DIRECTION('',(1.06288872506142E-17,-0.998629534754574,0.0523359562429438));
#695=DIRECTION('',(-1.06288872506142E-17,0.998629534754574,-0.0523359562429438));
#696=DIRECTION('',(0.,0.0523359562429438,0.998629534754574));
#697=DIRECTION('',(-6.26930320438554E-35,0.0523359562429438,0.998629534754574));
#698=DIRECTION('',(0.,-0.998629534754574,0.0523359562429438));
#699=DIRECTION('',(-1.,-1.06143207300397E-17,5.56272978059327E-19));
#700=DIRECTION('',(1.06288872506142E-17,-0.998629534754574,0.0523359562429438));
#701=DIRECTION('',(-1.,-1.06143207300397E-17,5.56272978059327E-19));
#702=DIRECTION('',(1.06288872506142E-17,-0.998629534754574,0.0523359562429438));
#703=DIRECTION('',(0.,-0.0523359562429438,-0.998629534754574));
#704=DIRECTION('',(-1.06288872506142E-17,0.998629534754574,-0.0523359562429438));
#705=DIRECTION('',(0.,0.0523359562429438,0.998629534754574));
#706=DIRECTION('',(1.06288872506142E-17,-0.998629534754574,0.0523359562429438));
#707=DIRECTION('',(-1.06288872506142E-17,0.998629534754574,-0.0523359562429438));
#708=DIRECTION('',(0.,0.0523359562429438,0.998629534754574));
#709=DIRECTION('',(-6.26930320438554E-35,0.0523359562429438,0.998629534754574));
#710=DIRECTION('',(0.,-0.998629534754574,0.0523359562429438));
#711=DIRECTION('',(-1.,-1.06143207300397E-17,5.56272978059327E-19));
#712=DIRECTION('',(-1.06288872506142E-17,0.998629534754574,-0.0523359562429438));
#713=DIRECTION('',(-1.,-1.06143207300397E-17,5.56272978059327E-19));
#714=DIRECTION('',(1.06288872506142E-17,-0.998629534754574,0.0523359562429438));
#715=DIRECTION('',(0.,-0.0523359562429438,-0.998629534754574));
#716=DIRECTION('',(-1.06288872506142E-17,0.998629534754574,-0.0523359562429438));
#717=DIRECTION('',(0.,0.0523359562429438,0.998629534754574));
#718=DIRECTION('',(1.06288872506142E-17,-0.998629534754574,0.0523359562429438));
#719=DIRECTION('',(-1.06288872506142E-17,0.998629534754574,-0.0523359562429438));
#720=DIRECTION('',(0.,0.0523359562429438,0.998629534754574));
#721=DIRECTION('',(1.06288872506142E-17,-0.998629534754574,0.0523359562429438));
#722=DIRECTION('',(-1.,-1.06143207300397E-17,5.56272978059326E-19));
#723=DIRECTION('',(1.06143207300397E-17,-1.,0.));
#724=DIRECTION('',(1.10629081422906E-33,-0.0523359562429438,-0.998629534754574));
#725=DIRECTION('',(-1.06288872506142E-17,0.998629534754574,-0.0523359562429438));
#726=DIRECTION('',(1.10629081422906E-33,-0.0523359562429438,-0.998629534754574));
#727=DIRECTION('',(1.06288872506142E-17,-0.998629534754574,0.0523359562429438));
#728=DIRECTION('',(1.06288872506142E-17,-0.998629534754574,0.0523359562429438));
#729=DIRECTION('',(0.,-0.0523359562429438,-0.998629534754574));
#730=DIRECTION('',(-1.06288872506142E-17,0.998629534754574,-0.0523359562429438));
#731=DIRECTION('',(0.,0.0523359562429438,0.998629534754574));
#732=DIRECTION('',(1.06288872506142E-17,-0.998629534754574,0.0523359562429438));
#733=DIRECTION('',(-1.06288872506142E-17,0.998629534754574,-0.0523359562429438));
#734=DIRECTION('',(0.,0.0523359562429438,0.998629534754574));
#735=DIRECTION('',(-1.,-1.06143207300397E-17,5.56272978059327E-19));
#736=DIRECTION('',(1.06143207300397E-17,-1.,0.));
#737=DIRECTION('',(2.21258162845812E-34,-0.0523359562429438,-0.998629534754574));
#738=DIRECTION('',(1.06288872506142E-17,-0.998629534754574,0.0523359562429438));
#739=DIRECTION('',(2.21258162845812E-34,-0.0523359562429438,-0.998629534754574));
#740=DIRECTION('',(1.06288872506142E-17,-0.998629534754574,0.0523359562429438));
#741=DIRECTION('',(0.,-0.0523359562429438,-0.998629534754574));
#742=DIRECTION('',(-1.06288872506142E-17,0.998629534754574,-0.0523359562429438));
#743=DIRECTION('',(0.,0.0523359562429438,0.998629534754574));
#744=DIRECTION('',(-1.06288872506142E-17,0.998629534754574,-0.0523359562429438));
#745=DIRECTION('',(0.,0.0523359562429438,0.998629534754574));
#746=DIRECTION('',(1.06288872506142E-17,-0.998629534754574,0.0523359562429438));
#747=DIRECTION('',(0.,-0.0523359562429438,-0.998629534754574));
#748=DIRECTION('',(-1.06288872506142E-17,0.998629534754574,-0.0523359562429438));
#749=DIRECTION('',(0.,0.0523359562429438,0.998629534754574));
#750=DIRECTION('',(-1.06288872506142E-17,0.998629534754574,-0.0523359562429438));
#751=DIRECTION('',(0.,0.0523359562429438,0.998629534754574));
#752=DIRECTION('',(1.06288872506142E-17,-0.998629534754574,0.0523359562429438));
#753=DIRECTION('',(0.,-0.0523359562429438,-0.998629534754574));
#754=DIRECTION('',(-1.06288872506142E-17,0.998629534754574,-0.0523359562429438));
#755=DIRECTION('',(0.,0.0523359562429438,0.998629534754574));
#756=DIRECTION('',(1.06288872506142E-17,-0.998629534754574,0.0523359562429438));
#757=DIRECTION('',(-1.06288872506142E-17,0.998629534754574,-0.0523359562429438));
#758=DIRECTION('',(0.,0.0523359562429438,0.998629534754574));
#759=DIRECTION('',(1.06288872506142E-17,-0.998629534754574,0.0523359562429438));
#760=DIRECTION('',(1.06288872506142E-17,-0.998629534754574,0.0523359562429438));
#761=DIRECTION('',(0.,-0.0523359562429438,-0.998629534754574));
#762=DIRECTION('',(-1.06288872506142E-17,0.998629534754574,-0.0523359562429438));
#763=DIRECTION('',(0.,0.0523359562429438,0.998629534754574));
#764=DIRECTION('',(-1.06288872506142E-17,0.998629534754574,-0.0523359562429438));
#765=DIRECTION('',(0.,0.0523359562429438,0.998629534754574));
#766=DIRECTION('',(-1.06288872506142E-17,0.998629534754574,-0.0523359562429438));
#767=DIRECTION('',(-1.,-1.06143207300397E-17,5.56272978059327E-19));
#768=DIRECTION('',(-1.06288872506142E-17,0.998629534754574,-0.0523359562429438));
#769=DIRECTION('',(0.,0.0523359562429438,0.998629534754574));
#770=DIRECTION('',(-1.06288872506142E-17,0.998629534754574,-0.0523359562429438));
#771=DIRECTION('',(0.,0.0523359562429438,0.998629534754574));
#772=DIRECTION('',(-1.06288872506142E-17,0.998629534754574,-0.0523359562429438));
#773=DIRECTION('',(0.,0.0523359562429438,0.998629534754574));
#774=DIRECTION('',(-1.06288872506142E-17,0.998629534754574,-0.0523359562429438));
#775=DIRECTION('',(0.,0.0523359562429438,0.998629534754574));
#776=DIRECTION('',(-1.06288872506142E-17,0.998629534754574,-0.0523359562429438));
#777=DIRECTION('',(0.,0.0523359562429438,0.998629534754574));
#778=DIRECTION('',(-1.06288872506142E-17,0.998629534754574,-0.0523359562429438));
#779=DIRECTION('',(0.,0.0523359562429438,0.998629534754574));
#780=DIRECTION('',(-1.06288872506142E-17,0.998629534754574,-0.0523359562429438));
#781=DIRECTION('',(-1.,-1.06143207300397E-17,5.56272978059327E-19));
#782=DIRECTION('',(-1.06288872506142E-17,0.998629534754574,-0.0523359562429438));
#783=DIRECTION('',(0.,0.0523359562429438,0.998629534754574));
#784=DIRECTION('',(-1.06288872506142E-17,0.998629534754574,-0.0523359562429438));
#785=DIRECTION('',(0.,0.0523359562429438,0.998629534754574));
#786=DIRECTION('',(-1.06288872506142E-17,0.998629534754574,-0.0523359562429438));
#787=DIRECTION('',(0.,0.0523359562429438,0.998629534754574));
#788=DIRECTION('',(-1.06288872506142E-17,0.998629534754574,-0.0523359562429438));
#789=DIRECTION('',(0.,0.0523359562429438,0.998629534754574));
#790=DIRECTION('',(-1.06288872506142E-17,0.998629534754574,-0.0523359562429438));
#791=DIRECTION('',(0.,0.0523359562429438,0.998629534754574));
#792=DIRECTION('',(-1.06288872506142E-17,0.998629534754574,-0.0523359562429438));
#793=DIRECTION('',(0.,0.0523359562429438,0.998629534754574));
#794=DIRECTION('',(1.06288872506142E-17,-0.998629534754574,0.0523359562429438));
#795=DIRECTION('',(0.,-0.0523359562429438,-0.998629534754574));
#796=DIRECTION('',(1.06288872506142E-17,-0.998629534754574,0.0523359562429438));
#797=DIRECTION('',(0.,-0.0523359562429438,-0.998629534754574));
#798=DIRECTION('',(1.06288872506142E-17,-0.998629534754574,0.0523359562429438));
#799=DIRECTION('',(0.,-0.0523359562429438,-0.998629534754574));
#800=DIRECTION('',(1.06288872506142E-17,-0.998629534754574,0.0523359562429438));
#801=DIRECTION('',(0.,-0.0523359562429438,-0.998629534754574));
#802=DIRECTION('',(1.06288872506142E-17,-0.998629534754574,0.0523359562429438));
#803=DIRECTION('',(0.,-0.0523359562429438,-0.998629534754574));
#804=DIRECTION('',(1.06288872506142E-17,-0.998629534754574,0.0523359562429438));
#805=DIRECTION('',(0.,-0.0523359562429438,-0.998629534754574));
#806=CARTESIAN_POINT('',(0.,0.,0.));
#807=CARTESIAN_POINT('',(0.07932786911726,-0.00730772675677204,-0.0517830142844831));
#808=CARTESIAN_POINT('',(0.07932786911726,-0.00730772675677204,-0.0517830142844831));
#809=CARTESIAN_POINT('',(0.07932786911726,-0.00713355285519991,-0.0484595782611503));
#810=CARTESIAN_POINT('',(0.07932786911726,-0.0073194091325559,-0.0520059272936524));
#811=CARTESIAN_POINT('',(0.07932786911726,-0.0073194091325559,-0.0520059272936524));
#812=CARTESIAN_POINT('',(0.07932786911726,-0.0103152977368196,-0.0518489194249235));
#813=CARTESIAN_POINT('',(0.07932786911726,-0.0103036153610358,-0.0516260064157543));
#814=CARTESIAN_POINT('',(0.07932786911726,-0.0101294414594636,-0.0483025703924215));
#815=CARTESIAN_POINT('',(0.07932786911726,-0.00713355285519991,-0.0484595782611503));
#816=CARTESIAN_POINT('',(0.0843278691172599,-0.00713355285519991,-0.0484595782611503));
#817=CARTESIAN_POINT('',(0.0843278691172599,-0.0101294414594636,-0.0483025703924215));
#818=CARTESIAN_POINT('',(0.0893278691172599,-0.0101294414594636,-0.0483025703924215));
#819=CARTESIAN_POINT('',(0.0893278691172599,-0.00713355285519991,-0.0484595782611503));
#820=CARTESIAN_POINT('',(0.0893278691172599,-0.00713355285519991,-0.0484595782611503));
#821=CARTESIAN_POINT('',(0.0843278691172599,-0.00713355285519991,-0.0484595782611503));
#822=CARTESIAN_POINT('',(0.0893278691172599,-0.00730772675677204,-0.0517830142844831));
#823=CARTESIAN_POINT('',(0.0893278691172599,-0.0103036153610358,-0.0516260064157542));
#824=CARTESIAN_POINT('',(0.0893278691172599,-0.0103152977368196,-0.0518489194249235));
#825=CARTESIAN_POINT('',(0.0893278691172599,-0.0073194091325559,-0.0520059272936523));
#826=CARTESIAN_POINT('',(0.0893278691172599,-0.0073194091325559,-0.0520059272936523));
#827=CARTESIAN_POINT('',(0.0893278691172599,-0.00730772675677204,-0.0517830142844831));
#828=CARTESIAN_POINT('',(0.08432786911726,-0.00818027198005879,-0.0684321689562418));
#829=CARTESIAN_POINT('',(0.08432786911726,-0.0111761605843225,-0.068275161087513));
#830=CARTESIAN_POINT('',(0.0917304665198573,-0.0105388984764308,-0.0561154757009208));
#831=CARTESIAN_POINT('',(0.0969245256924389,-0.0108274807719507,-0.0616219539273949));
#832=CARTESIAN_POINT('',(0.0969245256924389,-0.00783159216768697,-0.0617789617961237));
#833=CARTESIAN_POINT('',(0.0969245256924389,-0.00783159216768697,-0.0617789617961237));
#834=CARTESIAN_POINT('',(0.08432786911726,-0.00818027198005879,-0.0684321689562418));
#835=CARTESIAN_POINT('',(0.0917304665198573,-0.00754300987216704,-0.0562724835696496));
#836=CARTESIAN_POINT('',(0.0917304665198573,-0.00754300987216704,-0.0562724835696496));
#837=CARTESIAN_POINT('',(0.10000494848385,-0.00797092815508701,-0.0644376508172235));
#838=CARTESIAN_POINT('',(0.10000494848385,-0.00797092815508701,-0.0644376508172235));
#839=CARTESIAN_POINT('',(0.10200494848385,-0.00797092815508701,-0.0644376508172235));
#840=CARTESIAN_POINT('',(0.101344405192502,-0.00797092815508701,-0.0644376508172235));
#841=CARTESIAN_POINT('',(0.101344405192502,-0.00797092815508701,-0.0644376508172235));
#842=CARTESIAN_POINT('',(0.101344405192502,-0.0109668167593507,-0.0642806429484947));
#843=CARTESIAN_POINT('',(0.10000494848385,-0.0109668167593507,-0.0642806429484947));
#844=CARTESIAN_POINT('',(0.10200494848385,-0.0109668167593507,-0.0642806429484947));
#845=CARTESIAN_POINT('',(0.10200494848385,-0.00797092815508701,-0.0644376508172235));
#846=CARTESIAN_POINT('',(0.10400494848385,-0.00797092815508701,-0.0644376508172235));
#847=CARTESIAN_POINT('',(0.10400494848385,-0.0109668167593507,-0.0642806429484947));
#848=CARTESIAN_POINT('',(0.10600494848385,-0.0109668167593507,-0.0642806429484947));
#849=CARTESIAN_POINT('',(0.10600494848385,-0.00797092815508701,-0.0644376508172235));
#850=CARTESIAN_POINT('',(0.10600494848385,-0.00797092815508701,-0.0644376508172235));
#851=CARTESIAN_POINT('',(0.10400494848385,-0.00797092815508701,-0.0644376508172235));
#852=CARTESIAN_POINT('',(0.10700494848385,-0.00797092815508701,-0.0644376508172235));
#853=CARTESIAN_POINT('',(0.10700494848385,-0.0109668167593507,-0.0642806429484947));
#854=CARTESIAN_POINT('',(0.10800494848385,-0.0109668167593507,-0.0642806429484947));
#855=CARTESIAN_POINT('',(0.10800494848385,-0.00797092815508701,-0.0644376508172235));
#856=CARTESIAN_POINT('',(0.10800494848385,-0.00797092815508701,-0.0644376508172235));
#857=CARTESIAN_POINT('',(0.10700494848385,-0.00797092815508701,-0.0644376508172235));
#858=CARTESIAN_POINT('',(0.10800494848385,-0.0080756000675729,-0.0664349098867327));
#859=CARTESIAN_POINT('',(0.10800494848385,-0.0110714886718366,-0.0662779020180039));
#860=CARTESIAN_POINT('',(0.11000494848385,-0.0110714886718366,-0.0662779020180039));
#861=CARTESIAN_POINT('',(0.11000494848385,-0.0080756000675729,-0.0664349098867327));
#862=CARTESIAN_POINT('',(0.11000494848385,-0.0080756000675729,-0.0664349098867327));
#863=CARTESIAN_POINT('',(0.10800494848385,-0.0080756000675729,-0.0664349098867327));
#864=CARTESIAN_POINT('',(0.11000494848385,-0.00818027198005879,-0.0684321689562418));
#865=CARTESIAN_POINT('',(0.11000494848385,-0.0111761605843225,-0.068275161087513));
#866=CARTESIAN_POINT('',(0.11000494848385,-0.0112808324968084,-0.0702724201570221));
#867=CARTESIAN_POINT('',(0.11000494848385,-0.00828494389254467,-0.070429428025751));
#868=CARTESIAN_POINT('',(0.11000494848385,-0.00828494389254467,-0.070429428025751));
#869=CARTESIAN_POINT('',(0.11000494848385,-0.00818027198005879,-0.0684321689562418));
#870=CARTESIAN_POINT('',(0.10800494848385,-0.00828494389254467,-0.070429428025751));
#871=CARTESIAN_POINT('',(0.10800494848385,-0.0112808324968084,-0.0702724201570221));
#872=CARTESIAN_POINT('',(0.10800494848385,-0.0113855044092943,-0.0722696792265313));
#873=CARTESIAN_POINT('',(0.10800494848385,-0.00838961580503056,-0.0724266870952601));
#874=CARTESIAN_POINT('',(0.10800494848385,-0.00838961580503056,-0.0724266870952601));
#875=CARTESIAN_POINT('',(0.10800494848385,-0.00828494389254467,-0.070429428025751));
#876=CARTESIAN_POINT('',(0.10700494848385,-0.00838961580503056,-0.0724266870952601));
#877=CARTESIAN_POINT('',(0.10700494848385,-0.0113855044092943,-0.0722696792265313));
#878=CARTESIAN_POINT('',(0.10600494848385,-0.0113855044092943,-0.0722696792265313));
#879=CARTESIAN_POINT('',(0.10600494848385,-0.00838961580503056,-0.0724266870952601));
#880=CARTESIAN_POINT('',(0.10600494848385,-0.00838961580503056,-0.0724266870952601));
#881=CARTESIAN_POINT('',(0.10700494848385,-0.00838961580503056,-0.0724266870952601));
#882=CARTESIAN_POINT('',(0.10400494848385,-0.00838961580503056,-0.0724266870952601));
#883=CARTESIAN_POINT('',(0.10400494848385,-0.0113855044092943,-0.0722696792265313));
#884=CARTESIAN_POINT('',(0.10200494848385,-0.0113855044092943,-0.0722696792265313));
#885=CARTESIAN_POINT('',(0.10200494848385,-0.00838961580503056,-0.0724266870952601));
#886=CARTESIAN_POINT('',(0.10200494848385,-0.00838961580503056,-0.0724266870952601));
#887=CARTESIAN_POINT('',(0.10400494848385,-0.00838961580503056,-0.0724266870952601));
#888=CARTESIAN_POINT('',(0.10000494848385,-0.00838961580503056,-0.0724266870952601));
#889=CARTESIAN_POINT('',(0.10000494848385,-0.0113855044092943,-0.0722696792265313));
#890=CARTESIAN_POINT('',(0.101344405192502,-0.0113855044092943,-0.0722696792265313));
#891=CARTESIAN_POINT('',(0.101344405192502,-0.00838961580503056,-0.0724266870952601));
#892=CARTESIAN_POINT('',(0.101344405192502,-0.00838961580503056,-0.0724266870952601));
#893=CARTESIAN_POINT('',(0.10000494848385,-0.00838961580503056,-0.0724266870952601));
#894=CARTESIAN_POINT('',(0.08432786911726,-0.00818027198005879,-0.0684321689562418));
#895=CARTESIAN_POINT('',(0.08432786911726,-0.00818027198005879,-0.0684321689562418));
#896=CARTESIAN_POINT('',(0.0969245256924389,-0.00852895179243061,-0.0750853761163599));
#897=CARTESIAN_POINT('',(0.0917304665198573,-0.00881753408795053,-0.080591854342834));
#898=CARTESIAN_POINT('',(0.0969245256924389,-0.00852895179243061,-0.0750853761163599));
#899=CARTESIAN_POINT('',(0.0969245256924389,-0.0115248403966943,-0.0749283682476311));
#900=CARTESIAN_POINT('',(0.08432786911726,-0.0111761605843225,-0.068275161087513));
#901=CARTESIAN_POINT('',(0.0917304665198573,-0.0118134226922142,-0.0804348464741052));
#902=CARTESIAN_POINT('',(0.0917304665198573,-0.00881753408795053,-0.080591854342834));
#903=CARTESIAN_POINT('',(0.0893278691172599,-0.00905281720334553,-0.0850813236280005));
#904=CARTESIAN_POINT('',(0.0893278691172599,-0.00905281720334553,-0.0850813236280005));
#905=CARTESIAN_POINT('',(0.0893278691172599,-0.00904113482756167,-0.0848584106188313));
#906=CARTESIAN_POINT('',(0.08932786911726,-0.00922699110491766,-0.0884047596513333));
#907=CARTESIAN_POINT('',(0.0893278691172599,-0.0120370234318254,-0.0847014027501025));
#908=CARTESIAN_POINT('',(0.0893278691172599,-0.0120370234318254,-0.0847014027501025));
#909=CARTESIAN_POINT('',(0.0893278691172599,-0.0120487058076092,-0.0849243157592717));
#910=CARTESIAN_POINT('',(0.08932786911726,-0.0122228797091814,-0.0882477517826045));
#911=CARTESIAN_POINT('',(0.08932786911726,-0.00922699110491766,-0.0884047596513333));
#912=CARTESIAN_POINT('',(0.08432786911726,-0.00922699110491766,-0.0884047596513333));
#913=CARTESIAN_POINT('',(0.08432786911726,-0.0122228797091814,-0.0882477517826045));
#914=CARTESIAN_POINT('',(0.07932786911726,-0.0122228797091814,-0.0882477517826045));
#915=CARTESIAN_POINT('',(0.07932786911726,-0.00922699110491766,-0.0884047596513333));
#916=CARTESIAN_POINT('',(0.07932786911726,-0.00922699110491766,-0.0884047596513333));
#917=CARTESIAN_POINT('',(0.08432786911726,-0.00922699110491766,-0.0884047596513333));
#918=CARTESIAN_POINT('',(0.07932786911726,-0.00905281720334553,-0.0850813236280005));
#919=CARTESIAN_POINT('',(0.07932786911726,-0.0120487058076092,-0.0849243157592717));
#920=CARTESIAN_POINT('',(0.07932786911726,-0.0120370234318254,-0.0847014027501024));
#921=CARTESIAN_POINT('',(0.07932786911726,-0.00904113482756167,-0.0848584106188313));
#922=CARTESIAN_POINT('',(0.07932786911726,-0.00904113482756167,-0.0848584106188313));
#923=CARTESIAN_POINT('',(0.07932786911726,-0.00905281720334553,-0.0850813236280005));
#924=CARTESIAN_POINT('',(0.08432786911726,-0.00922699110491766,-0.0884047596513333));
#925=CARTESIAN_POINT('',(0.08432786911726,-0.00922699110491766,-0.0884047596513333));
#926=CARTESIAN_POINT('',(0.08432786911726,-0.0091458703727411,-0.0868568838724637));
#927=CARTESIAN_POINT('',(0.08432786911726,-0.0122228797091814,-0.0882477517826045));
#928=CARTESIAN_POINT('',(0.08432786911726,-0.0121417589770048,-0.0866998760037349));
#929=CARTESIAN_POINT('',(0.0843278691172599,-0.00713355285519991,-0.0484595782611503));
#930=CARTESIAN_POINT('',(0.0843278691172599,-0.00713355285519991,-0.0484595782611503));
#931=CARTESIAN_POINT('',(0.0843278691172599,-0.00705243212302335,-0.0469117024822807));
#932=CARTESIAN_POINT('',(0.0843278691172599,-0.0101294414594636,-0.0483025703924215));
#933=CARTESIAN_POINT('',(0.0843278691172599,-0.0100483207272871,-0.0467546946135519));
#934=CARTESIAN_POINT('',(0.08432786911726,-0.00818027198005879,-0.0684321689562418));
#935=CARTESIAN_POINT('',(0.08432786911726,-0.00818027198005879,-0.0684321689562418));
#936=CARTESIAN_POINT('',(0.0769252717146626,-0.00881753408795053,-0.080591854342834));
#937=CARTESIAN_POINT('',(0.0769252717146626,-0.00754300987216704,-0.0562724835696496));
#938=CARTESIAN_POINT('',(0.0769252717146626,-0.00881753408795053,-0.080591854342834));
#939=CARTESIAN_POINT('',(0.0769252717146626,-0.0118134226922142,-0.0804348464741052));
#940=CARTESIAN_POINT('',(0.08432786911726,-0.0111761605843225,-0.068275161087513));
#941=CARTESIAN_POINT('',(0.0769252717146626,-0.0105388984764308,-0.0561154757009208));
#942=CARTESIAN_POINT('',(0.0769252717146626,-0.00754300987216704,-0.0562724835696496));
#943=CARTESIAN_POINT('',(0.08432786911726,-0.00818027198005879,-0.0684321689562418));
#944=CARTESIAN_POINT('',(0.08432786911726,-0.00818027198005879,-0.0684321689562418));
#945=CARTESIAN_POINT('',(0.08432786911726,-0.00759149247232567,-0.0571975866902528));
#946=CARTESIAN_POINT('',(0.08432786911726,-0.0111761605843225,-0.068275161087513));
#947=CARTESIAN_POINT('',(0.08432786911726,-0.0105873810765894,-0.057040578821524));
#948=CARTESIAN_POINT('',(0.067002474241925,-0.00794467044141856,-0.0639366237936086));
#949=CARTESIAN_POINT('',(0.0943278691172599,-0.0073194091325559,-0.0520059272936523));
#950=CARTESIAN_POINT('',(0.101344405192502,-0.00770924837387229,-0.0594445031434507));
#951=CARTESIAN_POINT('',(0.101344405192502,-0.00865129558624528,-0.077419834769033));
#952=CARTESIAN_POINT('',(0.0943278691172599,-0.00904113482756167,-0.0848584106188313));
#953=CARTESIAN_POINT('',(0.07432786911726,-0.00904113482756167,-0.0848584106188313));
#954=CARTESIAN_POINT('',(0.07432786911726,-0.0073194091325559,-0.0520059272936524));
#955=CARTESIAN_POINT('',(0.067002474241925,-0.0109405590456823,-0.0637796159248797));
#956=CARTESIAN_POINT('',(0.07432786911726,-0.0103152977368196,-0.0518489194249235));
#957=CARTESIAN_POINT('',(0.07432786911726,-0.0120370234318254,-0.0847014027501024));
#958=CARTESIAN_POINT('',(0.0943278691172599,-0.0120370234318254,-0.0847014027501025));
#959=CARTESIAN_POINT('',(0.101344405192502,-0.011647184190509,-0.0772628269003042));
#960=CARTESIAN_POINT('',(0.101344405192502,-0.010705136978136,-0.0592874952747218));
#961=CARTESIAN_POINT('',(0.0943278691172599,-0.0103152977368196,-0.0518489194249235));
#962=CARTESIAN_POINT('',(0.101344405192502,-0.00770924837387229,-0.0594445031434507));
#963=CARTESIAN_POINT('',(0.101344405192502,-0.00865129558624528,-0.077419834769033));
#964=CARTESIAN_POINT('',(0.0943278691172599,-0.00904113482756167,-0.0848584106188313));
#965=CARTESIAN_POINT('',(0.07432786911726,-0.00904113482756167,-0.0848584106188313));
#966=CARTESIAN_POINT('',(0.07432786911726,-0.0073194091325559,-0.0520059272936524));
#967=CARTESIAN_POINT('',(0.0943278691172599,-0.0073194091325559,-0.0520059272936523));
#968=MECHANICAL_DESIGN_GEOMETRIC_PRESENTATION_REPRESENTATION('',(#555),
#969);
#969=(
GEOMETRIC_REPRESENTATION_CONTEXT(3)
GLOBAL_UNCERTAINTY_ASSIGNED_CONTEXT((#970))
GLOBAL_UNIT_ASSIGNED_CONTEXT((#973,#972,#971))
REPRESENTATION_CONTEXT('Speaker Bracket Small',
'TOP_LEVEL_ASSEMBLY_PART')
);
#970=UNCERTAINTY_MEASURE_WITH_UNIT(LENGTH_MEASURE(1.E-8),#973,
'DISTANCE_ACCURACY_VALUE','Maximum Tolerance applied to model');
#971=(
NAMED_UNIT(*)
SI_UNIT($,.STERADIAN.)
SOLID_ANGLE_UNIT()
);
#972=(
NAMED_UNIT(*)
PLANE_ANGLE_UNIT()
SI_UNIT($,.RADIAN.)
);
#973=(
LENGTH_UNIT()
NAMED_UNIT(*)
SI_UNIT($,.METRE.)
);
#974=PRODUCT_DEFINITION_SHAPE('','',#975);
#975=PRODUCT_DEFINITION('','',#977,#976);
#976=PRODUCT_DEFINITION_CONTEXT('',#983,'design');
#977=PRODUCT_DEFINITION_FORMATION_WITH_SPECIFIED_SOURCE('','',#979,
 .NOT_KNOWN.);
#978=PRODUCT_RELATED_PRODUCT_CATEGORY('','',(#979));
#979=PRODUCT('Speaker Bracket Small','Speaker Bracket Small',
'Speaker Bracket Small',(#981));
#980=PRODUCT_CATEGORY('','');
#981=PRODUCT_CONTEXT('',#983,'mechanical');
#982=APPLICATION_PROTOCOL_DEFINITION('international standard',
'ap242_managed_model_based_3d_engineering',2020,#983);
#983=APPLICATION_CONTEXT('managed model based 3d engineering');
ENDSEC;
END-ISO-10303-21;
