ISO-10303-21;
HEADER;
/* Generated by software containing ST-Developer
 * from STEP Tools, Inc. (www.steptools.com) 
 */
/* OPTION: using custom renumber hook */

FILE_DESCRIPTION(
/* description */ ('STEP AP242 Edition 2',
'CAx-IF Rec.Pracs.---Representation and Presentation of Product Manufa
cturing Information (PMI)---4.0---2014-10-13',
'CAx-IF Rec.Pracs.---3D Tessellated Geometry---0.4---2014-09-14','2;1',
'CAx-IF Rec.Pracs.---User Defined Attributes---1.5---2016-08-15'),
/* implementation_level */ '2;1');

FILE_NAME(
/* name */ 'Swivel Base - Curve Washer',
/* time_stamp */ '2026-07-13T15:44:13Z',
/* author */ (''),
/* organization */ (''),
/* preprocessor_version */ 'ST-DEVELOPER v20',
/* originating_system */ 'ONSHAPE BY PTC INC, 1.217',
/* authorisation */ '  ');

FILE_SCHEMA (('AP242_MANAGED_MODEL_BASED_3D_ENGINEERING_MIM_LF { 1 0 10303 442 3 1 4 }'));
ENDSEC;

DATA;
#10=SHAPE_REPRESENTATION_RELATIONSHIP('','',#219,#11);
#11=ADVANCED_BREP_SHAPE_REPRESENTATION('',(#217),#437);
#12=(
BOUNDED_SURFACE()
B_SPLINE_SURFACE(3,2,((#388,#389,#390),(#391,#392,#393),(#394,#395,#396),
(#397,#398,#399)),.UNSPECIFIED.,.F.,.F.,.F.)
B_SPLINE_SURFACE_WITH_KNOTS((4,4),(3,3),(0.0308962967657136,0.0327923180456415),
(0.,1.),.PIECEWISE_BEZIER_KNOTS.)
GEOMETRIC_REPRESENTATION_ITEM()
RATIONAL_B_SPLINE_SURFACE(((1.,0.886294654690958,1.),(1.,0.887720603545734,
1.),(1.,0.889179703644292,1.),(1.,0.890673818847674,1.)))
REPRESENTATION_ITEM('')
SURFACE()
);
#13=(
BOUNDED_SURFACE()
B_SPLINE_SURFACE(3,2,((#400,#401,#402),(#403,#404,#405),(#406,#407,#408),
(#409,#410,#411)),.UNSPECIFIED.,.F.,.F.,.F.)
B_SPLINE_SURFACE_WITH_KNOTS((4,4),(3,3),(0.0308962967657136,0.0327923180456415),
(0.,1.),.PIECEWISE_BEZIER_KNOTS.)
GEOMETRIC_REPRESENTATION_ITEM()
RATIONAL_B_SPLINE_SURFACE(((1.,0.886294654690958,1.),(1.,0.887720603545734,
1.),(1.,0.889179703644292,1.),(1.,0.890673818847674,1.)))
REPRESENTATION_ITEM('')
SURFACE()
);
#14=(
BOUNDED_SURFACE()
B_SPLINE_SURFACE(3,2,((#412,#413,#414),(#415,#416,#417),(#418,#419,#420),
(#421,#422,#423)),.UNSPECIFIED.,.F.,.F.,.F.)
B_SPLINE_SURFACE_WITH_KNOTS((4,4),(3,3),(0.0308962967657138,0.0327923180456417),
(0.,1.),.PIECEWISE_BEZIER_KNOTS.)
GEOMETRIC_REPRESENTATION_ITEM()
RATIONAL_B_SPLINE_SURFACE(((1.,0.886294654690958,1.),(1.,0.887720603545735,
1.),(1.,0.889179703644363,1.),(1.,0.890673818847674,1.)))
REPRESENTATION_ITEM('')
SURFACE()
);
#15=(
BOUNDED_SURFACE()
B_SPLINE_SURFACE(3,2,((#424,#425,#426),(#427,#428,#429),(#430,#431,#432),
(#433,#434,#435)),.UNSPECIFIED.,.F.,.F.,.F.)
B_SPLINE_SURFACE_WITH_KNOTS((4,4),(3,3),(0.0308962967657138,0.0327923180456417),
(0.,1.),.PIECEWISE_BEZIER_KNOTS.)
GEOMETRIC_REPRESENTATION_ITEM()
RATIONAL_B_SPLINE_SURFACE(((1.,0.886294654690958,1.),(1.,0.887720603545735,
1.),(1.,0.889179703644363,1.),(1.,0.890673818847674,1.)))
REPRESENTATION_ITEM('')
SURFACE()
);
#16=CONICAL_SURFACE('',#238,0.022429490375364,0.304359349077291);
#17=CONICAL_SURFACE('',#239,0.022429490375364,0.304359349077301);
#18=SPHERICAL_SURFACE('',#228,0.0413);
#19=B_SPLINE_CURVE_WITH_KNOTS('',3,(#294,#295,#296,#297),.UNSPECIFIED.,
 .F.,.F.,(4,4),(0.,0.00199848226546494),.UNSPECIFIED.);
#20=B_SPLINE_CURVE_WITH_KNOTS('',3,(#301,#302,#303,#304),.UNSPECIFIED.,
 .F.,.F.,(4,4),(0.,0.00199812688780893),.UNSPECIFIED.);
#21=B_SPLINE_CURVE_WITH_KNOTS('',3,(#308,#309,#310,#311),.UNSPECIFIED.,
 .F.,.F.,(4,4),(0.,0.00199848226546494),.UNSPECIFIED.);
#22=B_SPLINE_CURVE_WITH_KNOTS('',3,(#315,#316,#317,#318),.UNSPECIFIED.,
 .F.,.F.,(4,4),(0.,0.00199812688780894),.UNSPECIFIED.);
#23=B_SPLINE_CURVE_WITH_KNOTS('',3,(#323,#324,#325,#326),.UNSPECIFIED.,
 .F.,.F.,(4,4),(0.,0.00193020624964198),.UNSPECIFIED.);
#24=B_SPLINE_CURVE_WITH_KNOTS('',3,(#330,#331,#332,#333),.UNSPECIFIED.,
 .F.,.F.,(4,4),(0.,0.00193022852173659),.UNSPECIFIED.);
#25=B_SPLINE_CURVE_WITH_KNOTS('',3,(#337,#338,#339,#340),.UNSPECIFIED.,
 .F.,.F.,(4,4),(0.,0.00193020624964198),.UNSPECIFIED.);
#26=B_SPLINE_CURVE_WITH_KNOTS('',3,(#344,#345,#346,#347),.UNSPECIFIED.,
 .F.,.F.,(4,4),(1.90029435765254E-17,0.00193022852173656),.UNSPECIFIED.);
#27=B_SPLINE_CURVE_WITH_KNOTS('',3,(#349,#350,#351,#352),.UNSPECIFIED.,
 .F.,.F.,(4,4),(0.,0.00171472551857356),.UNSPECIFIED.);
#28=B_SPLINE_CURVE_WITH_KNOTS('',3,(#353,#354,#355,#356),.UNSPECIFIED.,
 .F.,.F.,(4,4),(0.,0.00171472657075263),.UNSPECIFIED.);
#29=B_SPLINE_CURVE_WITH_KNOTS('',3,(#358,#359,#360,#361),.UNSPECIFIED.,
 .F.,.F.,(4,4),(0.,0.00171472657075265),.UNSPECIFIED.);
#30=B_SPLINE_CURVE_WITH_KNOTS('',3,(#362,#363,#364,#365),.UNSPECIFIED.,
 .F.,.F.,(4,4),(0.,0.00171472551857351),.UNSPECIFIED.);
#31=B_SPLINE_CURVE_WITH_KNOTS('',3,(#371,#372,#373,#374),.UNSPECIFIED.,
 .F.,.F.,(4,4),(0.,0.0012350323609259),.UNSPECIFIED.);
#32=B_SPLINE_CURVE_WITH_KNOTS('',3,(#375,#376,#377,#378),.UNSPECIFIED.,
 .F.,.F.,(4,4),(0.,0.00123503334972576),.UNSPECIFIED.);
#33=B_SPLINE_CURVE_WITH_KNOTS('',3,(#380,#381,#382,#383),.UNSPECIFIED.,
 .F.,.F.,(4,4),(0.,0.00123503334972578),.UNSPECIFIED.);
#34=B_SPLINE_CURVE_WITH_KNOTS('',3,(#384,#385,#386,#387),.UNSPECIFIED.,
 .F.,.F.,(4,4),(0.,0.00123503236092592),.UNSPECIFIED.);
#35=LINE('',#291,#37);
#36=LINE('',#306,#38);
#37=VECTOR('',#252,1.);
#38=VECTOR('',#255,1.);
#39=PLANE('',#224);
#40=PLANE('',#233);
#41=PLANE('',#234);
#42=PLANE('',#237);
#43=ORIENTED_EDGE('',*,*,#99,.T.);
#44=ORIENTED_EDGE('',*,*,#100,.T.);
#45=ORIENTED_EDGE('',*,*,#101,.F.);
#46=ORIENTED_EDGE('',*,*,#102,.F.);
#47=ORIENTED_EDGE('',*,*,#103,.T.);
#48=ORIENTED_EDGE('',*,*,#104,.T.);
#49=ORIENTED_EDGE('',*,*,#105,.T.);
#50=ORIENTED_EDGE('',*,*,#106,.T.);
#51=ORIENTED_EDGE('',*,*,#107,.T.);
#52=ORIENTED_EDGE('',*,*,#108,.T.);
#53=ORIENTED_EDGE('',*,*,#109,.T.);
#54=ORIENTED_EDGE('',*,*,#99,.F.);
#55=ORIENTED_EDGE('',*,*,#110,.T.);
#56=ORIENTED_EDGE('',*,*,#111,.T.);
#57=ORIENTED_EDGE('',*,*,#112,.F.);
#58=ORIENTED_EDGE('',*,*,#113,.T.);
#59=ORIENTED_EDGE('',*,*,#114,.T.);
#60=ORIENTED_EDGE('',*,*,#115,.T.);
#61=ORIENTED_EDGE('',*,*,#116,.T.);
#62=ORIENTED_EDGE('',*,*,#117,.T.);
#63=ORIENTED_EDGE('',*,*,#106,.F.);
#64=ORIENTED_EDGE('',*,*,#118,.T.);
#65=ORIENTED_EDGE('',*,*,#116,.F.);
#66=ORIENTED_EDGE('',*,*,#119,.T.);
#67=ORIENTED_EDGE('',*,*,#112,.T.);
#68=ORIENTED_EDGE('',*,*,#120,.T.);
#69=ORIENTED_EDGE('',*,*,#102,.T.);
#70=ORIENTED_EDGE('',*,*,#121,.T.);
#71=ORIENTED_EDGE('',*,*,#122,.F.);
#72=ORIENTED_EDGE('',*,*,#101,.T.);
#73=ORIENTED_EDGE('',*,*,#100,.F.);
#74=ORIENTED_EDGE('',*,*,#122,.T.);
#75=ORIENTED_EDGE('',*,*,#114,.F.);
#76=ORIENTED_EDGE('',*,*,#123,.T.);
#77=ORIENTED_EDGE('',*,*,#108,.F.);
#78=ORIENTED_EDGE('',*,*,#124,.T.);
#79=ORIENTED_EDGE('',*,*,#104,.F.);
#80=ORIENTED_EDGE('',*,*,#125,.T.);
#81=ORIENTED_EDGE('',*,*,#110,.F.);
#82=ORIENTED_EDGE('',*,*,#126,.T.);
#83=ORIENTED_EDGE('',*,*,#111,.F.);
#84=ORIENTED_EDGE('',*,*,#125,.F.);
#85=ORIENTED_EDGE('',*,*,#103,.F.);
#86=ORIENTED_EDGE('',*,*,#120,.F.);
#87=ORIENTED_EDGE('',*,*,#105,.F.);
#88=ORIENTED_EDGE('',*,*,#126,.F.);
#89=ORIENTED_EDGE('',*,*,#117,.F.);
#90=ORIENTED_EDGE('',*,*,#118,.F.);
#91=ORIENTED_EDGE('',*,*,#109,.F.);
#92=ORIENTED_EDGE('',*,*,#123,.F.);
#93=ORIENTED_EDGE('',*,*,#113,.F.);
#94=ORIENTED_EDGE('',*,*,#121,.F.);
#95=ORIENTED_EDGE('',*,*,#115,.F.);
#96=ORIENTED_EDGE('',*,*,#124,.F.);
#97=ORIENTED_EDGE('',*,*,#107,.F.);
#98=ORIENTED_EDGE('',*,*,#119,.F.);
#99=EDGE_CURVE('',#127,#127,#147,.F.);
#100=EDGE_CURVE('',#128,#128,#148,.T.);
#101=EDGE_CURVE('',#129,#129,#149,.T.);
#102=EDGE_CURVE('',#130,#131,#35,.T.);
#103=EDGE_CURVE('',#130,#132,#19,.T.);
#104=EDGE_CURVE('',#132,#133,#150,.T.);
#105=EDGE_CURVE('',#133,#134,#20,.T.);
#106=EDGE_CURVE('',#134,#135,#36,.T.);
#107=EDGE_CURVE('',#135,#136,#21,.T.);
#108=EDGE_CURVE('',#136,#137,#151,.T.);
#109=EDGE_CURVE('',#137,#131,#22,.T.);
#110=EDGE_CURVE('',#138,#139,#152,.F.);
#111=EDGE_CURVE('',#139,#140,#23,.T.);
#112=EDGE_CURVE('',#141,#140,#153,.F.);
#113=EDGE_CURVE('',#141,#142,#24,.T.);
#114=EDGE_CURVE('',#142,#143,#154,.F.);
#115=EDGE_CURVE('',#143,#144,#25,.T.);
#116=EDGE_CURVE('',#144,#145,#155,.F.);
#117=EDGE_CURVE('',#145,#138,#26,.T.);
#118=EDGE_CURVE('',#134,#145,#27,.T.);
#119=EDGE_CURVE('',#144,#135,#28,.T.);
#120=EDGE_CURVE('',#140,#130,#29,.T.);
#121=EDGE_CURVE('',#131,#141,#30,.T.);
#122=EDGE_CURVE('',#146,#146,#156,.T.);
#123=EDGE_CURVE('',#142,#137,#31,.T.);
#124=EDGE_CURVE('',#136,#143,#32,.T.);
#125=EDGE_CURVE('',#132,#139,#33,.T.);
#126=EDGE_CURVE('',#138,#133,#34,.T.);
#127=VERTEX_POINT('',#285);
#128=VERTEX_POINT('',#287);
#129=VERTEX_POINT('',#290);
#130=VERTEX_POINT('',#292);
#131=VERTEX_POINT('',#293);
#132=VERTEX_POINT('',#298);
#133=VERTEX_POINT('',#300);
#134=VERTEX_POINT('',#305);
#135=VERTEX_POINT('',#307);
#136=VERTEX_POINT('',#312);
#137=VERTEX_POINT('',#314);
#138=VERTEX_POINT('',#321);
#139=VERTEX_POINT('',#322);
#140=VERTEX_POINT('',#327);
#141=VERTEX_POINT('',#329);
#142=VERTEX_POINT('',#334);
#143=VERTEX_POINT('',#336);
#144=VERTEX_POINT('',#341);
#145=VERTEX_POINT('',#343);
#146=VERTEX_POINT('',#368);
#147=CIRCLE('',#222,0.0031);
#148=CIRCLE('',#223,0.0031);
#149=CIRCLE('',#225,0.0075);
#150=CIRCLE('',#226,0.022429490375364);
#151=CIRCLE('',#227,0.022429490375364);
#152=CIRCLE('',#229,0.0227887276534512);
#153=CIRCLE('',#230,0.0386709193063728);
#154=CIRCLE('',#231,0.0227887276534512);
#155=CIRCLE('',#232,0.0386709193063728);
#156=CIRCLE('',#236,0.0075);
#157=EDGE_LOOP('',(#43));
#158=EDGE_LOOP('',(#44));
#159=EDGE_LOOP('',(#45));
#160=EDGE_LOOP('',(#46,#47,#48,#49,#50,#51,#52,#53));
#161=EDGE_LOOP('',(#54));
#162=EDGE_LOOP('',(#55,#56,#57,#58,#59,#60,#61,#62));
#163=EDGE_LOOP('',(#63,#64,#65,#66));
#164=EDGE_LOOP('',(#67,#68,#69,#70));
#165=EDGE_LOOP('',(#71));
#166=EDGE_LOOP('',(#72));
#167=EDGE_LOOP('',(#73));
#168=EDGE_LOOP('',(#74));
#169=EDGE_LOOP('',(#75,#76,#77,#78));
#170=EDGE_LOOP('',(#79,#80,#81,#82));
#171=EDGE_LOOP('',(#83,#84,#85,#86));
#172=EDGE_LOOP('',(#87,#88,#89,#90));
#173=EDGE_LOOP('',(#91,#92,#93,#94));
#174=EDGE_LOOP('',(#95,#96,#97,#98));
#175=FACE_BOUND('',#157,.T.);
#176=FACE_BOUND('',#158,.T.);
#177=FACE_BOUND('',#159,.T.);
#178=FACE_BOUND('',#160,.T.);
#179=FACE_BOUND('',#161,.T.);
#180=FACE_BOUND('',#162,.T.);
#181=FACE_BOUND('',#163,.T.);
#182=FACE_BOUND('',#164,.T.);
#183=FACE_BOUND('',#165,.T.);
#184=FACE_BOUND('',#166,.T.);
#185=FACE_BOUND('',#167,.T.);
#186=FACE_BOUND('',#168,.T.);
#187=FACE_BOUND('',#169,.T.);
#188=FACE_BOUND('',#170,.T.);
#189=FACE_BOUND('',#171,.T.);
#190=FACE_BOUND('',#172,.T.);
#191=FACE_BOUND('',#173,.T.);
#192=FACE_BOUND('',#174,.T.);
#193=CYLINDRICAL_SURFACE('',#221,0.0031);
#194=CYLINDRICAL_SURFACE('',#235,0.0075);
#195=ADVANCED_FACE('',(#175,#176),#193,.F.);
#196=ADVANCED_FACE('',(#177,#178),#39,.T.);
#197=ADVANCED_FACE('',(#179,#180),#18,.T.);
#198=ADVANCED_FACE('',(#181),#40,.T.);
#199=ADVANCED_FACE('',(#182),#41,.F.);
#200=ADVANCED_FACE('',(#183,#184),#194,.F.);
#201=ADVANCED_FACE('',(#185,#186),#42,.T.);
#202=ADVANCED_FACE('',(#187),#16,.T.);
#203=ADVANCED_FACE('',(#188),#17,.T.);
#204=ADVANCED_FACE('',(#189),#12,.T.);
#205=ADVANCED_FACE('',(#190),#13,.T.);
#206=ADVANCED_FACE('',(#191),#14,.T.);
#207=ADVANCED_FACE('',(#192),#15,.T.);
#208=CLOSED_SHELL('',(#195,#196,#197,#198,#199,#200,#201,#202,#203,#204,
#205,#206,#207));
#209=STYLED_ITEM('',(#210),#217);
#210=PRESENTATION_STYLE_ASSIGNMENT((#211));
#211=SURFACE_STYLE_USAGE(.BOTH.,#212);
#212=SURFACE_SIDE_STYLE('',(#213));
#213=SURFACE_STYLE_FILL_AREA(#214);
#214=FILL_AREA_STYLE('',(#215));
#215=FILL_AREA_STYLE_COLOUR('',#216);
#216=COLOUR_RGB('',0.231372549019608,0.380392156862745,0.705882352941177);
#217=MANIFOLD_SOLID_BREP('Curve Washer',#208);
#218=SHAPE_DEFINITION_REPRESENTATION(#442,#219);
#219=SHAPE_REPRESENTATION('Curve Washer',(#220),#437);
#220=AXIS2_PLACEMENT_3D('',#282,#240,#241);
#221=AXIS2_PLACEMENT_3D('',#283,#242,#243);
#222=AXIS2_PLACEMENT_3D('',#284,#244,#245);
#223=AXIS2_PLACEMENT_3D('',#286,#246,#247);
#224=AXIS2_PLACEMENT_3D('',#288,#248,#249);
#225=AXIS2_PLACEMENT_3D('',#289,#250,#251);
#226=AXIS2_PLACEMENT_3D('',#299,#253,#254);
#227=AXIS2_PLACEMENT_3D('',#313,#256,#257);
#228=AXIS2_PLACEMENT_3D('',#319,#258,#259);
#229=AXIS2_PLACEMENT_3D('',#320,#260,#261);
#230=AXIS2_PLACEMENT_3D('',#328,#262,#263);
#231=AXIS2_PLACEMENT_3D('',#335,#264,#265);
#232=AXIS2_PLACEMENT_3D('',#342,#266,#267);
#233=AXIS2_PLACEMENT_3D('',#348,#268,#269);
#234=AXIS2_PLACEMENT_3D('',#357,#270,#271);
#235=AXIS2_PLACEMENT_3D('',#366,#272,#273);
#236=AXIS2_PLACEMENT_3D('',#367,#274,#275);
#237=AXIS2_PLACEMENT_3D('',#369,#276,#277);
#238=AXIS2_PLACEMENT_3D('',#370,#278,#279);
#239=AXIS2_PLACEMENT_3D('',#379,#280,#281);
#240=DIRECTION('',(0.,0.,1.));
#241=DIRECTION('',(1.,0.,0.));
#242=DIRECTION('',(0.,-1.22464679914735E-16,1.));
#243=DIRECTION('',(0.,-1.,-1.22464679914735E-16));
#244=DIRECTION('',(0.,-1.22464679914735E-16,1.));
#245=DIRECTION('',(0.,-1.,-1.22464679914735E-16));
#246=DIRECTION('',(0.,-1.22464679914735E-16,1.));
#247=DIRECTION('',(0.,-1.,-1.22464679914735E-16));
#248=DIRECTION('',(0.,-1.22464679914735E-16,1.));
#249=DIRECTION('',(0.,-1.,-1.22464679914735E-16));
#250=DIRECTION('',(0.,-1.22464679914735E-16,1.));
#251=DIRECTION('',(0.,-1.,-1.22464679914735E-16));
#252=DIRECTION('',(0.,-1.,-1.22464679914735E-16));
#253=DIRECTION('',(0.,-1.22464679914735E-16,1.));
#254=DIRECTION('',(0.,-1.,-1.22464679914735E-16));
#255=DIRECTION('',(0.,-1.,-1.22464679914735E-16));
#256=DIRECTION('',(0.,-1.22464679914735E-16,1.));
#257=DIRECTION('',(0.,-1.,-1.22464679914735E-16));
#258=DIRECTION('',(0.,-1.22464679914735E-16,1.));
#259=DIRECTION('',(0.,-1.,-1.22464679914735E-16));
#260=DIRECTION('',(0.,-1.22464679914735E-16,1.));
#261=DIRECTION('',(0.,-1.,-1.22464679914735E-16));
#262=DIRECTION('',(-1.,0.,0.));
#263=DIRECTION('',(0.,0.,1.));
#264=DIRECTION('',(0.,-1.22464679914735E-16,1.));
#265=DIRECTION('',(0.,-1.,-1.22464679914735E-16));
#266=DIRECTION('',(-1.,0.,0.));
#267=DIRECTION('',(0.,0.,1.));
#268=DIRECTION('',(-1.,0.,0.));
#269=DIRECTION('',(0.,0.,1.));
#270=DIRECTION('',(-1.,0.,0.));
#271=DIRECTION('',(0.,0.,1.));
#272=DIRECTION('',(0.,-1.22464679914735E-16,1.));
#273=DIRECTION('',(0.,-1.,-1.22464679914735E-16));
#274=DIRECTION('',(0.,-1.22464679914735E-16,1.));
#275=DIRECTION('',(0.,-1.,-1.22464679914735E-16));
#276=DIRECTION('',(0.,-1.22464679914735E-16,1.));
#277=DIRECTION('',(1.,0.,0.));
#278=DIRECTION('',(0.,1.22464679914735E-16,-1.));
#279=DIRECTION('',(0.,1.,1.22464679914735E-16));
#280=DIRECTION('',(0.,1.22464679914735E-16,-1.));
#281=DIRECTION('',(0.,1.,1.22464679914735E-16));
#282=CARTESIAN_POINT('',(0.,0.,0.));
#283=CARTESIAN_POINT('',(0.,4.26813902438835E-18,-0.033302));
#284=CARTESIAN_POINT('',(0.,4.25362596030543E-18,-0.0331834918383568));
#285=CARTESIAN_POINT('',(0.,-0.0031,-0.0331834918383568));
#286=CARTESIAN_POINT('',(0.,3.77803537536958E-18,-0.0293));
#287=CARTESIAN_POINT('',(0.,-0.0031,-0.0293));
#288=CARTESIAN_POINT('',(0.,0.012214745187682,-0.0253));
#289=CARTESIAN_POINT('',(0.,3.71374141841435E-18,-0.0253));
#290=CARTESIAN_POINT('',(0.,-0.0075,-0.0253));
#291=CARTESIAN_POINT('',(0.0145,6.93889390390723E-18,-0.0253));
#292=CARTESIAN_POINT('',(0.0145,0.0160370382375737,-0.0253));
#293=CARTESIAN_POINT('',(0.0145,-0.0160370382375737,-0.0253));
#294=CARTESIAN_POINT('',(0.0145,0.0160370382375737,-0.0253));
#295=CARTESIAN_POINT('',(0.0145,0.0167126263598906,-0.0253));
#296=CARTESIAN_POINT('',(0.0141986767333105,0.0173763378725577,-0.0253));
#297=CARTESIAN_POINT('',(0.0136622484060393,0.0177883390733992,-0.0253));
#298=CARTESIAN_POINT('',(0.0136622484060393,0.0177883390733992,-0.0253));
#299=CARTESIAN_POINT('',(0.,4.07807384116068E-18,-0.0253));
#300=CARTESIAN_POINT('',(-0.0136622484060393,0.0177883390733992,-0.0253));
#301=CARTESIAN_POINT('',(-0.0136622484060393,0.0177883390733992,-0.0253));
#302=CARTESIAN_POINT('',(-0.0141984534218015,0.0173765093858899,-0.0253));
#303=CARTESIAN_POINT('',(-0.0145,0.0167122823722119,-0.0253));
#304=CARTESIAN_POINT('',(-0.0145,0.0160370382375737,-0.0253));
#305=CARTESIAN_POINT('',(-0.0145,0.0160370382375737,-0.0253));
#306=CARTESIAN_POINT('',(-0.0145,6.93889390390723E-18,-0.0253));
#307=CARTESIAN_POINT('',(-0.0145,-0.0160370382375737,-0.0253));
#308=CARTESIAN_POINT('',(-0.0145,-0.0160370382375737,-0.0253));
#309=CARTESIAN_POINT('',(-0.0145,-0.0167126263598906,-0.0253));
#310=CARTESIAN_POINT('',(-0.0141986767333105,-0.0173763378725577,-0.0253));
#311=CARTESIAN_POINT('',(-0.0136622484060393,-0.0177883390733992,-0.0253));
#312=CARTESIAN_POINT('',(-0.0136622484060393,-0.0177883390733992,-0.0253));
#313=CARTESIAN_POINT('',(0.,4.07807384116068E-18,-0.0253));
#314=CARTESIAN_POINT('',(0.0136622484060393,-0.0177883390733992,-0.0253));
#315=CARTESIAN_POINT('',(0.0136622484060393,-0.0177883390733992,-0.0253));
#316=CARTESIAN_POINT('',(0.0141984534218015,-0.0173765093858899,-0.0253));
#317=CARTESIAN_POINT('',(0.0145,-0.0167122823722119,-0.0253));
#318=CARTESIAN_POINT('',(0.0145,-0.0160370382375737,-0.0253));
#319=CARTESIAN_POINT('',(0.,0.,0.008));
#320=CARTESIAN_POINT('',(0.,4.21812855746365E-18,-0.0264436335472439));
#321=CARTESIAN_POINT('',(-0.0136422527178604,0.018254178941963,-0.0264436335472439));
#322=CARTESIAN_POINT('',(0.0136422527178604,0.018254178941963,-0.0264436335472439));
#323=CARTESIAN_POINT('',(0.0136422527178604,0.018254178941963,-0.0264436335472439));
#324=CARTESIAN_POINT('',(0.0141647575480084,0.017863685183693,-0.0264436335472439));
#325=CARTESIAN_POINT('',(0.0145,0.0172565291803855,-0.0266132670063455));
#326=CARTESIAN_POINT('',(0.0145,0.0166675429801258,-0.0268945985935597));
#327=CARTESIAN_POINT('',(0.0145,0.0166675429801258,-0.0268945985935597));
#328=CARTESIAN_POINT('',(0.0145,0.,0.008));
#329=CARTESIAN_POINT('',(0.0145,-0.0166675429801257,-0.0268945985935597));
#330=CARTESIAN_POINT('',(0.0145,-0.0166675429801257,-0.0268945985935597));
#331=CARTESIAN_POINT('',(0.0145,-0.0172564990065724,-0.0266132814189866));
#332=CARTESIAN_POINT('',(0.0141647521249067,-0.0178636892366456,-0.0264436335472439));
#333=CARTESIAN_POINT('',(0.0136422527178604,-0.018254178941963,-0.0264436335472439));
#334=CARTESIAN_POINT('',(0.0136422527178604,-0.018254178941963,-0.0264436335472439));
#335=CARTESIAN_POINT('',(0.,4.21812855746365E-18,-0.0264436335472439));
#336=CARTESIAN_POINT('',(-0.0136422527178604,-0.018254178941963,-0.0264436335472439));
#337=CARTESIAN_POINT('',(-0.0136422527178604,-0.018254178941963,-0.0264436335472439));
#338=CARTESIAN_POINT('',(-0.0141647575480084,-0.0178636851836929,-0.0264436335472439));
#339=CARTESIAN_POINT('',(-0.0145,-0.0172565291803854,-0.0266132670063455));
#340=CARTESIAN_POINT('',(-0.0145,-0.0166675429801257,-0.0268945985935597));
#341=CARTESIAN_POINT('',(-0.0145,-0.0166675429801257,-0.0268945985935597));
#342=CARTESIAN_POINT('',(-0.0145,0.,0.008));
#343=CARTESIAN_POINT('',(-0.0145,0.0166675429801257,-0.0268945985935597));
#344=CARTESIAN_POINT('',(-0.0145,0.016667542980126,-0.0268945985935603));
#345=CARTESIAN_POINT('',(-0.0145,0.0172564990065726,-0.0266132814189872));
#346=CARTESIAN_POINT('',(-0.0141647521249067,0.0178636892366456,-0.0264436335472439));
#347=CARTESIAN_POINT('',(-0.0136422527178604,0.018254178941963,-0.0264436335472439));
#348=CARTESIAN_POINT('',(-0.0145,7.91885627258494E-18,-0.033302));
#349=CARTESIAN_POINT('',(-0.0145,0.0160370382375737,-0.0253));
#350=CARTESIAN_POINT('',(-0.0145,0.0162485228176886,-0.0258310114717792));
#351=CARTESIAN_POINT('',(-0.0145,0.0164586442910391,-0.0263625645643221));
#352=CARTESIAN_POINT('',(-0.0145,0.016667542980126,-0.0268945985935603));
#353=CARTESIAN_POINT('',(-0.0145,-0.0166675429801257,-0.0268945985935597));
#354=CARTESIAN_POINT('',(-0.0145,-0.0164586442910389,-0.0263625645643215));
#355=CARTESIAN_POINT('',(-0.0145,-0.0162485228176886,-0.0258310114717792));
#356=CARTESIAN_POINT('',(-0.0145,-0.0160370382375737,-0.0253));
#357=CARTESIAN_POINT('',(0.0145,7.91885627258494E-18,-0.033302));
#358=CARTESIAN_POINT('',(0.0145,0.0166675429801258,-0.0268945985935597));
#359=CARTESIAN_POINT('',(0.0145,0.016458644291039,-0.0263625645643215));
#360=CARTESIAN_POINT('',(0.0145,0.0162485228176886,-0.0258310114717792));
#361=CARTESIAN_POINT('',(0.0145,0.0160370382375737,-0.0253));
#362=CARTESIAN_POINT('',(0.0145,-0.0160370382375737,-0.0253));
#363=CARTESIAN_POINT('',(0.0145,-0.0162485228176886,-0.0258310114717792));
#364=CARTESIAN_POINT('',(0.0145,-0.0164586442910389,-0.0263625645643215));
#365=CARTESIAN_POINT('',(0.0145,-0.0166675429801257,-0.0268945985935597));
#366=CARTESIAN_POINT('',(0.,4.20360013807329E-18,-0.0293));
#367=CARTESIAN_POINT('',(0.,4.20360013807329E-18,-0.0293));
#368=CARTESIAN_POINT('',(0.,-0.0075,-0.0293));
#369=CARTESIAN_POINT('',(0.,3.58821512150174E-18,-0.0293));
#370=CARTESIAN_POINT('',(0.,4.07807384116068E-18,-0.0253));
#371=CARTESIAN_POINT('',(0.0136422527178604,-0.018254178941963,-0.0264436335472439));
#372=CARTESIAN_POINT('',(0.0136488086608363,-0.0180996644965991,-0.0260621090248038));
#373=CARTESIAN_POINT('',(0.0136554722320631,-0.0179444044308784,-0.0256808889026901));
#374=CARTESIAN_POINT('',(0.0136622484060393,-0.0177883390733992,-0.0253));
#375=CARTESIAN_POINT('',(-0.0136622484060393,-0.0177883390733992,-0.0253));
#376=CARTESIAN_POINT('',(-0.0136554722320631,-0.0179444044308784,-0.0256808889026901));
#377=CARTESIAN_POINT('',(-0.0136488086608363,-0.0180996644965991,-0.0260621090248038));
#378=CARTESIAN_POINT('',(-0.0136422527178604,-0.018254178941963,-0.0264436335472439));
#379=CARTESIAN_POINT('',(0.,4.07807384116068E-18,-0.0253));
#380=CARTESIAN_POINT('',(0.0136622484060393,0.0177883390733992,-0.0253));
#381=CARTESIAN_POINT('',(0.0136554722320631,0.0179444044308784,-0.0256808889026901));
#382=CARTESIAN_POINT('',(0.0136488086608363,0.0180996644965991,-0.0260621090248038));
#383=CARTESIAN_POINT('',(0.0136422527178604,0.018254178941963,-0.0264436335472439));
#384=CARTESIAN_POINT('',(-0.0136422527178604,0.018254178941963,-0.0264436335472439));
#385=CARTESIAN_POINT('',(-0.0136488086608363,0.0180996644965991,-0.0260621090248038));
#386=CARTESIAN_POINT('',(-0.0136554722320631,0.0179444044308784,-0.0256808889026901));
#387=CARTESIAN_POINT('',(-0.0136622484060393,0.0177883390733992,-0.0253));
#388=CARTESIAN_POINT('',(0.0136420728597351,0.0182584183968978,-0.0264541020781985));
#389=CARTESIAN_POINT('',(0.0145,0.0177028287288291,-0.0266719574425305));
#390=CARTESIAN_POINT('',(0.0145,0.0167298791252501,-0.0270534661395896));
#391=CARTESIAN_POINT('',(0.013652183346498,0.0180200777731792,-0.0258655347723218));
#392=CARTESIAN_POINT('',(0.0145000000000004,0.0174644866239203,-0.0260855611921309));
#393=CARTESIAN_POINT('',(0.0145,0.0164990927154121,-0.0264648988337029));
#394=CARTESIAN_POINT('',(0.0136625532519935,0.0177798847625141,-0.0252774908500494));
#395=CARTESIAN_POINT('',(0.014500000000002,0.0172240556127888,-0.0254988058245139));
#396=CARTESIAN_POINT('',(0.0145,0.0162668035045859,-0.0258768549114518));
#397=CARTESIAN_POINT('',(0.0136731994063228,0.0175376586810324,-0.0246901897967847));
#398=CARTESIAN_POINT('',(0.0145,0.016981309092999,-0.0249117874561043));
#399=CARTESIAN_POINT('',(0.0145,0.0160328776753985,-0.0252895538581759));
#400=CARTESIAN_POINT('',(-0.0145,0.0167298791252501,-0.0270534661395896));
#401=CARTESIAN_POINT('',(-0.0145,0.0177028287288291,-0.0266719574425305));
#402=CARTESIAN_POINT('',(-0.0136420728597351,0.0182584183968978,-0.0264541020781985));
#403=CARTESIAN_POINT('',(-0.0145,0.0164990927154121,-0.0264648988337029));
#404=CARTESIAN_POINT('',(-0.0145000000000004,0.0174644866239203,-0.0260855611921309));
#405=CARTESIAN_POINT('',(-0.013652183346498,0.0180200777731792,-0.0258655347723218));
#406=CARTESIAN_POINT('',(-0.0145,0.0162668035045859,-0.0258768549114518));
#407=CARTESIAN_POINT('',(-0.014500000000002,0.0172240556127888,-0.0254988058245139));
#408=CARTESIAN_POINT('',(-0.0136625532519935,0.0177798847625141,-0.0252774908500494));
#409=CARTESIAN_POINT('',(-0.0145,0.0160328776753985,-0.0252895538581759));
#410=CARTESIAN_POINT('',(-0.0145,0.016981309092999,-0.0249117874561043));
#411=CARTESIAN_POINT('',(-0.0136731994063228,0.0175376586810324,-0.0246901897967847));
#412=CARTESIAN_POINT('',(0.0145,-0.0167298791252501,-0.0270534661395896));
#413=CARTESIAN_POINT('',(0.0145,-0.017702828728829,-0.0266719574425305));
#414=CARTESIAN_POINT('',(0.0136420728597351,-0.0182584183968978,-0.0264541020781985));
#415=CARTESIAN_POINT('',(0.0145,-0.0164990927154132,-0.0264648988336941));
#416=CARTESIAN_POINT('',(0.0144999999999985,-0.0174644866239265,-0.0260855611921148));
#417=CARTESIAN_POINT('',(0.0136521833464957,-0.0180200777731778,-0.025865534772314));
#418=CARTESIAN_POINT('',(0.0145,-0.0162668035045891,-0.0258768549114649));
#419=CARTESIAN_POINT('',(0.014500000000002,-0.0172240556127936,-0.0254988058245242));
#420=CARTESIAN_POINT('',(0.0136625532519942,-0.0177798847625187,-0.0252774908500625));
#421=CARTESIAN_POINT('',(0.0145,-0.0160328776753985,-0.0252895538581759));
#422=CARTESIAN_POINT('',(0.0145,-0.016981309092999,-0.0249117874561043));
#423=CARTESIAN_POINT('',(0.0136731994063228,-0.0175376586810324,-0.0246901897967848));
#424=CARTESIAN_POINT('',(-0.0136420728597351,-0.0182584183968978,-0.0264541020781985));
#425=CARTESIAN_POINT('',(-0.0145,-0.017702828728829,-0.0266719574425305));
#426=CARTESIAN_POINT('',(-0.0145,-0.0167298791252501,-0.0270534661395896));
#427=CARTESIAN_POINT('',(-0.0136521833464957,-0.0180200777731778,-0.025865534772314));
#428=CARTESIAN_POINT('',(-0.0144999999999985,-0.0174644866239265,-0.0260855611921148));
#429=CARTESIAN_POINT('',(-0.0145,-0.0164990927154132,-0.0264648988336941));
#430=CARTESIAN_POINT('',(-0.0136625532519942,-0.0177798847625187,-0.0252774908500625));
#431=CARTESIAN_POINT('',(-0.0144999999999996,-0.0172240556127936,-0.0254988058245242));
#432=CARTESIAN_POINT('',(-0.0145,-0.0162668035045891,-0.0258768549114649));
#433=CARTESIAN_POINT('',(-0.0136731994063228,-0.0175376586810324,-0.0246901897967848));
#434=CARTESIAN_POINT('',(-0.0145,-0.016981309092999,-0.0249117874561043));
#435=CARTESIAN_POINT('',(-0.0145,-0.0160328776753985,-0.0252895538581759));
#436=MECHANICAL_DESIGN_GEOMETRIC_PRESENTATION_REPRESENTATION('',(#209),
#437);
#437=(
GEOMETRIC_REPRESENTATION_CONTEXT(3)
GLOBAL_UNCERTAINTY_ASSIGNED_CONTEXT((#438))
GLOBAL_UNIT_ASSIGNED_CONTEXT((#441,#440,#439))
REPRESENTATION_CONTEXT('Curve Washer','TOP_LEVEL_ASSEMBLY_PART')
);
#438=UNCERTAINTY_MEASURE_WITH_UNIT(LENGTH_MEASURE(2.E-5),#441,
'DISTANCE_ACCURACY_VALUE','Maximum Tolerance applied to model');
#439=(
NAMED_UNIT(*)
SI_UNIT($,.STERADIAN.)
SOLID_ANGLE_UNIT()
);
#440=(
NAMED_UNIT(*)
PLANE_ANGLE_UNIT()
SI_UNIT($,.RADIAN.)
);
#441=(
LENGTH_UNIT()
NAMED_UNIT(*)
SI_UNIT($,.METRE.)
);
#442=PRODUCT_DEFINITION_SHAPE('','',#443);
#443=PRODUCT_DEFINITION('','',#445,#444);
#444=PRODUCT_DEFINITION_CONTEXT('',#451,'design');
#445=PRODUCT_DEFINITION_FORMATION_WITH_SPECIFIED_SOURCE('','',#447,
 .NOT_KNOWN.);
#446=PRODUCT_RELATED_PRODUCT_CATEGORY('','',(#447));
#447=PRODUCT('Curve Washer','Curve Washer','Curve Washer',(#449));
#448=PRODUCT_CATEGORY('','');
#449=PRODUCT_CONTEXT('',#451,'mechanical');
#450=APPLICATION_PROTOCOL_DEFINITION('international standard',
'ap242_managed_model_based_3d_engineering',2020,#451);
#451=APPLICATION_CONTEXT('managed model based 3d engineering');
ENDSEC;
END-ISO-10303-21;
