ISO-10303-21;
HEADER;
/* Generated by software containing ST-Developer
 * from STEP Tools, Inc. (www.steptools.com) 
 */
/* OPTION: using custom renumber hook */

FILE_DESCRIPTION(
/* description */ ('STEP AP242 Edition 2',
'CAx-IF Rec.Pracs.---Representation and Presentation of Product Manufa
cturing Information (PMI)---4.0---2014-10-13',
'CAx-IF Rec.Pracs.---3D Tessellated Geometry---0.4---2014-09-14','2;1',
'CAx-IF Rec.Pracs.---User Defined Attributes---1.5---2016-08-15'),
/* implementation_level */ '2;1');

FILE_NAME(
/* name */ '9.7in IPS - LCD retention bracket',
/* time_stamp */ '2026-07-13T15:43:47Z',
/* author */ (''),
/* organization */ (''),
/* preprocessor_version */ 'ST-DEVELOPER v20',
/* originating_system */ 'ONSHAPE BY PTC INC, 1.217',
/* authorisation */ '  ');

FILE_SCHEMA (('AP242_MANAGED_MODEL_BASED_3D_ENGINEERING_MIM_LF { 1 0 10303 442 3 1 4 }'));
ENDSEC;

DATA;
#10=SHAPE_REPRESENTATION_RELATIONSHIP('','',#545,#11);
#11=ADVANCED_BREP_SHAPE_REPRESENTATION('',(#543),#1419);
#12=B_SPLINE_SURFACE_WITH_KNOTS('',3,1,((#1102,#1103),(#1104,#1105),(#1106,
#1107),(#1108,#1109),(#1110,#1111),(#1112,#1113),(#1114,#1115),(#1116,#1117),
(#1118,#1119),(#1120,#1121),(#1122,#1123),(#1124,#1125),(#1126,#1127),(#1128,
#1129),(#1130,#1131),(#1132,#1133),(#1134,#1135),(#1136,#1137),(#1138,#1139)),
 .SURF_OF_LINEAR_EXTRUSION.,.T.,.F.,.F.,(1,1,1,1,1,1,1,1,1,1,1,1,1,1,1,
1,1,1,1,1,1,1,1),(2,2),(-1.17809724509617,-0.785398163397448,-0.392699081698725,
0.,0.392699081698724,0.785398163397448,1.17809724509617,1.5707963267949,
1.96349540849362,2.35619449019234,2.74889357189107,3.14159265358979,3.53429173528852,
3.92699081698724,4.31968989868597,4.71238898038469,5.10508806208341,5.49778714378214,
5.89048622548086,6.28318530717959,6.67588438887831,7.06858347057703,7.46128255227576),
(0.,1.),.UNSPECIFIED.);
#13=B_SPLINE_SURFACE_WITH_KNOTS('',3,1,((#1160,#1161),(#1162,#1163),(#1164,
#1165),(#1166,#1167),(#1168,#1169),(#1170,#1171),(#1172,#1173),(#1174,#1175),
(#1176,#1177),(#1178,#1179),(#1180,#1181),(#1182,#1183),(#1184,#1185),(#1186,
#1187),(#1188,#1189),(#1190,#1191),(#1192,#1193),(#1194,#1195),(#1196,#1197)),
 .SURF_OF_LINEAR_EXTRUSION.,.T.,.F.,.F.,(1,1,1,1,1,1,1,1,1,1,1,1,1,1,1,
1,1,1,1,1,1,1,1),(2,2),(-1.17809724509617,-0.785398163397448,-0.392699081698725,
0.,0.392699081698724,0.785398163397448,1.17809724509617,1.5707963267949,
1.96349540849362,2.35619449019234,2.74889357189107,3.14159265358979,3.53429173528852,
3.92699081698724,4.31968989868597,4.71238898038469,5.10508806208341,5.49778714378214,
5.89048622548086,6.28318530717959,6.67588438887831,7.06858347057703,7.46128255227576),
(0.,1.),.UNSPECIFIED.);
#14=B_SPLINE_SURFACE_WITH_KNOTS('',1,3,((#1218,#1219,#1220,#1221,#1222,
#1223,#1224,#1225,#1226,#1227,#1228,#1229,#1230,#1231,#1232,#1233,#1234,
#1235,#1236,#1237,#1238,#1239,#1240,#1241,#1242,#1243,#1244,#1245,#1246,
#1247,#1248,#1249,#1250,#1251,#1252,#1253,#1254,#1255,#1256,#1257,#1258,
#1259,#1260,#1261,#1262,#1263,#1264,#1265,#1266,#1267),(#1268,#1269,#1270,
#1271,#1272,#1273,#1274,#1275,#1276,#1277,#1278,#1279,#1280,#1281,#1282,
#1283,#1284,#1285,#1286,#1287,#1288,#1289,#1290,#1291,#1292,#1293,#1294,
#1295,#1296,#1297,#1298,#1299,#1300,#1301,#1302,#1303,#1304,#1305,#1306,
#1307,#1308,#1309,#1310,#1311,#1312,#1313,#1314,#1315,#1316,#1317)),
 .RULED_SURF.,.F.,.T.,.F.,(2,2),(2,2,2,2,2,2,2,2,2,2,2,2,2,2,2,2,2,2,2,
2,2,2,2,2,2,2,2),(0.,1.),(-0.0802821509209548,-0.0778294130250047,-0.0753766751290545,
-0.0729239372331044,-0.0704711993371542,-0.0680184614412041,-0.0631129856493038,
-0.0582075098574035,-0.0533020340655032,-0.0483965582736029,-0.0459438203776528,
-0.0434910824817027,-0.0410383445857525,-0.0385856066898024,-0.0361328687938522,
-0.033680130897902,-0.0312273930019519,-0.0287746551060018,-0.0238691793141015,
-0.0189637035222011,-0.0140582277303009,-0.00915275193840056,-0.00670001404245042,
-0.00424727614650027,-0.00179453825055012,0.000658199645400023,0.00311093754135017),
 .UNSPECIFIED.);
#15=B_SPLINE_SURFACE_WITH_KNOTS('',1,3,((#1318,#1319,#1320,#1321,#1322,
#1323,#1324,#1325,#1326,#1327,#1328,#1329,#1330,#1331,#1332,#1333,#1334,
#1335,#1336,#1337,#1338,#1339,#1340,#1341,#1342,#1343,#1344,#1345,#1346,
#1347,#1348,#1349,#1350,#1351,#1352,#1353,#1354,#1355,#1356,#1357,#1358,
#1359,#1360,#1361,#1362,#1363,#1364,#1365,#1366,#1367),(#1368,#1369,#1370,
#1371,#1372,#1373,#1374,#1375,#1376,#1377,#1378,#1379,#1380,#1381,#1382,
#1383,#1384,#1385,#1386,#1387,#1388,#1389,#1390,#1391,#1392,#1393,#1394,
#1395,#1396,#1397,#1398,#1399,#1400,#1401,#1402,#1403,#1404,#1405,#1406,
#1407,#1408,#1409,#1410,#1411,#1412,#1413,#1414,#1415,#1416,#1417)),
 .RULED_SURF.,.F.,.T.,.F.,(2,2),(2,2,2,2,2,2,2,2,2,2,2,2,2,2,2,2,2,2,2,
2,2,2,2,2,2,2,2),(0.,1.),(-0.0821940426392414,-0.0796881966574475,-0.0771823506756536,
-0.0746765046938597,-0.0721706587120658,-0.0696648127302719,-0.0646531207666841,
-0.0596414288030964,-0.0546297368395086,-0.0496180448759208,-0.0471121988941269,
-0.044606352912333,-0.0421005069305391,-0.0395946609487452,-0.0370888149669513,
-0.0345829689851574,-0.0320771230033635,-0.0295712770215696,-0.0245595850579818,
-0.019547893094394,-0.0145362011308062,-0.00952450916721842,-0.00701866318542453,
-0.00451281720363063,-0.00200697122183674,0.000498874759957163,0.00300472074175105),
 .UNSPECIFIED.);
#16=B_SPLINE_CURVE_WITH_KNOTS('',3,(#862,#863,#864,#865,#866,#867,#868,
#869,#870,#871,#872,#873,#874,#875,#876,#877,#878,#879,#880,#881,#882,#883,
#884,#885,#886,#887,#888,#889,#890,#891,#892,#893,#894,#895,#896,#897,#898,
#899,#900,#901,#902,#903,#904,#905,#906,#907,#908,#909,#910,#911,#912,#913,
#914,#915,#916,#917,#918,#919,#920,#921,#922,#923,#924,#925,#926,#927,#928,
#929,#930,#931,#932,#933,#934,#935,#936,#937,#938,#939,#940,#941,#942,#943,
#944,#945,#946,#947,#948,#949,#950,#951,#952,#953,#954,#955,#956,#957,#958,
#959,#960,#961,#962,#963,#964,#965,#966,#967,#968,#969,#970,#971,#972,#973,
#974,#975,#976,#977,#978,#979,#980),.UNSPECIFIED.,.T.,.F.,(1,1,1,1,1,1,
1,1,1,1,1,1,1,1,1,1,1,1,1,1,1,1,1,1,1,1,1,1,1,1,1,1,1,1,1,1,1,1,1,1,1,1,
1,1,1,1,1,1,1,1,1,1,1,1,1,1,1,1,1,1,1,1,1,1,1,1,1,1,1,1,1,1,1,1,1,1,1,1,
1,1,1,1,1,1,1,1,1,1,1,1,1,1,1,1,1,1,1,1,1,1,1,1,1,1,1,1,1,1,1,1,1,1,1,1,
1,1,1,1,1,1,1,1,1),(-0.029648067429951,-0.0197879111838049,-0.00989395559190243,
0.,0.00848214285714285,0.0169642857142857,0.0258705357142857,0.0303236607142857,
0.0347767857142857,0.0434815848214286,0.0521863839285714,0.0608911830357143,
0.0652435825892857,0.0695959821428571,0.071240788922991,0.072885595703125,
0.0761752092633928,0.0827544363839285,0.095912890625,0.109071344866071,
0.115650571986607,0.122229799107143,0.126105217285156,0.12998063546317,
0.137731471819196,0.15323314453125,0.168734817243304,0.184236489955357,
0.188141198364258,0.192045906773158,0.19985532359096,0.215474157226562,
0.246711824497768,0.277961207861328,0.293585899543108,0.309210591224888,
0.313116837370911,0.317023083516933,0.324835575808977,0.340460560393066,
0.356085544977155,0.3638980372692,0.371710529561244,0.374874591868545,0.378038654175847,
0.384366778790449,0.397023028019653,0.409679277248858,0.41600740186346,
0.422335526478062,0.424720292093427,0.427105057708792,0.431874588939522,
0.441413651400983,0.450952713862443,0.460491776323903,0.46295681538544,
0.465421854446976,0.470351932570049,0.480212088816195,0.489611346628502,
0.49901060444081,0.507962710188568,0.516914815936326,0.525844564080857,
0.530309438153123,0.534774312225388,0.543479698786144,0.5521850853469,0.560890471907656,
0.565243165188034,0.569595858468412,0.571240668920131,0.57288547937185,
0.576175100275288,0.582754342082164,0.595912825695916,0.609071309309668,
0.615650551116545,0.622229792923421,0.626105211468593,0.629980630013764,
0.637731467104108,0.653233141284796,0.668734815465483,0.684236489646171,
0.68814119807343,0.692045906500688,0.699855323355205,0.71547415706424,0.746711824482308,
0.777961207853212,0.793585899538664,0.809210591224115,0.813116837370184,
0.817023083516252,0.824835575808388,0.840460560392661,0.856085544976933,
0.863898037269069,0.871710529561206,0.874874591868509,0.878038654175813,
0.884366778790419,0.897023028019633,0.909679277248847,0.916007401863453,
0.92233552647806,0.924720292093425,0.927105057708791,0.931874588939521,
0.941413651400982,0.950952713862442,0.960491776323903,0.962956815385439,
0.965421854446976,0.970351932570049,0.980212088816195,0.990106044408098,
1.,1.00848214285714,1.01696428571429,1.02587053571429),.UNSPECIFIED.);
#17=B_SPLINE_CURVE_WITH_KNOTS('',3,(#982,#983,#984,#985,#986,#987,#988,
#989,#990,#991,#992,#993,#994,#995,#996,#997,#998,#999,#1000,#1001,#1002,
#1003,#1004,#1005,#1006,#1007,#1008,#1009,#1010,#1011,#1012,#1013,#1014,
#1015,#1016,#1017,#1018,#1019,#1020,#1021,#1022,#1023,#1024,#1025,#1026,
#1027,#1028,#1029,#1030,#1031,#1032,#1033,#1034,#1035,#1036,#1037,#1038,
#1039,#1040,#1041,#1042,#1043,#1044,#1045,#1046,#1047,#1048,#1049,#1050,
#1051,#1052,#1053,#1054,#1055,#1056,#1057,#1058,#1059,#1060,#1061,#1062,
#1063,#1064,#1065,#1066,#1067,#1068,#1069,#1070,#1071,#1072,#1073,#1074,
#1075,#1076,#1077,#1078,#1079,#1080,#1081,#1082,#1083,#1084,#1085,#1086),
 .UNSPECIFIED.,.T.,.F.,(1,1,1,1,1,1,1,1,1,1,1,1,1,1,1,1,1,1,1,1,1,1,1,1,
1,1,1,1,1,1,1,1,1,1,1,1,1,1,1,1,1,1,1,1,1,1,1,1,1,1,1,1,1,1,1,1,1,1,1,1,
1,1,1,1,1,1,1,1,1,1,1,1,1,1,1,1,1,1,1,1,1,1,1,1,1,1,1,1,1,1,1,1,1,1,1,1,
1,1,1,1,1,1,1,1,1,1,1,1,1),(-0.0411800986766373,-0.0329769736828934,-0.0164925986841448,
0.,0.01484375,0.02263671875,0.0304296875,0.03804638671875,0.0456630859375,
0.05327978515625,0.057088134765625,0.060896484375,0.0627995574951172,0.0647026306152344,
0.0685087768554687,0.0761210693359375,0.091345654296875,0.106570239257813,
0.114182531738281,0.12179482421875,0.125696069030762,0.129597313842773,
0.137399803466797,0.153004782714844,0.168609761962891,0.184214741210937,
0.188120740951538,0.192026740692139,0.19983874017334,0.215462739135742,
0.246710737060547,0.277960636956787,0.293585586904907,0.309210536853027,
0.313116786227379,0.31702303560173,0.324835534350433,0.340460531847839,
0.356085529345245,0.363898028093948,0.371710526842651,0.375616776811369,
0.379523026780086,0.387335526717522,0.402960526592392,0.418585526467262,
0.426398026404697,0.434210526342133,0.438312088839004,0.442413651335876,
0.45061677632962,0.458819901323363,0.467023026317107,0.483507401315855,
0.499175370065793,0.51480251850329,0.522615072214227,0.530427625925164,
0.538044814767938,0.545662003610711,0.553279192453485,0.557087786874871,
0.560896381296258,0.562799457476525,0.564702533656793,0.568508686017328,
0.576120990738397,0.591345600180536,0.606570209622674,0.614182514343744,
0.621794819064813,0.62569606418284,0.629597309300866,0.63739979953692,0.653004780009027,
0.668609760481134,0.684214740953241,0.688120740709142,0.692026740465043,
0.699838739976846,0.715462739000451,0.746710737047662,0.777960636950022,
0.793585586901203,0.809210536852383,0.813116786226773,0.817023035601163,
0.824835534349942,0.840460531847501,0.85608552934506,0.86389802809384,0.871710526842619,
0.875616776811339,0.879523026780058,0.887335526717497,0.902960526592375,
0.918585526467253,0.926398026404692,0.934210526342131,0.938312088839003,
0.942413651335875,0.950616776329619,0.958819901323363,0.967023026317107,
0.983507401315855,1.,1.01484375,1.02263671875,1.0304296875),
 .UNSPECIFIED.);
#18=B_SPLINE_CURVE_WITH_KNOTS('',3,(#1140,#1141,#1142,#1143,#1144,#1145,
#1146,#1147,#1148,#1149,#1150,#1151,#1152,#1153,#1154,#1155,#1156,#1157,
#1158),.UNSPECIFIED.,.T.,.F.,(1,1,1,1,1,1,1,1,1,1,1,1,1,1,1,1,1,1,1,1,1,
1,1),(-0.1875,-0.125,-0.0625,0.,0.0625,0.125,0.1875,0.25,0.3125,0.375,0.4375,
0.5,0.5625,0.625,0.6875,0.75,0.8125,0.875,0.9375,1.,1.0625,1.125,1.1875),
 .UNSPECIFIED.);
#19=B_SPLINE_CURVE_WITH_KNOTS('',3,(#1198,#1199,#1200,#1201,#1202,#1203,
#1204,#1205,#1206,#1207,#1208,#1209,#1210,#1211,#1212,#1213,#1214,#1215,
#1216),.UNSPECIFIED.,.T.,.F.,(1,1,1,1,1,1,1,1,1,1,1,1,1,1,1,1,1,1,1,1,1,
1,1),(-0.1875,-0.125,-0.0625,0.,0.0625,0.125,0.1875,0.25,0.3125,0.375,0.4375,
0.5,0.5625,0.625,0.6875,0.75,0.8125,0.875,0.9375,1.,1.0625,1.125,1.1875),
 .UNSPECIFIED.);
#20=CYLINDRICAL_SURFACE('',#562,0.00155);
#21=CYLINDRICAL_SURFACE('',#565,0.00155);
#22=CYLINDRICAL_SURFACE('',#567,0.00155);
#23=CYLINDRICAL_SURFACE('',#570,0.00155);
#24=CYLINDRICAL_SURFACE('',#572,0.00155);
#25=CYLINDRICAL_SURFACE('',#575,0.00155);
#26=CYLINDRICAL_SURFACE('',#591,0.004);
#27=CYLINDRICAL_SURFACE('',#592,0.004);
#28=CYLINDRICAL_SURFACE('',#593,0.004);
#29=CYLINDRICAL_SURFACE('',#594,0.004);
#30=CYLINDRICAL_SURFACE('',#595,0.0015);
#31=CYLINDRICAL_SURFACE('',#596,0.0015);
#32=ELLIPSE('',#560,0.015,0.00416150449461322);
#33=ELLIPSE('',#561,0.015,0.00537424625836951);
#34=LINE('',#745,#74);
#35=LINE('',#750,#75);
#36=LINE('',#754,#76);
#37=LINE('',#758,#77);
#38=LINE('',#764,#78);
#39=LINE('',#768,#79);
#40=LINE('',#772,#80);
#41=LINE('',#776,#81);
#42=LINE('',#780,#82);
#43=LINE('',#784,#83);
#44=LINE('',#790,#84);
#45=LINE('',#794,#85);
#46=LINE('',#796,#86);
#47=LINE('',#798,#87);
#48=LINE('',#800,#88);
#49=LINE('',#804,#89);
#50=LINE('',#808,#90);
#51=LINE('',#810,#91);
#52=LINE('',#812,#92);
#53=LINE('',#814,#93);
#54=LINE('',#818,#94);
#55=LINE('',#822,#95);
#56=LINE('',#824,#96);
#57=LINE('',#826,#97);
#58=LINE('',#828,#98);
#59=LINE('',#832,#99);
#60=LINE('',#834,#100);
#61=LINE('',#836,#101);
#62=LINE('',#838,#102);
#63=LINE('',#841,#103);
#64=LINE('',#842,#104);
#65=LINE('',#844,#105);
#66=LINE('',#847,#106);
#67=LINE('',#848,#107);
#68=LINE('',#850,#108);
#69=LINE('',#852,#109);
#70=LINE('',#854,#110);
#71=LINE('',#856,#111);
#72=LINE('',#858,#112);
#73=LINE('',#860,#113);
#74=VECTOR('',#605,1.);
#75=VECTOR('',#608,1.);
#76=VECTOR('',#611,1.);
#77=VECTOR('',#614,1.);
#78=VECTOR('',#619,1.);
#79=VECTOR('',#622,1.);
#80=VECTOR('',#625,1.);
#81=VECTOR('',#628,1.);
#82=VECTOR('',#631,1.);
#83=VECTOR('',#634,1.);
#84=VECTOR('',#641,1.);
#85=VECTOR('',#644,1.);
#86=VECTOR('',#647,1.);
#87=VECTOR('',#648,1.);
#88=VECTOR('',#651,1.);
#89=VECTOR('',#656,1.);
#90=VECTOR('',#659,1.);
#91=VECTOR('',#662,1.);
#92=VECTOR('',#663,1.);
#93=VECTOR('',#666,1.);
#94=VECTOR('',#671,1.);
#95=VECTOR('',#674,1.);
#96=VECTOR('',#677,1.);
#97=VECTOR('',#678,1.);
#98=VECTOR('',#681,1.);
#99=VECTOR('',#686,1.);
#100=VECTOR('',#687,1.);
#101=VECTOR('',#688,1.);
#102=VECTOR('',#691,1.);
#103=VECTOR('',#692,1.);
#104=VECTOR('',#693,1.);
#105=VECTOR('',#696,1.);
#106=VECTOR('',#697,1.);
#107=VECTOR('',#698,1.);
#108=VECTOR('',#701,1.);
#109=VECTOR('',#704,1.);
#110=VECTOR('',#707,1.);
#111=VECTOR('',#708,1.);
#112=VECTOR('',#709,1.);
#113=VECTOR('',#712,1.);
#114=ORIENTED_EDGE('',*,*,#254,.F.);
#115=ORIENTED_EDGE('',*,*,#255,.F.);
#116=ORIENTED_EDGE('',*,*,#256,.T.);
#117=ORIENTED_EDGE('',*,*,#257,.T.);
#118=ORIENTED_EDGE('',*,*,#258,.T.);
#119=ORIENTED_EDGE('',*,*,#259,.T.);
#120=ORIENTED_EDGE('',*,*,#260,.T.);
#121=ORIENTED_EDGE('',*,*,#261,.T.);
#122=ORIENTED_EDGE('',*,*,#262,.T.);
#123=ORIENTED_EDGE('',*,*,#263,.T.);
#124=ORIENTED_EDGE('',*,*,#264,.F.);
#125=ORIENTED_EDGE('',*,*,#265,.T.);
#126=ORIENTED_EDGE('',*,*,#266,.F.);
#127=ORIENTED_EDGE('',*,*,#267,.F.);
#128=ORIENTED_EDGE('',*,*,#268,.F.);
#129=ORIENTED_EDGE('',*,*,#269,.T.);
#130=ORIENTED_EDGE('',*,*,#270,.F.);
#131=ORIENTED_EDGE('',*,*,#271,.F.);
#132=ORIENTED_EDGE('',*,*,#272,.F.);
#133=ORIENTED_EDGE('',*,*,#273,.T.);
#134=ORIENTED_EDGE('',*,*,#274,.F.);
#135=ORIENTED_EDGE('',*,*,#275,.F.);
#136=ORIENTED_EDGE('',*,*,#276,.F.);
#137=ORIENTED_EDGE('',*,*,#277,.F.);
#138=ORIENTED_EDGE('',*,*,#272,.T.);
#139=ORIENTED_EDGE('',*,*,#278,.F.);
#140=ORIENTED_EDGE('',*,*,#279,.F.);
#141=ORIENTED_EDGE('',*,*,#280,.T.);
#142=ORIENTED_EDGE('',*,*,#275,.T.);
#143=ORIENTED_EDGE('',*,*,#281,.F.);
#144=ORIENTED_EDGE('',*,*,#282,.F.);
#145=ORIENTED_EDGE('',*,*,#278,.T.);
#146=ORIENTED_EDGE('',*,*,#274,.T.);
#147=ORIENTED_EDGE('',*,*,#283,.F.);
#148=ORIENTED_EDGE('',*,*,#284,.F.);
#149=ORIENTED_EDGE('',*,*,#281,.T.);
#150=ORIENTED_EDGE('',*,*,#268,.T.);
#151=ORIENTED_EDGE('',*,*,#285,.F.);
#152=ORIENTED_EDGE('',*,*,#286,.F.);
#153=ORIENTED_EDGE('',*,*,#287,.T.);
#154=ORIENTED_EDGE('',*,*,#271,.T.);
#155=ORIENTED_EDGE('',*,*,#288,.F.);
#156=ORIENTED_EDGE('',*,*,#289,.F.);
#157=ORIENTED_EDGE('',*,*,#285,.T.);
#158=ORIENTED_EDGE('',*,*,#270,.T.);
#159=ORIENTED_EDGE('',*,*,#290,.F.);
#160=ORIENTED_EDGE('',*,*,#291,.F.);
#161=ORIENTED_EDGE('',*,*,#288,.T.);
#162=ORIENTED_EDGE('',*,*,#264,.T.);
#163=ORIENTED_EDGE('',*,*,#292,.F.);
#164=ORIENTED_EDGE('',*,*,#293,.F.);
#165=ORIENTED_EDGE('',*,*,#294,.T.);
#166=ORIENTED_EDGE('',*,*,#267,.T.);
#167=ORIENTED_EDGE('',*,*,#295,.F.);
#168=ORIENTED_EDGE('',*,*,#296,.F.);
#169=ORIENTED_EDGE('',*,*,#292,.T.);
#170=ORIENTED_EDGE('',*,*,#266,.T.);
#171=ORIENTED_EDGE('',*,*,#297,.F.);
#172=ORIENTED_EDGE('',*,*,#298,.F.);
#173=ORIENTED_EDGE('',*,*,#295,.T.);
#174=ORIENTED_EDGE('',*,*,#258,.F.);
#175=ORIENTED_EDGE('',*,*,#299,.T.);
#176=ORIENTED_EDGE('',*,*,#300,.T.);
#177=ORIENTED_EDGE('',*,*,#301,.T.);
#178=ORIENTED_EDGE('',*,*,#302,.T.);
#179=ORIENTED_EDGE('',*,*,#303,.T.);
#180=ORIENTED_EDGE('',*,*,#256,.F.);
#181=ORIENTED_EDGE('',*,*,#304,.T.);
#182=ORIENTED_EDGE('',*,*,#305,.T.);
#183=ORIENTED_EDGE('',*,*,#306,.T.);
#184=ORIENTED_EDGE('',*,*,#262,.F.);
#185=ORIENTED_EDGE('',*,*,#307,.T.);
#186=ORIENTED_EDGE('',*,*,#269,.F.);
#187=ORIENTED_EDGE('',*,*,#287,.F.);
#188=ORIENTED_EDGE('',*,*,#308,.T.);
#189=ORIENTED_EDGE('',*,*,#290,.T.);
#190=ORIENTED_EDGE('',*,*,#265,.F.);
#191=ORIENTED_EDGE('',*,*,#294,.F.);
#192=ORIENTED_EDGE('',*,*,#309,.T.);
#193=ORIENTED_EDGE('',*,*,#297,.T.);
#194=ORIENTED_EDGE('',*,*,#260,.F.);
#195=ORIENTED_EDGE('',*,*,#310,.T.);
#196=ORIENTED_EDGE('',*,*,#311,.T.);
#197=ORIENTED_EDGE('',*,*,#312,.T.);
#198=ORIENTED_EDGE('',*,*,#273,.F.);
#199=ORIENTED_EDGE('',*,*,#280,.F.);
#200=ORIENTED_EDGE('',*,*,#313,.T.);
#201=ORIENTED_EDGE('',*,*,#283,.T.);
#202=ORIENTED_EDGE('',*,*,#314,.T.);
#203=ORIENTED_EDGE('',*,*,#315,.T.);
#204=ORIENTED_EDGE('',*,*,#316,.F.);
#205=ORIENTED_EDGE('',*,*,#317,.F.);
#206=ORIENTED_EDGE('',*,*,#300,.F.);
#207=ORIENTED_EDGE('',*,*,#318,.T.);
#208=ORIENTED_EDGE('',*,*,#302,.F.);
#209=ORIENTED_EDGE('',*,*,#319,.T.);
#210=ORIENTED_EDGE('',*,*,#305,.F.);
#211=ORIENTED_EDGE('',*,*,#320,.T.);
#212=ORIENTED_EDGE('',*,*,#311,.F.);
#213=ORIENTED_EDGE('',*,*,#321,.T.);
#214=ORIENTED_EDGE('',*,*,#293,.T.);
#215=ORIENTED_EDGE('',*,*,#296,.T.);
#216=ORIENTED_EDGE('',*,*,#298,.T.);
#217=ORIENTED_EDGE('',*,*,#309,.F.);
#218=ORIENTED_EDGE('',*,*,#286,.T.);
#219=ORIENTED_EDGE('',*,*,#289,.T.);
#220=ORIENTED_EDGE('',*,*,#291,.T.);
#221=ORIENTED_EDGE('',*,*,#308,.F.);
#222=ORIENTED_EDGE('',*,*,#279,.T.);
#223=ORIENTED_EDGE('',*,*,#282,.T.);
#224=ORIENTED_EDGE('',*,*,#284,.T.);
#225=ORIENTED_EDGE('',*,*,#313,.F.);
#226=ORIENTED_EDGE('',*,*,#318,.F.);
#227=ORIENTED_EDGE('',*,*,#299,.F.);
#228=ORIENTED_EDGE('',*,*,#257,.F.);
#229=ORIENTED_EDGE('',*,*,#303,.F.);
#230=ORIENTED_EDGE('',*,*,#319,.F.);
#231=ORIENTED_EDGE('',*,*,#304,.F.);
#232=ORIENTED_EDGE('',*,*,#263,.F.);
#233=ORIENTED_EDGE('',*,*,#306,.F.);
#234=ORIENTED_EDGE('',*,*,#321,.F.);
#235=ORIENTED_EDGE('',*,*,#310,.F.);
#236=ORIENTED_EDGE('',*,*,#259,.F.);
#237=ORIENTED_EDGE('',*,*,#301,.F.);
#238=ORIENTED_EDGE('',*,*,#320,.F.);
#239=ORIENTED_EDGE('',*,*,#307,.F.);
#240=ORIENTED_EDGE('',*,*,#261,.F.);
#241=ORIENTED_EDGE('',*,*,#312,.F.);
#242=ORIENTED_EDGE('',*,*,#255,.T.);
#243=ORIENTED_EDGE('',*,*,#317,.T.);
#244=ORIENTED_EDGE('',*,*,#254,.T.);
#245=ORIENTED_EDGE('',*,*,#316,.T.);
#246=ORIENTED_EDGE('',*,*,#322,.T.);
#247=ORIENTED_EDGE('',*,*,#276,.T.);
#248=ORIENTED_EDGE('',*,*,#323,.T.);
#249=ORIENTED_EDGE('',*,*,#277,.T.);
#250=ORIENTED_EDGE('',*,*,#314,.F.);
#251=ORIENTED_EDGE('',*,*,#322,.F.);
#252=ORIENTED_EDGE('',*,*,#315,.F.);
#253=ORIENTED_EDGE('',*,*,#323,.F.);
#254=EDGE_CURVE('',#324,#324,#374,.F.);
#255=EDGE_CURVE('',#325,#325,#375,.F.);
#256=EDGE_CURVE('',#326,#327,#34,.T.);
#257=EDGE_CURVE('',#327,#328,#376,.F.);
#258=EDGE_CURVE('',#328,#329,#35,.T.);
#259=EDGE_CURVE('',#329,#330,#377,.F.);
#260=EDGE_CURVE('',#330,#331,#36,.T.);
#261=EDGE_CURVE('',#331,#332,#378,.F.);
#262=EDGE_CURVE('',#332,#333,#37,.T.);
#263=EDGE_CURVE('',#333,#326,#379,.F.);
#264=EDGE_CURVE('',#334,#335,#380,.T.);
#265=EDGE_CURVE('',#334,#336,#38,.T.);
#266=EDGE_CURVE('',#337,#336,#381,.T.);
#267=EDGE_CURVE('',#335,#337,#39,.T.);
#268=EDGE_CURVE('',#338,#339,#382,.T.);
#269=EDGE_CURVE('',#338,#340,#40,.T.);
#270=EDGE_CURVE('',#341,#340,#383,.T.);
#271=EDGE_CURVE('',#339,#341,#41,.T.);
#272=EDGE_CURVE('',#342,#343,#384,.T.);
#273=EDGE_CURVE('',#342,#344,#42,.T.);
#274=EDGE_CURVE('',#345,#344,#385,.T.);
#275=EDGE_CURVE('',#343,#345,#43,.T.);
#276=EDGE_CURVE('',#346,#346,#32,.F.);
#277=EDGE_CURVE('',#347,#347,#33,.F.);
#278=EDGE_CURVE('',#348,#343,#44,.T.);
#279=EDGE_CURVE('',#349,#348,#386,.T.);
#280=EDGE_CURVE('',#349,#342,#45,.T.);
#281=EDGE_CURVE('',#350,#345,#46,.T.);
#282=EDGE_CURVE('',#348,#350,#47,.T.);
#283=EDGE_CURVE('',#351,#344,#48,.T.);
#284=EDGE_CURVE('',#350,#351,#387,.T.);
#285=EDGE_CURVE('',#352,#339,#49,.T.);
#286=EDGE_CURVE('',#353,#352,#388,.T.);
#287=EDGE_CURVE('',#353,#338,#50,.T.);
#288=EDGE_CURVE('',#354,#341,#51,.T.);
#289=EDGE_CURVE('',#352,#354,#52,.T.);
#290=EDGE_CURVE('',#355,#340,#53,.T.);
#291=EDGE_CURVE('',#354,#355,#389,.T.);
#292=EDGE_CURVE('',#356,#335,#54,.T.);
#293=EDGE_CURVE('',#357,#356,#390,.T.);
#294=EDGE_CURVE('',#357,#334,#55,.T.);
#295=EDGE_CURVE('',#358,#337,#56,.T.);
#296=EDGE_CURVE('',#356,#358,#57,.T.);
#297=EDGE_CURVE('',#359,#336,#58,.T.);
#298=EDGE_CURVE('',#358,#359,#391,.T.);
#299=EDGE_CURVE('',#328,#360,#59,.F.);
#300=EDGE_CURVE('',#360,#361,#60,.T.);
#301=EDGE_CURVE('',#361,#329,#61,.T.);
#302=EDGE_CURVE('',#362,#363,#62,.T.);
#303=EDGE_CURVE('',#363,#327,#63,.T.);
#304=EDGE_CURVE('',#326,#362,#64,.F.);
#305=EDGE_CURVE('',#364,#365,#65,.T.);
#306=EDGE_CURVE('',#365,#333,#66,.T.);
#307=EDGE_CURVE('',#332,#364,#67,.F.);
#308=EDGE_CURVE('',#353,#355,#68,.T.);
#309=EDGE_CURVE('',#357,#359,#69,.T.);
#310=EDGE_CURVE('',#330,#366,#70,.F.);
#311=EDGE_CURVE('',#366,#367,#71,.T.);
#312=EDGE_CURVE('',#367,#331,#72,.T.);
#313=EDGE_CURVE('',#349,#351,#73,.T.);
#314=EDGE_CURVE('',#368,#368,#16,.T.);
#315=EDGE_CURVE('',#369,#369,#17,.T.);
#316=EDGE_CURVE('',#370,#370,#392,.T.);
#317=EDGE_CURVE('',#371,#371,#393,.T.);
#318=EDGE_CURVE('',#360,#363,#394,.T.);
#319=EDGE_CURVE('',#362,#365,#395,.T.);
#320=EDGE_CURVE('',#364,#367,#396,.T.);
#321=EDGE_CURVE('',#366,#361,#397,.T.);
#322=EDGE_CURVE('',#372,#372,#18,.T.);
#323=EDGE_CURVE('',#373,#373,#19,.T.);
#324=VERTEX_POINT('',#742);
#325=VERTEX_POINT('',#744);
#326=VERTEX_POINT('',#746);
#327=VERTEX_POINT('',#747);
#328=VERTEX_POINT('',#749);
#329=VERTEX_POINT('',#751);
#330=VERTEX_POINT('',#753);
#331=VERTEX_POINT('',#755);
#332=VERTEX_POINT('',#757);
#333=VERTEX_POINT('',#759);
#334=VERTEX_POINT('',#762);
#335=VERTEX_POINT('',#763);
#336=VERTEX_POINT('',#765);
#337=VERTEX_POINT('',#767);
#338=VERTEX_POINT('',#770);
#339=VERTEX_POINT('',#771);
#340=VERTEX_POINT('',#773);
#341=VERTEX_POINT('',#775);
#342=VERTEX_POINT('',#778);
#343=VERTEX_POINT('',#779);
#344=VERTEX_POINT('',#781);
#345=VERTEX_POINT('',#783);
#346=VERTEX_POINT('',#786);
#347=VERTEX_POINT('',#788);
#348=VERTEX_POINT('',#791);
#349=VERTEX_POINT('',#793);
#350=VERTEX_POINT('',#797);
#351=VERTEX_POINT('',#801);
#352=VERTEX_POINT('',#805);
#353=VERTEX_POINT('',#807);
#354=VERTEX_POINT('',#811);
#355=VERTEX_POINT('',#815);
#356=VERTEX_POINT('',#819);
#357=VERTEX_POINT('',#821);
#358=VERTEX_POINT('',#825);
#359=VERTEX_POINT('',#829);
#360=VERTEX_POINT('',#833);
#361=VERTEX_POINT('',#835);
#362=VERTEX_POINT('',#839);
#363=VERTEX_POINT('',#840);
#364=VERTEX_POINT('',#845);
#365=VERTEX_POINT('',#846);
#366=VERTEX_POINT('',#855);
#367=VERTEX_POINT('',#857);
#368=VERTEX_POINT('',#981);
#369=VERTEX_POINT('',#1087);
#370=VERTEX_POINT('',#1089);
#371=VERTEX_POINT('',#1091);
#372=VERTEX_POINT('',#1159);
#373=VERTEX_POINT('',#1217);
#374=CIRCLE('',#548,0.0015);
#375=CIRCLE('',#549,0.0015);
#376=CIRCLE('',#550,0.004);
#377=CIRCLE('',#551,0.004);
#378=CIRCLE('',#552,0.004);
#379=CIRCLE('',#553,0.004);
#380=CIRCLE('',#554,0.00155);
#381=CIRCLE('',#555,0.00155);
#382=CIRCLE('',#556,0.00155);
#383=CIRCLE('',#557,0.00155);
#384=CIRCLE('',#558,0.00155);
#385=CIRCLE('',#559,0.00155);
#386=CIRCLE('',#563,0.00155);
#387=CIRCLE('',#566,0.00155);
#388=CIRCLE('',#568,0.00155);
#389=CIRCLE('',#571,0.00155);
#390=CIRCLE('',#573,0.00155);
#391=CIRCLE('',#576,0.00155);
#392=CIRCLE('',#585,0.0015);
#393=CIRCLE('',#586,0.0015);
#394=CIRCLE('',#587,0.004);
#395=CIRCLE('',#588,0.004);
#396=CIRCLE('',#589,0.004);
#397=CIRCLE('',#590,0.004);
#398=EDGE_LOOP('',(#114));
#399=EDGE_LOOP('',(#115));
#400=EDGE_LOOP('',(#116,#117,#118,#119,#120,#121,#122,#123));
#401=EDGE_LOOP('',(#124,#125,#126,#127));
#402=EDGE_LOOP('',(#128,#129,#130,#131));
#403=EDGE_LOOP('',(#132,#133,#134,#135));
#404=EDGE_LOOP('',(#136));
#405=EDGE_LOOP('',(#137));
#406=EDGE_LOOP('',(#138,#139,#140,#141));
#407=EDGE_LOOP('',(#142,#143,#144,#145));
#408=EDGE_LOOP('',(#146,#147,#148,#149));
#409=EDGE_LOOP('',(#150,#151,#152,#153));
#410=EDGE_LOOP('',(#154,#155,#156,#157));
#411=EDGE_LOOP('',(#158,#159,#160,#161));
#412=EDGE_LOOP('',(#162,#163,#164,#165));
#413=EDGE_LOOP('',(#166,#167,#168,#169));
#414=EDGE_LOOP('',(#170,#171,#172,#173));
#415=EDGE_LOOP('',(#174,#175,#176,#177));
#416=EDGE_LOOP('',(#178,#179,#180,#181));
#417=EDGE_LOOP('',(#182,#183,#184,#185));
#418=EDGE_LOOP('',(#186,#187,#188,#189));
#419=EDGE_LOOP('',(#190,#191,#192,#193));
#420=EDGE_LOOP('',(#194,#195,#196,#197));
#421=EDGE_LOOP('',(#198,#199,#200,#201));
#422=EDGE_LOOP('',(#202));
#423=EDGE_LOOP('',(#203));
#424=EDGE_LOOP('',(#204));
#425=EDGE_LOOP('',(#205));
#426=EDGE_LOOP('',(#206,#207,#208,#209,#210,#211,#212,#213));
#427=EDGE_LOOP('',(#214,#215,#216,#217));
#428=EDGE_LOOP('',(#218,#219,#220,#221));
#429=EDGE_LOOP('',(#222,#223,#224,#225));
#430=EDGE_LOOP('',(#226,#227,#228,#229));
#431=EDGE_LOOP('',(#230,#231,#232,#233));
#432=EDGE_LOOP('',(#234,#235,#236,#237));
#433=EDGE_LOOP('',(#238,#239,#240,#241));
#434=EDGE_LOOP('',(#242));
#435=EDGE_LOOP('',(#243));
#436=EDGE_LOOP('',(#244));
#437=EDGE_LOOP('',(#245));
#438=EDGE_LOOP('',(#246));
#439=EDGE_LOOP('',(#247));
#440=EDGE_LOOP('',(#248));
#441=EDGE_LOOP('',(#249));
#442=EDGE_LOOP('',(#250));
#443=EDGE_LOOP('',(#251));
#444=EDGE_LOOP('',(#252));
#445=EDGE_LOOP('',(#253));
#446=FACE_BOUND('',#398,.T.);
#447=FACE_BOUND('',#399,.T.);
#448=FACE_BOUND('',#400,.T.);
#449=FACE_BOUND('',#401,.T.);
#450=FACE_BOUND('',#402,.T.);
#451=FACE_BOUND('',#403,.T.);
#452=FACE_BOUND('',#404,.T.);
#453=FACE_BOUND('',#405,.T.);
#454=FACE_BOUND('',#406,.T.);
#455=FACE_BOUND('',#407,.T.);
#456=FACE_BOUND('',#408,.T.);
#457=FACE_BOUND('',#409,.T.);
#458=FACE_BOUND('',#410,.T.);
#459=FACE_BOUND('',#411,.T.);
#460=FACE_BOUND('',#412,.T.);
#461=FACE_BOUND('',#413,.T.);
#462=FACE_BOUND('',#414,.T.);
#463=FACE_BOUND('',#415,.T.);
#464=FACE_BOUND('',#416,.T.);
#465=FACE_BOUND('',#417,.T.);
#466=FACE_BOUND('',#418,.T.);
#467=FACE_BOUND('',#419,.T.);
#468=FACE_BOUND('',#420,.T.);
#469=FACE_BOUND('',#421,.T.);
#470=FACE_BOUND('',#422,.T.);
#471=FACE_BOUND('',#423,.T.);
#472=FACE_BOUND('',#424,.T.);
#473=FACE_BOUND('',#425,.T.);
#474=FACE_BOUND('',#426,.T.);
#475=FACE_BOUND('',#427,.T.);
#476=FACE_BOUND('',#428,.T.);
#477=FACE_BOUND('',#429,.T.);
#478=FACE_BOUND('',#430,.T.);
#479=FACE_BOUND('',#431,.T.);
#480=FACE_BOUND('',#432,.T.);
#481=FACE_BOUND('',#433,.T.);
#482=FACE_BOUND('',#434,.T.);
#483=FACE_BOUND('',#435,.T.);
#484=FACE_BOUND('',#436,.T.);
#485=FACE_BOUND('',#437,.T.);
#486=FACE_BOUND('',#438,.T.);
#487=FACE_BOUND('',#439,.T.);
#488=FACE_BOUND('',#440,.T.);
#489=FACE_BOUND('',#441,.T.);
#490=FACE_BOUND('',#442,.T.);
#491=FACE_BOUND('',#443,.T.);
#492=FACE_BOUND('',#444,.T.);
#493=FACE_BOUND('',#445,.T.);
#494=PLANE('',#547);
#495=PLANE('',#564);
#496=PLANE('',#569);
#497=PLANE('',#574);
#498=PLANE('',#577);
#499=PLANE('',#578);
#500=PLANE('',#579);
#501=PLANE('',#580);
#502=PLANE('',#581);
#503=PLANE('',#582);
#504=PLANE('',#583);
#505=PLANE('',#584);
#506=ADVANCED_FACE('',(#446,#447,#448,#449,#450,#451,#452,#453),#494,.F.);
#507=ADVANCED_FACE('',(#454),#20,.F.);
#508=ADVANCED_FACE('',(#455),#495,.F.);
#509=ADVANCED_FACE('',(#456),#21,.F.);
#510=ADVANCED_FACE('',(#457),#22,.F.);
#511=ADVANCED_FACE('',(#458),#496,.F.);
#512=ADVANCED_FACE('',(#459),#23,.F.);
#513=ADVANCED_FACE('',(#460),#24,.F.);
#514=ADVANCED_FACE('',(#461),#497,.F.);
#515=ADVANCED_FACE('',(#462),#25,.F.);
#516=ADVANCED_FACE('',(#463),#498,.T.);
#517=ADVANCED_FACE('',(#464),#499,.T.);
#518=ADVANCED_FACE('',(#465),#500,.T.);
#519=ADVANCED_FACE('',(#466),#501,.T.);
#520=ADVANCED_FACE('',(#467),#502,.T.);
#521=ADVANCED_FACE('',(#468),#503,.T.);
#522=ADVANCED_FACE('',(#469),#504,.T.);
#523=ADVANCED_FACE('',(#470,#471,#472,#473,#474,#475,#476,#477),#505,.T.);
#524=ADVANCED_FACE('',(#478),#26,.T.);
#525=ADVANCED_FACE('',(#479),#27,.T.);
#526=ADVANCED_FACE('',(#480),#28,.T.);
#527=ADVANCED_FACE('',(#481),#29,.T.);
#528=ADVANCED_FACE('',(#482,#483),#30,.F.);
#529=ADVANCED_FACE('',(#484,#485),#31,.F.);
#530=ADVANCED_FACE('',(#486,#487),#12,.F.);
#531=ADVANCED_FACE('',(#488,#489),#13,.F.);
#532=ADVANCED_FACE('',(#490,#491),#14,.T.);
#533=ADVANCED_FACE('',(#492,#493),#15,.T.);
#534=CLOSED_SHELL('',(#506,#507,#508,#509,#510,#511,#512,#513,#514,#515,
#516,#517,#518,#519,#520,#521,#522,#523,#524,#525,#526,#527,#528,#529,#530,
#531,#532,#533));
#535=STYLED_ITEM('',(#536),#543);
#536=PRESENTATION_STYLE_ASSIGNMENT((#537));
#537=SURFACE_STYLE_USAGE(.BOTH.,#538);
#538=SURFACE_SIDE_STYLE('',(#539));
#539=SURFACE_STYLE_FILL_AREA(#540);
#540=FILL_AREA_STYLE('',(#541));
#541=FILL_AREA_STYLE_COLOUR('',#542);
#542=COLOUR_RGB('',0.764705882352941,0.545098039215686,0.803921568627451);
#543=MANIFOLD_SOLID_BREP('LCD retention bracket',#534);
#544=SHAPE_DEFINITION_REPRESENTATION(#1424,#545);
#545=SHAPE_REPRESENTATION('LCD retention bracket',(#546),#1419);
#546=AXIS2_PLACEMENT_3D('',#739,#597,#598);
#547=AXIS2_PLACEMENT_3D('',#740,#599,#600);
#548=AXIS2_PLACEMENT_3D('',#741,#601,#602);
#549=AXIS2_PLACEMENT_3D('',#743,#603,#604);
#550=AXIS2_PLACEMENT_3D('',#748,#606,#607);
#551=AXIS2_PLACEMENT_3D('',#752,#609,#610);
#552=AXIS2_PLACEMENT_3D('',#756,#612,#613);
#553=AXIS2_PLACEMENT_3D('',#760,#615,#616);
#554=AXIS2_PLACEMENT_3D('',#761,#617,#618);
#555=AXIS2_PLACEMENT_3D('',#766,#620,#621);
#556=AXIS2_PLACEMENT_3D('',#769,#623,#624);
#557=AXIS2_PLACEMENT_3D('',#774,#626,#627);
#558=AXIS2_PLACEMENT_3D('',#777,#629,#630);
#559=AXIS2_PLACEMENT_3D('',#782,#632,#633);
#560=AXIS2_PLACEMENT_3D('',#785,#635,#636);
#561=AXIS2_PLACEMENT_3D('',#787,#637,#638);
#562=AXIS2_PLACEMENT_3D('',#789,#639,#640);
#563=AXIS2_PLACEMENT_3D('',#792,#642,#643);
#564=AXIS2_PLACEMENT_3D('',#795,#645,#646);
#565=AXIS2_PLACEMENT_3D('',#799,#649,#650);
#566=AXIS2_PLACEMENT_3D('',#802,#652,#653);
#567=AXIS2_PLACEMENT_3D('',#803,#654,#655);
#568=AXIS2_PLACEMENT_3D('',#806,#657,#658);
#569=AXIS2_PLACEMENT_3D('',#809,#660,#661);
#570=AXIS2_PLACEMENT_3D('',#813,#664,#665);
#571=AXIS2_PLACEMENT_3D('',#816,#667,#668);
#572=AXIS2_PLACEMENT_3D('',#817,#669,#670);
#573=AXIS2_PLACEMENT_3D('',#820,#672,#673);
#574=AXIS2_PLACEMENT_3D('',#823,#675,#676);
#575=AXIS2_PLACEMENT_3D('',#827,#679,#680);
#576=AXIS2_PLACEMENT_3D('',#830,#682,#683);
#577=AXIS2_PLACEMENT_3D('',#831,#684,#685);
#578=AXIS2_PLACEMENT_3D('',#837,#689,#690);
#579=AXIS2_PLACEMENT_3D('',#843,#694,#695);
#580=AXIS2_PLACEMENT_3D('',#849,#699,#700);
#581=AXIS2_PLACEMENT_3D('',#851,#702,#703);
#582=AXIS2_PLACEMENT_3D('',#853,#705,#706);
#583=AXIS2_PLACEMENT_3D('',#859,#710,#711);
#584=AXIS2_PLACEMENT_3D('',#861,#713,#714);
#585=AXIS2_PLACEMENT_3D('',#1088,#715,#716);
#586=AXIS2_PLACEMENT_3D('',#1090,#717,#718);
#587=AXIS2_PLACEMENT_3D('',#1092,#719,#720);
#588=AXIS2_PLACEMENT_3D('',#1093,#721,#722);
#589=AXIS2_PLACEMENT_3D('',#1094,#723,#724);
#590=AXIS2_PLACEMENT_3D('',#1095,#725,#726);
#591=AXIS2_PLACEMENT_3D('',#1096,#727,#728);
#592=AXIS2_PLACEMENT_3D('',#1097,#729,#730);
#593=AXIS2_PLACEMENT_3D('',#1098,#731,#732);
#594=AXIS2_PLACEMENT_3D('',#1099,#733,#734);
#595=AXIS2_PLACEMENT_3D('',#1100,#735,#736);
#596=AXIS2_PLACEMENT_3D('',#1101,#737,#738);
#597=DIRECTION('',(0.,0.,1.));
#598=DIRECTION('',(1.,0.,0.));
#599=DIRECTION('',(-1.,-2.03603607694408E-17,-1.85409249177824E-16));
#600=DIRECTION('',(2.03603607694408E-17,-1.,3.77499920325164E-33));
#601=DIRECTION('',(-1.,-2.03603607694408E-17,-1.85409249177824E-16));
#602=DIRECTION('',(-1.85409249177824E-16,0.,1.));
#603=DIRECTION('',(-1.,-2.03603607694408E-17,-1.85409249177824E-16));
#604=DIRECTION('',(-1.85409249177824E-16,0.,1.));
#605=DIRECTION('',(1.06288872506141E-17,-0.998629534754574,0.052335956242944));
#606=DIRECTION('',(-1.,-2.03603607694408E-17,-1.85409249177824E-16));
#607=DIRECTION('',(-1.85409249177824E-16,0.,1.));
#608=DIRECTION('',(1.86220731195965E-16,-0.0523359562429439,-0.998629534754574));
#609=DIRECTION('',(-1.,-2.03603607694408E-17,-1.85409249177824E-16));
#610=DIRECTION('',(-1.85409249177824E-16,0.,1.));
#611=DIRECTION('',(-1.06288872506141E-17,0.998629534754574,-0.0523359562429441));
#612=DIRECTION('',(-1.,-2.03603607694408E-17,-1.85409249177824E-16));
#613=DIRECTION('',(-1.85409249177824E-16,0.,1.));
#614=DIRECTION('',(-1.85409249177824E-16,1.63189822471119E-33,1.));
#615=DIRECTION('',(-1.,-2.03603607694408E-17,-1.85409249177824E-16));
#616=DIRECTION('',(-1.85409249177824E-16,0.,1.));
#617=DIRECTION('',(1.,2.03603607694408E-17,1.85409249177824E-16));
#618=DIRECTION('',(-1.85409249177824E-16,0.,1.));
#619=DIRECTION('',(1.06288872506141E-17,-0.998629534754574,0.0523359562429441));
#620=DIRECTION('',(1.,2.03603607694408E-17,1.85409249177824E-16));
#621=DIRECTION('',(-1.85409249177824E-16,0.,1.));
#622=DIRECTION('',(1.06288872506141E-17,-0.998629534754574,0.0523359562429441));
#623=DIRECTION('',(1.,2.03603607694408E-17,1.85409249177824E-16));
#624=DIRECTION('',(-1.85409249177824E-16,0.,1.));
#625=DIRECTION('',(1.0628887250614E-17,-0.998629534754574,0.0523359562429445));
#626=DIRECTION('',(1.,2.03603607694408E-17,1.85409249177824E-16));
#627=DIRECTION('',(-1.85409249177824E-16,0.,1.));
#628=DIRECTION('',(1.0628887250614E-17,-0.998629534754574,0.0523359562429445));
#629=DIRECTION('',(1.,2.03603607694408E-17,1.85409249177824E-16));
#630=DIRECTION('',(-1.85409249177824E-16,0.,1.));
#631=DIRECTION('',(1.0628887250614E-17,-0.998629534754574,0.0523359562429445));
#632=DIRECTION('',(1.,2.03603607694408E-17,1.85409249177824E-16));
#633=DIRECTION('',(-1.85409249177824E-16,0.,1.));
#634=DIRECTION('',(1.0628887250614E-17,-0.998629534754574,0.0523359562429445));
#635=DIRECTION('',(-1.,-2.03603607694408E-17,-1.85409249177824E-16));
#636=DIRECTION('',(-1.85409249177824E-16,0.,1.));
#637=DIRECTION('',(-1.,-2.03603607694408E-17,-1.85409249177824E-16));
#638=DIRECTION('',(-1.85409249177824E-16,0.,1.));
#639=DIRECTION('',(1.,2.03603607694407E-17,1.85409249177824E-16));
#640=DIRECTION('',(1.85409249177824E-16,0.,-1.));
#641=DIRECTION('',(1.,2.03603607694407E-17,1.85409249177824E-16));
#642=DIRECTION('',(1.,2.03603607694408E-17,1.85409249177824E-16));
#643=DIRECTION('',(-1.85409249177824E-16,0.,1.));
#644=DIRECTION('',(1.,2.03603607694407E-17,1.85409249177824E-16));
#645=DIRECTION('',(-1.86220731195965E-16,0.0523359562429445,0.998629534754574));
#646=DIRECTION('',(0.,-0.998629534754574,0.0523359562429445));
#647=DIRECTION('',(1.,2.03603607694407E-17,1.85409249177824E-16));
#648=DIRECTION('',(1.0628887250614E-17,-0.998629534754574,0.0523359562429445));
#649=DIRECTION('',(1.,2.03603607694407E-17,1.85409249177824E-16));
#650=DIRECTION('',(1.85409249177824E-16,0.,-1.));
#651=DIRECTION('',(1.,2.03603607694407E-17,1.85409249177824E-16));
#652=DIRECTION('',(1.,2.03603607694408E-17,1.85409249177824E-16));
#653=DIRECTION('',(-1.85409249177824E-16,0.,1.));
#654=DIRECTION('',(1.,2.03603607694407E-17,1.85409249177824E-16));
#655=DIRECTION('',(1.85409249177824E-16,0.,-1.));
#656=DIRECTION('',(1.,2.03603607694407E-17,1.85409249177824E-16));
#657=DIRECTION('',(1.,2.03603607694408E-17,1.85409249177824E-16));
#658=DIRECTION('',(-1.85409249177824E-16,0.,1.));
#659=DIRECTION('',(1.,2.03603607694407E-17,1.85409249177824E-16));
#660=DIRECTION('',(-1.86220731195965E-16,0.0523359562429445,0.998629534754574));
#661=DIRECTION('',(0.,-0.998629534754574,0.0523359562429445));
#662=DIRECTION('',(1.,2.03603607694407E-17,1.85409249177824E-16));
#663=DIRECTION('',(1.0628887250614E-17,-0.998629534754574,0.0523359562429445));
#664=DIRECTION('',(1.,2.03603607694407E-17,1.85409249177824E-16));
#665=DIRECTION('',(1.85409249177824E-16,0.,-1.));
#666=DIRECTION('',(1.,2.03603607694407E-17,1.85409249177824E-16));
#667=DIRECTION('',(1.,2.03603607694408E-17,1.85409249177824E-16));
#668=DIRECTION('',(-1.85409249177824E-16,0.,1.));
#669=DIRECTION('',(1.,2.03603607694407E-17,1.85409249177824E-16));
#670=DIRECTION('',(1.85409249177824E-16,0.,-1.));
#671=DIRECTION('',(1.,2.03603607694407E-17,1.85409249177824E-16));
#672=DIRECTION('',(1.,2.03603607694408E-17,1.85409249177824E-16));
#673=DIRECTION('',(-1.85409249177824E-16,0.,1.));
#674=DIRECTION('',(1.,2.03603607694407E-17,1.85409249177824E-16));
#675=DIRECTION('',(-1.86220731195965E-16,0.0523359562429441,0.998629534754574));
#676=DIRECTION('',(0.,-0.998629534754574,0.0523359562429441));
#677=DIRECTION('',(1.,2.03603607694407E-17,1.85409249177824E-16));
#678=DIRECTION('',(1.06288872506141E-17,-0.998629534754574,0.0523359562429441));
#679=DIRECTION('',(1.,2.03603607694407E-17,1.85409249177824E-16));
#680=DIRECTION('',(1.85409249177824E-16,0.,-1.));
#681=DIRECTION('',(1.,2.03603607694407E-17,1.85409249177824E-16));
#682=DIRECTION('',(1.,2.03603607694408E-17,1.85409249177824E-16));
#683=DIRECTION('',(-1.85409249177824E-16,0.,1.));
#684=DIRECTION('',(1.06288872506142E-17,-0.998629534754574,0.0523359562429439));
#685=DIRECTION('',(0.,-0.0523359562429439,-0.998629534754574));
#686=DIRECTION('',(1.,2.03603607694408E-17,1.85409249177824E-16));
#687=DIRECTION('',(1.86220731195965E-16,-0.0523359562429439,-0.998629534754574));
#688=DIRECTION('',(1.,2.03603607694408E-17,1.85409249177824E-16));
#689=DIRECTION('',(-1.86220731195965E-16,0.052335956242944,0.998629534754574));
#690=DIRECTION('',(0.,-0.998629534754574,0.0523359562429441));
#691=DIRECTION('',(1.06288872506141E-17,-0.998629534754574,0.052335956242944));
#692=DIRECTION('',(1.,2.03603607694408E-17,1.85409249177824E-16));
#693=DIRECTION('',(1.,2.03603607694407E-17,1.85409249177824E-16));
#694=DIRECTION('',(-2.03603607694407E-17,1.,-5.40689742796283E-33));
#695=DIRECTION('',(-1.,-2.03603607694407E-17,0.));
#696=DIRECTION('',(-1.85409249177824E-16,1.63189822471119E-33,1.));
#697=DIRECTION('',(1.,2.03603607694407E-17,1.85409249177824E-16));
#698=DIRECTION('',(1.,2.03603607694407E-17,1.85409249177824E-16));
#699=DIRECTION('',(-1.86220731195965E-16,0.0523359562429445,0.998629534754574));
#700=DIRECTION('',(0.,-0.998629534754574,0.0523359562429445));
#701=DIRECTION('',(1.0628887250614E-17,-0.998629534754574,0.0523359562429445));
#702=DIRECTION('',(-1.86220731195965E-16,0.0523359562429441,0.998629534754574));
#703=DIRECTION('',(0.,-0.998629534754574,0.0523359562429441));
#704=DIRECTION('',(1.06288872506141E-17,-0.998629534754574,0.0523359562429441));
#705=DIRECTION('',(1.86220731195965E-16,-0.0523359562429441,-0.998629534754574));
#706=DIRECTION('',(0.,0.998629534754574,-0.0523359562429441));
#707=DIRECTION('',(1.,2.03603607694408E-17,1.85409249177824E-16));
#708=DIRECTION('',(-1.06288872506141E-17,0.998629534754574,-0.0523359562429441));
#709=DIRECTION('',(1.,2.03603607694407E-17,1.85409249177824E-16));
#710=DIRECTION('',(-1.86220731195965E-16,0.0523359562429445,0.998629534754574));
#711=DIRECTION('',(0.,-0.998629534754574,0.0523359562429445));
#712=DIRECTION('',(1.0628887250614E-17,-0.998629534754574,0.0523359562429445));
#713=DIRECTION('',(-1.,-2.03603607694408E-17,-1.85409249177824E-16));
#714=DIRECTION('',(2.03603607694408E-17,-1.,3.77499920325164E-33));
#715=DIRECTION('',(-1.,-2.03603607694408E-17,-1.85409249177824E-16));
#716=DIRECTION('',(-1.85409249177824E-16,0.,1.));
#717=DIRECTION('',(-1.,-2.03603607694408E-17,-1.85409249177824E-16));
#718=DIRECTION('',(-1.85409249177824E-16,0.,1.));
#719=DIRECTION('',(-1.,-2.03603607694408E-17,-1.85409249177824E-16));
#720=DIRECTION('',(-1.85409249177824E-16,0.,1.));
#721=DIRECTION('',(-1.,-2.03603607694408E-17,-1.85409249177824E-16));
#722=DIRECTION('',(-1.85409249177824E-16,0.,1.));
#723=DIRECTION('',(-1.,-2.03603607694408E-17,-1.85409249177824E-16));
#724=DIRECTION('',(-1.85409249177824E-16,0.,1.));
#725=DIRECTION('',(-1.,-2.03603607694408E-17,-1.85409249177824E-16));
#726=DIRECTION('',(-1.85409249177824E-16,0.,1.));
#727=DIRECTION('',(1.,2.03603607694408E-17,1.85409249177824E-16));
#728=DIRECTION('',(1.85409249177824E-16,0.,-1.));
#729=DIRECTION('',(1.,2.03603607694407E-17,1.85409249177824E-16));
#730=DIRECTION('',(1.85409249177824E-16,0.,-1.));
#731=DIRECTION('',(1.,2.03603607694408E-17,1.85409249177824E-16));
#732=DIRECTION('',(1.85409249177824E-16,0.,-1.));
#733=DIRECTION('',(1.,2.03603607694407E-17,1.85409249177824E-16));
#734=DIRECTION('',(1.85409249177824E-16,0.,-1.));
#735=DIRECTION('',(-1.,-2.03603607694408E-17,-1.85409249177824E-16));
#736=DIRECTION('',(-1.85409249177824E-16,0.,1.));
#737=DIRECTION('',(-1.,-2.03603607694408E-17,-1.85409249177824E-16));
#738=DIRECTION('',(-1.85409249177824E-16,0.,1.));
#739=CARTESIAN_POINT('',(0.,0.,0.));
#740=CARTESIAN_POINT('',(0.10525,-0.0146146050380915,0.00284195478355034));
#741=CARTESIAN_POINT('',(0.10525,-0.0183372167243171,0.00526429657902691));
#742=CARTESIAN_POINT('',(0.10525,-0.0183372167243171,0.00676429657902691));
#743=CARTESIAN_POINT('',(0.10525,-0.0188605762867465,-0.00472199876851883));
#744=CARTESIAN_POINT('',(0.10525,-0.0188605762867465,-0.00322199876851883));
#745=CARTESIAN_POINT('',(0.10525,-0.0114298136972785,0.0522286949645838));
#746=CARTESIAN_POINT('',(0.10525,-0.00779065617502823,0.0520379748003815));
#747=CARTESIAN_POINT('',(0.10525,-0.0148651092555386,0.0524087311759731));
#748=CARTESIAN_POINT('',(0.10525,-0.0150744530805103,0.0484142130369548));
#749=CARTESIAN_POINT('',(0.10525,-0.0190689712195286,0.0486235568619266));
#750=CARTESIAN_POINT('',(0.10525,-0.0215908817762313,0.000502636815258545));
#751=CARTESIAN_POINT('',(0.10525,-0.024112792332934,-0.0476182832314096));
#752=CARTESIAN_POINT('',(0.10525,-0.0201182741939157,-0.0478276270563813));
#753=CARTESIAN_POINT('',(0.10525,-0.0203276180188874,-0.0518221451953996));
#754=CARTESIAN_POINT('',(0.10525,-0.0141610680789529,-0.0521453203835896));
#755=CARTESIAN_POINT('',(0.10525,-0.00820934382497178,-0.0524572370346457));
#756=CARTESIAN_POINT('',(0.10525,-0.008,-0.0484627188956274));
#757=CARTESIAN_POINT('',(0.10525,-0.004,-0.0484627188956274));
#758=CARTESIAN_POINT('',(0.10525,-0.004,-0.000419262234264285));
#759=CARTESIAN_POINT('',(0.10525,-0.004,0.0480434566613632));
#760=CARTESIAN_POINT('',(0.10525,-0.008,0.0480434566613632));
#761=CARTESIAN_POINT('',(0.10525,-0.00850479662835899,-0.000183175846850264));
#762=CARTESIAN_POINT('',(0.10525,-0.00858591736053555,-0.00173105162571985));
#763=CARTESIAN_POINT('',(0.10525,-0.00842367589618242,0.00136469993201933));
#764=CARTESIAN_POINT('',(0.10525,-0.0120811207321766,-0.00154787577886955));
#765=CARTESIAN_POINT('',(0.10525,-0.0155763241038176,-0.00136469993201924));
#766=CARTESIAN_POINT('',(0.10525,-0.015495203371641,0.000183175846850345));
#767=CARTESIAN_POINT('',(0.10525,-0.0154140826394644,0.00173105162571994));
#768=CARTESIAN_POINT('',(0.10525,-0.0119188792678234,0.00154787577886963));
#769=CARTESIAN_POINT('',(0.10525,-0.008504796628359,0.0458168241531497));
#770=CARTESIAN_POINT('',(0.10525,-0.00858591736053556,0.0442689483742802));
#771=CARTESIAN_POINT('',(0.10525,-0.00842367589618243,0.0473646999320193));
#772=CARTESIAN_POINT('',(0.10525,-0.0120811207321766,0.0444521242211304));
#773=CARTESIAN_POINT('',(0.10525,-0.0155763241038176,0.0446353000679808));
#774=CARTESIAN_POINT('',(0.10525,-0.015495203371641,0.0461831758468504));
#775=CARTESIAN_POINT('',(0.10525,-0.0154140826394644,0.0477310516257199));
#776=CARTESIAN_POINT('',(0.10525,-0.0119188792678234,0.0475478757788696));
#777=CARTESIAN_POINT('',(0.10525,-0.00850479662835899,-0.0461831758468503));
#778=CARTESIAN_POINT('',(0.10525,-0.00858591736053555,-0.0477310516257199));
#779=CARTESIAN_POINT('',(0.10525,-0.00842367589618242,-0.0446353000679807));
#780=CARTESIAN_POINT('',(0.10525,-0.0120811207321766,-0.0475478757788696));
#781=CARTESIAN_POINT('',(0.10525,-0.0155763241038176,-0.0473646999320192));
#782=CARTESIAN_POINT('',(0.10525,-0.015495203371641,-0.0458168241531497));
#783=CARTESIAN_POINT('',(0.10525,-0.0154140826394644,-0.04426894837428));
#784=CARTESIAN_POINT('',(0.10525,-0.0119188792678234,-0.0444521242211303));
#785=CARTESIAN_POINT('',(0.10525,-0.0121318266711719,0.0236910501610656));
#786=CARTESIAN_POINT('',(0.10525,-0.0121318266711719,0.0386910501610657));
#787=CARTESIAN_POINT('',(0.10525,-0.0134458574061334,-0.0229444429966883));
#788=CARTESIAN_POINT('',(0.10525,-0.0134458574061334,-0.0079444429966883));
#789=CARTESIAN_POINT('',(0.10225,-0.00850479662835899,-0.0461831758468503));
#790=CARTESIAN_POINT('',(0.10225,-0.00842367589618242,-0.0446353000679807));
#791=CARTESIAN_POINT('',(0.10225,-0.00842367589618242,-0.0446353000679807));
#792=CARTESIAN_POINT('',(0.10225,-0.00850479662835899,-0.0461831758468503));
#793=CARTESIAN_POINT('',(0.10225,-0.00858591736053555,-0.0477310516257199));
#794=CARTESIAN_POINT('',(0.10225,-0.00858591736053555,-0.0477310516257199));
#795=CARTESIAN_POINT('',(0.10225,-0.0119188792678234,-0.0444521242211303));
#796=CARTESIAN_POINT('',(0.10225,-0.0154140826394644,-0.04426894837428));
#797=CARTESIAN_POINT('',(0.10225,-0.0154140826394644,-0.04426894837428));
#798=CARTESIAN_POINT('',(0.10225,-0.0119188792678234,-0.0444521242211303));
#799=CARTESIAN_POINT('',(0.10225,-0.015495203371641,-0.0458168241531497));
#800=CARTESIAN_POINT('',(0.10225,-0.0155763241038176,-0.0473646999320192));
#801=CARTESIAN_POINT('',(0.10225,-0.0155763241038176,-0.0473646999320192));
#802=CARTESIAN_POINT('',(0.10225,-0.015495203371641,-0.0458168241531497));
#803=CARTESIAN_POINT('',(0.10225,-0.008504796628359,0.0458168241531497));
#804=CARTESIAN_POINT('',(0.10225,-0.00842367589618243,0.0473646999320193));
#805=CARTESIAN_POINT('',(0.10225,-0.00842367589618243,0.0473646999320193));
#806=CARTESIAN_POINT('',(0.10225,-0.008504796628359,0.0458168241531497));
#807=CARTESIAN_POINT('',(0.10225,-0.00858591736053556,0.0442689483742802));
#808=CARTESIAN_POINT('',(0.10225,-0.00858591736053556,0.0442689483742802));
#809=CARTESIAN_POINT('',(0.10225,-0.0119188792678234,0.0475478757788696));
#810=CARTESIAN_POINT('',(0.10225,-0.0154140826394644,0.0477310516257199));
#811=CARTESIAN_POINT('',(0.10225,-0.0154140826394644,0.0477310516257199));
#812=CARTESIAN_POINT('',(0.10225,-0.0119188792678234,0.0475478757788696));
#813=CARTESIAN_POINT('',(0.10225,-0.015495203371641,0.0461831758468504));
#814=CARTESIAN_POINT('',(0.10225,-0.0155763241038176,0.0446353000679808));
#815=CARTESIAN_POINT('',(0.10225,-0.0155763241038176,0.0446353000679808));
#816=CARTESIAN_POINT('',(0.10225,-0.015495203371641,0.0461831758468504));
#817=CARTESIAN_POINT('',(0.10225,-0.00850479662835899,-0.000183175846850264));
#818=CARTESIAN_POINT('',(0.10225,-0.00842367589618242,0.00136469993201932));
#819=CARTESIAN_POINT('',(0.10225,-0.00842367589618242,0.00136469993201932));
#820=CARTESIAN_POINT('',(0.10225,-0.00850479662835899,-0.000183175846850264));
#821=CARTESIAN_POINT('',(0.10225,-0.00858591736053555,-0.00173105162571985));
#822=CARTESIAN_POINT('',(0.10225,-0.00858591736053555,-0.00173105162571985));
#823=CARTESIAN_POINT('',(0.10225,-0.0119188792678234,0.00154787577886963));
#824=CARTESIAN_POINT('',(0.10225,-0.0154140826394644,0.00173105162571994));
#825=CARTESIAN_POINT('',(0.10225,-0.0154140826394644,0.00173105162571994));
#826=CARTESIAN_POINT('',(0.10225,-0.0119188792678234,0.00154787577886963));
#827=CARTESIAN_POINT('',(0.10225,-0.015495203371641,0.000183175846850344));
#828=CARTESIAN_POINT('',(0.10225,-0.0155763241038176,-0.00136469993201924));
#829=CARTESIAN_POINT('',(0.10225,-0.0155763241038176,-0.00136469993201924));
#830=CARTESIAN_POINT('',(0.10225,-0.015495203371641,0.000183175846850344));
#831=CARTESIAN_POINT('',(0.10225,-0.0215908817762313,0.000502636815258545));
#832=CARTESIAN_POINT('',(0.10225,-0.0190689712195286,0.0486235568619266));
#833=CARTESIAN_POINT('',(0.10225,-0.0190689712195286,0.0486235568619266));
#834=CARTESIAN_POINT('',(0.10225,-0.0215908817762313,0.000502636815258545));
#835=CARTESIAN_POINT('',(0.10225,-0.024112792332934,-0.0476182832314096));
#836=CARTESIAN_POINT('',(0.10225,-0.024112792332934,-0.0476182832314096));
#837=CARTESIAN_POINT('',(0.10225,-0.0114298136972785,0.0522286949645838));
#838=CARTESIAN_POINT('',(0.10225,-0.0114298136972785,0.0522286949645838));
#839=CARTESIAN_POINT('',(0.10225,-0.00779065617502823,0.0520379748003815));
#840=CARTESIAN_POINT('',(0.10225,-0.0148651092555386,0.0524087311759731));
#841=CARTESIAN_POINT('',(0.10225,-0.0148651092555386,0.0524087311759731));
#842=CARTESIAN_POINT('',(0.10225,-0.00779065617502823,0.0520379748003815));
#843=CARTESIAN_POINT('',(0.10225,-0.004,-0.000419262234264285));
#844=CARTESIAN_POINT('',(0.10225,-0.004,-0.000419262234264285));
#845=CARTESIAN_POINT('',(0.10225,-0.004,-0.0484627188956274));
#846=CARTESIAN_POINT('',(0.10225,-0.004,0.0480434566613632));
#847=CARTESIAN_POINT('',(0.10225,-0.004,0.0480434566613632));
#848=CARTESIAN_POINT('',(0.10225,-0.004,-0.0484627188956274));
#849=CARTESIAN_POINT('',(0.10225,-0.0120811207321766,0.0444521242211304));
#850=CARTESIAN_POINT('',(0.10225,-0.0120811207321766,0.0444521242211304));
#851=CARTESIAN_POINT('',(0.10225,-0.0120811207321766,-0.00154787577886955));
#852=CARTESIAN_POINT('',(0.10225,-0.0120811207321766,-0.00154787577886955));
#853=CARTESIAN_POINT('',(0.10225,-0.0141610680789529,-0.0521453203835896));
#854=CARTESIAN_POINT('',(0.10225,-0.0203276180188874,-0.0518221451953996));
#855=CARTESIAN_POINT('',(0.10225,-0.0203276180188874,-0.0518221451953996));
#856=CARTESIAN_POINT('',(0.10225,-0.0141610680789529,-0.0521453203835896));
#857=CARTESIAN_POINT('',(0.10225,-0.00820934382497178,-0.0524572370346457));
#858=CARTESIAN_POINT('',(0.10225,-0.00820934382497178,-0.0524572370346457));
#859=CARTESIAN_POINT('',(0.10225,-0.0120811207321766,-0.0475478757788696));
#860=CARTESIAN_POINT('',(0.10225,-0.0120811207321766,-0.0475478757788696));
#861=CARTESIAN_POINT('',(0.10225,-0.0146146050380915,0.00284195478355034));
#862=CARTESIAN_POINT('',(0.10225,-0.0113759461530676,0.0406312588242879));
#863=CARTESIAN_POINT('',(0.10225,-0.0120945920535996,0.040716584130275));
#864=CARTESIAN_POINT('',(0.10225,-0.0127841313496417,0.0406474253144469));
#865=CARTESIAN_POINT('',(0.10225,-0.0134556702438512,0.0404267754498284));
#866=CARTESIAN_POINT('',(0.10225,-0.0139381075405269,0.0401565710386135));
#867=CARTESIAN_POINT('',(0.10225,-0.0143131061648223,0.0398783433732697));
#868=CARTESIAN_POINT('',(0.10225,-0.0146880985152373,0.0395421081714347));
#869=CARTESIAN_POINT('',(0.10225,-0.0150025493624864,0.0391919446175507));
#870=CARTESIAN_POINT('',(0.10225,-0.0153962639299978,0.0386641789014909));
#871=CARTESIAN_POINT('',(0.10225,-0.0156958484551627,0.0381697301756661));
#872=CARTESIAN_POINT('',(0.10225,-0.015928959315435,0.0377282920567675));
#873=CARTESIAN_POINT('',(0.10225,-0.0160574969189006,0.0374631649830526));
#874=CARTESIAN_POINT('',(0.10225,-0.0161608705120081,0.0372354179029581));
#875=CARTESIAN_POINT('',(0.10225,-0.0162156633424698,0.0371109636972143));
#876=CARTESIAN_POINT('',(0.10225,-0.016318370728689,0.0368705723185012));
#877=CARTESIAN_POINT('',(0.10225,-0.0165126650566159,0.0363814144850688));
#878=CARTESIAN_POINT('',(0.10225,-0.0167779392778186,0.0356172715219125));
#879=CARTESIAN_POINT('',(0.10225,-0.0170220368423703,0.0347754581337614));
#880=CARTESIAN_POINT('',(0.10225,-0.0172047582548203,0.0340566875428444));
#881=CARTESIAN_POINT('',(0.10225,-0.0173191144005053,0.0335651841627055));
#882=CARTESIAN_POINT('',(0.10225,-0.0174082837297785,0.0331530975938751));
#883=CARTESIAN_POINT('',(0.10225,-0.0174784080283811,0.0328134499575274));
#884=CARTESIAN_POINT('',(0.10225,-0.0176061533123612,0.032154450319433));
#885=CARTESIAN_POINT('',(0.10225,-0.0177651882731165,0.031203799591524));
#886=CARTESIAN_POINT('',(0.10225,-0.0179305444585705,0.0299908434560784));
#887=CARTESIAN_POINT('',(0.10225,-0.0180326609538999,0.0290437862667832));
#888=CARTESIAN_POINT('',(0.10225,-0.0180926808718983,0.0283846541395438));
#889=CARTESIAN_POINT('',(0.10225,-0.0181248851714626,0.0280053520991379));
#890=CARTESIAN_POINT('',(0.10225,-0.0181781502340942,0.0273084652749077));
#891=CARTESIAN_POINT('',(0.10225,-0.0182595839370085,0.0259226149990537));
#892=CARTESIAN_POINT('',(0.10225,-0.0183108262948034,0.0238862153836702));
#893=CARTESIAN_POINT('',(0.10225,-0.0182730584643715,0.0218230141534497));
#894=CARTESIAN_POINT('',(0.10225,-0.0181896640183033,0.0202217192958277));
#895=CARTESIAN_POINT('',(0.10225,-0.0181222212577289,0.0193270618372031));
#896=CARTESIAN_POINT('',(0.10225,-0.0180697188135594,0.0187430835595257));
#897=CARTESIAN_POINT('',(0.10225,-0.018026137036182,0.0182903745509849));
#898=CARTESIAN_POINT('',(0.10225,-0.0179463575208074,0.0175434011066855));
#899=CARTESIAN_POINT('',(0.10225,-0.0178129577935701,0.0164990516917762));
#900=CARTESIAN_POINT('',(0.10225,-0.0176550282044097,0.0155082118117725));
#901=CARTESIAN_POINT('',(0.10225,-0.0175159520214611,0.0147535166394844));
#902=CARTESIAN_POINT('',(0.10225,-0.0174223556478722,0.0142936771363644));
#903=CARTESIAN_POINT('',(0.10225,-0.0173572440298391,0.0139915316153896));
#904=CARTESIAN_POINT('',(0.10225,-0.0172700798424028,0.0136029409809053));
#905=CARTESIAN_POINT('',(0.10225,-0.0171231573903688,0.0129914230405515));
#906=CARTESIAN_POINT('',(0.10225,-0.0168938690417523,0.0121469024640849));
#907=CARTESIAN_POINT('',(0.10225,-0.0166460337372509,0.0113804928552556));
#908=CARTESIAN_POINT('',(0.10225,-0.0164394387091377,0.0108165760052751));
#909=CARTESIAN_POINT('',(0.10225,-0.016304665795158,0.010481849524887));
#910=CARTESIAN_POINT('',(0.10225,-0.016217551770707,0.0102765493624333));
#911=CARTESIAN_POINT('',(0.10225,-0.016096090928706,0.0100015415266498));
#912=CARTESIAN_POINT('',(0.10225,-0.0158880839768706,0.00956539752225091));
#913=CARTESIAN_POINT('',(0.10225,-0.0155692172455891,0.00898587710740334));
#914=CARTESIAN_POINT('',(0.10225,-0.015163663180199,0.00838738998906427));
#915=CARTESIAN_POINT('',(0.10225,-0.0148363346378156,0.0080031015446236));
#916=CARTESIAN_POINT('',(0.10225,-0.0146114911611279,0.00777568235981482));
#917=CARTESIAN_POINT('',(0.10225,-0.0144038602373731,0.00758188493214742));
#918=CARTESIAN_POINT('',(0.10225,-0.0140511128207069,0.00729840841600029));
#919=CARTESIAN_POINT('',(0.10225,-0.0135344450973123,0.00698762011074769));
#920=CARTESIAN_POINT('',(0.10225,-0.0127965186564694,0.00673378321528942));
#921=CARTESIAN_POINT('',(0.10225,-0.0120854494951795,0.006665923823866));
#922=CARTESIAN_POINT('',(0.10225,-0.0113964883185297,0.00675107057207343));
#923=CARTESIAN_POINT('',(0.10225,-0.0107096141338583,0.00700070769868276));
#924=CARTESIAN_POINT('',(0.10225,-0.0102305743294949,0.00728919170195222));
#925=CARTESIAN_POINT('',(0.10225,-0.00986649422122868,0.00757419868869646));
#926=CARTESIAN_POINT('',(0.10225,-0.00950423043648391,0.00791418467157095));
#927=CARTESIAN_POINT('',(0.10225,-0.00919842729318076,0.00826773473075714));
#928=CARTESIAN_POINT('',(0.10225,-0.00881644847145324,0.00879594482348163));
#929=CARTESIAN_POINT('',(0.10225,-0.00852539497290349,0.00928836350619886));
#930=CARTESIAN_POINT('',(0.10225,-0.00829895465450967,0.00972631631378177));
#931=CARTESIAN_POINT('',(0.10225,-0.00817383239128118,0.00998940047402628));
#932=CARTESIAN_POINT('',(0.10225,-0.00807362299717673,0.0102140674851538));
#933=CARTESIAN_POINT('',(0.10225,-0.00801925856816953,0.0103396273918416));
#934=CARTESIAN_POINT('',(0.10225,-0.00791788395457359,0.0105807746453904));
#935=CARTESIAN_POINT('',(0.10225,-0.00772592820134833,0.0110711078993428));
#936=CARTESIAN_POINT('',(0.10225,-0.0074644127646762,0.0118337486046167));
#937=CARTESIAN_POINT('',(0.10225,-0.00722428784874683,0.0126703567807021));
#938=CARTESIAN_POINT('',(0.10225,-0.00704490724428517,0.0133827399949666));
#939=CARTESIAN_POINT('',(0.10225,-0.00693283552268198,0.0138689436186442));
#940=CARTESIAN_POINT('',(0.10225,-0.00684550635596907,0.0142763894802091));
#941=CARTESIAN_POINT('',(0.10225,-0.00677633896177544,0.0146144038291356));
#942=CARTESIAN_POINT('',(0.10225,-0.00665062095545351,0.01526826135159));
#943=CARTESIAN_POINT('',(0.10225,-0.0064939231531641,0.0162107955270678));
#944=CARTESIAN_POINT('',(0.10225,-0.00633098820273348,0.0174107002926897));
#945=CARTESIAN_POINT('',(0.10225,-0.00623024943192154,0.0183465879068844));
#946=CARTESIAN_POINT('',(0.10225,-0.00617105950421332,0.0189964786867762));
#947=CARTESIAN_POINT('',(0.10225,-0.00613868438193678,0.0193775892960944));
#948=CARTESIAN_POINT('',(0.10225,-0.0060854712523401,0.020073925783993));
#949=CARTESIAN_POINT('',(0.10225,-0.00600392493296773,0.021460629082772));
#950=CARTESIAN_POINT('',(0.10225,-0.00595287970951237,0.0235009384354966));
#951=CARTESIAN_POINT('',(0.10225,-0.00599050149764786,0.0255511672642842));
#952=CARTESIAN_POINT('',(0.10225,-0.00607294822532495,0.0271433417855375));
#953=CARTESIAN_POINT('',(0.10225,-0.00613957917058391,0.0280321022889568));
#954=CARTESIAN_POINT('',(0.10225,-0.00619149081055914,0.0286125273722128));
#955=CARTESIAN_POINT('',(0.10225,-0.00623420360419793,0.0290587376052191));
#956=CARTESIAN_POINT('',(0.10225,-0.00631248505144153,0.0297967421779019));
#957=CARTESIAN_POINT('',(0.10225,-0.00644316888412407,0.0308284084586371));
#958=CARTESIAN_POINT('',(0.10225,-0.00659775823803351,0.031808465118327));
#959=CARTESIAN_POINT('',(0.10225,-0.0067338137840401,0.0325554679632462));
#960=CARTESIAN_POINT('',(0.10225,-0.00682534493954743,0.0330108873280879));
#961=CARTESIAN_POINT('',(0.10225,-0.0068890138243214,0.0333102612663619));
#962=CARTESIAN_POINT('',(0.10225,-0.00697421746132563,0.0336953080002628));
#963=CARTESIAN_POINT('',(0.10225,-0.00711783989040428,0.0343017061098463));
#964=CARTESIAN_POINT('',(0.10225,-0.00734196946905449,0.0351402865727055));
#965=CARTESIAN_POINT('',(0.10225,-0.00758420916142391,0.0359030094337596));
#966=CARTESIAN_POINT('',(0.10225,-0.0077861594918731,0.0364653176876972));
#967=CARTESIAN_POINT('',(0.10225,-0.0079178457176134,0.0367994936458358));
#968=CARTESIAN_POINT('',(0.10225,-0.00800306367208257,0.0370048734509404));
#969=CARTESIAN_POINT('',(0.10225,-0.0081215188042947,0.0372793796490733));
#970=CARTESIAN_POINT('',(0.10225,-0.00832434039623588,0.0377154445344872));
#971=CARTESIAN_POINT('',(0.10225,-0.00863501445744288,0.038296462515759));
#972=CARTESIAN_POINT('',(0.10225,-0.00902982624099102,0.0388995064179434));
#973=CARTESIAN_POINT('',(0.10225,-0.00934823151878698,0.0392893375389126));
#974=CARTESIAN_POINT('',(0.10225,-0.00956687311126437,0.0395212550903484));
#975=CARTESIAN_POINT('',(0.10225,-0.00976867030573927,0.0397194946260039));
#976=CARTESIAN_POINT('',(0.10225,-0.0101117661924733,0.0400115760826678));
#977=CARTESIAN_POINT('',(0.10225,-0.0106213446429047,0.0403429639468833));
#978=CARTESIAN_POINT('',(0.10225,-0.0113759461530676,0.0406312588242879));
#979=CARTESIAN_POINT('',(0.10225,-0.0120945920535996,0.040716584130275));
#980=CARTESIAN_POINT('',(0.10225,-0.0127841313496417,0.0406474253144469));
#981=CARTESIAN_POINT('',(0.10225,-0.0121318266711719,0.0406910501610657));
#982=CARTESIAN_POINT('',(0.10225,-0.0121156113757504,-0.00610127948866664));
#983=CARTESIAN_POINT('',(0.10225,-0.0134019634238859,-0.0058728104510516));
#984=CARTESIAN_POINT('',(0.10225,-0.0144524513757876,-0.00604428776114851));
#985=CARTESIAN_POINT('',(0.10225,-0.0152096713337289,-0.00633620800223568));
#986=CARTESIAN_POINT('',(0.10225,-0.0157715769565616,-0.00665428933987558));
#987=CARTESIAN_POINT('',(0.10225,-0.0162224447644792,-0.00699008527781138));
#988=CARTESIAN_POINT('',(0.10225,-0.0166638462185823,-0.00738735886381195));
#989=CARTESIAN_POINT('',(0.10225,-0.0170120185584252,-0.00776639242905067));
#990=CARTESIAN_POINT('',(0.10225,-0.0172820356494428,-0.0081005236233643));
#991=CARTESIAN_POINT('',(0.10225,-0.0174452120476801,-0.00831937195959963));
#992=CARTESIAN_POINT('',(0.10225,-0.0175765378894923,-0.00850710349245324));
#993=CARTESIAN_POINT('',(0.10225,-0.0176652830471343,-0.00863822160979109));
#994=CARTESIAN_POINT('',(0.10225,-0.0178373680775662,-0.00890224551597271));
#995=CARTESIAN_POINT('',(0.10225,-0.0181576043543678,-0.00943879654584927));
#996=CARTESIAN_POINT('',(0.10225,-0.0185931662573744,-0.0102959561239566));
#997=CARTESIAN_POINT('',(0.10225,-0.0189870919457463,-0.011255712923647));
#998=CARTESIAN_POINT('',(0.10225,-0.019279775529946,-0.0120898995491483));
#999=CARTESIAN_POINT('',(0.10225,-0.0194530758152435,-0.0126374503057823));
#1000=CARTESIAN_POINT('',(0.10225,-0.0195884696726431,-0.0131026294986397));
#1001=CARTESIAN_POINT('',(0.10225,-0.0196841919202561,-0.0134477548484613));
#1002=CARTESIAN_POINT('',(0.10225,-0.0198610260138996,-0.0141256162114228));
#1003=CARTESIAN_POINT('',(0.10225,-0.0200801761314519,-0.0150986589317084));
#1004=CARTESIAN_POINT('',(0.10225,-0.0203087233432704,-0.0163410872272506));
#1005=CARTESIAN_POINT('',(0.10225,-0.0204498298825468,-0.0173091911164794));
#1006=CARTESIAN_POINT('',(0.10225,-0.0205328070010788,-0.0179820348721257));
#1007=CARTESIAN_POINT('',(0.10225,-0.0205777062945399,-0.0183718478146871));
#1008=CARTESIAN_POINT('',(0.10225,-0.0206519503801015,-0.0190860115871215));
#1009=CARTESIAN_POINT('',(0.10225,-0.020766724030757,-0.0205073111068824));
#1010=CARTESIAN_POINT('',(0.10225,-0.0208426818159118,-0.0226052739148298));
#1011=CARTESIAN_POINT('',(0.10225,-0.0207992376302609,-0.0247001134469793));
#1012=CARTESIAN_POINT('',(0.10225,-0.0206940802982106,-0.0263344393670598));
#1013=CARTESIAN_POINT('',(0.10225,-0.0206077284601383,-0.0272479823932516));
#1014=CARTESIAN_POINT('',(0.10225,-0.0205400182275045,-0.027845845174422));
#1015=CARTESIAN_POINT('',(0.10225,-0.020484611775409,-0.028301915475059));
#1016=CARTESIAN_POINT('',(0.10225,-0.0203824980160788,-0.0290581117398742));
#1017=CARTESIAN_POINT('',(0.10225,-0.0202108824324424,-0.0301166189751412));
#1018=CARTESIAN_POINT('',(0.10225,-0.0200075014552236,-0.0311213569594736));
#1019=CARTESIAN_POINT('',(0.10225,-0.0198259968400982,-0.0318950342069665));
#1020=CARTESIAN_POINT('',(0.10225,-0.0197031713535602,-0.0323703888161098));
#1021=CARTESIAN_POINT('',(0.10225,-0.0196032282025956,-0.0327337211834783));
#1022=CARTESIAN_POINT('',(0.10225,-0.0194621270755374,-0.0332211362500013));
#1023=CARTESIAN_POINT('',(0.10225,-0.0192221851741224,-0.0339823308084832));
#1024=CARTESIAN_POINT('',(0.10225,-0.0188407929350602,-0.0350203259760807));
#1025=CARTESIAN_POINT('',(0.10225,-0.0184231169231513,-0.0359364237253571));
#1026=CARTESIAN_POINT('',(0.10225,-0.0180649906417561,-0.0366058582884896));
#1027=CARTESIAN_POINT('',(0.10225,-0.017828197165481,-0.0370005089075108));
#1028=CARTESIAN_POINT('',(0.10225,-0.0176317746832637,-0.0373035620275731));
#1029=CARTESIAN_POINT('',(0.10225,-0.0173385567442566,-0.0377215844234372));
#1030=CARTESIAN_POINT('',(0.10225,-0.0169874664734508,-0.0381571492989783));
#1031=CARTESIAN_POINT('',(0.10225,-0.0165262767590218,-0.0386341074239963));
#1032=CARTESIAN_POINT('',(0.10225,-0.0159051021700399,-0.0391641796914144));
#1033=CARTESIAN_POINT('',(0.10225,-0.0149351793971154,-0.0397275616048339));
#1034=CARTESIAN_POINT('',(0.10225,-0.013666221283083,-0.0400087018613907));
#1035=CARTESIAN_POINT('',(0.10225,-0.0126029800941821,-0.0398880822349874));
#1036=CARTESIAN_POINT('',(0.10225,-0.0118095398684488,-0.0396119297557318));
#1037=CARTESIAN_POINT('',(0.10225,-0.0112327341889906,-0.0393066970784563));
#1038=CARTESIAN_POINT('',(0.10225,-0.0107692636127508,-0.0389787752041295));
#1039=CARTESIAN_POINT('',(0.10225,-0.010316274168737,-0.0385879505410138));
#1040=CARTESIAN_POINT('',(0.10225,-0.00995887388056764,-0.0382123273976564));
#1041=CARTESIAN_POINT('',(0.10225,-0.00968170223350387,-0.0378798291271521));
#1042=CARTESIAN_POINT('',(0.10225,-0.0095142263712682,-0.0376615835280559));
#1043=CARTESIAN_POINT('',(0.10225,-0.00937938167866085,-0.0374739649581834));
#1044=CARTESIAN_POINT('',(0.10225,-0.00928896378424737,-0.0373438161192023));
#1045=CARTESIAN_POINT('',(0.10225,-0.00911313480841206,-0.0370807484654936));
#1046=CARTESIAN_POINT('',(0.10225,-0.00878614856759228,-0.0365452585550155));
#1047=CARTESIAN_POINT('',(0.10225,-0.00834100715780896,-0.0356860945348829));
#1048=CARTESIAN_POINT('',(0.10225,-0.00793813889824285,-0.034719974419432));
#1049=CARTESIAN_POINT('',(0.10225,-0.00763855853753638,-0.0338779252053809));
#1050=CARTESIAN_POINT('',(0.10225,-0.00746111339694015,-0.0333245096842974));
#1051=CARTESIAN_POINT('',(0.10225,-0.00732232587524163,-0.0328534733399275));
#1052=CARTESIAN_POINT('',(0.10225,-0.00722612673454984,-0.0325106657864277));
#1053=CARTESIAN_POINT('',(0.10225,-0.00704706412079685,-0.031832218784172));
#1054=CARTESIAN_POINT('',(0.10225,-0.0068254159902746,-0.0308584638900217));
#1055=CARTESIAN_POINT('',(0.10225,-0.00659349757359655,-0.0296112149279724));
#1056=CARTESIAN_POINT('',(0.10225,-0.00644989139792575,-0.0286372651150243));
#1057=CARTESIAN_POINT('',(0.10225,-0.00636520354946417,-0.0279596535664556));
#1058=CARTESIAN_POINT('',(0.10225,-0.00631913976450517,-0.027565025296255));
#1059=CARTESIAN_POINT('',(0.10225,-0.00624312423712844,-0.0268428882208805));
#1060=CARTESIAN_POINT('',(0.10225,-0.00612563378740164,-0.0254041462705073));
#1061=CARTESIAN_POINT('',(0.10225,-0.00604834007632888,-0.0232782567269913));
#1062=CARTESIAN_POINT('',(0.10225,-0.00609355852527865,-0.0211527215149351));
#1063=CARTESIAN_POINT('',(0.10225,-0.00620171478543815,-0.0194997140354776));
#1064=CARTESIAN_POINT('',(0.10225,-0.00629038423580308,-0.0185770262464834));
#1065=CARTESIAN_POINT('',(0.10225,-0.00635989096260814,-0.0179737387401886));
#1066=CARTESIAN_POINT('',(0.10225,-0.00641665080605966,-0.0175143257279504));
#1067=CARTESIAN_POINT('',(0.10225,-0.0065211904988526,-0.016752525835424));
#1068=CARTESIAN_POINT('',(0.10225,-0.00669660948076456,-0.0156869684936679));
#1069=CARTESIAN_POINT('',(0.10225,-0.00690421934851678,-0.0146763464061993));
#1070=CARTESIAN_POINT('',(0.10225,-0.00708932457505799,-0.0138987634894547));
#1071=CARTESIAN_POINT('',(0.10225,-0.00721458701497993,-0.0134211083534328));
#1072=CARTESIAN_POINT('',(0.10225,-0.00731635480906768,-0.0130564889422165));
#1073=CARTESIAN_POINT('',(0.10225,-0.00746145290256813,-0.0125629161003942));
#1074=CARTESIAN_POINT('',(0.10225,-0.00770792838392928,-0.0117943403811607));
#1075=CARTESIAN_POINT('',(0.10225,-0.00810047982728241,-0.0107472484509843));
#1076=CARTESIAN_POINT('',(0.10225,-0.00853091707318842,-0.00982617242753291));
#1077=CARTESIAN_POINT('',(0.10225,-0.00890036769318716,-0.00915481352136854));
#1078=CARTESIAN_POINT('',(0.10225,-0.00914473739841572,-0.0087599410884917));
#1079=CARTESIAN_POINT('',(0.10225,-0.00934763382962619,-0.00845712597773079));
#1080=CARTESIAN_POINT('',(0.10225,-0.0096464455885391,-0.00804584741461176));
#1081=CARTESIAN_POINT('',(0.10225,-0.010004991597346,-0.00761797228785206));
#1082=CARTESIAN_POINT('',(0.10225,-0.0104751892280876,-0.00715337272621933));
#1083=CARTESIAN_POINT('',(0.10225,-0.0111083840087437,-0.00664128641387452));
#1084=CARTESIAN_POINT('',(0.10225,-0.0121156113757504,-0.00610127948866664));
#1085=CARTESIAN_POINT('',(0.10225,-0.0134019634238859,-0.0058728104510516));
#1086=CARTESIAN_POINT('',(0.10225,-0.0144524513757876,-0.00604428776114851));
#1087=CARTESIAN_POINT('',(0.10225,-0.0134458574061334,-0.00594444299668831));
#1088=CARTESIAN_POINT('',(0.10225,-0.0183372167243171,0.00526429657902691));
#1089=CARTESIAN_POINT('',(0.10225,-0.0183372167243171,0.00676429657902691));
#1090=CARTESIAN_POINT('',(0.10225,-0.0188605762867465,-0.00472199876851883));
#1091=CARTESIAN_POINT('',(0.10225,-0.0188605762867465,-0.00322199876851883));
#1092=CARTESIAN_POINT('',(0.10225,-0.0150744530805103,0.0484142130369548));
#1093=CARTESIAN_POINT('',(0.10225,-0.008,0.0480434566613632));
#1094=CARTESIAN_POINT('',(0.10225,-0.008,-0.0484627188956274));
#1095=CARTESIAN_POINT('',(0.10225,-0.0201182741939157,-0.0478276270563813));
#1096=CARTESIAN_POINT('',(0.10225,-0.0150744530805103,0.0484142130369548));
#1097=CARTESIAN_POINT('',(0.10225,-0.008,0.0480434566613632));
#1098=CARTESIAN_POINT('',(0.10225,-0.0201182741939157,-0.0478276270563813));
#1099=CARTESIAN_POINT('',(0.10225,-0.008,-0.0484627188956274));
#1100=CARTESIAN_POINT('',(0.105252,-0.0188605762867465,-0.00472199876851883));
#1101=CARTESIAN_POINT('',(0.105252,-0.0183372167243171,0.00526429657902691));
#1102=CARTESIAN_POINT('',(0.10525,-0.0137658257529674,0.0379100282347963));
#1103=CARTESIAN_POINT('',(0.10425,-0.0137658257529674,0.0379100282347963));
#1104=CARTESIAN_POINT('',(0.10525,-0.0121318266711719,0.0390815611242003));
#1105=CARTESIAN_POINT('',(0.10425,-0.0121318266711719,0.0390815611242003));
#1106=CARTESIAN_POINT('',(0.10525,-0.0104978275893764,0.0379100282347963));
#1107=CARTESIAN_POINT('',(0.10425,-0.0104978275893764,0.0379100282347963));
#1108=CARTESIAN_POINT('',(0.10525,-0.00911259005554576,0.0345737848290241));
#1109=CARTESIAN_POINT('',(0.10425,-0.00911259005554576,0.0345737848290241));
#1110=CARTESIAN_POINT('',(0.10525,-0.0081870039269961,0.0295807437222906));
#1111=CARTESIAN_POINT('',(0.10425,-0.0081870039269961,0.0295807437222906));
#1112=CARTESIAN_POINT('',(0.10525,-0.00786198130133997,0.0236910501610656));
#1113=CARTESIAN_POINT('',(0.10425,-0.00786198130133997,0.0236910501610656));
#1114=CARTESIAN_POINT('',(0.10525,-0.0081870039269961,0.0178013565998407));
#1115=CARTESIAN_POINT('',(0.10425,-0.0081870039269961,0.0178013565998407));
#1116=CARTESIAN_POINT('',(0.10525,-0.00911259005554577,0.0128083154931072));
#1117=CARTESIAN_POINT('',(0.10425,-0.00911259005554577,0.0128083154931072));
#1118=CARTESIAN_POINT('',(0.10525,-0.0104978275893764,0.00947207208733498));
#1119=CARTESIAN_POINT('',(0.10425,-0.0104978275893764,0.00947207208733498));
#1120=CARTESIAN_POINT('',(0.10525,-0.0121318266711719,0.00830053919793099));
#1121=CARTESIAN_POINT('',(0.10425,-0.0121318266711719,0.00830053919793099));
#1122=CARTESIAN_POINT('',(0.10525,-0.0137658257529674,0.00947207208733495));
#1123=CARTESIAN_POINT('',(0.10425,-0.0137658257529674,0.00947207208733495));
#1124=CARTESIAN_POINT('',(0.10525,-0.015151063286798,0.0128083154931073));
#1125=CARTESIAN_POINT('',(0.10425,-0.015151063286798,0.0128083154931073));
#1126=CARTESIAN_POINT('',(0.10525,-0.0160766494153477,0.0178013565998407));
#1127=CARTESIAN_POINT('',(0.10425,-0.0160766494153477,0.0178013565998407));
#1128=CARTESIAN_POINT('',(0.10525,-0.0164016720410038,0.0236910501610657));
#1129=CARTESIAN_POINT('',(0.10425,-0.0164016720410038,0.0236910501610657));
#1130=CARTESIAN_POINT('',(0.10525,-0.0160766494153477,0.0295807437222905));
#1131=CARTESIAN_POINT('',(0.10425,-0.0160766494153477,0.0295807437222905));
#1132=CARTESIAN_POINT('',(0.10525,-0.015151063286798,0.034573784829024));
#1133=CARTESIAN_POINT('',(0.10425,-0.015151063286798,0.034573784829024));
#1134=CARTESIAN_POINT('',(0.10525,-0.0137658257529674,0.0379100282347963));
#1135=CARTESIAN_POINT('',(0.10425,-0.0137658257529674,0.0379100282347963));
#1136=CARTESIAN_POINT('',(0.10525,-0.0121318266711719,0.0390815611242003));
#1137=CARTESIAN_POINT('',(0.10425,-0.0121318266711719,0.0390815611242003));
#1138=CARTESIAN_POINT('',(0.10525,-0.0104978275893764,0.0379100282347963));
#1139=CARTESIAN_POINT('',(0.10425,-0.0104978275893764,0.0379100282347963));
#1140=CARTESIAN_POINT('',(0.10425,-0.0137658257529673,0.0379100282347964));
#1141=CARTESIAN_POINT('',(0.10425,-0.0121318266711719,0.0390815611242003));
#1142=CARTESIAN_POINT('',(0.10425,-0.0104978275893764,0.0379100282347963));
#1143=CARTESIAN_POINT('',(0.10425,-0.00911259005554576,0.0345737848290241));
#1144=CARTESIAN_POINT('',(0.10425,-0.0081870039269961,0.0295807437222906));
#1145=CARTESIAN_POINT('',(0.10425,-0.00786198130133997,0.0236910501610656));
#1146=CARTESIAN_POINT('',(0.10425,-0.0081870039269961,0.0178013565998407));
#1147=CARTESIAN_POINT('',(0.10425,-0.00911259005554577,0.0128083154931072));
#1148=CARTESIAN_POINT('',(0.10425,-0.0104978275893764,0.00947207208733496));
#1149=CARTESIAN_POINT('',(0.10425,-0.0121318266711719,0.00830053919793099));
#1150=CARTESIAN_POINT('',(0.10425,-0.0137658257529674,0.00947207208733499));
#1151=CARTESIAN_POINT('',(0.10425,-0.015151063286798,0.0128083154931073));
#1152=CARTESIAN_POINT('',(0.10425,-0.0160766494153477,0.0178013565998408));
#1153=CARTESIAN_POINT('',(0.10425,-0.0164016720410038,0.0236910501610657));
#1154=CARTESIAN_POINT('',(0.10425,-0.0160766494153477,0.0295807437222906));
#1155=CARTESIAN_POINT('',(0.10425,-0.015151063286798,0.0345737848290241));
#1156=CARTESIAN_POINT('',(0.10425,-0.0137658257529673,0.0379100282347964));
#1157=CARTESIAN_POINT('',(0.10425,-0.0121318266711719,0.0390815611242003));
#1158=CARTESIAN_POINT('',(0.10425,-0.0104978275893764,0.0379100282347963));
#1159=CARTESIAN_POINT('',(0.10425,-0.0121318266711719,0.0386910501610657));
#1160=CARTESIAN_POINT('',(0.10525,-0.0155560349784238,-0.00872546492295762));
#1161=CARTESIAN_POINT('',(0.10425,-0.0155560349784238,-0.00872546492295762));
#1162=CARTESIAN_POINT('',(0.10525,-0.0134458574061334,-0.00755393203355364));
#1163=CARTESIAN_POINT('',(0.10425,-0.0134458574061334,-0.00755393203355364));
#1164=CARTESIAN_POINT('',(0.10525,-0.011335679833843,-0.00872546492295762));
#1165=CARTESIAN_POINT('',(0.10425,-0.011335679833843,-0.00872546492295762));
#1166=CARTESIAN_POINT('',(0.10525,-0.00954675766812653,-0.0120617083287299));
#1167=CARTESIAN_POINT('',(0.10425,-0.00954675766812653,-0.0120617083287299));
#1168=CARTESIAN_POINT('',(0.10525,-0.00835143809209442,-0.0170547494354634));
#1169=CARTESIAN_POINT('',(0.10425,-0.00835143809209442,-0.0170547494354634));
#1170=CARTESIAN_POINT('',(0.10525,-0.00793169767559868,-0.0229444429966883));
#1171=CARTESIAN_POINT('',(0.10425,-0.00793169767559868,-0.0229444429966883));
#1172=CARTESIAN_POINT('',(0.10525,-0.00835143809209443,-0.0288341365579132));
#1173=CARTESIAN_POINT('',(0.10425,-0.00835143809209443,-0.0288341365579132));
#1174=CARTESIAN_POINT('',(0.10525,-0.00954675766812654,-0.0338271776646467));
#1175=CARTESIAN_POINT('',(0.10425,-0.00954675766812654,-0.0338271776646467));
#1176=CARTESIAN_POINT('',(0.10525,-0.011335679833843,-0.037163421070419));
#1177=CARTESIAN_POINT('',(0.10425,-0.011335679833843,-0.037163421070419));
#1178=CARTESIAN_POINT('',(0.10525,-0.0134458574061335,-0.038334953959823));
#1179=CARTESIAN_POINT('',(0.10425,-0.0134458574061335,-0.038334953959823));
#1180=CARTESIAN_POINT('',(0.10525,-0.0155560349784238,-0.037163421070419));
#1181=CARTESIAN_POINT('',(0.10425,-0.0155560349784238,-0.037163421070419));
#1182=CARTESIAN_POINT('',(0.10525,-0.0173449571441404,-0.0338271776646467));
#1183=CARTESIAN_POINT('',(0.10425,-0.0173449571441404,-0.0338271776646467));
#1184=CARTESIAN_POINT('',(0.10525,-0.0185402767201724,-0.0288341365579133));
#1185=CARTESIAN_POINT('',(0.10425,-0.0185402767201724,-0.0288341365579133));
#1186=CARTESIAN_POINT('',(0.10525,-0.0189600171366682,-0.0229444429966882));
#1187=CARTESIAN_POINT('',(0.10425,-0.0189600171366682,-0.0229444429966882));
#1188=CARTESIAN_POINT('',(0.10525,-0.0185402767201725,-0.0170547494354634));
#1189=CARTESIAN_POINT('',(0.10425,-0.0185402767201725,-0.0170547494354634));
#1190=CARTESIAN_POINT('',(0.10525,-0.0173449571441404,-0.0120617083287299));
#1191=CARTESIAN_POINT('',(0.10425,-0.0173449571441404,-0.0120617083287299));
#1192=CARTESIAN_POINT('',(0.10525,-0.0155560349784238,-0.00872546492295762));
#1193=CARTESIAN_POINT('',(0.10425,-0.0155560349784238,-0.00872546492295762));
#1194=CARTESIAN_POINT('',(0.10525,-0.0134458574061334,-0.00755393203355364));
#1195=CARTESIAN_POINT('',(0.10425,-0.0134458574061334,-0.00755393203355364));
#1196=CARTESIAN_POINT('',(0.10525,-0.011335679833843,-0.00872546492295762));
#1197=CARTESIAN_POINT('',(0.10425,-0.011335679833843,-0.00872546492295762));
#1198=CARTESIAN_POINT('',(0.10425,-0.0155560349784238,-0.00872546492295759));
#1199=CARTESIAN_POINT('',(0.10425,-0.0134458574061334,-0.00755393203355365));
#1200=CARTESIAN_POINT('',(0.10425,-0.011335679833843,-0.00872546492295762));
#1201=CARTESIAN_POINT('',(0.10425,-0.00954675766812653,-0.0120617083287299));
#1202=CARTESIAN_POINT('',(0.10425,-0.00835143809209442,-0.0170547494354634));
#1203=CARTESIAN_POINT('',(0.10425,-0.00793169767559868,-0.0229444429966883));
#1204=CARTESIAN_POINT('',(0.10425,-0.00835143809209443,-0.0288341365579132));
#1205=CARTESIAN_POINT('',(0.10425,-0.00954675766812653,-0.0338271776646467));
#1206=CARTESIAN_POINT('',(0.10425,-0.011335679833843,-0.037163421070419));
#1207=CARTESIAN_POINT('',(0.10425,-0.0134458574061335,-0.038334953959823));
#1208=CARTESIAN_POINT('',(0.10425,-0.0155560349784239,-0.037163421070419));
#1209=CARTESIAN_POINT('',(0.10425,-0.0173449571441404,-0.0338271776646467));
#1210=CARTESIAN_POINT('',(0.10425,-0.0185402767201725,-0.0288341365579132));
#1211=CARTESIAN_POINT('',(0.10425,-0.0189600171366682,-0.0229444429966883));
#1212=CARTESIAN_POINT('',(0.10425,-0.0185402767201724,-0.0170547494354633));
#1213=CARTESIAN_POINT('',(0.10425,-0.0173449571441403,-0.0120617083287298));
#1214=CARTESIAN_POINT('',(0.10425,-0.0155560349784238,-0.00872546492295759));
#1215=CARTESIAN_POINT('',(0.10425,-0.0134458574061334,-0.00755393203355365));
#1216=CARTESIAN_POINT('',(0.10425,-0.011335679833843,-0.00872546492295762));
#1217=CARTESIAN_POINT('',(0.10425,-0.0134458574061334,-0.00794444299668831));
#1218=CARTESIAN_POINT('',(0.10425,-0.0124303308698164,0.0386911794895263));
#1219=CARTESIAN_POINT('',(0.10425,-0.0118333224725274,0.0386909208326051));
#1220=CARTESIAN_POINT('',(0.10425,-0.0115242112434514,0.0385794369710089));
#1221=CARTESIAN_POINT('',(0.10425,-0.0108492605520841,0.0380187846530596));
#1222=CARTESIAN_POINT('',(0.10425,-0.0105012611340674,0.0375491958373073));
#1223=CARTESIAN_POINT('',(0.10425,-0.00989749131404587,0.0364022468784476));
#1224=CARTESIAN_POINT('',(0.10425,-0.00963842019424177,0.0357464485637801));
#1225=CARTESIAN_POINT('',(0.10425,-0.00919559916731206,0.034372818058392));
#1226=CARTESIAN_POINT('',(0.10425,-0.00900898734829785,0.0336484973578711));
#1227=CARTESIAN_POINT('',(0.10425,-0.00852978335317652,0.0314356915318223));
#1228=CARTESIAN_POINT('',(0.10425,-0.00831959089795978,0.0299164348128302));
#1229=CARTESIAN_POINT('',(0.10425,-0.00803927390676713,0.0268558324765624));
#1230=CARTESIAN_POINT('',(0.10425,-0.00797241734848883,0.0253103270819207));
#1231=CARTESIAN_POINT('',(0.10425,-0.00796831469924518,0.022209488286914));
#1232=CARTESIAN_POINT('',(0.10425,-0.00803205791636542,0.0206504568958253));
#1233=CARTESIAN_POINT('',(0.10425,-0.0083047401356057,0.0175863505615704));
#1234=CARTESIAN_POINT('',(0.10425,-0.00851204878315204,0.0160645523556006));
#1235=CARTESIAN_POINT('',(0.10425,-0.0089762498447197,0.0138691629564791));
#1236=CARTESIAN_POINT('',(0.10425,-0.00915799127278369,0.0131457808890236));
#1237=CARTESIAN_POINT('',(0.10425,-0.00959533310232532,0.0117527868088135));
#1238=CARTESIAN_POINT('',(0.10425,-0.00985207438850215,0.0110863917709328));
#1239=CARTESIAN_POINT('',(0.10425,-0.0104424982346997,0.00992666445275683));
#1240=CARTESIAN_POINT('',(0.10425,-0.0107884118601131,0.00943457035857844));
#1241=CARTESIAN_POINT('',(0.10425,-0.0114712207056731,0.00883014434942972));
#1242=CARTESIAN_POINT('',(0.10425,-0.011786344185623,0.00870382711114543));
#1243=CARTESIAN_POINT('',(0.10425,-0.0123803587495317,0.0086803085864708));
#1244=CARTESIAN_POINT('',(0.10425,-0.0126875402975031,0.00877692405143884));
#1245=CARTESIAN_POINT('',(0.10425,-0.0133637324310697,0.00930530539821772));
#1246=CARTESIAN_POINT('',(0.10425,-0.0137150516477738,0.00976110179676917));
#1247=CARTESIAN_POINT('',(0.10425,-0.0143273992475133,0.0108912262228854));
#1248=CARTESIAN_POINT('',(0.10425,-0.0145940836915335,0.0115512581718496));
#1249=CARTESIAN_POINT('',(0.10425,-0.0150451919967943,0.0129275435345126));
#1250=CARTESIAN_POINT('',(0.10425,-0.0152355741808984,0.0136555141041046));
#1251=CARTESIAN_POINT('',(0.10425,-0.0157229659671866,0.0158770100361369));
#1252=CARTESIAN_POINT('',(0.10425,-0.0159393505922966,0.0174225436038072));
#1253=CARTESIAN_POINT('',(0.10425,-0.0162244606417857,0.0205188949173688));
#1254=CARTESIAN_POINT('',(0.10425,-0.0162913516665109,0.022072471084649));
#1255=CARTESIAN_POINT('',(0.10425,-0.0162952271053023,0.0251752000527237));
#1256=CARTESIAN_POINT('',(0.10425,-0.0162321298525629,0.0267251857032907));
#1257=CARTESIAN_POINT('',(0.10425,-0.015958378411562,0.0298022116343622));
#1258=CARTESIAN_POINT('',(0.10425,-0.0157507628707514,0.0313351695051313));
#1259=CARTESIAN_POINT('',(0.10425,-0.0152734505338626,0.0335718669759998));
#1260=CARTESIAN_POINT('',(0.10425,-0.0150878085299734,0.0343020748719616));
#1261=CARTESIAN_POINT('',(0.10425,-0.0146461892024439,0.0356900575410462));
#1262=CARTESIAN_POINT('',(0.10425,-0.0143899977761481,0.036349721744702));
#1263=CARTESIAN_POINT('',(0.10425,-0.0137819224164531,0.0375191755281966));
#1264=CARTESIAN_POINT('',(0.10425,-0.0134340865965338,0.0379976371461856));
#1265=CARTESIAN_POINT('',(0.10425,-0.0127425346259363,0.038581309657248));
#1266=CARTESIAN_POINT('',(0.10425,-0.0124303308698164,0.0386911794895263));
#1267=CARTESIAN_POINT('',(0.10425,-0.0118333224725274,0.0386909208326051));
#1268=CARTESIAN_POINT('',(0.10225,-0.0129592072553147,0.0406917092654146));
#1269=CARTESIAN_POINT('',(0.10225,-0.0113044460870291,0.0406903910567167));
#1270=CARTESIAN_POINT('',(0.10225,-0.0105156695723457,0.0403515034188015));
#1271=CARTESIAN_POINT('',(0.10225,-0.00928404943444906,0.0393087104623522));
#1272=CARTESIAN_POINT('',(0.10225,-0.00881042345376145,0.0386281601597287));
#1273=CARTESIAN_POINT('',(0.10225,-0.00805276240388607,0.0371940494801465));
#1274=CARTESIAN_POINT('',(0.10225,-0.00776068360716102,0.036439104926142));
#1275=CARTESIAN_POINT('',(0.10225,-0.00726620877628951,0.0349072656739383));
#1276=CARTESIAN_POINT('',(0.10225,-0.00706639005021346,0.0341238757718446));
#1277=CARTESIAN_POINT('',(0.10225,-0.00655045621141814,0.031752761500161));
#1278=CARTESIAN_POINT('',(0.10225,-0.00633400279824685,0.0301640557912296));
#1279=CARTESIAN_POINT('',(0.10225,-0.0060414777554751,0.0269724228500532));
#1280=CARTESIAN_POINT('',(0.10225,-0.00597249544440457,0.0253702984147186));
#1281=CARTESIAN_POINT('',(0.10225,-0.00596823984730158,0.0221546112417565));
#1282=CARTESIAN_POINT('',(0.10225,-0.00603401433897264,0.0205386224538562));
#1283=CARTESIAN_POINT('',(0.10225,-0.00631846207069135,0.0173443756613183));
#1284=CARTESIAN_POINT('',(0.10225,-0.00653222934176123,0.0157531551356243));
#1285=CARTESIAN_POINT('',(0.10225,-0.0070310029653354,0.0134044941487151));
#1286=CARTESIAN_POINT('',(0.10225,-0.00722536146690318,0.0126237487901552));
#1287=CARTESIAN_POINT('',(0.10225,-0.00771173591231433,0.011076315042094));
#1288=CARTESIAN_POINT('',(0.10225,-0.00799999647117169,0.0103132048620705));
#1289=CARTESIAN_POINT('',(0.10225,-0.00873318976290515,0.00887871792681674));
#1290=CARTESIAN_POINT('',(0.10225,-0.00919357246677208,0.00818513223731771));
#1291=CARTESIAN_POINT('',(0.10225,-0.0103997801802616,0.00709781262798674));
#1292=CARTESIAN_POINT('',(0.10225,-0.0111780791509538,0.00672784316996323));
#1293=CARTESIAN_POINT('',(0.10225,-0.012820814067213,0.00665981409046803));
#1294=CARTESIAN_POINT('',(0.10225,-0.0136323635283675,0.00696619549764887));
#1295=CARTESIAN_POINT('',(0.10225,-0.0149036493531691,0.00798137824966175));
#1296=CARTESIAN_POINT('',(0.10225,-0.0153897962838312,0.00865638480066321));
#1297=CARTESIAN_POINT('',(0.10225,-0.0161657159715116,0.0100832488156736));
#1298=CARTESIAN_POINT('',(0.10225,-0.0164675442486797,0.0108468680876553));
#1299=CARTESIAN_POINT('',(0.10225,-0.0169725753939001,0.0123855046253714));
#1300=CARTESIAN_POINT('',(0.10225,-0.017176572039602,0.0131738692485164));
#1301=CARTESIAN_POINT('',(0.10225,-0.0177020142893502,0.0155564918309124));
#1302=CARTESIAN_POINT('',(0.10225,-0.0179247227005129,0.0171729844321557));
#1303=CARTESIAN_POINT('',(0.10225,-0.0182222751623441,0.0204020877691306));
#1304=CARTESIAN_POINT('',(0.10225,-0.0182912770255938,0.0220125151488617));
#1305=CARTESIAN_POINT('',(0.10225,-0.0182952986552049,0.0252301832521487));
#1306=CARTESIAN_POINT('',(0.10225,-0.0182302090234866,0.0268367219948332));
#1307=CARTESIAN_POINT('',(0.10225,-0.0179446208673475,0.0300444848606916));
#1308=CARTESIAN_POINT('',(0.10225,-0.0177308864785084,0.0316467460929367));
#1309=CARTESIAN_POINT('',(0.10225,-0.0172175521839573,0.0340411265405594));
#1310=CARTESIAN_POINT('',(0.10225,-0.0170189640377376,0.03482994715558));
#1311=CARTESIAN_POINT('',(0.10225,-0.0165267937968378,0.0363748207853567));
#1312=CARTESIAN_POINT('',(0.10225,-0.016239533721008,0.0371312513737339));
#1313=CARTESIAN_POINT('',(0.10225,-0.0154788830105512,0.038587608682347));
#1314=CARTESIAN_POINT('',(0.10225,-0.0150105527963635,0.0392738182437569));
#1315=CARTESIAN_POINT('',(0.10225,-0.0137588592855562,0.0403510168634648));
#1316=CARTESIAN_POINT('',(0.10225,-0.0129592072553147,0.0406917092654146));
#1317=CARTESIAN_POINT('',(0.10225,-0.0113044460870291,0.0406903910567167));
#1318=CARTESIAN_POINT('',(0.10425,-0.0138557923767303,-0.0079446762151173));
#1319=CARTESIAN_POINT('',(0.10425,-0.0130359224355365,-0.00794420977825932));
#1320=CARTESIAN_POINT('',(0.10425,-0.0126091711290035,-0.00807902458819419));
#1321=CARTESIAN_POINT('',(0.10425,-0.0117621537614573,-0.00864628923314993));
#1322=CARTESIAN_POINT('',(0.10425,-0.0113409015331117,-0.00909099364478901));
#1323=CARTESIAN_POINT('',(0.10425,-0.0105892314333827,-0.0101853597824486));
#1324=CARTESIAN_POINT('',(0.10425,-0.0102553160857908,-0.0108282292166133));
#1325=CARTESIAN_POINT('',(0.10425,-0.00968455971454683,-0.0121801900799783));
#1326=CARTESIAN_POINT('',(0.10425,-0.0094402715938322,-0.0128997477995193));
#1327=CARTESIAN_POINT('',(0.10425,-0.00880966256113575,-0.0151247810868926));
#1328=CARTESIAN_POINT('',(0.10425,-0.00852602178678939,-0.0166875233048495));
#1329=CARTESIAN_POINT('',(0.10425,-0.00815616677096611,-0.0198207846881569));
#1330=CARTESIAN_POINT('',(0.10425,-0.00806948633403729,-0.0214092081679505));
#1331=CARTESIAN_POINT('',(0.10425,-0.0080738228560511,-0.0246003085374141));
#1332=CARTESIAN_POINT('',(0.10425,-0.00816634945881501,-0.0262061986485189));
#1333=CARTESIAN_POINT('',(0.10425,-0.0085490599473475,-0.0293403797205375));
#1334=CARTESIAN_POINT('',(0.10425,-0.00883587664134107,-0.0308853685581152));
#1335=CARTESIAN_POINT('',(0.10425,-0.00947714636528752,-0.0331031630925874));
#1336=CARTESIAN_POINT('',(0.10425,-0.00972810982776386,-0.0338277351421288));
#1337=CARTESIAN_POINT('',(0.10425,-0.0103103707170113,-0.0351721894048064));
#1338=CARTESIAN_POINT('',(0.10425,-0.0106443551766994,-0.0358000519882879));
#1339=CARTESIAN_POINT('',(0.10425,-0.0114093072405873,-0.0368779593859957));
#1340=CARTESIAN_POINT('',(0.10425,-0.011828506843754,-0.0373028190791167));
#1341=CARTESIAN_POINT('',(0.10425,-0.0126874180597278,-0.0378440451753904));
#1342=CARTESIAN_POINT('',(0.10425,-0.0131063320239138,-0.0379581963810458));
#1343=CARTESIAN_POINT('',(0.10425,-0.0139312425185263,-0.037927927209889));
#1344=CARTESIAN_POINT('',(0.10425,-0.0143530118666523,-0.0377799558304376));
#1345=CARTESIAN_POINT('',(0.10425,-0.0152073801027045,-0.037169549816149));
#1346=CARTESIAN_POINT('',(0.10425,-0.0156226347706018,-0.0367106684798817));
#1347=CARTESIAN_POINT('',(0.10425,-0.0163677638325885,-0.0355881027291663));
#1348=CARTESIAN_POINT('',(0.10425,-0.0166874331540293,-0.0349526652846008));
#1349=CARTESIAN_POINT('',(0.10425,-0.017244402315036,-0.0336054304302467));
#1350=CARTESIAN_POINT('',(0.10425,-0.0174817126668648,-0.0328922047308458));
#1351=CARTESIAN_POINT('',(0.10425,-0.0180979957659516,-0.0306858284669922));
#1352=CARTESIAN_POINT('',(0.10425,-0.0183780785980981,-0.0291221270509832));
#1353=CARTESIAN_POINT('',(0.10425,-0.0187384476791666,-0.0260167337962128));
#1354=CARTESIAN_POINT('',(0.10425,-0.0188226678103006,-0.0244452995564446));
#1355=CARTESIAN_POINT('',(0.10425,-0.0188174239544648,-0.0213044717314233));
#1356=CARTESIAN_POINT('',(0.10425,-0.0187289175007074,-0.0197330481746926));
#1357=CARTESIAN_POINT('',(0.10425,-0.0183513018157165,-0.016598867062552));
#1358=CARTESIAN_POINT('',(0.10425,-0.018063289475631,-0.0150468498497895));
#1359=CARTESIAN_POINT('',(0.10425,-0.0174378189943289,-0.0128578802761554));
#1360=CARTESIAN_POINT('',(0.10425,-0.0171943541206679,-0.0121445277354524));
#1361=CARTESIAN_POINT('',(0.10425,-0.0166181311383907,-0.0107906365727659));
#1362=CARTESIAN_POINT('',(0.10425,-0.0162880169485751,-0.0101611506553325));
#1363=CARTESIAN_POINT('',(0.10425,-0.0155429123468118,-0.00908280972026146));
#1364=CARTESIAN_POINT('',(0.10425,-0.0151237733810405,-0.00864117238700748));
#1365=CARTESIAN_POINT('',(0.10425,-0.0142769991820186,-0.00807653022925327));
#1366=CARTESIAN_POINT('',(0.10425,-0.0138557923767303,-0.0079446762151173));
#1367=CARTESIAN_POINT('',(0.10425,-0.0130359224355365,-0.00794420977825932));
#1368=CARTESIAN_POINT('',(0.10225,-0.0142871862039085,-0.00594483265154296));
#1369=CARTESIAN_POINT('',(0.10225,-0.0126045286083584,-0.00594405334183366));
#1370=CARTESIAN_POINT('',(0.10225,-0.0117630679614105,-0.00623396532309393));
#1371=CARTESIAN_POINT('',(0.10225,-0.0103743631542141,-0.00717325889687588));
#1372=CARTESIAN_POINT('',(0.10225,-0.00979501877399213,-0.00780978683524609));
#1373=CARTESIAN_POINT('',(0.10225,-0.00884052121583198,-0.00919816250143041));
#1374=CARTESIAN_POINT('',(0.10225,-0.00845261664026806,-0.00995666894893343));
#1375=CARTESIAN_POINT('',(0.10225,-0.00780261630100621,-0.0114950207625493));
#1376=CARTESIAN_POINT('',(0.10225,-0.00753548454239033,-0.0122889114078817));
#1377=CARTESIAN_POINT('',(0.10225,-0.00684637747272963,-0.0147111872993789));
#1378=CARTESIAN_POINT('',(0.10225,-0.00655007304458687,-0.0163674668632807));
#1379=CARTESIAN_POINT('',(0.10225,-0.00615965024266657,-0.0196723118620647));
#1380=CARTESIAN_POINT('',(0.10225,-0.00606938342131286,-0.0213357823385628));
#1381=CARTESIAN_POINT('',(0.10225,-0.00607392991986622,-0.0246794970665428));
#1382=CARTESIAN_POINT('',(0.10225,-0.0061702939941505,-0.0263614881490088));
#1383=CARTESIAN_POINT('',(0.10225,-0.00657447163236873,-0.0296688132556581));
#1384=CARTESIAN_POINT('',(0.10225,-0.00687406942273932,-0.0313072799778064));
#1385=CARTESIAN_POINT('',(0.10225,-0.0075760685380778,-0.0337253838344064));
#1386=CARTESIAN_POINT('',(0.10225,-0.00785090324294533,-0.0345264706695374));
#1387=CARTESIAN_POINT('',(0.10225,-0.00851675992239525,-0.036062510127768));
#1388=CARTESIAN_POINT('',(0.10225,-0.00890613402701348,-0.0368073090479326));
#1389=CARTESIAN_POINT('',(0.10225,-0.00988721086875777,-0.0381880994996684));
#1390=CARTESIAN_POINT('',(0.10225,-0.0104716802499416,-0.0388071958221023));
#1391=CARTESIAN_POINT('',(0.10225,-0.0119058694633134,-0.0397201050234123));
#1392=CARTESIAN_POINT('',(0.10225,-0.012748559838236,-0.0399733889012059));
#1393=CARTESIAN_POINT('',(0.10225,-0.0144404231769576,-0.0399098680968568));
#1394=CARTESIAN_POINT('',(0.10225,-0.0152573929904021,-0.0395959962125971));
#1395=CARTESIAN_POINT('',(0.10225,-0.0166303146911437,-0.0386067542104854));
#1396=CARTESIAN_POINT('',(0.10225,-0.0171919719747297,-0.0379618269956029));
#1397=CARTESIAN_POINT('',(0.10225,-0.0181293302161462,-0.0365516860244795));
#1398=CARTESIAN_POINT('',(0.10225,-0.0184981031017207,-0.0358070933756754));
#1399=CARTESIAN_POINT('',(0.10225,-0.0191303893847143,-0.0342789836531718));
#1400=CARTESIAN_POINT('',(0.10225,-0.0193894764707771,-0.0334936910305648));
#1401=CARTESIAN_POINT('',(0.10225,-0.0200620198896065,-0.0310943091815389));
#1402=CARTESIAN_POINT('',(0.10225,-0.0203547640950732,-0.0294374734655006));
#1403=CARTESIAN_POINT('',(0.10225,-0.0207350604140339,-0.0261627995194185));
#1404=CARTESIAN_POINT('',(0.10225,-0.02082279269562,-0.0245170956731955));
#1405=CARTESIAN_POINT('',(0.10225,-0.0208172935484395,-0.0212260298929648));
#1406=CARTESIAN_POINT('',(0.10225,-0.0207251147838251,-0.0195801943890636));
#1407=CARTESIAN_POINT('',(0.10225,-0.0203264189646374,-0.0162735350245913));
#1408=CARTESIAN_POINT('',(0.10225,-0.0200251152508366,-0.0146272759301241));
#1409=CARTESIAN_POINT('',(0.10225,-0.0193412988984151,-0.0122428774304904));
#1410=CARTESIAN_POINT('',(0.10225,-0.0190749173299644,-0.0114553828898027));
#1411=CARTESIAN_POINT('',(0.10225,-0.018417901628124,-0.0099128915487106));
#1412=CARTESIAN_POINT('',(0.10225,-0.0180337313153621,-0.00916860836091896));
#1413=CARTESIAN_POINT('',(0.10225,-0.0170856966328319,-0.0077981219844658));
#1414=CARTESIAN_POINT('',(0.10225,-0.0165087916618388,-0.00716550241745153));
#1415=CARTESIAN_POINT('',(0.10225,-0.0151185477606407,-0.00622918951261953));
#1416=CARTESIAN_POINT('',(0.10225,-0.0142871862039085,-0.00594483265154296));
#1417=CARTESIAN_POINT('',(0.10225,-0.0126045286083584,-0.00594405334183366));
#1418=MECHANICAL_DESIGN_GEOMETRIC_PRESENTATION_REPRESENTATION('',(#535),
#1419);
#1419=(
GEOMETRIC_REPRESENTATION_CONTEXT(3)
GLOBAL_UNCERTAINTY_ASSIGNED_CONTEXT((#1420))
GLOBAL_UNIT_ASSIGNED_CONTEXT((#1423,#1422,#1421))
REPRESENTATION_CONTEXT('LCD retention bracket',
'TOP_LEVEL_ASSEMBLY_PART')
);
#1420=UNCERTAINTY_MEASURE_WITH_UNIT(LENGTH_MEASURE(2.E-5),#1423,
'DISTANCE_ACCURACY_VALUE','Maximum Tolerance applied to model');
#1421=(
NAMED_UNIT(*)
SI_UNIT($,.STERADIAN.)
SOLID_ANGLE_UNIT()
);
#1422=(
NAMED_UNIT(*)
PLANE_ANGLE_UNIT()
SI_UNIT($,.RADIAN.)
);
#1423=(
LENGTH_UNIT()
NAMED_UNIT(*)
SI_UNIT($,.METRE.)
);
#1424=PRODUCT_DEFINITION_SHAPE('','',#1425);
#1425=PRODUCT_DEFINITION('','',#1427,#1426);
#1426=PRODUCT_DEFINITION_CONTEXT('',#1433,'design');
#1427=PRODUCT_DEFINITION_FORMATION_WITH_SPECIFIED_SOURCE('','',#1429,
 .NOT_KNOWN.);
#1428=PRODUCT_RELATED_PRODUCT_CATEGORY('','',(#1429));
#1429=PRODUCT('LCD retention bracket','LCD retention bracket',
'LCD retention bracket',(#1431));
#1430=PRODUCT_CATEGORY('','');
#1431=PRODUCT_CONTEXT('',#1433,'mechanical');
#1432=APPLICATION_PROTOCOL_DEFINITION('international standard',
'ap242_managed_model_based_3d_engineering',2020,#1433);
#1433=APPLICATION_CONTEXT('managed model based 3d engineering');
ENDSEC;
END-ISO-10303-21;
