ISO-10303-21;
HEADER;
/* Generated by software containing ST-Developer
 * from STEP Tools, Inc. (www.steptools.com) 
 */
/* OPTION: using custom renumber hook */

FILE_DESCRIPTION(
/* description */ ('STEP AP242 Edition 2',
'CAx-IF Rec.Pracs.---Representation and Presentation of Product Manufa
cturing Information (PMI)---4.0---2014-10-13',
'CAx-IF Rec.Pracs.---3D Tessellated Geometry---0.4---2014-09-14','2;1',
'CAx-IF Rec.Pracs.---User Defined Attributes---1.5---2016-08-15'),
/* implementation_level */ '2;1');

FILE_NAME(
/* name */ 'Swivel Base - Spring Nut',
/* time_stamp */ '2026-07-13T15:44:17Z',
/* author */ (''),
/* organization */ (''),
/* preprocessor_version */ 'ST-DEVELOPER v20',
/* originating_system */ 'ONSHAPE BY PTC INC, 1.217',
/* authorisation */ '  ');

FILE_SCHEMA (('AP242_MANAGED_MODEL_BASED_3D_ENGINEERING_MIM_LF { 1 0 10303 442 3 1 4 }'));
ENDSEC;

DATA;
#10=SHAPE_REPRESENTATION_RELATIONSHIP('','',#627,#11);
#11=ADVANCED_BREP_SHAPE_REPRESENTATION('',(#625),#1055);
#12=CONICAL_SURFACE('',#690,0.002,0.785398163397448);
#13=CONICAL_SURFACE('',#691,0.002,0.785398163397448);
#14=CONICAL_SURFACE('',#694,0.002,0.785398163397448);
#15=CONICAL_SURFACE('',#695,0.002,0.785398163397448);
#16=TOROIDAL_SURFACE('',#676,0.001,0.001);
#17=TOROIDAL_SURFACE('',#678,0.001,0.001);
#18=TOROIDAL_SURFACE('',#684,0.001,0.001);
#19=TOROIDAL_SURFACE('',#686,0.001,0.001);
#20=LINE('',#892,#70);
#21=LINE('',#895,#71);
#22=LINE('',#897,#72);
#23=LINE('',#899,#73);
#24=LINE('',#901,#74);
#25=LINE('',#904,#75);
#26=LINE('',#906,#76);
#27=LINE('',#908,#77);
#28=LINE('',#910,#78);
#29=LINE('',#913,#79);
#30=LINE('',#915,#80);
#31=LINE('',#917,#81);
#32=LINE('',#919,#82);
#33=LINE('',#922,#83);
#34=LINE('',#924,#84);
#35=LINE('',#926,#85);
#36=LINE('',#928,#86);
#37=LINE('',#931,#87);
#38=LINE('',#933,#88);
#39=LINE('',#935,#89);
#40=LINE('',#944,#90);
#41=LINE('',#947,#91);
#42=LINE('',#949,#92);
#43=LINE('',#951,#93);
#44=LINE('',#953,#94);
#45=LINE('',#955,#95);
#46=LINE('',#960,#96);
#47=LINE('',#964,#97);
#48=LINE('',#968,#98);
#49=LINE('',#972,#99);
#50=LINE('',#994,#100);
#51=LINE('',#997,#101);
#52=LINE('',#999,#102);
#53=LINE('',#1001,#103);
#54=LINE('',#1003,#104);
#55=LINE('',#1005,#105);
#56=LINE('',#1007,#106);
#57=LINE('',#1008,#107);
#58=LINE('',#1010,#108);
#59=LINE('',#1012,#109);
#60=LINE('',#1014,#110);
#61=LINE('',#1016,#111);
#62=LINE('',#1039,#112);
#63=LINE('',#1040,#113);
#64=LINE('',#1042,#114);
#65=LINE('',#1044,#115);
#66=LINE('',#1046,#116);
#67=LINE('',#1048,#117);
#68=LINE('',#1050,#118);
#69=LINE('',#1052,#119);
#70=VECTOR('',#707,1.);
#71=VECTOR('',#708,1.);
#72=VECTOR('',#709,1.);
#73=VECTOR('',#710,1.);
#74=VECTOR('',#713,1.);
#75=VECTOR('',#714,1.);
#76=VECTOR('',#715,1.);
#77=VECTOR('',#716,1.);
#78=VECTOR('',#719,1.);
#79=VECTOR('',#720,1.);
#80=VECTOR('',#721,1.);
#81=VECTOR('',#722,1.);
#82=VECTOR('',#725,1.);
#83=VECTOR('',#726,1.);
#84=VECTOR('',#727,1.);
#85=VECTOR('',#728,1.);
#86=VECTOR('',#731,1.);
#87=VECTOR('',#732,1.);
#88=VECTOR('',#733,1.);
#89=VECTOR('',#734,1.);
#90=VECTOR('',#743,1.);
#91=VECTOR('',#744,1.);
#92=VECTOR('',#745,1.);
#93=VECTOR('',#746,1.);
#94=VECTOR('',#747,1.);
#95=VECTOR('',#748,1.);
#96=VECTOR('',#753,1.);
#97=VECTOR('',#756,1.);
#98=VECTOR('',#759,1.);
#99=VECTOR('',#762,1.);
#100=VECTOR('',#797,1.);
#101=VECTOR('',#798,1.);
#102=VECTOR('',#799,1.);
#103=VECTOR('',#800,1.);
#104=VECTOR('',#801,1.);
#105=VECTOR('',#802,1.);
#106=VECTOR('',#805,1.);
#107=VECTOR('',#806,1.);
#108=VECTOR('',#809,1.);
#109=VECTOR('',#812,1.);
#110=VECTOR('',#815,1.);
#111=VECTOR('',#818,1.);
#112=VECTOR('',#863,1.);
#113=VECTOR('',#864,1.);
#114=VECTOR('',#867,1.);
#115=VECTOR('',#870,1.);
#116=VECTOR('',#873,1.);
#117=VECTOR('',#876,1.);
#118=VECTOR('',#879,1.);
#119=VECTOR('',#882,1.);
#120=PLANE('',#632);
#121=PLANE('',#633);
#122=PLANE('',#634);
#123=PLANE('',#635);
#124=PLANE('',#636);
#125=PLANE('',#641);
#126=PLANE('',#662);
#127=PLANE('',#663);
#128=PLANE('',#664);
#129=PLANE('',#665);
#130=PLANE('',#666);
#131=PLANE('',#667);
#132=PLANE('',#668);
#133=PLANE('',#689);
#134=PLANE('',#692);
#135=PLANE('',#693);
#136=PLANE('',#696);
#137=ORIENTED_EDGE('',*,*,#297,.T.);
#138=ORIENTED_EDGE('',*,*,#298,.F.);
#139=ORIENTED_EDGE('',*,*,#299,.T.);
#140=ORIENTED_EDGE('',*,*,#300,.T.);
#141=ORIENTED_EDGE('',*,*,#301,.T.);
#142=ORIENTED_EDGE('',*,*,#302,.T.);
#143=ORIENTED_EDGE('',*,*,#303,.T.);
#144=ORIENTED_EDGE('',*,*,#304,.T.);
#145=ORIENTED_EDGE('',*,*,#305,.T.);
#146=ORIENTED_EDGE('',*,*,#306,.T.);
#147=ORIENTED_EDGE('',*,*,#307,.T.);
#148=ORIENTED_EDGE('',*,*,#308,.T.);
#149=ORIENTED_EDGE('',*,*,#309,.T.);
#150=ORIENTED_EDGE('',*,*,#310,.T.);
#151=ORIENTED_EDGE('',*,*,#311,.T.);
#152=ORIENTED_EDGE('',*,*,#312,.T.);
#153=ORIENTED_EDGE('',*,*,#313,.T.);
#154=ORIENTED_EDGE('',*,*,#314,.T.);
#155=ORIENTED_EDGE('',*,*,#315,.T.);
#156=ORIENTED_EDGE('',*,*,#316,.T.);
#157=ORIENTED_EDGE('',*,*,#317,.T.);
#158=ORIENTED_EDGE('',*,*,#318,.T.);
#159=ORIENTED_EDGE('',*,*,#319,.F.);
#160=ORIENTED_EDGE('',*,*,#320,.F.);
#161=ORIENTED_EDGE('',*,*,#321,.F.);
#162=ORIENTED_EDGE('',*,*,#322,.F.);
#163=ORIENTED_EDGE('',*,*,#323,.F.);
#164=ORIENTED_EDGE('',*,*,#324,.F.);
#165=ORIENTED_EDGE('',*,*,#325,.F.);
#166=ORIENTED_EDGE('',*,*,#326,.F.);
#167=ORIENTED_EDGE('',*,*,#327,.F.);
#168=ORIENTED_EDGE('',*,*,#328,.F.);
#169=ORIENTED_EDGE('',*,*,#329,.T.);
#170=ORIENTED_EDGE('',*,*,#330,.T.);
#171=ORIENTED_EDGE('',*,*,#331,.T.);
#172=ORIENTED_EDGE('',*,*,#332,.T.);
#173=ORIENTED_EDGE('',*,*,#333,.T.);
#174=ORIENTED_EDGE('',*,*,#334,.T.);
#175=ORIENTED_EDGE('',*,*,#335,.T.);
#176=ORIENTED_EDGE('',*,*,#336,.T.);
#177=ORIENTED_EDGE('',*,*,#337,.F.);
#178=ORIENTED_EDGE('',*,*,#338,.F.);
#179=ORIENTED_EDGE('',*,*,#339,.F.);
#180=ORIENTED_EDGE('',*,*,#340,.F.);
#181=ORIENTED_EDGE('',*,*,#297,.F.);
#182=ORIENTED_EDGE('',*,*,#313,.F.);
#183=ORIENTED_EDGE('',*,*,#341,.T.);
#184=ORIENTED_EDGE('',*,*,#307,.F.);
#185=ORIENTED_EDGE('',*,*,#342,.T.);
#186=ORIENTED_EDGE('',*,*,#301,.F.);
#187=ORIENTED_EDGE('',*,*,#343,.T.);
#188=ORIENTED_EDGE('',*,*,#311,.F.);
#189=ORIENTED_EDGE('',*,*,#344,.T.);
#190=ORIENTED_EDGE('',*,*,#309,.F.);
#191=ORIENTED_EDGE('',*,*,#345,.T.);
#192=ORIENTED_EDGE('',*,*,#303,.F.);
#193=ORIENTED_EDGE('',*,*,#346,.T.);
#194=ORIENTED_EDGE('',*,*,#305,.F.);
#195=ORIENTED_EDGE('',*,*,#347,.T.);
#196=ORIENTED_EDGE('',*,*,#299,.F.);
#197=ORIENTED_EDGE('',*,*,#348,.T.);
#198=ORIENTED_EDGE('',*,*,#349,.T.);
#199=ORIENTED_EDGE('',*,*,#350,.T.);
#200=ORIENTED_EDGE('',*,*,#351,.T.);
#201=ORIENTED_EDGE('',*,*,#352,.T.);
#202=ORIENTED_EDGE('',*,*,#353,.T.);
#203=ORIENTED_EDGE('',*,*,#354,.T.);
#204=ORIENTED_EDGE('',*,*,#298,.T.);
#205=ORIENTED_EDGE('',*,*,#323,.T.);
#206=ORIENTED_EDGE('',*,*,#355,.F.);
#207=ORIENTED_EDGE('',*,*,#349,.F.);
#208=ORIENTED_EDGE('',*,*,#356,.T.);
#209=ORIENTED_EDGE('',*,*,#328,.T.);
#210=ORIENTED_EDGE('',*,*,#357,.F.);
#211=ORIENTED_EDGE('',*,*,#350,.F.);
#212=ORIENTED_EDGE('',*,*,#355,.T.);
#213=ORIENTED_EDGE('',*,*,#327,.T.);
#214=ORIENTED_EDGE('',*,*,#358,.F.);
#215=ORIENTED_EDGE('',*,*,#351,.F.);
#216=ORIENTED_EDGE('',*,*,#357,.T.);
#217=ORIENTED_EDGE('',*,*,#326,.T.);
#218=ORIENTED_EDGE('',*,*,#359,.F.);
#219=ORIENTED_EDGE('',*,*,#352,.F.);
#220=ORIENTED_EDGE('',*,*,#358,.T.);
#221=ORIENTED_EDGE('',*,*,#325,.T.);
#222=ORIENTED_EDGE('',*,*,#360,.F.);
#223=ORIENTED_EDGE('',*,*,#353,.F.);
#224=ORIENTED_EDGE('',*,*,#359,.T.);
#225=ORIENTED_EDGE('',*,*,#324,.T.);
#226=ORIENTED_EDGE('',*,*,#356,.F.);
#227=ORIENTED_EDGE('',*,*,#354,.F.);
#228=ORIENTED_EDGE('',*,*,#360,.T.);
#229=ORIENTED_EDGE('',*,*,#340,.T.);
#230=ORIENTED_EDGE('',*,*,#322,.T.);
#231=ORIENTED_EDGE('',*,*,#339,.T.);
#232=ORIENTED_EDGE('',*,*,#321,.T.);
#233=ORIENTED_EDGE('',*,*,#338,.T.);
#234=ORIENTED_EDGE('',*,*,#320,.T.);
#235=ORIENTED_EDGE('',*,*,#337,.T.);
#236=ORIENTED_EDGE('',*,*,#319,.T.);
#237=ORIENTED_EDGE('',*,*,#361,.F.);
#238=ORIENTED_EDGE('',*,*,#310,.F.);
#239=ORIENTED_EDGE('',*,*,#362,.F.);
#240=ORIENTED_EDGE('',*,*,#334,.F.);
#241=ORIENTED_EDGE('',*,*,#362,.T.);
#242=ORIENTED_EDGE('',*,*,#346,.F.);
#243=ORIENTED_EDGE('',*,*,#363,.F.);
#244=ORIENTED_EDGE('',*,*,#335,.F.);
#245=ORIENTED_EDGE('',*,*,#361,.T.);
#246=ORIENTED_EDGE('',*,*,#333,.F.);
#247=ORIENTED_EDGE('',*,*,#364,.F.);
#248=ORIENTED_EDGE('',*,*,#342,.F.);
#249=ORIENTED_EDGE('',*,*,#363,.T.);
#250=ORIENTED_EDGE('',*,*,#306,.F.);
#251=ORIENTED_EDGE('',*,*,#365,.F.);
#252=ORIENTED_EDGE('',*,*,#336,.F.);
#253=ORIENTED_EDGE('',*,*,#364,.T.);
#254=ORIENTED_EDGE('',*,*,#332,.F.);
#255=ORIENTED_EDGE('',*,*,#366,.F.);
#256=ORIENTED_EDGE('',*,*,#314,.F.);
#257=ORIENTED_EDGE('',*,*,#365,.T.);
#258=ORIENTED_EDGE('',*,*,#348,.F.);
#259=ORIENTED_EDGE('',*,*,#367,.F.);
#260=ORIENTED_EDGE('',*,*,#329,.F.);
#261=ORIENTED_EDGE('',*,*,#366,.T.);
#262=ORIENTED_EDGE('',*,*,#331,.F.);
#263=ORIENTED_EDGE('',*,*,#368,.F.);
#264=ORIENTED_EDGE('',*,*,#344,.F.);
#265=ORIENTED_EDGE('',*,*,#367,.T.);
#266=ORIENTED_EDGE('',*,*,#302,.F.);
#267=ORIENTED_EDGE('',*,*,#368,.T.);
#268=ORIENTED_EDGE('',*,*,#330,.F.);
#269=ORIENTED_EDGE('',*,*,#369,.F.);
#270=ORIENTED_EDGE('',*,*,#304,.F.);
#271=ORIENTED_EDGE('',*,*,#370,.F.);
#272=ORIENTED_EDGE('',*,*,#318,.F.);
#273=ORIENTED_EDGE('',*,*,#347,.F.);
#274=ORIENTED_EDGE('',*,*,#369,.T.);
#275=ORIENTED_EDGE('',*,*,#371,.F.);
#276=ORIENTED_EDGE('',*,*,#370,.T.);
#277=ORIENTED_EDGE('',*,*,#345,.F.);
#278=ORIENTED_EDGE('',*,*,#372,.F.);
#279=ORIENTED_EDGE('',*,*,#371,.T.);
#280=ORIENTED_EDGE('',*,*,#317,.F.);
#281=ORIENTED_EDGE('',*,*,#373,.F.);
#282=ORIENTED_EDGE('',*,*,#300,.F.);
#283=ORIENTED_EDGE('',*,*,#372,.T.);
#284=ORIENTED_EDGE('',*,*,#308,.F.);
#285=ORIENTED_EDGE('',*,*,#374,.F.);
#286=ORIENTED_EDGE('',*,*,#315,.F.);
#287=ORIENTED_EDGE('',*,*,#343,.F.);
#288=ORIENTED_EDGE('',*,*,#373,.T.);
#289=ORIENTED_EDGE('',*,*,#375,.F.);
#290=ORIENTED_EDGE('',*,*,#374,.T.);
#291=ORIENTED_EDGE('',*,*,#341,.F.);
#292=ORIENTED_EDGE('',*,*,#376,.F.);
#293=ORIENTED_EDGE('',*,*,#375,.T.);
#294=ORIENTED_EDGE('',*,*,#316,.F.);
#295=ORIENTED_EDGE('',*,*,#376,.T.);
#296=ORIENTED_EDGE('',*,*,#312,.F.);
#297=EDGE_CURVE('',#377,#377,#427,.F.);
#298=EDGE_CURVE('',#378,#378,#428,.F.);
#299=EDGE_CURVE('',#379,#380,#20,.F.);
#300=EDGE_CURVE('',#380,#381,#21,.T.);
#301=EDGE_CURVE('',#381,#382,#22,.T.);
#302=EDGE_CURVE('',#382,#379,#23,.F.);
#303=EDGE_CURVE('',#383,#384,#24,.F.);
#304=EDGE_CURVE('',#384,#385,#25,.T.);
#305=EDGE_CURVE('',#385,#386,#26,.T.);
#306=EDGE_CURVE('',#386,#383,#27,.T.);
#307=EDGE_CURVE('',#387,#388,#28,.F.);
#308=EDGE_CURVE('',#388,#389,#29,.T.);
#309=EDGE_CURVE('',#389,#390,#30,.T.);
#310=EDGE_CURVE('',#390,#387,#31,.T.);
#311=EDGE_CURVE('',#391,#392,#32,.F.);
#312=EDGE_CURVE('',#392,#393,#33,.T.);
#313=EDGE_CURVE('',#393,#394,#34,.T.);
#314=EDGE_CURVE('',#394,#391,#35,.F.);
#315=EDGE_CURVE('',#395,#396,#36,.T.);
#316=EDGE_CURVE('',#396,#397,#37,.T.);
#317=EDGE_CURVE('',#397,#398,#38,.T.);
#318=EDGE_CURVE('',#398,#395,#39,.T.);
#319=EDGE_CURVE('',#399,#399,#429,.T.);
#320=EDGE_CURVE('',#400,#400,#430,.T.);
#321=EDGE_CURVE('',#401,#401,#431,.T.);
#322=EDGE_CURVE('',#402,#402,#432,.T.);
#323=EDGE_CURVE('',#403,#404,#40,.T.);
#324=EDGE_CURVE('',#405,#403,#41,.T.);
#325=EDGE_CURVE('',#406,#405,#42,.T.);
#326=EDGE_CURVE('',#407,#406,#43,.T.);
#327=EDGE_CURVE('',#408,#407,#44,.T.);
#328=EDGE_CURVE('',#404,#408,#45,.T.);
#329=EDGE_CURVE('',#409,#410,#433,.F.);
#330=EDGE_CURVE('',#410,#411,#46,.T.);
#331=EDGE_CURVE('',#411,#412,#434,.F.);
#332=EDGE_CURVE('',#412,#413,#47,.T.);
#333=EDGE_CURVE('',#413,#414,#435,.F.);
#334=EDGE_CURVE('',#414,#415,#48,.F.);
#335=EDGE_CURVE('',#415,#416,#436,.F.);
#336=EDGE_CURVE('',#416,#409,#49,.F.);
#337=EDGE_CURVE('',#417,#417,#437,.F.);
#338=EDGE_CURVE('',#418,#418,#438,.F.);
#339=EDGE_CURVE('',#419,#419,#439,.F.);
#340=EDGE_CURVE('',#420,#420,#440,.F.);
#341=EDGE_CURVE('',#393,#388,#441,.F.);
#342=EDGE_CURVE('',#387,#394,#442,.T.);
#343=EDGE_CURVE('',#381,#392,#443,.F.);
#344=EDGE_CURVE('',#391,#382,#444,.T.);
#345=EDGE_CURVE('',#389,#384,#445,.F.);
#346=EDGE_CURVE('',#383,#390,#446,.T.);
#347=EDGE_CURVE('',#385,#380,#447,.F.);
#348=EDGE_CURVE('',#379,#386,#448,.T.);
#349=EDGE_CURVE('',#421,#422,#50,.T.);
#350=EDGE_CURVE('',#422,#423,#51,.T.);
#351=EDGE_CURVE('',#423,#424,#52,.T.);
#352=EDGE_CURVE('',#424,#425,#53,.T.);
#353=EDGE_CURVE('',#425,#426,#54,.T.);
#354=EDGE_CURVE('',#426,#421,#55,.T.);
#355=EDGE_CURVE('',#422,#404,#56,.T.);
#356=EDGE_CURVE('',#421,#403,#57,.T.);
#357=EDGE_CURVE('',#423,#408,#58,.T.);
#358=EDGE_CURVE('',#424,#407,#59,.T.);
#359=EDGE_CURVE('',#425,#406,#60,.T.);
#360=EDGE_CURVE('',#426,#405,#61,.T.);
#361=EDGE_CURVE('',#387,#414,#449,.T.);
#362=EDGE_CURVE('',#415,#390,#450,.T.);
#363=EDGE_CURVE('',#416,#383,#451,.T.);
#364=EDGE_CURVE('',#394,#413,#452,.T.);
#365=EDGE_CURVE('',#409,#386,#453,.T.);
#366=EDGE_CURVE('',#391,#412,#454,.T.);
#367=EDGE_CURVE('',#410,#379,#455,.T.);
#368=EDGE_CURVE('',#382,#411,#456,.T.);
#369=EDGE_CURVE('',#385,#398,#62,.T.);
#370=EDGE_CURVE('',#395,#384,#63,.T.);
#371=EDGE_CURVE('',#380,#398,#64,.T.);
#372=EDGE_CURVE('',#395,#389,#65,.T.);
#373=EDGE_CURVE('',#381,#397,#66,.T.);
#374=EDGE_CURVE('',#396,#388,#67,.T.);
#375=EDGE_CURVE('',#392,#397,#68,.T.);
#376=EDGE_CURVE('',#396,#393,#69,.T.);
#377=VERTEX_POINT('',#888);
#378=VERTEX_POINT('',#890);
#379=VERTEX_POINT('',#893);
#380=VERTEX_POINT('',#894);
#381=VERTEX_POINT('',#896);
#382=VERTEX_POINT('',#898);
#383=VERTEX_POINT('',#902);
#384=VERTEX_POINT('',#903);
#385=VERTEX_POINT('',#905);
#386=VERTEX_POINT('',#907);
#387=VERTEX_POINT('',#911);
#388=VERTEX_POINT('',#912);
#389=VERTEX_POINT('',#914);
#390=VERTEX_POINT('',#916);
#391=VERTEX_POINT('',#920);
#392=VERTEX_POINT('',#921);
#393=VERTEX_POINT('',#923);
#394=VERTEX_POINT('',#925);
#395=VERTEX_POINT('',#929);
#396=VERTEX_POINT('',#930);
#397=VERTEX_POINT('',#932);
#398=VERTEX_POINT('',#934);
#399=VERTEX_POINT('',#937);
#400=VERTEX_POINT('',#939);
#401=VERTEX_POINT('',#941);
#402=VERTEX_POINT('',#943);
#403=VERTEX_POINT('',#945);
#404=VERTEX_POINT('',#946);
#405=VERTEX_POINT('',#948);
#406=VERTEX_POINT('',#950);
#407=VERTEX_POINT('',#952);
#408=VERTEX_POINT('',#954);
#409=VERTEX_POINT('',#958);
#410=VERTEX_POINT('',#959);
#411=VERTEX_POINT('',#961);
#412=VERTEX_POINT('',#963);
#413=VERTEX_POINT('',#965);
#414=VERTEX_POINT('',#967);
#415=VERTEX_POINT('',#969);
#416=VERTEX_POINT('',#971);
#417=VERTEX_POINT('',#974);
#418=VERTEX_POINT('',#976);
#419=VERTEX_POINT('',#978);
#420=VERTEX_POINT('',#980);
#421=VERTEX_POINT('',#995);
#422=VERTEX_POINT('',#996);
#423=VERTEX_POINT('',#998);
#424=VERTEX_POINT('',#1000);
#425=VERTEX_POINT('',#1002);
#426=VERTEX_POINT('',#1004);
#427=CIRCLE('',#630,0.0031);
#428=CIRCLE('',#631,0.0031);
#429=CIRCLE('',#637,0.002);
#430=CIRCLE('',#638,0.002);
#431=CIRCLE('',#639,0.002);
#432=CIRCLE('',#640,0.002);
#433=CIRCLE('',#642,0.001);
#434=CIRCLE('',#643,0.001);
#435=CIRCLE('',#644,0.001);
#436=CIRCLE('',#645,0.001);
#437=CIRCLE('',#646,0.002);
#438=CIRCLE('',#647,0.002);
#439=CIRCLE('',#648,0.002);
#440=CIRCLE('',#649,0.002);
#441=CIRCLE('',#651,0.002);
#442=CIRCLE('',#652,0.002);
#443=CIRCLE('',#654,0.002);
#444=CIRCLE('',#655,0.002);
#445=CIRCLE('',#657,0.002);
#446=CIRCLE('',#658,0.002);
#447=CIRCLE('',#660,0.002);
#448=CIRCLE('',#661,0.002);
#449=CIRCLE('',#674,0.001);
#450=CIRCLE('',#675,0.001);
#451=CIRCLE('',#677,0.001);
#452=CIRCLE('',#679,0.001);
#453=CIRCLE('',#681,0.001);
#454=CIRCLE('',#683,0.001);
#455=CIRCLE('',#685,0.001);
#456=CIRCLE('',#687,0.001);
#457=EDGE_LOOP('',(#137));
#458=EDGE_LOOP('',(#138));
#459=EDGE_LOOP('',(#139,#140,#141,#142));
#460=EDGE_LOOP('',(#143,#144,#145,#146));
#461=EDGE_LOOP('',(#147,#148,#149,#150));
#462=EDGE_LOOP('',(#151,#152,#153,#154));
#463=EDGE_LOOP('',(#155,#156,#157,#158));
#464=EDGE_LOOP('',(#159));
#465=EDGE_LOOP('',(#160));
#466=EDGE_LOOP('',(#161));
#467=EDGE_LOOP('',(#162));
#468=EDGE_LOOP('',(#163,#164,#165,#166,#167,#168));
#469=EDGE_LOOP('',(#169,#170,#171,#172,#173,#174,#175,#176));
#470=EDGE_LOOP('',(#177));
#471=EDGE_LOOP('',(#178));
#472=EDGE_LOOP('',(#179));
#473=EDGE_LOOP('',(#180));
#474=EDGE_LOOP('',(#181));
#475=EDGE_LOOP('',(#182,#183,#184,#185));
#476=EDGE_LOOP('',(#186,#187,#188,#189));
#477=EDGE_LOOP('',(#190,#191,#192,#193));
#478=EDGE_LOOP('',(#194,#195,#196,#197));
#479=EDGE_LOOP('',(#198,#199,#200,#201,#202,#203));
#480=EDGE_LOOP('',(#204));
#481=EDGE_LOOP('',(#205,#206,#207,#208));
#482=EDGE_LOOP('',(#209,#210,#211,#212));
#483=EDGE_LOOP('',(#213,#214,#215,#216));
#484=EDGE_LOOP('',(#217,#218,#219,#220));
#485=EDGE_LOOP('',(#221,#222,#223,#224));
#486=EDGE_LOOP('',(#225,#226,#227,#228));
#487=EDGE_LOOP('',(#229));
#488=EDGE_LOOP('',(#230));
#489=EDGE_LOOP('',(#231));
#490=EDGE_LOOP('',(#232));
#491=EDGE_LOOP('',(#233));
#492=EDGE_LOOP('',(#234));
#493=EDGE_LOOP('',(#235));
#494=EDGE_LOOP('',(#236));
#495=EDGE_LOOP('',(#237,#238,#239,#240));
#496=EDGE_LOOP('',(#241,#242,#243,#244));
#497=EDGE_LOOP('',(#245,#246,#247,#248));
#498=EDGE_LOOP('',(#249,#250,#251,#252));
#499=EDGE_LOOP('',(#253,#254,#255,#256));
#500=EDGE_LOOP('',(#257,#258,#259,#260));
#501=EDGE_LOOP('',(#261,#262,#263,#264));
#502=EDGE_LOOP('',(#265,#266,#267,#268));
#503=EDGE_LOOP('',(#269,#270,#271,#272));
#504=EDGE_LOOP('',(#273,#274,#275));
#505=EDGE_LOOP('',(#276,#277,#278));
#506=EDGE_LOOP('',(#279,#280,#281,#282));
#507=EDGE_LOOP('',(#283,#284,#285,#286));
#508=EDGE_LOOP('',(#287,#288,#289));
#509=EDGE_LOOP('',(#290,#291,#292));
#510=EDGE_LOOP('',(#293,#294,#295,#296));
#511=FACE_BOUND('',#457,.T.);
#512=FACE_BOUND('',#458,.T.);
#513=FACE_BOUND('',#459,.T.);
#514=FACE_BOUND('',#460,.T.);
#515=FACE_BOUND('',#461,.T.);
#516=FACE_BOUND('',#462,.T.);
#517=FACE_BOUND('',#463,.T.);
#518=FACE_BOUND('',#464,.T.);
#519=FACE_BOUND('',#465,.T.);
#520=FACE_BOUND('',#466,.T.);
#521=FACE_BOUND('',#467,.T.);
#522=FACE_BOUND('',#468,.T.);
#523=FACE_BOUND('',#469,.T.);
#524=FACE_BOUND('',#470,.T.);
#525=FACE_BOUND('',#471,.T.);
#526=FACE_BOUND('',#472,.T.);
#527=FACE_BOUND('',#473,.T.);
#528=FACE_BOUND('',#474,.T.);
#529=FACE_BOUND('',#475,.T.);
#530=FACE_BOUND('',#476,.T.);
#531=FACE_BOUND('',#477,.T.);
#532=FACE_BOUND('',#478,.T.);
#533=FACE_BOUND('',#479,.T.);
#534=FACE_BOUND('',#480,.T.);
#535=FACE_BOUND('',#481,.T.);
#536=FACE_BOUND('',#482,.T.);
#537=FACE_BOUND('',#483,.T.);
#538=FACE_BOUND('',#484,.T.);
#539=FACE_BOUND('',#485,.T.);
#540=FACE_BOUND('',#486,.T.);
#541=FACE_BOUND('',#487,.T.);
#542=FACE_BOUND('',#488,.T.);
#543=FACE_BOUND('',#489,.T.);
#544=FACE_BOUND('',#490,.T.);
#545=FACE_BOUND('',#491,.T.);
#546=FACE_BOUND('',#492,.T.);
#547=FACE_BOUND('',#493,.T.);
#548=FACE_BOUND('',#494,.T.);
#549=FACE_BOUND('',#495,.T.);
#550=FACE_BOUND('',#496,.T.);
#551=FACE_BOUND('',#497,.T.);
#552=FACE_BOUND('',#498,.T.);
#553=FACE_BOUND('',#499,.T.);
#554=FACE_BOUND('',#500,.T.);
#555=FACE_BOUND('',#501,.T.);
#556=FACE_BOUND('',#502,.T.);
#557=FACE_BOUND('',#503,.T.);
#558=FACE_BOUND('',#504,.T.);
#559=FACE_BOUND('',#505,.T.);
#560=FACE_BOUND('',#506,.T.);
#561=FACE_BOUND('',#507,.T.);
#562=FACE_BOUND('',#508,.T.);
#563=FACE_BOUND('',#509,.T.);
#564=FACE_BOUND('',#510,.T.);
#565=CYLINDRICAL_SURFACE('',#629,0.0031);
#566=CYLINDRICAL_SURFACE('',#650,0.002);
#567=CYLINDRICAL_SURFACE('',#653,0.002);
#568=CYLINDRICAL_SURFACE('',#656,0.002);
#569=CYLINDRICAL_SURFACE('',#659,0.002);
#570=CYLINDRICAL_SURFACE('',#669,0.002);
#571=CYLINDRICAL_SURFACE('',#670,0.002);
#572=CYLINDRICAL_SURFACE('',#671,0.002);
#573=CYLINDRICAL_SURFACE('',#672,0.002);
#574=CYLINDRICAL_SURFACE('',#673,0.001);
#575=CYLINDRICAL_SURFACE('',#680,0.001);
#576=CYLINDRICAL_SURFACE('',#682,0.001);
#577=CYLINDRICAL_SURFACE('',#688,0.001);
#578=ADVANCED_FACE('',(#511,#512),#565,.F.);
#579=ADVANCED_FACE('',(#513),#120,.T.);
#580=ADVANCED_FACE('',(#514),#121,.F.);
#581=ADVANCED_FACE('',(#515),#122,.F.);
#582=ADVANCED_FACE('',(#516),#123,.T.);
#583=ADVANCED_FACE('',(#517,#518,#519,#520,#521,#522),#124,.T.);
#584=ADVANCED_FACE('',(#523,#524,#525,#526,#527,#528),#125,.F.);
#585=ADVANCED_FACE('',(#529),#566,.T.);
#586=ADVANCED_FACE('',(#530),#567,.T.);
#587=ADVANCED_FACE('',(#531),#568,.T.);
#588=ADVANCED_FACE('',(#532),#569,.T.);
#589=ADVANCED_FACE('',(#533,#534),#126,.T.);
#590=ADVANCED_FACE('',(#535),#127,.F.);
#591=ADVANCED_FACE('',(#536),#128,.F.);
#592=ADVANCED_FACE('',(#537),#129,.F.);
#593=ADVANCED_FACE('',(#538),#130,.F.);
#594=ADVANCED_FACE('',(#539),#131,.F.);
#595=ADVANCED_FACE('',(#540),#132,.F.);
#596=ADVANCED_FACE('',(#541,#542),#570,.F.);
#597=ADVANCED_FACE('',(#543,#544),#571,.F.);
#598=ADVANCED_FACE('',(#545,#546),#572,.F.);
#599=ADVANCED_FACE('',(#547,#548),#573,.F.);
#600=ADVANCED_FACE('',(#549),#574,.T.);
#601=ADVANCED_FACE('',(#550),#16,.T.);
#602=ADVANCED_FACE('',(#551),#17,.T.);
#603=ADVANCED_FACE('',(#552),#575,.T.);
#604=ADVANCED_FACE('',(#553),#576,.T.);
#605=ADVANCED_FACE('',(#554),#18,.T.);
#606=ADVANCED_FACE('',(#555),#19,.T.);
#607=ADVANCED_FACE('',(#556),#577,.T.);
#608=ADVANCED_FACE('',(#557),#133,.T.);
#609=ADVANCED_FACE('',(#558),#12,.T.);
#610=ADVANCED_FACE('',(#559),#13,.T.);
#611=ADVANCED_FACE('',(#560),#134,.F.);
#612=ADVANCED_FACE('',(#561),#135,.T.);
#613=ADVANCED_FACE('',(#562),#14,.T.);
#614=ADVANCED_FACE('',(#563),#15,.T.);
#615=ADVANCED_FACE('',(#564),#136,.F.);
#616=CLOSED_SHELL('',(#578,#579,#580,#581,#582,#583,#584,#585,#586,#587,
#588,#589,#590,#591,#592,#593,#594,#595,#596,#597,#598,#599,#600,#601,#602,
#603,#604,#605,#606,#607,#608,#609,#610,#611,#612,#613,#614,#615));
#617=STYLED_ITEM('',(#618),#625);
#618=PRESENTATION_STYLE_ASSIGNMENT((#619));
#619=SURFACE_STYLE_USAGE(.BOTH.,#620);
#620=SURFACE_SIDE_STYLE('',(#621));
#621=SURFACE_STYLE_FILL_AREA(#622);
#622=FILL_AREA_STYLE('',(#623));
#623=FILL_AREA_STYLE_COLOUR('',#624);
#624=COLOUR_RGB('',0.917647058823529,0.917647058823529,0.917647058823529);
#625=MANIFOLD_SOLID_BREP('Spring Nut',#616);
#626=SHAPE_DEFINITION_REPRESENTATION(#1060,#627);
#627=SHAPE_REPRESENTATION('Spring Nut',(#628),#1055);
#628=AXIS2_PLACEMENT_3D('',#885,#697,#698);
#629=AXIS2_PLACEMENT_3D('',#886,#699,#700);
#630=AXIS2_PLACEMENT_3D('',#887,#701,#702);
#631=AXIS2_PLACEMENT_3D('',#889,#703,#704);
#632=AXIS2_PLACEMENT_3D('',#891,#705,#706);
#633=AXIS2_PLACEMENT_3D('',#900,#711,#712);
#634=AXIS2_PLACEMENT_3D('',#909,#717,#718);
#635=AXIS2_PLACEMENT_3D('',#918,#723,#724);
#636=AXIS2_PLACEMENT_3D('',#927,#729,#730);
#637=AXIS2_PLACEMENT_3D('',#936,#735,#736);
#638=AXIS2_PLACEMENT_3D('',#938,#737,#738);
#639=AXIS2_PLACEMENT_3D('',#940,#739,#740);
#640=AXIS2_PLACEMENT_3D('',#942,#741,#742);
#641=AXIS2_PLACEMENT_3D('',#956,#749,#750);
#642=AXIS2_PLACEMENT_3D('',#957,#751,#752);
#643=AXIS2_PLACEMENT_3D('',#962,#754,#755);
#644=AXIS2_PLACEMENT_3D('',#966,#757,#758);
#645=AXIS2_PLACEMENT_3D('',#970,#760,#761);
#646=AXIS2_PLACEMENT_3D('',#973,#763,#764);
#647=AXIS2_PLACEMENT_3D('',#975,#765,#766);
#648=AXIS2_PLACEMENT_3D('',#977,#767,#768);
#649=AXIS2_PLACEMENT_3D('',#979,#769,#770);
#650=AXIS2_PLACEMENT_3D('',#981,#771,#772);
#651=AXIS2_PLACEMENT_3D('',#982,#773,#774);
#652=AXIS2_PLACEMENT_3D('',#983,#775,#776);
#653=AXIS2_PLACEMENT_3D('',#984,#777,#778);
#654=AXIS2_PLACEMENT_3D('',#985,#779,#780);
#655=AXIS2_PLACEMENT_3D('',#986,#781,#782);
#656=AXIS2_PLACEMENT_3D('',#987,#783,#784);
#657=AXIS2_PLACEMENT_3D('',#988,#785,#786);
#658=AXIS2_PLACEMENT_3D('',#989,#787,#788);
#659=AXIS2_PLACEMENT_3D('',#990,#789,#790);
#660=AXIS2_PLACEMENT_3D('',#991,#791,#792);
#661=AXIS2_PLACEMENT_3D('',#992,#793,#794);
#662=AXIS2_PLACEMENT_3D('',#993,#795,#796);
#663=AXIS2_PLACEMENT_3D('',#1006,#803,#804);
#664=AXIS2_PLACEMENT_3D('',#1009,#807,#808);
#665=AXIS2_PLACEMENT_3D('',#1011,#810,#811);
#666=AXIS2_PLACEMENT_3D('',#1013,#813,#814);
#667=AXIS2_PLACEMENT_3D('',#1015,#816,#817);
#668=AXIS2_PLACEMENT_3D('',#1017,#819,#820);
#669=AXIS2_PLACEMENT_3D('',#1018,#821,#822);
#670=AXIS2_PLACEMENT_3D('',#1019,#823,#824);
#671=AXIS2_PLACEMENT_3D('',#1020,#825,#826);
#672=AXIS2_PLACEMENT_3D('',#1021,#827,#828);
#673=AXIS2_PLACEMENT_3D('',#1022,#829,#830);
#674=AXIS2_PLACEMENT_3D('',#1023,#831,#832);
#675=AXIS2_PLACEMENT_3D('',#1024,#833,#834);
#676=AXIS2_PLACEMENT_3D('',#1025,#835,#836);
#677=AXIS2_PLACEMENT_3D('',#1026,#837,#838);
#678=AXIS2_PLACEMENT_3D('',#1027,#839,#840);
#679=AXIS2_PLACEMENT_3D('',#1028,#841,#842);
#680=AXIS2_PLACEMENT_3D('',#1029,#843,#844);
#681=AXIS2_PLACEMENT_3D('',#1030,#845,#846);
#682=AXIS2_PLACEMENT_3D('',#1031,#847,#848);
#683=AXIS2_PLACEMENT_3D('',#1032,#849,#850);
#684=AXIS2_PLACEMENT_3D('',#1033,#851,#852);
#685=AXIS2_PLACEMENT_3D('',#1034,#853,#854);
#686=AXIS2_PLACEMENT_3D('',#1035,#855,#856);
#687=AXIS2_PLACEMENT_3D('',#1036,#857,#858);
#688=AXIS2_PLACEMENT_3D('',#1037,#859,#860);
#689=AXIS2_PLACEMENT_3D('',#1038,#861,#862);
#690=AXIS2_PLACEMENT_3D('',#1041,#865,#866);
#691=AXIS2_PLACEMENT_3D('',#1043,#868,#869);
#692=AXIS2_PLACEMENT_3D('',#1045,#871,#872);
#693=AXIS2_PLACEMENT_3D('',#1047,#874,#875);
#694=AXIS2_PLACEMENT_3D('',#1049,#877,#878);
#695=AXIS2_PLACEMENT_3D('',#1051,#880,#881);
#696=AXIS2_PLACEMENT_3D('',#1053,#883,#884);
#697=DIRECTION('',(0.,0.,1.));
#698=DIRECTION('',(1.,0.,0.));
#699=DIRECTION('',(0.,0.,1.));
#700=DIRECTION('',(1.,0.,0.));
#701=DIRECTION('',(0.,0.,1.));
#702=DIRECTION('',(1.,0.,0.));
#703=DIRECTION('',(0.,0.,1.));
#704=DIRECTION('',(1.,0.,0.));
#705=DIRECTION('',(-7.17816610749024E-16,1.,0.));
#706=DIRECTION('',(-1.,-7.17816610749024E-16,0.));
#707=DIRECTION('',(0.,0.,-1.));
#708=DIRECTION('',(1.,7.17816610749024E-16,0.));
#709=DIRECTION('',(0.,0.,-1.));
#710=DIRECTION('',(1.,7.17816610749024E-16,0.));
#711=DIRECTION('',(1.,3.25260651745651E-16,0.));
#712=DIRECTION('',(-3.25260651745651E-16,1.,0.));
#713=DIRECTION('',(0.,0.,-1.));
#714=DIRECTION('',(-3.25260651745651E-16,1.,0.));
#715=DIRECTION('',(0.,0.,-1.));
#716=DIRECTION('',(3.25260651745651E-16,-1.,0.));
#717=DIRECTION('',(-7.17816610749023E-16,1.,0.));
#718=DIRECTION('',(-1.,-7.17816610749023E-16,0.));
#719=DIRECTION('',(0.,0.,-1.));
#720=DIRECTION('',(-1.,-7.17816610749023E-16,0.));
#721=DIRECTION('',(0.,0.,-1.));
#722=DIRECTION('',(1.,7.17816610749023E-16,0.));
#723=DIRECTION('',(1.,3.25260651745651E-16,0.));
#724=DIRECTION('',(-3.25260651745651E-16,1.,0.));
#725=DIRECTION('',(0.,0.,-1.));
#726=DIRECTION('',(3.25260651745651E-16,-1.,0.));
#727=DIRECTION('',(0.,0.,-1.));
#728=DIRECTION('',(3.25260651745651E-16,-1.,0.));
#729=DIRECTION('',(0.,0.,1.));
#730=DIRECTION('',(1.,0.,0.));
#731=DIRECTION('',(1.,7.17816610749023E-16,0.));
#732=DIRECTION('',(-3.25260651745651E-16,1.,0.));
#733=DIRECTION('',(-1.,-7.17816610749024E-16,0.));
#734=DIRECTION('',(3.25260651745651E-16,-1.,0.));
#735=DIRECTION('',(0.,0.,1.));
#736=DIRECTION('',(1.,0.,0.));
#737=DIRECTION('',(0.,0.,1.));
#738=DIRECTION('',(1.,0.,0.));
#739=DIRECTION('',(0.,0.,1.));
#740=DIRECTION('',(1.,0.,0.));
#741=DIRECTION('',(0.,0.,1.));
#742=DIRECTION('',(1.,0.,0.));
#743=DIRECTION('',(-0.5,0.866025403784439,0.));
#744=DIRECTION('',(0.5,0.866025403784439,0.));
#745=DIRECTION('',(1.,0.,0.));
#746=DIRECTION('',(0.5,-0.866025403784439,0.));
#747=DIRECTION('',(-0.5,-0.866025403784439,0.));
#748=DIRECTION('',(-1.,0.,0.));
#749=DIRECTION('',(0.,0.,1.));
#750=DIRECTION('',(1.,0.,0.));
#751=DIRECTION('',(0.,0.,1.));
#752=DIRECTION('',(1.,0.,0.));
#753=DIRECTION('',(1.,7.17816610749024E-16,0.));
#754=DIRECTION('',(0.,0.,1.));
#755=DIRECTION('',(1.,0.,0.));
#756=DIRECTION('',(3.25260651745651E-16,-1.,0.));
#757=DIRECTION('',(0.,0.,1.));
#758=DIRECTION('',(1.,0.,0.));
#759=DIRECTION('',(1.,7.17816610749023E-16,0.));
#760=DIRECTION('',(0.,0.,1.));
#761=DIRECTION('',(1.,0.,0.));
#762=DIRECTION('',(3.25260651745651E-16,-1.,0.));
#763=DIRECTION('',(0.,0.,1.));
#764=DIRECTION('',(1.,0.,0.));
#765=DIRECTION('',(0.,0.,1.));
#766=DIRECTION('',(1.,0.,0.));
#767=DIRECTION('',(0.,0.,1.));
#768=DIRECTION('',(1.,0.,0.));
#769=DIRECTION('',(0.,0.,1.));
#770=DIRECTION('',(1.,0.,0.));
#771=DIRECTION('',(0.,0.,1.));
#772=DIRECTION('',(1.,0.,0.));
#773=DIRECTION('',(0.,0.,1.));
#774=DIRECTION('',(1.,0.,0.));
#775=DIRECTION('',(0.,0.,1.));
#776=DIRECTION('',(1.,0.,0.));
#777=DIRECTION('',(0.,0.,-1.));
#778=DIRECTION('',(-1.,0.,0.));
#779=DIRECTION('',(0.,0.,1.));
#780=DIRECTION('',(1.,0.,0.));
#781=DIRECTION('',(0.,0.,1.));
#782=DIRECTION('',(1.,0.,0.));
#783=DIRECTION('',(0.,0.,-1.));
#784=DIRECTION('',(-1.,0.,0.));
#785=DIRECTION('',(0.,0.,1.));
#786=DIRECTION('',(1.,0.,0.));
#787=DIRECTION('',(0.,0.,1.));
#788=DIRECTION('',(1.,0.,0.));
#789=DIRECTION('',(0.,0.,1.));
#790=DIRECTION('',(1.,0.,0.));
#791=DIRECTION('',(0.,0.,1.));
#792=DIRECTION('',(1.,0.,0.));
#793=DIRECTION('',(0.,0.,1.));
#794=DIRECTION('',(1.,0.,0.));
#795=DIRECTION('',(0.,0.,1.));
#796=DIRECTION('',(1.,0.,0.));
#797=DIRECTION('',(-0.5,0.866025403784439,0.));
#798=DIRECTION('',(-1.,0.,0.));
#799=DIRECTION('',(-0.5,-0.866025403784439,0.));
#800=DIRECTION('',(0.5,-0.866025403784439,0.));
#801=DIRECTION('',(1.,0.,0.));
#802=DIRECTION('',(0.5,0.866025403784439,0.));
#803=DIRECTION('',(0.866025403784439,0.5,0.));
#804=DIRECTION('',(-0.5,0.866025403784439,0.));
#805=DIRECTION('',(0.,0.,1.));
#806=DIRECTION('',(0.,0.,1.));
#807=DIRECTION('',(0.,1.,0.));
#808=DIRECTION('',(0.,0.,1.));
#809=DIRECTION('',(0.,0.,1.));
#810=DIRECTION('',(-0.866025403784439,0.5,0.));
#811=DIRECTION('',(-0.5,-0.866025403784439,0.));
#812=DIRECTION('',(0.,0.,1.));
#813=DIRECTION('',(-0.866025403784439,-0.5,0.));
#814=DIRECTION('',(0.5,-0.866025403784439,0.));
#815=DIRECTION('',(0.,0.,1.));
#816=DIRECTION('',(0.,-1.,0.));
#817=DIRECTION('',(0.,0.,-1.));
#818=DIRECTION('',(0.,0.,1.));
#819=DIRECTION('',(0.866025403784439,-0.5,0.));
#820=DIRECTION('',(0.5,0.866025403784439,0.));
#821=DIRECTION('',(0.,0.,1.));
#822=DIRECTION('',(1.,0.,0.));
#823=DIRECTION('',(0.,0.,1.));
#824=DIRECTION('',(1.,0.,0.));
#825=DIRECTION('',(0.,0.,1.));
#826=DIRECTION('',(1.,0.,0.));
#827=DIRECTION('',(0.,0.,1.));
#828=DIRECTION('',(1.,0.,0.));
#829=DIRECTION('',(1.,7.17816610749023E-16,0.));
#830=DIRECTION('',(-7.17816610749023E-16,1.,0.));
#831=DIRECTION('',(1.,0.,0.));
#832=DIRECTION('',(0.,0.,-1.));
#833=DIRECTION('',(-1.,0.,0.));
#834=DIRECTION('',(0.,0.,1.));
#835=DIRECTION('',(0.,0.,1.));
#836=DIRECTION('',(1.,0.,0.));
#837=DIRECTION('',(0.,1.,0.));
#838=DIRECTION('',(0.,0.,1.));
#839=DIRECTION('',(0.,0.,1.));
#840=DIRECTION('',(1.,0.,0.));
#841=DIRECTION('',(0.,1.,0.));
#842=DIRECTION('',(0.,0.,1.));
#843=DIRECTION('',(3.25260651745651E-16,-1.,0.));
#844=DIRECTION('',(1.,3.25260651745651E-16,0.));
#845=DIRECTION('',(0.,1.,0.));
#846=DIRECTION('',(0.,0.,1.));
#847=DIRECTION('',(-3.25260651745651E-16,1.,0.));
#848=DIRECTION('',(-1.,-3.25260651745651E-16,0.));
#849=DIRECTION('',(0.,1.,0.));
#850=DIRECTION('',(0.,0.,1.));
#851=DIRECTION('',(0.,0.,1.));
#852=DIRECTION('',(1.,0.,0.));
#853=DIRECTION('',(1.,0.,0.));
#854=DIRECTION('',(0.,0.,-1.));
#855=DIRECTION('',(0.,0.,1.));
#856=DIRECTION('',(1.,0.,0.));
#857=DIRECTION('',(-1.,0.,0.));
#858=DIRECTION('',(0.,0.,1.));
#859=DIRECTION('',(-1.,-7.17816610749024E-16,0.));
#860=DIRECTION('',(7.17816610749024E-16,-1.,0.));
#861=DIRECTION('',(-0.707106781186548,-2.29994012502506E-16,0.707106781186548));
#862=DIRECTION('',(-3.25260651745651E-16,1.,0.));
#863=DIRECTION('',(0.707106781186548,0.,0.707106781186547));
#864=DIRECTION('',(-0.707106781186548,0.,-0.707106781186548));
#865=DIRECTION('',(0.,0.,-1.));
#866=DIRECTION('',(-1.,0.,0.));
#867=DIRECTION('',(6.1331736667335E-16,-0.707106781186548,0.707106781186548));
#868=DIRECTION('',(0.,0.,-1.));
#869=DIRECTION('',(-1.,0.,0.));
#870=DIRECTION('',(6.13317366673349E-16,-0.707106781186548,-0.707106781186547));
#871=DIRECTION('',(5.07572993108979E-16,-0.707106781186548,-0.707106781186548));
#872=DIRECTION('',(1.,7.17816610749024E-16,0.));
#873=DIRECTION('',(6.13317366673349E-16,-0.707106781186548,0.707106781186547));
#874=DIRECTION('',(5.07572993108979E-16,-0.707106781186548,0.707106781186548));
#875=DIRECTION('',(-1.,-7.17816610749023E-16,0.));
#876=DIRECTION('',(6.1331736667335E-16,-0.707106781186547,-0.707106781186548));
#877=DIRECTION('',(0.,0.,-1.));
#878=DIRECTION('',(-1.,0.,0.));
#879=DIRECTION('',(-0.707106781186548,0.,0.707106781186548));
#880=DIRECTION('',(0.,0.,-1.));
#881=DIRECTION('',(-1.,0.,0.));
#882=DIRECTION('',(0.707106781186548,0.,-0.707106781186547));
#883=DIRECTION('',(-0.707106781186548,-2.29994012502506E-16,-0.707106781186548));
#884=DIRECTION('',(3.25260651745651E-16,-1.,0.));
#885=CARTESIAN_POINT('',(0.,0.,0.));
#886=CARTESIAN_POINT('',(0.,6.23501122862042E-19,-0.006502));
#887=CARTESIAN_POINT('',(0.,6.23501122862042E-19,-0.0065));
#888=CARTESIAN_POINT('',(0.0031,6.23501122862042E-19,-0.0065));
#889=CARTESIAN_POINT('',(0.,6.23501122862042E-19,-0.0045));
#890=CARTESIAN_POINT('',(0.0031,6.23501122862042E-19,-0.0045));
#891=CARTESIAN_POINT('',(-1.04083408558608E-17,0.016,-0.0005));
#892=CARTESIAN_POINT('',(-0.0125,0.016,-0.0005));
#893=CARTESIAN_POINT('',(-0.0125,0.016,-0.0055));
#894=CARTESIAN_POINT('',(-0.0125,0.016,-0.0025));
#895=CARTESIAN_POINT('',(-1.04083408558608E-17,0.016,-0.0025));
#896=CARTESIAN_POINT('',(0.0125,0.016,-0.0025));
#897=CARTESIAN_POINT('',(0.0125,0.016,-0.0005));
#898=CARTESIAN_POINT('',(0.0125,0.016,-0.0055));
#899=CARTESIAN_POINT('',(-0.0125,0.016,-0.0055));
#900=CARTESIAN_POINT('',(-0.0145,-1.04083408558608E-17,-0.0005));
#901=CARTESIAN_POINT('',(-0.0145,-0.014,-0.0005));
#902=CARTESIAN_POINT('',(-0.0145,-0.014,-0.0055));
#903=CARTESIAN_POINT('',(-0.0145,-0.014,-0.0025));
#904=CARTESIAN_POINT('',(-0.0145,0.014,-0.0025));
#905=CARTESIAN_POINT('',(-0.0145,0.014,-0.0025));
#906=CARTESIAN_POINT('',(-0.0145,0.014,-0.0065));
#907=CARTESIAN_POINT('',(-0.0145,0.014,-0.0055));
#908=CARTESIAN_POINT('',(-0.0145,-1.04083408558608E-17,-0.0055));
#909=CARTESIAN_POINT('',(8.67361737988404E-18,-0.016,-0.0005));
#910=CARTESIAN_POINT('',(0.0125,-0.016,-0.0005));
#911=CARTESIAN_POINT('',(0.0125,-0.016,-0.0055));
#912=CARTESIAN_POINT('',(0.0125,-0.016,-0.0025));
#913=CARTESIAN_POINT('',(-0.0125,-0.016,-0.0025));
#914=CARTESIAN_POINT('',(-0.0125,-0.016,-0.0025));
#915=CARTESIAN_POINT('',(-0.0125,-0.016,-0.0005));
#916=CARTESIAN_POINT('',(-0.0125,-0.016,-0.0055));
#917=CARTESIAN_POINT('',(8.67361737988404E-18,-0.016,-0.0055));
#918=CARTESIAN_POINT('',(0.0145,1.04083408558608E-17,-0.0005));
#919=CARTESIAN_POINT('',(0.0145,0.014,-0.0005));
#920=CARTESIAN_POINT('',(0.0145,0.014,-0.0055));
#921=CARTESIAN_POINT('',(0.0145,0.014,-0.0025));
#922=CARTESIAN_POINT('',(0.0145,1.04083408558608E-17,-0.0025));
#923=CARTESIAN_POINT('',(0.0145,-0.014,-0.0025));
#924=CARTESIAN_POINT('',(0.0145,-0.014,-0.0065));
#925=CARTESIAN_POINT('',(0.0145,-0.014,-0.0055));
#926=CARTESIAN_POINT('',(0.0145,0.014,-0.0055));
#927=CARTESIAN_POINT('',(-0.0174071777710368,6.93889390390723E-18,-0.0005));
#928=CARTESIAN_POINT('',(0.0125,-0.014,-0.0005));
#929=CARTESIAN_POINT('',(-0.0125,-0.014,-0.0005));
#930=CARTESIAN_POINT('',(0.0125,-0.014,-0.0005));
#931=CARTESIAN_POINT('',(0.0125,1.66665220375877E-17,-0.0005));
#932=CARTESIAN_POINT('',(0.0125,0.014,-0.0005));
#933=CARTESIAN_POINT('',(-0.0174071777710369,0.014,-0.0005));
#934=CARTESIAN_POINT('',(-0.0125,0.014,-0.0005));
#935=CARTESIAN_POINT('',(-0.0125,-0.014,-0.0005));
#936=CARTESIAN_POINT('',(0.008,0.008,-0.0005));
#937=CARTESIAN_POINT('',(0.01,0.008,-0.0005));
#938=CARTESIAN_POINT('',(-0.008,0.008,-0.0005));
#939=CARTESIAN_POINT('',(-0.006,0.008,-0.0005));
#940=CARTESIAN_POINT('',(-0.008,-0.008,-0.0005));
#941=CARTESIAN_POINT('',(-0.006,-0.008,-0.0005));
#942=CARTESIAN_POINT('',(0.008,-0.008,-0.0005));
#943=CARTESIAN_POINT('',(0.01,-0.008,-0.0005));
#944=CARTESIAN_POINT('',(0.00441672955930063,0.00255,-0.0005));
#945=CARTESIAN_POINT('',(0.00588897274573418,1.7347234759768E-18,-0.0005));
#946=CARTESIAN_POINT('',(0.00294448637286709,0.0051,-0.0005));
#947=CARTESIAN_POINT('',(0.00441672955930063,-0.00255,-0.0005));
#948=CARTESIAN_POINT('',(0.00294448637286709,-0.0051,-0.0005));
#949=CARTESIAN_POINT('',(-8.67361737988404E-19,-0.0051,-0.0005));
#950=CARTESIAN_POINT('',(-0.00294448637286709,-0.0051,-0.0005));
#951=CARTESIAN_POINT('',(-0.00441672955930064,-0.00255,-0.0005));
#952=CARTESIAN_POINT('',(-0.00588897274573418,8.67361737988404E-19,-0.0005));
#953=CARTESIAN_POINT('',(-0.00441672955930063,0.00255,-0.0005));
#954=CARTESIAN_POINT('',(-0.00294448637286709,0.0051,-0.0005));
#955=CARTESIAN_POINT('',(0.,0.0051,-0.0005));
#956=CARTESIAN_POINT('',(-0.0174071777710368,6.93889390390723E-18,-0.0065));
#957=CARTESIAN_POINT('',(-0.0125,0.014,-0.0065));
#958=CARTESIAN_POINT('',(-0.0135,0.014,-0.0065));
#959=CARTESIAN_POINT('',(-0.0125,0.015,-0.0065));
#960=CARTESIAN_POINT('',(0.0125,0.015,-0.0065));
#961=CARTESIAN_POINT('',(0.0125,0.015,-0.0065));
#962=CARTESIAN_POINT('',(0.0125,0.014,-0.0065));
#963=CARTESIAN_POINT('',(0.0135,0.014,-0.0065));
#964=CARTESIAN_POINT('',(0.0135,-0.014,-0.0065));
#965=CARTESIAN_POINT('',(0.0135,-0.014,-0.0065));
#966=CARTESIAN_POINT('',(0.0125,-0.014,-0.0065));
#967=CARTESIAN_POINT('',(0.0125,-0.015,-0.0065));
#968=CARTESIAN_POINT('',(-0.0174071777710368,-0.015,-0.0065));
#969=CARTESIAN_POINT('',(-0.0125,-0.015,-0.0065));
#970=CARTESIAN_POINT('',(-0.0125,-0.014,-0.0065));
#971=CARTESIAN_POINT('',(-0.0135,-0.014,-0.0065));
#972=CARTESIAN_POINT('',(-0.0135,8.20974509220078E-18,-0.0065));
#973=CARTESIAN_POINT('',(0.008,0.008,-0.0065));
#974=CARTESIAN_POINT('',(0.01,0.008,-0.0065));
#975=CARTESIAN_POINT('',(-0.008,0.008,-0.0065));
#976=CARTESIAN_POINT('',(-0.006,0.008,-0.0065));
#977=CARTESIAN_POINT('',(-0.008,-0.008,-0.0065));
#978=CARTESIAN_POINT('',(-0.006,-0.008,-0.0065));
#979=CARTESIAN_POINT('',(0.008,-0.008,-0.0065));
#980=CARTESIAN_POINT('',(0.01,-0.008,-0.0065));
#981=CARTESIAN_POINT('',(0.0125,-0.014,-0.0005));
#982=CARTESIAN_POINT('',(0.0125,-0.014,-0.0025));
#983=CARTESIAN_POINT('',(0.0125,-0.014,-0.0055));
#984=CARTESIAN_POINT('',(0.0125,0.014,-0.0005));
#985=CARTESIAN_POINT('',(0.0125,0.014,-0.0025));
#986=CARTESIAN_POINT('',(0.0125,0.014,-0.0055));
#987=CARTESIAN_POINT('',(-0.0125,-0.014,-0.0005));
#988=CARTESIAN_POINT('',(-0.0125,-0.014,-0.0025));
#989=CARTESIAN_POINT('',(-0.0125,-0.014,-0.0055));
#990=CARTESIAN_POINT('',(-0.0125,0.014,-0.0005));
#991=CARTESIAN_POINT('',(-0.0125,0.014,-0.0025));
#992=CARTESIAN_POINT('',(-0.0125,0.014,-0.0055));
#993=CARTESIAN_POINT('',(-3.46944695195361E-18,0.,-0.0045));
#994=CARTESIAN_POINT('',(0.00441672955930063,0.00255,-0.0045));
#995=CARTESIAN_POINT('',(0.00588897274573418,1.7347234759768E-18,-0.0045));
#996=CARTESIAN_POINT('',(0.00294448637286709,0.0051,-0.0045));
#997=CARTESIAN_POINT('',(0.,0.0051,-0.0045));
#998=CARTESIAN_POINT('',(-0.00294448637286709,0.0051,-0.0045));
#999=CARTESIAN_POINT('',(-0.00441672955930063,0.00255,-0.0045));
#1000=CARTESIAN_POINT('',(-0.00588897274573418,8.67361737988404E-19,-0.0045));
#1001=CARTESIAN_POINT('',(-0.00441672955930064,-0.00255,-0.0045));
#1002=CARTESIAN_POINT('',(-0.00294448637286709,-0.0051,-0.0045));
#1003=CARTESIAN_POINT('',(-8.67361737988404E-19,-0.0051,-0.0045));
#1004=CARTESIAN_POINT('',(0.00294448637286709,-0.0051,-0.0045));
#1005=CARTESIAN_POINT('',(0.00441672955930063,-0.00255,-0.0045));
#1006=CARTESIAN_POINT('',(0.00441672955930063,0.00255,-0.0045));
#1007=CARTESIAN_POINT('',(0.00294448637286709,0.0051,-0.0045));
#1008=CARTESIAN_POINT('',(0.00588897274573418,1.7347234759768E-18,-0.0045));
#1009=CARTESIAN_POINT('',(0.,0.0051,-0.0045));
#1010=CARTESIAN_POINT('',(-0.00294448637286709,0.0051,-0.0045));
#1011=CARTESIAN_POINT('',(-0.00441672955930063,0.00255,-0.0045));
#1012=CARTESIAN_POINT('',(-0.00588897274573418,8.67361737988404E-19,-0.0045));
#1013=CARTESIAN_POINT('',(-0.00441672955930064,-0.00255,-0.0045));
#1014=CARTESIAN_POINT('',(-0.00294448637286709,-0.0051,-0.0045));
#1015=CARTESIAN_POINT('',(-8.67361737988404E-19,-0.0051,-0.0045));
#1016=CARTESIAN_POINT('',(0.00294448637286709,-0.0051,-0.0045));
#1017=CARTESIAN_POINT('',(0.00441672955930063,-0.00255,-0.0045));
#1018=CARTESIAN_POINT('',(0.008,-0.008,-0.006502));
#1019=CARTESIAN_POINT('',(-0.008,-0.008,-0.006502));
#1020=CARTESIAN_POINT('',(-0.008,0.008,-0.006502));
#1021=CARTESIAN_POINT('',(0.008,0.008,-0.006502));
#1022=CARTESIAN_POINT('',(7.95580076913501E-18,-0.015,-0.0055));
#1023=CARTESIAN_POINT('',(0.0125,-0.015,-0.0055));
#1024=CARTESIAN_POINT('',(-0.0125,-0.015,-0.0055));
#1025=CARTESIAN_POINT('',(-0.0125,-0.014,-0.0055));
#1026=CARTESIAN_POINT('',(-0.0135,-0.014,-0.0055));
#1027=CARTESIAN_POINT('',(0.0125,-0.014,-0.0055));
#1028=CARTESIAN_POINT('',(0.0135,-0.014,-0.0055));
#1029=CARTESIAN_POINT('',(-0.0135,-1.00830802041152E-17,-0.0055));
#1030=CARTESIAN_POINT('',(-0.0135,0.014,-0.0055));
#1031=CARTESIAN_POINT('',(0.0135,1.69917826893333E-17,-0.0055));
#1032=CARTESIAN_POINT('',(0.0135,0.014,-0.0055));
#1033=CARTESIAN_POINT('',(-0.0125,0.014,-0.0055));
#1034=CARTESIAN_POINT('',(-0.0125,0.015,-0.0055));
#1035=CARTESIAN_POINT('',(0.0125,0.014,-0.0055));
#1036=CARTESIAN_POINT('',(0.0125,0.015,-0.0055));
#1037=CARTESIAN_POINT('',(-0.0174071777710369,0.015,-0.0055));
#1038=CARTESIAN_POINT('',(-0.0125,8.53500574394644E-18,-0.0005));
#1039=CARTESIAN_POINT('',(-0.0145,0.014,-0.0025));
#1040=CARTESIAN_POINT('',(-0.0125,-0.014,-0.0005));
#1041=CARTESIAN_POINT('',(-0.0125,0.014,-0.0025));
#1042=CARTESIAN_POINT('',(-0.0125,0.016,-0.0025));
#1043=CARTESIAN_POINT('',(-0.0125,-0.014,-0.0025));
#1044=CARTESIAN_POINT('',(-0.0125,-0.014,-0.0005));
#1045=CARTESIAN_POINT('',(-1.04083408558608E-17,0.016,-0.0025));
#1046=CARTESIAN_POINT('',(0.0125,0.016,-0.0025));
#1047=CARTESIAN_POINT('',(-0.0174071777710368,-0.014,-0.0005));
#1048=CARTESIAN_POINT('',(0.0125,-0.014,-0.0005));
#1049=CARTESIAN_POINT('',(0.0125,0.014,-0.0025));
#1050=CARTESIAN_POINT('',(0.0145,0.014,-0.0025));
#1051=CARTESIAN_POINT('',(0.0125,-0.014,-0.0025));
#1052=CARTESIAN_POINT('',(0.0125,-0.014,-0.0005));
#1053=CARTESIAN_POINT('',(0.0145,1.04083408558608E-17,-0.0025));
#1054=MECHANICAL_DESIGN_GEOMETRIC_PRESENTATION_REPRESENTATION('',(#617),
#1055);
#1055=(
GEOMETRIC_REPRESENTATION_CONTEXT(3)
GLOBAL_UNCERTAINTY_ASSIGNED_CONTEXT((#1056))
GLOBAL_UNIT_ASSIGNED_CONTEXT((#1059,#1058,#1057))
REPRESENTATION_CONTEXT('Spring Nut','TOP_LEVEL_ASSEMBLY_PART')
);
#1056=UNCERTAINTY_MEASURE_WITH_UNIT(LENGTH_MEASURE(1.E-8),#1059,
'DISTANCE_ACCURACY_VALUE','Maximum Tolerance applied to model');
#1057=(
NAMED_UNIT(*)
SI_UNIT($,.STERADIAN.)
SOLID_ANGLE_UNIT()
);
#1058=(
NAMED_UNIT(*)
PLANE_ANGLE_UNIT()
SI_UNIT($,.RADIAN.)
);
#1059=(
LENGTH_UNIT()
NAMED_UNIT(*)
SI_UNIT($,.METRE.)
);
#1060=PRODUCT_DEFINITION_SHAPE('','',#1061);
#1061=PRODUCT_DEFINITION('','',#1063,#1062);
#1062=PRODUCT_DEFINITION_CONTEXT('',#1069,'design');
#1063=PRODUCT_DEFINITION_FORMATION_WITH_SPECIFIED_SOURCE('','',#1065,
 .NOT_KNOWN.);
#1064=PRODUCT_RELATED_PRODUCT_CATEGORY('','',(#1065));
#1065=PRODUCT('Spring Nut','Spring Nut','Spring Nut',(#1067));
#1066=PRODUCT_CATEGORY('','');
#1067=PRODUCT_CONTEXT('',#1069,'mechanical');
#1068=APPLICATION_PROTOCOL_DEFINITION('international standard',
'ap242_managed_model_based_3d_engineering',2020,#1069);
#1069=APPLICATION_CONTEXT('managed model based 3d engineering');
ENDSEC;
END-ISO-10303-21;
