ISO-10303-21;
HEADER;
/* Generated by software containing ST-Developer
 * from STEP Tools, Inc. (www.steptools.com) 
 */
/* OPTION: using custom renumber hook */

FILE_DESCRIPTION(
/* description */ ('STEP AP242 Edition 2',
'CAx-IF Rec.Pracs.---Representation and Presentation of Product Manufa
cturing Information (PMI)---4.0---2014-10-13',
'CAx-IF Rec.Pracs.---3D Tessellated Geometry---0.4---2014-09-14','2;1',
'CAx-IF Rec.Pracs.---User Defined Attributes---1.5---2016-08-15'),
/* implementation_level */ '2;1');

FILE_NAME(
/* name */ '9.7in IPS - Buttons finglonger',
/* time_stamp */ '2026-07-13T15:43:27Z',
/* author */ (''),
/* organization */ (''),
/* preprocessor_version */ 'ST-DEVELOPER v20',
/* originating_system */ 'ONSHAPE BY PTC INC, 1.217',
/* authorisation */ '  ');

FILE_SCHEMA (('AP242_MANAGED_MODEL_BASED_3D_ENGINEERING_MIM_LF { 1 0 10303 442 3 1 4 }'));
ENDSEC;

DATA;
#10=SHAPE_REPRESENTATION_RELATIONSHIP('','',#796,#11);
#11=ADVANCED_BREP_SHAPE_REPRESENTATION('',(#794),#1365);
#12=TOROIDAL_SURFACE('',#875,0.00209999999999973,0.0005);
#13=TOROIDAL_SURFACE('',#876,0.00209999999999975,0.0005);
#14=TOROIDAL_SURFACE('',#877,0.00209999999999973,0.0005);
#15=TOROIDAL_SURFACE('',#878,0.00209999999999977,0.0005);
#16=TOROIDAL_SURFACE('',#879,0.0021,0.0005);
#17=CIRCLE('',#800,0.004);
#18=CIRCLE('',#801,0.004);
#19=CIRCLE('',#806,0.004);
#20=CIRCLE('',#807,0.004);
#21=CIRCLE('',#812,0.004);
#22=CIRCLE('',#813,0.004);
#23=CIRCLE('',#818,0.004);
#24=CIRCLE('',#819,0.004);
#25=CIRCLE('',#824,0.004);
#26=CIRCLE('',#825,0.004);
#27=CIRCLE('',#829,0.001);
#28=CIRCLE('',#830,0.001);
#29=CIRCLE('',#831,0.001);
#30=CIRCLE('',#832,0.001);
#31=CIRCLE('',#833,0.001);
#32=CIRCLE('',#834,0.001);
#33=CIRCLE('',#835,0.001);
#34=CIRCLE('',#836,0.001);
#35=CIRCLE('',#837,0.001);
#36=CIRCLE('',#838,0.001);
#37=CIRCLE('',#840,0.0026);
#38=CIRCLE('',#841,0.00259999999999977);
#39=CIRCLE('',#842,0.00259999999999973);
#40=CIRCLE('',#843,0.00259999999999975);
#41=CIRCLE('',#844,0.00259999999999973);
#42=CIRCLE('',#845,0.001);
#43=CIRCLE('',#846,0.001);
#44=CIRCLE('',#847,0.001);
#45=CIRCLE('',#848,0.001);
#46=CIRCLE('',#849,0.001);
#47=CIRCLE('',#850,0.001);
#48=CIRCLE('',#851,0.001);
#49=CIRCLE('',#852,0.001);
#50=CIRCLE('',#853,0.001);
#51=CIRCLE('',#854,0.001);
#52=CIRCLE('',#856,0.00259999999999973);
#53=CIRCLE('',#858,0.00209999999999973);
#54=CIRCLE('',#860,0.00259999999999975);
#55=CIRCLE('',#862,0.00209999999999975);
#56=CIRCLE('',#864,0.00259999999999973);
#57=CIRCLE('',#866,0.00209999999999973);
#58=CIRCLE('',#868,0.00259999999999977);
#59=CIRCLE('',#870,0.00209999999999977);
#60=CIRCLE('',#872,0.0026);
#61=CIRCLE('',#874,0.0021);
#62=CYLINDRICAL_SURFACE('',#799,0.004);
#63=CYLINDRICAL_SURFACE('',#805,0.004);
#64=CYLINDRICAL_SURFACE('',#811,0.004);
#65=CYLINDRICAL_SURFACE('',#817,0.004);
#66=CYLINDRICAL_SURFACE('',#823,0.004);
#67=CYLINDRICAL_SURFACE('',#855,0.00259999999999973);
#68=CYLINDRICAL_SURFACE('',#859,0.00259999999999975);
#69=CYLINDRICAL_SURFACE('',#863,0.00259999999999973);
#70=CYLINDRICAL_SURFACE('',#867,0.00259999999999977);
#71=CYLINDRICAL_SURFACE('',#871,0.0026);
#72=CYLINDRICAL_SURFACE('',#880,0.001);
#73=CYLINDRICAL_SURFACE('',#881,0.001);
#74=CYLINDRICAL_SURFACE('',#882,0.001);
#75=CYLINDRICAL_SURFACE('',#883,0.001);
#76=CYLINDRICAL_SURFACE('',#884,0.001);
#77=CYLINDRICAL_SURFACE('',#885,0.001);
#78=CYLINDRICAL_SURFACE('',#886,0.001);
#79=CYLINDRICAL_SURFACE('',#887,0.001);
#80=CYLINDRICAL_SURFACE('',#888,0.001);
#81=CYLINDRICAL_SURFACE('',#889,0.001);
#82=ORIENTED_EDGE('',*,*,#292,.T.);
#83=ORIENTED_EDGE('',*,*,#293,.T.);
#84=ORIENTED_EDGE('',*,*,#294,.F.);
#85=ORIENTED_EDGE('',*,*,#295,.F.);
#86=ORIENTED_EDGE('',*,*,#296,.T.);
#87=ORIENTED_EDGE('',*,*,#297,.F.);
#88=ORIENTED_EDGE('',*,*,#298,.F.);
#89=ORIENTED_EDGE('',*,*,#295,.T.);
#90=ORIENTED_EDGE('',*,*,#299,.F.);
#91=ORIENTED_EDGE('',*,*,#300,.T.);
#92=ORIENTED_EDGE('',*,*,#301,.T.);
#93=ORIENTED_EDGE('',*,*,#297,.T.);
#94=ORIENTED_EDGE('',*,*,#302,.F.);
#95=ORIENTED_EDGE('',*,*,#303,.T.);
#96=ORIENTED_EDGE('',*,*,#304,.T.);
#97=ORIENTED_EDGE('',*,*,#305,.T.);
#98=ORIENTED_EDGE('',*,*,#306,.F.);
#99=ORIENTED_EDGE('',*,*,#307,.T.);
#100=ORIENTED_EDGE('',*,*,#308,.T.);
#101=ORIENTED_EDGE('',*,*,#309,.F.);
#102=ORIENTED_EDGE('',*,*,#310,.T.);
#103=ORIENTED_EDGE('',*,*,#311,.F.);
#104=ORIENTED_EDGE('',*,*,#312,.F.);
#105=ORIENTED_EDGE('',*,*,#309,.T.);
#106=ORIENTED_EDGE('',*,*,#313,.F.);
#107=ORIENTED_EDGE('',*,*,#314,.T.);
#108=ORIENTED_EDGE('',*,*,#315,.T.);
#109=ORIENTED_EDGE('',*,*,#311,.T.);
#110=ORIENTED_EDGE('',*,*,#316,.T.);
#111=ORIENTED_EDGE('',*,*,#317,.T.);
#112=ORIENTED_EDGE('',*,*,#318,.F.);
#113=ORIENTED_EDGE('',*,*,#319,.T.);
#114=ORIENTED_EDGE('',*,*,#320,.F.);
#115=ORIENTED_EDGE('',*,*,#321,.T.);
#116=ORIENTED_EDGE('',*,*,#322,.T.);
#117=ORIENTED_EDGE('',*,*,#323,.F.);
#118=ORIENTED_EDGE('',*,*,#324,.T.);
#119=ORIENTED_EDGE('',*,*,#325,.F.);
#120=ORIENTED_EDGE('',*,*,#326,.F.);
#121=ORIENTED_EDGE('',*,*,#323,.T.);
#122=ORIENTED_EDGE('',*,*,#327,.F.);
#123=ORIENTED_EDGE('',*,*,#328,.T.);
#124=ORIENTED_EDGE('',*,*,#329,.T.);
#125=ORIENTED_EDGE('',*,*,#325,.T.);
#126=ORIENTED_EDGE('',*,*,#330,.T.);
#127=ORIENTED_EDGE('',*,*,#331,.T.);
#128=ORIENTED_EDGE('',*,*,#332,.F.);
#129=ORIENTED_EDGE('',*,*,#333,.T.);
#130=ORIENTED_EDGE('',*,*,#334,.F.);
#131=ORIENTED_EDGE('',*,*,#335,.T.);
#132=ORIENTED_EDGE('',*,*,#336,.T.);
#133=ORIENTED_EDGE('',*,*,#337,.F.);
#134=ORIENTED_EDGE('',*,*,#338,.T.);
#135=ORIENTED_EDGE('',*,*,#339,.F.);
#136=ORIENTED_EDGE('',*,*,#340,.F.);
#137=ORIENTED_EDGE('',*,*,#337,.T.);
#138=ORIENTED_EDGE('',*,*,#341,.F.);
#139=ORIENTED_EDGE('',*,*,#342,.T.);
#140=ORIENTED_EDGE('',*,*,#343,.T.);
#141=ORIENTED_EDGE('',*,*,#339,.T.);
#142=ORIENTED_EDGE('',*,*,#344,.F.);
#143=ORIENTED_EDGE('',*,*,#345,.T.);
#144=ORIENTED_EDGE('',*,*,#346,.T.);
#145=ORIENTED_EDGE('',*,*,#347,.T.);
#146=ORIENTED_EDGE('',*,*,#348,.F.);
#147=ORIENTED_EDGE('',*,*,#349,.T.);
#148=ORIENTED_EDGE('',*,*,#350,.T.);
#149=ORIENTED_EDGE('',*,*,#351,.F.);
#150=ORIENTED_EDGE('',*,*,#352,.T.);
#151=ORIENTED_EDGE('',*,*,#353,.F.);
#152=ORIENTED_EDGE('',*,*,#354,.F.);
#153=ORIENTED_EDGE('',*,*,#351,.T.);
#154=ORIENTED_EDGE('',*,*,#355,.F.);
#155=ORIENTED_EDGE('',*,*,#356,.T.);
#156=ORIENTED_EDGE('',*,*,#357,.T.);
#157=ORIENTED_EDGE('',*,*,#353,.T.);
#158=ORIENTED_EDGE('',*,*,#358,.F.);
#159=ORIENTED_EDGE('',*,*,#359,.T.);
#160=ORIENTED_EDGE('',*,*,#360,.T.);
#161=ORIENTED_EDGE('',*,*,#361,.T.);
#162=ORIENTED_EDGE('',*,*,#360,.F.);
#163=ORIENTED_EDGE('',*,*,#362,.T.);
#164=ORIENTED_EDGE('',*,*,#292,.F.);
#165=ORIENTED_EDGE('',*,*,#298,.T.);
#166=ORIENTED_EDGE('',*,*,#301,.F.);
#167=ORIENTED_EDGE('',*,*,#363,.T.);
#168=ORIENTED_EDGE('',*,*,#302,.T.);
#169=ORIENTED_EDGE('',*,*,#364,.T.);
#170=ORIENTED_EDGE('',*,*,#306,.T.);
#171=ORIENTED_EDGE('',*,*,#312,.T.);
#172=ORIENTED_EDGE('',*,*,#315,.F.);
#173=ORIENTED_EDGE('',*,*,#365,.T.);
#174=ORIENTED_EDGE('',*,*,#318,.T.);
#175=ORIENTED_EDGE('',*,*,#366,.T.);
#176=ORIENTED_EDGE('',*,*,#320,.T.);
#177=ORIENTED_EDGE('',*,*,#326,.T.);
#178=ORIENTED_EDGE('',*,*,#329,.F.);
#179=ORIENTED_EDGE('',*,*,#367,.T.);
#180=ORIENTED_EDGE('',*,*,#332,.T.);
#181=ORIENTED_EDGE('',*,*,#368,.T.);
#182=ORIENTED_EDGE('',*,*,#334,.T.);
#183=ORIENTED_EDGE('',*,*,#340,.T.);
#184=ORIENTED_EDGE('',*,*,#343,.F.);
#185=ORIENTED_EDGE('',*,*,#369,.T.);
#186=ORIENTED_EDGE('',*,*,#344,.T.);
#187=ORIENTED_EDGE('',*,*,#370,.T.);
#188=ORIENTED_EDGE('',*,*,#348,.T.);
#189=ORIENTED_EDGE('',*,*,#354,.T.);
#190=ORIENTED_EDGE('',*,*,#357,.F.);
#191=ORIENTED_EDGE('',*,*,#371,.T.);
#192=ORIENTED_EDGE('',*,*,#372,.T.);
#193=ORIENTED_EDGE('',*,*,#373,.T.);
#194=ORIENTED_EDGE('',*,*,#374,.T.);
#195=ORIENTED_EDGE('',*,*,#375,.T.);
#196=ORIENTED_EDGE('',*,*,#376,.T.);
#197=ORIENTED_EDGE('',*,*,#294,.T.);
#198=ORIENTED_EDGE('',*,*,#377,.T.);
#199=ORIENTED_EDGE('',*,*,#358,.T.);
#200=ORIENTED_EDGE('',*,*,#378,.T.);
#201=ORIENTED_EDGE('',*,*,#355,.T.);
#202=ORIENTED_EDGE('',*,*,#352,.F.);
#203=ORIENTED_EDGE('',*,*,#350,.F.);
#204=ORIENTED_EDGE('',*,*,#379,.T.);
#205=ORIENTED_EDGE('',*,*,#346,.F.);
#206=ORIENTED_EDGE('',*,*,#380,.T.);
#207=ORIENTED_EDGE('',*,*,#341,.T.);
#208=ORIENTED_EDGE('',*,*,#338,.F.);
#209=ORIENTED_EDGE('',*,*,#336,.F.);
#210=ORIENTED_EDGE('',*,*,#381,.T.);
#211=ORIENTED_EDGE('',*,*,#330,.F.);
#212=ORIENTED_EDGE('',*,*,#382,.T.);
#213=ORIENTED_EDGE('',*,*,#327,.T.);
#214=ORIENTED_EDGE('',*,*,#324,.F.);
#215=ORIENTED_EDGE('',*,*,#322,.F.);
#216=ORIENTED_EDGE('',*,*,#383,.T.);
#217=ORIENTED_EDGE('',*,*,#316,.F.);
#218=ORIENTED_EDGE('',*,*,#384,.T.);
#219=ORIENTED_EDGE('',*,*,#313,.T.);
#220=ORIENTED_EDGE('',*,*,#310,.F.);
#221=ORIENTED_EDGE('',*,*,#308,.F.);
#222=ORIENTED_EDGE('',*,*,#385,.T.);
#223=ORIENTED_EDGE('',*,*,#304,.F.);
#224=ORIENTED_EDGE('',*,*,#386,.T.);
#225=ORIENTED_EDGE('',*,*,#299,.T.);
#226=ORIENTED_EDGE('',*,*,#296,.F.);
#227=ORIENTED_EDGE('',*,*,#387,.T.);
#228=ORIENTED_EDGE('',*,*,#376,.F.);
#229=ORIENTED_EDGE('',*,*,#388,.T.);
#230=ORIENTED_EDGE('',*,*,#389,.T.);
#231=ORIENTED_EDGE('',*,*,#375,.F.);
#232=ORIENTED_EDGE('',*,*,#390,.T.);
#233=ORIENTED_EDGE('',*,*,#391,.T.);
#234=ORIENTED_EDGE('',*,*,#374,.F.);
#235=ORIENTED_EDGE('',*,*,#392,.T.);
#236=ORIENTED_EDGE('',*,*,#393,.T.);
#237=ORIENTED_EDGE('',*,*,#373,.F.);
#238=ORIENTED_EDGE('',*,*,#394,.T.);
#239=ORIENTED_EDGE('',*,*,#395,.T.);
#240=ORIENTED_EDGE('',*,*,#372,.F.);
#241=ORIENTED_EDGE('',*,*,#396,.T.);
#242=ORIENTED_EDGE('',*,*,#388,.F.);
#243=ORIENTED_EDGE('',*,*,#387,.F.);
#244=ORIENTED_EDGE('',*,*,#390,.F.);
#245=ORIENTED_EDGE('',*,*,#389,.F.);
#246=ORIENTED_EDGE('',*,*,#392,.F.);
#247=ORIENTED_EDGE('',*,*,#391,.F.);
#248=ORIENTED_EDGE('',*,*,#394,.F.);
#249=ORIENTED_EDGE('',*,*,#393,.F.);
#250=ORIENTED_EDGE('',*,*,#396,.F.);
#251=ORIENTED_EDGE('',*,*,#395,.F.);
#252=ORIENTED_EDGE('',*,*,#362,.F.);
#253=ORIENTED_EDGE('',*,*,#359,.F.);
#254=ORIENTED_EDGE('',*,*,#377,.F.);
#255=ORIENTED_EDGE('',*,*,#293,.F.);
#256=ORIENTED_EDGE('',*,*,#371,.F.);
#257=ORIENTED_EDGE('',*,*,#356,.F.);
#258=ORIENTED_EDGE('',*,*,#378,.F.);
#259=ORIENTED_EDGE('',*,*,#361,.F.);
#260=ORIENTED_EDGE('',*,*,#369,.F.);
#261=ORIENTED_EDGE('',*,*,#342,.F.);
#262=ORIENTED_EDGE('',*,*,#380,.F.);
#263=ORIENTED_EDGE('',*,*,#345,.F.);
#264=ORIENTED_EDGE('',*,*,#370,.F.);
#265=ORIENTED_EDGE('',*,*,#347,.F.);
#266=ORIENTED_EDGE('',*,*,#379,.F.);
#267=ORIENTED_EDGE('',*,*,#349,.F.);
#268=ORIENTED_EDGE('',*,*,#368,.F.);
#269=ORIENTED_EDGE('',*,*,#331,.F.);
#270=ORIENTED_EDGE('',*,*,#381,.F.);
#271=ORIENTED_EDGE('',*,*,#335,.F.);
#272=ORIENTED_EDGE('',*,*,#366,.F.);
#273=ORIENTED_EDGE('',*,*,#317,.F.);
#274=ORIENTED_EDGE('',*,*,#383,.F.);
#275=ORIENTED_EDGE('',*,*,#321,.F.);
#276=ORIENTED_EDGE('',*,*,#367,.F.);
#277=ORIENTED_EDGE('',*,*,#328,.F.);
#278=ORIENTED_EDGE('',*,*,#382,.F.);
#279=ORIENTED_EDGE('',*,*,#333,.F.);
#280=ORIENTED_EDGE('',*,*,#363,.F.);
#281=ORIENTED_EDGE('',*,*,#300,.F.);
#282=ORIENTED_EDGE('',*,*,#386,.F.);
#283=ORIENTED_EDGE('',*,*,#303,.F.);
#284=ORIENTED_EDGE('',*,*,#365,.F.);
#285=ORIENTED_EDGE('',*,*,#314,.F.);
#286=ORIENTED_EDGE('',*,*,#384,.F.);
#287=ORIENTED_EDGE('',*,*,#319,.F.);
#288=ORIENTED_EDGE('',*,*,#364,.F.);
#289=ORIENTED_EDGE('',*,*,#305,.F.);
#290=ORIENTED_EDGE('',*,*,#385,.F.);
#291=ORIENTED_EDGE('',*,*,#307,.F.);
#292=EDGE_CURVE('',#397,#398,#472,.T.);
#293=EDGE_CURVE('',#398,#399,#473,.T.);
#294=EDGE_CURVE('',#400,#399,#474,.T.);
#295=EDGE_CURVE('',#397,#400,#475,.T.);
#296=EDGE_CURVE('',#400,#401,#17,.T.);
#297=EDGE_CURVE('',#402,#401,#476,.T.);
#298=EDGE_CURVE('',#397,#402,#18,.T.);
#299=EDGE_CURVE('',#403,#401,#477,.T.);
#300=EDGE_CURVE('',#403,#404,#478,.F.);
#301=EDGE_CURVE('',#404,#402,#479,.T.);
#302=EDGE_CURVE('',#405,#406,#480,.T.);
#303=EDGE_CURVE('',#405,#407,#481,.T.);
#304=EDGE_CURVE('',#407,#408,#482,.T.);
#305=EDGE_CURVE('',#408,#406,#483,.F.);
#306=EDGE_CURVE('',#409,#410,#484,.T.);
#307=EDGE_CURVE('',#409,#411,#485,.T.);
#308=EDGE_CURVE('',#411,#412,#486,.T.);
#309=EDGE_CURVE('',#410,#412,#487,.T.);
#310=EDGE_CURVE('',#412,#413,#19,.T.);
#311=EDGE_CURVE('',#414,#413,#488,.T.);
#312=EDGE_CURVE('',#410,#414,#20,.T.);
#313=EDGE_CURVE('',#415,#413,#489,.T.);
#314=EDGE_CURVE('',#415,#416,#490,.F.);
#315=EDGE_CURVE('',#416,#414,#491,.T.);
#316=EDGE_CURVE('',#417,#418,#492,.T.);
#317=EDGE_CURVE('',#418,#419,#493,.F.);
#318=EDGE_CURVE('',#420,#419,#494,.T.);
#319=EDGE_CURVE('',#420,#417,#495,.T.);
#320=EDGE_CURVE('',#421,#422,#496,.T.);
#321=EDGE_CURVE('',#421,#423,#497,.T.);
#322=EDGE_CURVE('',#423,#424,#498,.T.);
#323=EDGE_CURVE('',#422,#424,#499,.T.);
#324=EDGE_CURVE('',#424,#425,#21,.T.);
#325=EDGE_CURVE('',#426,#425,#500,.T.);
#326=EDGE_CURVE('',#422,#426,#22,.T.);
#327=EDGE_CURVE('',#427,#425,#501,.T.);
#328=EDGE_CURVE('',#427,#428,#502,.F.);
#329=EDGE_CURVE('',#428,#426,#503,.T.);
#330=EDGE_CURVE('',#429,#430,#504,.T.);
#331=EDGE_CURVE('',#430,#431,#505,.F.);
#332=EDGE_CURVE('',#432,#431,#506,.T.);
#333=EDGE_CURVE('',#432,#429,#507,.T.);
#334=EDGE_CURVE('',#433,#434,#508,.T.);
#335=EDGE_CURVE('',#433,#435,#509,.T.);
#336=EDGE_CURVE('',#435,#436,#510,.T.);
#337=EDGE_CURVE('',#434,#436,#511,.T.);
#338=EDGE_CURVE('',#436,#437,#23,.T.);
#339=EDGE_CURVE('',#438,#437,#512,.T.);
#340=EDGE_CURVE('',#434,#438,#24,.T.);
#341=EDGE_CURVE('',#439,#437,#513,.T.);
#342=EDGE_CURVE('',#439,#440,#514,.F.);
#343=EDGE_CURVE('',#440,#438,#515,.T.);
#344=EDGE_CURVE('',#441,#442,#516,.T.);
#345=EDGE_CURVE('',#441,#443,#517,.T.);
#346=EDGE_CURVE('',#443,#444,#518,.T.);
#347=EDGE_CURVE('',#444,#442,#519,.F.);
#348=EDGE_CURVE('',#445,#446,#520,.T.);
#349=EDGE_CURVE('',#445,#447,#521,.T.);
#350=EDGE_CURVE('',#447,#448,#522,.T.);
#351=EDGE_CURVE('',#446,#448,#523,.T.);
#352=EDGE_CURVE('',#448,#449,#25,.T.);
#353=EDGE_CURVE('',#450,#449,#524,.T.);
#354=EDGE_CURVE('',#446,#450,#26,.T.);
#355=EDGE_CURVE('',#451,#449,#525,.T.);
#356=EDGE_CURVE('',#451,#452,#526,.F.);
#357=EDGE_CURVE('',#452,#450,#527,.T.);
#358=EDGE_CURVE('',#453,#454,#528,.T.);
#359=EDGE_CURVE('',#453,#455,#529,.F.);
#360=EDGE_CURVE('',#455,#456,#530,.T.);
#361=EDGE_CURVE('',#456,#454,#531,.T.);
#362=EDGE_CURVE('',#455,#398,#27,.T.);
#363=EDGE_CURVE('',#404,#405,#28,.F.);
#364=EDGE_CURVE('',#406,#409,#29,.F.);
#365=EDGE_CURVE('',#416,#420,#30,.F.);
#366=EDGE_CURVE('',#419,#421,#31,.F.);
#367=EDGE_CURVE('',#428,#432,#32,.F.);
#368=EDGE_CURVE('',#431,#433,#33,.F.);
#369=EDGE_CURVE('',#440,#441,#34,.F.);
#370=EDGE_CURVE('',#442,#445,#35,.F.);
#371=EDGE_CURVE('',#452,#456,#36,.T.);
#372=EDGE_CURVE('',#457,#457,#37,.T.);
#373=EDGE_CURVE('',#458,#458,#38,.T.);
#374=EDGE_CURVE('',#459,#459,#39,.T.);
#375=EDGE_CURVE('',#460,#460,#40,.T.);
#376=EDGE_CURVE('',#461,#461,#41,.T.);
#377=EDGE_CURVE('',#399,#453,#42,.F.);
#378=EDGE_CURVE('',#454,#451,#43,.F.);
#379=EDGE_CURVE('',#447,#444,#44,.T.);
#380=EDGE_CURVE('',#443,#439,#45,.T.);
#381=EDGE_CURVE('',#435,#430,#46,.T.);
#382=EDGE_CURVE('',#429,#427,#47,.T.);
#383=EDGE_CURVE('',#423,#418,#48,.T.);
#384=EDGE_CURVE('',#417,#415,#49,.T.);
#385=EDGE_CURVE('',#411,#408,#50,.T.);
#386=EDGE_CURVE('',#407,#403,#51,.T.);
#387=EDGE_CURVE('',#462,#462,#52,.T.);
#388=EDGE_CURVE('',#463,#463,#53,.F.);
#389=EDGE_CURVE('',#464,#464,#54,.T.);
#390=EDGE_CURVE('',#465,#465,#55,.F.);
#391=EDGE_CURVE('',#466,#466,#56,.T.);
#392=EDGE_CURVE('',#467,#467,#57,.F.);
#393=EDGE_CURVE('',#468,#468,#58,.T.);
#394=EDGE_CURVE('',#469,#469,#59,.F.);
#395=EDGE_CURVE('',#470,#470,#60,.T.);
#396=EDGE_CURVE('',#471,#471,#61,.F.);
#397=VERTEX_POINT('',#1139);
#398=VERTEX_POINT('',#1140);
#399=VERTEX_POINT('',#1142);
#400=VERTEX_POINT('',#1144);
#401=VERTEX_POINT('',#1148);
#402=VERTEX_POINT('',#1150);
#403=VERTEX_POINT('',#1154);
#404=VERTEX_POINT('',#1156);
#405=VERTEX_POINT('',#1160);
#406=VERTEX_POINT('',#1161);
#407=VERTEX_POINT('',#1163);
#408=VERTEX_POINT('',#1165);
#409=VERTEX_POINT('',#1169);
#410=VERTEX_POINT('',#1170);
#411=VERTEX_POINT('',#1172);
#412=VERTEX_POINT('',#1174);
#413=VERTEX_POINT('',#1178);
#414=VERTEX_POINT('',#1180);
#415=VERTEX_POINT('',#1184);
#416=VERTEX_POINT('',#1186);
#417=VERTEX_POINT('',#1190);
#418=VERTEX_POINT('',#1191);
#419=VERTEX_POINT('',#1193);
#420=VERTEX_POINT('',#1195);
#421=VERTEX_POINT('',#1199);
#422=VERTEX_POINT('',#1200);
#423=VERTEX_POINT('',#1202);
#424=VERTEX_POINT('',#1204);
#425=VERTEX_POINT('',#1208);
#426=VERTEX_POINT('',#1210);
#427=VERTEX_POINT('',#1214);
#428=VERTEX_POINT('',#1216);
#429=VERTEX_POINT('',#1220);
#430=VERTEX_POINT('',#1221);
#431=VERTEX_POINT('',#1223);
#432=VERTEX_POINT('',#1225);
#433=VERTEX_POINT('',#1229);
#434=VERTEX_POINT('',#1230);
#435=VERTEX_POINT('',#1232);
#436=VERTEX_POINT('',#1234);
#437=VERTEX_POINT('',#1238);
#438=VERTEX_POINT('',#1240);
#439=VERTEX_POINT('',#1244);
#440=VERTEX_POINT('',#1246);
#441=VERTEX_POINT('',#1250);
#442=VERTEX_POINT('',#1251);
#443=VERTEX_POINT('',#1253);
#444=VERTEX_POINT('',#1255);
#445=VERTEX_POINT('',#1259);
#446=VERTEX_POINT('',#1260);
#447=VERTEX_POINT('',#1262);
#448=VERTEX_POINT('',#1264);
#449=VERTEX_POINT('',#1268);
#450=VERTEX_POINT('',#1270);
#451=VERTEX_POINT('',#1274);
#452=VERTEX_POINT('',#1276);
#453=VERTEX_POINT('',#1280);
#454=VERTEX_POINT('',#1281);
#455=VERTEX_POINT('',#1283);
#456=VERTEX_POINT('',#1285);
#457=VERTEX_POINT('',#1300);
#458=VERTEX_POINT('',#1302);
#459=VERTEX_POINT('',#1304);
#460=VERTEX_POINT('',#1306);
#461=VERTEX_POINT('',#1308);
#462=VERTEX_POINT('',#1321);
#463=VERTEX_POINT('',#1324);
#464=VERTEX_POINT('',#1327);
#465=VERTEX_POINT('',#1330);
#466=VERTEX_POINT('',#1333);
#467=VERTEX_POINT('',#1336);
#468=VERTEX_POINT('',#1339);
#469=VERTEX_POINT('',#1342);
#470=VERTEX_POINT('',#1345);
#471=VERTEX_POINT('',#1348);
#472=LINE('',#1138,#532);
#473=LINE('',#1141,#533);
#474=LINE('',#1143,#534);
#475=LINE('',#1145,#535);
#476=LINE('',#1149,#536);
#477=LINE('',#1153,#537);
#478=LINE('',#1155,#538);
#479=LINE('',#1157,#539);
#480=LINE('',#1159,#540);
#481=LINE('',#1162,#541);
#482=LINE('',#1164,#542);
#483=LINE('',#1166,#543);
#484=LINE('',#1168,#544);
#485=LINE('',#1171,#545);
#486=LINE('',#1173,#546);
#487=LINE('',#1175,#547);
#488=LINE('',#1179,#548);
#489=LINE('',#1183,#549);
#490=LINE('',#1185,#550);
#491=LINE('',#1187,#551);
#492=LINE('',#1189,#552);
#493=LINE('',#1192,#553);
#494=LINE('',#1194,#554);
#495=LINE('',#1196,#555);
#496=LINE('',#1198,#556);
#497=LINE('',#1201,#557);
#498=LINE('',#1203,#558);
#499=LINE('',#1205,#559);
#500=LINE('',#1209,#560);
#501=LINE('',#1213,#561);
#502=LINE('',#1215,#562);
#503=LINE('',#1217,#563);
#504=LINE('',#1219,#564);
#505=LINE('',#1222,#565);
#506=LINE('',#1224,#566);
#507=LINE('',#1226,#567);
#508=LINE('',#1228,#568);
#509=LINE('',#1231,#569);
#510=LINE('',#1233,#570);
#511=LINE('',#1235,#571);
#512=LINE('',#1239,#572);
#513=LINE('',#1243,#573);
#514=LINE('',#1245,#574);
#515=LINE('',#1247,#575);
#516=LINE('',#1249,#576);
#517=LINE('',#1252,#577);
#518=LINE('',#1254,#578);
#519=LINE('',#1256,#579);
#520=LINE('',#1258,#580);
#521=LINE('',#1261,#581);
#522=LINE('',#1263,#582);
#523=LINE('',#1265,#583);
#524=LINE('',#1269,#584);
#525=LINE('',#1273,#585);
#526=LINE('',#1275,#586);
#527=LINE('',#1277,#587);
#528=LINE('',#1279,#588);
#529=LINE('',#1282,#589);
#530=LINE('',#1284,#590);
#531=LINE('',#1286,#591);
#532=VECTOR('',#894,1.);
#533=VECTOR('',#895,1.);
#534=VECTOR('',#896,1.);
#535=VECTOR('',#897,1.);
#536=VECTOR('',#902,1.);
#537=VECTOR('',#907,1.);
#538=VECTOR('',#908,1.);
#539=VECTOR('',#909,1.);
#540=VECTOR('',#912,1.);
#541=VECTOR('',#913,1.);
#542=VECTOR('',#914,1.);
#543=VECTOR('',#915,1.);
#544=VECTOR('',#918,1.);
#545=VECTOR('',#919,1.);
#546=VECTOR('',#920,1.);
#547=VECTOR('',#921,1.);
#548=VECTOR('',#926,1.);
#549=VECTOR('',#931,1.);
#550=VECTOR('',#932,1.);
#551=VECTOR('',#933,1.);
#552=VECTOR('',#936,1.);
#553=VECTOR('',#937,1.);
#554=VECTOR('',#938,1.);
#555=VECTOR('',#939,1.);
#556=VECTOR('',#942,1.);
#557=VECTOR('',#943,1.);
#558=VECTOR('',#944,1.);
#559=VECTOR('',#945,1.);
#560=VECTOR('',#950,1.);
#561=VECTOR('',#955,1.);
#562=VECTOR('',#956,1.);
#563=VECTOR('',#957,1.);
#564=VECTOR('',#960,1.);
#565=VECTOR('',#961,1.);
#566=VECTOR('',#962,1.);
#567=VECTOR('',#963,1.);
#568=VECTOR('',#966,1.);
#569=VECTOR('',#967,1.);
#570=VECTOR('',#968,1.);
#571=VECTOR('',#969,1.);
#572=VECTOR('',#974,1.);
#573=VECTOR('',#979,1.);
#574=VECTOR('',#980,1.);
#575=VECTOR('',#981,1.);
#576=VECTOR('',#984,1.);
#577=VECTOR('',#985,1.);
#578=VECTOR('',#986,1.);
#579=VECTOR('',#987,1.);
#580=VECTOR('',#990,1.);
#581=VECTOR('',#991,1.);
#582=VECTOR('',#992,1.);
#583=VECTOR('',#993,1.);
#584=VECTOR('',#998,1.);
#585=VECTOR('',#1003,1.);
#586=VECTOR('',#1004,1.);
#587=VECTOR('',#1005,1.);
#588=VECTOR('',#1008,1.);
#589=VECTOR('',#1009,1.);
#590=VECTOR('',#1010,1.);
#591=VECTOR('',#1011,1.);
#592=EDGE_LOOP('',(#82,#83,#84,#85));
#593=EDGE_LOOP('',(#86,#87,#88,#89));
#594=EDGE_LOOP('',(#90,#91,#92,#93));
#595=EDGE_LOOP('',(#94,#95,#96,#97));
#596=EDGE_LOOP('',(#98,#99,#100,#101));
#597=EDGE_LOOP('',(#102,#103,#104,#105));
#598=EDGE_LOOP('',(#106,#107,#108,#109));
#599=EDGE_LOOP('',(#110,#111,#112,#113));
#600=EDGE_LOOP('',(#114,#115,#116,#117));
#601=EDGE_LOOP('',(#118,#119,#120,#121));
#602=EDGE_LOOP('',(#122,#123,#124,#125));
#603=EDGE_LOOP('',(#126,#127,#128,#129));
#604=EDGE_LOOP('',(#130,#131,#132,#133));
#605=EDGE_LOOP('',(#134,#135,#136,#137));
#606=EDGE_LOOP('',(#138,#139,#140,#141));
#607=EDGE_LOOP('',(#142,#143,#144,#145));
#608=EDGE_LOOP('',(#146,#147,#148,#149));
#609=EDGE_LOOP('',(#150,#151,#152,#153));
#610=EDGE_LOOP('',(#154,#155,#156,#157));
#611=EDGE_LOOP('',(#158,#159,#160,#161));
#612=EDGE_LOOP('',(#162,#163,#164,#165,#166,#167,#168,#169,#170,#171,#172,
#173,#174,#175,#176,#177,#178,#179,#180,#181,#182,#183,#184,#185,#186,#187,
#188,#189,#190,#191));
#613=EDGE_LOOP('',(#192));
#614=EDGE_LOOP('',(#193));
#615=EDGE_LOOP('',(#194));
#616=EDGE_LOOP('',(#195));
#617=EDGE_LOOP('',(#196));
#618=EDGE_LOOP('',(#197,#198,#199,#200,#201,#202,#203,#204,#205,#206,#207,
#208,#209,#210,#211,#212,#213,#214,#215,#216,#217,#218,#219,#220,#221,#222,
#223,#224,#225,#226));
#619=EDGE_LOOP('',(#227));
#620=EDGE_LOOP('',(#228));
#621=EDGE_LOOP('',(#229));
#622=EDGE_LOOP('',(#230));
#623=EDGE_LOOP('',(#231));
#624=EDGE_LOOP('',(#232));
#625=EDGE_LOOP('',(#233));
#626=EDGE_LOOP('',(#234));
#627=EDGE_LOOP('',(#235));
#628=EDGE_LOOP('',(#236));
#629=EDGE_LOOP('',(#237));
#630=EDGE_LOOP('',(#238));
#631=EDGE_LOOP('',(#239));
#632=EDGE_LOOP('',(#240));
#633=EDGE_LOOP('',(#241));
#634=EDGE_LOOP('',(#242));
#635=EDGE_LOOP('',(#243));
#636=EDGE_LOOP('',(#244));
#637=EDGE_LOOP('',(#245));
#638=EDGE_LOOP('',(#246));
#639=EDGE_LOOP('',(#247));
#640=EDGE_LOOP('',(#248));
#641=EDGE_LOOP('',(#249));
#642=EDGE_LOOP('',(#250));
#643=EDGE_LOOP('',(#251));
#644=EDGE_LOOP('',(#252,#253,#254,#255));
#645=EDGE_LOOP('',(#256,#257,#258,#259));
#646=EDGE_LOOP('',(#260,#261,#262,#263));
#647=EDGE_LOOP('',(#264,#265,#266,#267));
#648=EDGE_LOOP('',(#268,#269,#270,#271));
#649=EDGE_LOOP('',(#272,#273,#274,#275));
#650=EDGE_LOOP('',(#276,#277,#278,#279));
#651=EDGE_LOOP('',(#280,#281,#282,#283));
#652=EDGE_LOOP('',(#284,#285,#286,#287));
#653=EDGE_LOOP('',(#288,#289,#290,#291));
#654=FACE_BOUND('',#592,.T.);
#655=FACE_BOUND('',#593,.T.);
#656=FACE_BOUND('',#594,.T.);
#657=FACE_BOUND('',#595,.T.);
#658=FACE_BOUND('',#596,.T.);
#659=FACE_BOUND('',#597,.T.);
#660=FACE_BOUND('',#598,.T.);
#661=FACE_BOUND('',#599,.T.);
#662=FACE_BOUND('',#600,.T.);
#663=FACE_BOUND('',#601,.T.);
#664=FACE_BOUND('',#602,.T.);
#665=FACE_BOUND('',#603,.T.);
#666=FACE_BOUND('',#604,.T.);
#667=FACE_BOUND('',#605,.T.);
#668=FACE_BOUND('',#606,.T.);
#669=FACE_BOUND('',#607,.T.);
#670=FACE_BOUND('',#608,.T.);
#671=FACE_BOUND('',#609,.T.);
#672=FACE_BOUND('',#610,.T.);
#673=FACE_BOUND('',#611,.T.);
#674=FACE_BOUND('',#612,.T.);
#675=FACE_BOUND('',#613,.T.);
#676=FACE_BOUND('',#614,.T.);
#677=FACE_BOUND('',#615,.T.);
#678=FACE_BOUND('',#616,.T.);
#679=FACE_BOUND('',#617,.T.);
#680=FACE_BOUND('',#618,.T.);
#681=FACE_BOUND('',#619,.T.);
#682=FACE_BOUND('',#620,.T.);
#683=FACE_BOUND('',#621,.T.);
#684=FACE_BOUND('',#622,.T.);
#685=FACE_BOUND('',#623,.T.);
#686=FACE_BOUND('',#624,.T.);
#687=FACE_BOUND('',#625,.T.);
#688=FACE_BOUND('',#626,.T.);
#689=FACE_BOUND('',#627,.T.);
#690=FACE_BOUND('',#628,.T.);
#691=FACE_BOUND('',#629,.T.);
#692=FACE_BOUND('',#630,.T.);
#693=FACE_BOUND('',#631,.T.);
#694=FACE_BOUND('',#632,.T.);
#695=FACE_BOUND('',#633,.T.);
#696=FACE_BOUND('',#634,.T.);
#697=FACE_BOUND('',#635,.T.);
#698=FACE_BOUND('',#636,.T.);
#699=FACE_BOUND('',#637,.T.);
#700=FACE_BOUND('',#638,.T.);
#701=FACE_BOUND('',#639,.T.);
#702=FACE_BOUND('',#640,.T.);
#703=FACE_BOUND('',#641,.T.);
#704=FACE_BOUND('',#642,.T.);
#705=FACE_BOUND('',#643,.T.);
#706=FACE_BOUND('',#644,.T.);
#707=FACE_BOUND('',#645,.T.);
#708=FACE_BOUND('',#646,.T.);
#709=FACE_BOUND('',#647,.T.);
#710=FACE_BOUND('',#648,.T.);
#711=FACE_BOUND('',#649,.T.);
#712=FACE_BOUND('',#650,.T.);
#713=FACE_BOUND('',#651,.T.);
#714=FACE_BOUND('',#652,.T.);
#715=FACE_BOUND('',#653,.T.);
#716=PLANE('',#798);
#717=PLANE('',#802);
#718=PLANE('',#803);
#719=PLANE('',#804);
#720=PLANE('',#808);
#721=PLANE('',#809);
#722=PLANE('',#810);
#723=PLANE('',#814);
#724=PLANE('',#815);
#725=PLANE('',#816);
#726=PLANE('',#820);
#727=PLANE('',#821);
#728=PLANE('',#822);
#729=PLANE('',#826);
#730=PLANE('',#827);
#731=PLANE('',#828);
#732=PLANE('',#839);
#733=PLANE('',#857);
#734=PLANE('',#861);
#735=PLANE('',#865);
#736=PLANE('',#869);
#737=PLANE('',#873);
#738=ADVANCED_FACE('',(#654),#716,.T.);
#739=ADVANCED_FACE('',(#655),#62,.T.);
#740=ADVANCED_FACE('',(#656),#717,.T.);
#741=ADVANCED_FACE('',(#657),#718,.F.);
#742=ADVANCED_FACE('',(#658),#719,.F.);
#743=ADVANCED_FACE('',(#659),#63,.T.);
#744=ADVANCED_FACE('',(#660),#720,.T.);
#745=ADVANCED_FACE('',(#661),#721,.F.);
#746=ADVANCED_FACE('',(#662),#722,.F.);
#747=ADVANCED_FACE('',(#663),#64,.T.);
#748=ADVANCED_FACE('',(#664),#723,.T.);
#749=ADVANCED_FACE('',(#665),#724,.F.);
#750=ADVANCED_FACE('',(#666),#725,.F.);
#751=ADVANCED_FACE('',(#667),#65,.T.);
#752=ADVANCED_FACE('',(#668),#726,.T.);
#753=ADVANCED_FACE('',(#669),#727,.F.);
#754=ADVANCED_FACE('',(#670),#728,.F.);
#755=ADVANCED_FACE('',(#671),#66,.T.);
#756=ADVANCED_FACE('',(#672),#729,.T.);
#757=ADVANCED_FACE('',(#673),#730,.T.);
#758=ADVANCED_FACE('',(#674),#731,.T.);
#759=ADVANCED_FACE('',(#675,#676,#677,#678,#679,#680),#732,.F.);
#760=ADVANCED_FACE('',(#681,#682),#67,.T.);
#761=ADVANCED_FACE('',(#683),#733,.F.);
#762=ADVANCED_FACE('',(#684,#685),#68,.T.);
#763=ADVANCED_FACE('',(#686),#734,.F.);
#764=ADVANCED_FACE('',(#687,#688),#69,.T.);
#765=ADVANCED_FACE('',(#689),#735,.F.);
#766=ADVANCED_FACE('',(#690,#691),#70,.T.);
#767=ADVANCED_FACE('',(#692),#736,.F.);
#768=ADVANCED_FACE('',(#693,#694),#71,.T.);
#769=ADVANCED_FACE('',(#695),#737,.F.);
#770=ADVANCED_FACE('',(#696,#697),#12,.T.);
#771=ADVANCED_FACE('',(#698,#699),#13,.T.);
#772=ADVANCED_FACE('',(#700,#701),#14,.T.);
#773=ADVANCED_FACE('',(#702,#703),#15,.T.);
#774=ADVANCED_FACE('',(#704,#705),#16,.T.);
#775=ADVANCED_FACE('',(#706),#72,.T.);
#776=ADVANCED_FACE('',(#707),#73,.T.);
#777=ADVANCED_FACE('',(#708),#74,.F.);
#778=ADVANCED_FACE('',(#709),#75,.F.);
#779=ADVANCED_FACE('',(#710),#76,.F.);
#780=ADVANCED_FACE('',(#711),#77,.F.);
#781=ADVANCED_FACE('',(#712),#78,.F.);
#782=ADVANCED_FACE('',(#713),#79,.F.);
#783=ADVANCED_FACE('',(#714),#80,.F.);
#784=ADVANCED_FACE('',(#715),#81,.F.);
#785=CLOSED_SHELL('',(#738,#739,#740,#741,#742,#743,#744,#745,#746,#747,
#748,#749,#750,#751,#752,#753,#754,#755,#756,#757,#758,#759,#760,#761,#762,
#763,#764,#765,#766,#767,#768,#769,#770,#771,#772,#773,#774,#775,#776,#777,
#778,#779,#780,#781,#782,#783,#784));
#786=STYLED_ITEM('',(#787),#794);
#787=PRESENTATION_STYLE_ASSIGNMENT((#788));
#788=SURFACE_STYLE_USAGE(.BOTH.,#789);
#789=SURFACE_SIDE_STYLE('',(#790));
#790=SURFACE_STYLE_FILL_AREA(#791);
#791=FILL_AREA_STYLE('',(#792));
#792=FILL_AREA_STYLE_COLOUR('',#793);
#793=COLOUR_RGB('',0.972549019607843,0.529411764705882,0.00392156862745098);
#794=MANIFOLD_SOLID_BREP('Buttons finglonger',#785);
#795=SHAPE_DEFINITION_REPRESENTATION(#1370,#796);
#796=SHAPE_REPRESENTATION('Buttons finglonger',(#797),#1365);
#797=AXIS2_PLACEMENT_3D('',#1136,#890,#891);
#798=AXIS2_PLACEMENT_3D('',#1137,#892,#893);
#799=AXIS2_PLACEMENT_3D('',#1146,#898,#899);
#800=AXIS2_PLACEMENT_3D('',#1147,#900,#901);
#801=AXIS2_PLACEMENT_3D('',#1151,#903,#904);
#802=AXIS2_PLACEMENT_3D('',#1152,#905,#906);
#803=AXIS2_PLACEMENT_3D('',#1158,#910,#911);
#804=AXIS2_PLACEMENT_3D('',#1167,#916,#917);
#805=AXIS2_PLACEMENT_3D('',#1176,#922,#923);
#806=AXIS2_PLACEMENT_3D('',#1177,#924,#925);
#807=AXIS2_PLACEMENT_3D('',#1181,#927,#928);
#808=AXIS2_PLACEMENT_3D('',#1182,#929,#930);
#809=AXIS2_PLACEMENT_3D('',#1188,#934,#935);
#810=AXIS2_PLACEMENT_3D('',#1197,#940,#941);
#811=AXIS2_PLACEMENT_3D('',#1206,#946,#947);
#812=AXIS2_PLACEMENT_3D('',#1207,#948,#949);
#813=AXIS2_PLACEMENT_3D('',#1211,#951,#952);
#814=AXIS2_PLACEMENT_3D('',#1212,#953,#954);
#815=AXIS2_PLACEMENT_3D('',#1218,#958,#959);
#816=AXIS2_PLACEMENT_3D('',#1227,#964,#965);
#817=AXIS2_PLACEMENT_3D('',#1236,#970,#971);
#818=AXIS2_PLACEMENT_3D('',#1237,#972,#973);
#819=AXIS2_PLACEMENT_3D('',#1241,#975,#976);
#820=AXIS2_PLACEMENT_3D('',#1242,#977,#978);
#821=AXIS2_PLACEMENT_3D('',#1248,#982,#983);
#822=AXIS2_PLACEMENT_3D('',#1257,#988,#989);
#823=AXIS2_PLACEMENT_3D('',#1266,#994,#995);
#824=AXIS2_PLACEMENT_3D('',#1267,#996,#997);
#825=AXIS2_PLACEMENT_3D('',#1271,#999,#1000);
#826=AXIS2_PLACEMENT_3D('',#1272,#1001,#1002);
#827=AXIS2_PLACEMENT_3D('',#1278,#1006,#1007);
#828=AXIS2_PLACEMENT_3D('',#1287,#1012,#1013);
#829=AXIS2_PLACEMENT_3D('',#1288,#1014,#1015);
#830=AXIS2_PLACEMENT_3D('',#1289,#1016,#1017);
#831=AXIS2_PLACEMENT_3D('',#1290,#1018,#1019);
#832=AXIS2_PLACEMENT_3D('',#1291,#1020,#1021);
#833=AXIS2_PLACEMENT_3D('',#1292,#1022,#1023);
#834=AXIS2_PLACEMENT_3D('',#1293,#1024,#1025);
#835=AXIS2_PLACEMENT_3D('',#1294,#1026,#1027);
#836=AXIS2_PLACEMENT_3D('',#1295,#1028,#1029);
#837=AXIS2_PLACEMENT_3D('',#1296,#1030,#1031);
#838=AXIS2_PLACEMENT_3D('',#1297,#1032,#1033);
#839=AXIS2_PLACEMENT_3D('',#1298,#1034,#1035);
#840=AXIS2_PLACEMENT_3D('',#1299,#1036,#1037);
#841=AXIS2_PLACEMENT_3D('',#1301,#1038,#1039);
#842=AXIS2_PLACEMENT_3D('',#1303,#1040,#1041);
#843=AXIS2_PLACEMENT_3D('',#1305,#1042,#1043);
#844=AXIS2_PLACEMENT_3D('',#1307,#1044,#1045);
#845=AXIS2_PLACEMENT_3D('',#1309,#1046,#1047);
#846=AXIS2_PLACEMENT_3D('',#1310,#1048,#1049);
#847=AXIS2_PLACEMENT_3D('',#1311,#1050,#1051);
#848=AXIS2_PLACEMENT_3D('',#1312,#1052,#1053);
#849=AXIS2_PLACEMENT_3D('',#1313,#1054,#1055);
#850=AXIS2_PLACEMENT_3D('',#1314,#1056,#1057);
#851=AXIS2_PLACEMENT_3D('',#1315,#1058,#1059);
#852=AXIS2_PLACEMENT_3D('',#1316,#1060,#1061);
#853=AXIS2_PLACEMENT_3D('',#1317,#1062,#1063);
#854=AXIS2_PLACEMENT_3D('',#1318,#1064,#1065);
#855=AXIS2_PLACEMENT_3D('',#1319,#1066,#1067);
#856=AXIS2_PLACEMENT_3D('',#1320,#1068,#1069);
#857=AXIS2_PLACEMENT_3D('',#1322,#1070,#1071);
#858=AXIS2_PLACEMENT_3D('',#1323,#1072,#1073);
#859=AXIS2_PLACEMENT_3D('',#1325,#1074,#1075);
#860=AXIS2_PLACEMENT_3D('',#1326,#1076,#1077);
#861=AXIS2_PLACEMENT_3D('',#1328,#1078,#1079);
#862=AXIS2_PLACEMENT_3D('',#1329,#1080,#1081);
#863=AXIS2_PLACEMENT_3D('',#1331,#1082,#1083);
#864=AXIS2_PLACEMENT_3D('',#1332,#1084,#1085);
#865=AXIS2_PLACEMENT_3D('',#1334,#1086,#1087);
#866=AXIS2_PLACEMENT_3D('',#1335,#1088,#1089);
#867=AXIS2_PLACEMENT_3D('',#1337,#1090,#1091);
#868=AXIS2_PLACEMENT_3D('',#1338,#1092,#1093);
#869=AXIS2_PLACEMENT_3D('',#1340,#1094,#1095);
#870=AXIS2_PLACEMENT_3D('',#1341,#1096,#1097);
#871=AXIS2_PLACEMENT_3D('',#1343,#1098,#1099);
#872=AXIS2_PLACEMENT_3D('',#1344,#1100,#1101);
#873=AXIS2_PLACEMENT_3D('',#1346,#1102,#1103);
#874=AXIS2_PLACEMENT_3D('',#1347,#1104,#1105);
#875=AXIS2_PLACEMENT_3D('',#1349,#1106,#1107);
#876=AXIS2_PLACEMENT_3D('',#1350,#1108,#1109);
#877=AXIS2_PLACEMENT_3D('',#1351,#1110,#1111);
#878=AXIS2_PLACEMENT_3D('',#1352,#1112,#1113);
#879=AXIS2_PLACEMENT_3D('',#1353,#1114,#1115);
#880=AXIS2_PLACEMENT_3D('',#1354,#1116,#1117);
#881=AXIS2_PLACEMENT_3D('',#1355,#1118,#1119);
#882=AXIS2_PLACEMENT_3D('',#1356,#1120,#1121);
#883=AXIS2_PLACEMENT_3D('',#1357,#1122,#1123);
#884=AXIS2_PLACEMENT_3D('',#1358,#1124,#1125);
#885=AXIS2_PLACEMENT_3D('',#1359,#1126,#1127);
#886=AXIS2_PLACEMENT_3D('',#1360,#1128,#1129);
#887=AXIS2_PLACEMENT_3D('',#1361,#1130,#1131);
#888=AXIS2_PLACEMENT_3D('',#1362,#1132,#1133);
#889=AXIS2_PLACEMENT_3D('',#1363,#1134,#1135);
#890=DIRECTION('',(0.,0.,1.));
#891=DIRECTION('',(1.,0.,0.));
#892=DIRECTION('',(-1.,0.,7.57302297093047E-17));
#893=DIRECTION('',(7.57302297093047E-17,0.,1.));
#894=DIRECTION('',(0.,1.,0.));
#895=DIRECTION('',(-7.57302297093047E-17,0.,-1.));
#896=DIRECTION('',(0.,1.,0.));
#897=DIRECTION('',(-7.57302297093047E-17,0.,-1.));
#898=DIRECTION('',(-7.57302297093047E-17,0.,-1.));
#899=DIRECTION('',(-1.,0.,7.57302297093047E-17));
#900=DIRECTION('',(7.57302297093047E-17,0.,1.));
#901=DIRECTION('',(1.,0.,-7.57302297093047E-17));
#902=DIRECTION('',(-7.57302297093047E-17,0.,-1.));
#903=DIRECTION('',(7.57302297093047E-17,0.,1.));
#904=DIRECTION('',(1.,0.,-7.57302297093047E-17));
#905=DIRECTION('',(1.,0.,-7.57302297093047E-17));
#906=DIRECTION('',(-7.57302297093047E-17,0.,-1.));
#907=DIRECTION('',(0.,-1.,0.));
#908=DIRECTION('',(-7.57302297093047E-17,0.,-1.));
#909=DIRECTION('',(0.,-1.,0.));
#910=DIRECTION('',(0.,1.,0.));
#911=DIRECTION('',(0.,0.,1.));
#912=DIRECTION('',(1.,0.,-7.57302297093047E-17));
#913=DIRECTION('',(-7.57302297093047E-17,0.,-1.));
#914=DIRECTION('',(1.,0.,-7.57302297093047E-17));
#915=DIRECTION('',(-7.57302297093047E-17,0.,-1.));
#916=DIRECTION('',(1.,0.,-7.57302297093047E-17));
#917=DIRECTION('',(-7.57302297093047E-17,0.,-1.));
#918=DIRECTION('',(0.,-1.,0.));
#919=DIRECTION('',(-7.57302297093047E-17,0.,-1.));
#920=DIRECTION('',(0.,-1.,0.));
#921=DIRECTION('',(-7.57302297093047E-17,0.,-1.));
#922=DIRECTION('',(-7.57302297093047E-17,0.,-1.));
#923=DIRECTION('',(-1.,0.,7.57302297093047E-17));
#924=DIRECTION('',(7.57302297093047E-17,0.,1.));
#925=DIRECTION('',(1.,0.,-7.57302297093047E-17));
#926=DIRECTION('',(-7.57302297093047E-17,0.,-1.));
#927=DIRECTION('',(7.57302297093047E-17,0.,1.));
#928=DIRECTION('',(1.,0.,-7.57302297093047E-17));
#929=DIRECTION('',(1.,0.,-7.57302297093047E-17));
#930=DIRECTION('',(-7.57302297093047E-17,0.,-1.));
#931=DIRECTION('',(0.,-1.,0.));
#932=DIRECTION('',(-7.57302297093047E-17,0.,-1.));
#933=DIRECTION('',(0.,-1.,0.));
#934=DIRECTION('',(0.,1.,0.));
#935=DIRECTION('',(0.,0.,1.));
#936=DIRECTION('',(1.,0.,-7.57302297093047E-17));
#937=DIRECTION('',(-7.57302297093047E-17,0.,-1.));
#938=DIRECTION('',(1.,0.,-7.57302297093047E-17));
#939=DIRECTION('',(-7.57302297093047E-17,0.,-1.));
#940=DIRECTION('',(1.,0.,-7.57302297093047E-17));
#941=DIRECTION('',(-7.57302297093047E-17,0.,-1.));
#942=DIRECTION('',(0.,-1.,0.));
#943=DIRECTION('',(-7.57302297093047E-17,0.,-1.));
#944=DIRECTION('',(0.,-1.,0.));
#945=DIRECTION('',(-7.57302297093047E-17,0.,-1.));
#946=DIRECTION('',(-7.57302297093047E-17,0.,-1.));
#947=DIRECTION('',(-1.,0.,7.57302297093047E-17));
#948=DIRECTION('',(7.57302297093047E-17,0.,1.));
#949=DIRECTION('',(1.,0.,-7.57302297093047E-17));
#950=DIRECTION('',(-7.57302297093047E-17,0.,-1.));
#951=DIRECTION('',(7.57302297093047E-17,0.,1.));
#952=DIRECTION('',(1.,0.,-7.57302297093047E-17));
#953=DIRECTION('',(1.,0.,-7.57302297093047E-17));
#954=DIRECTION('',(-7.57302297093047E-17,0.,-1.));
#955=DIRECTION('',(0.,-1.,0.));
#956=DIRECTION('',(-7.57302297093047E-17,0.,-1.));
#957=DIRECTION('',(0.,-1.,0.));
#958=DIRECTION('',(0.,1.,0.));
#959=DIRECTION('',(0.,0.,1.));
#960=DIRECTION('',(1.,0.,-7.57302297093047E-17));
#961=DIRECTION('',(-7.57302297093047E-17,0.,-1.));
#962=DIRECTION('',(1.,0.,-7.57302297093047E-17));
#963=DIRECTION('',(-7.57302297093047E-17,0.,-1.));
#964=DIRECTION('',(1.,0.,-7.57302297093047E-17));
#965=DIRECTION('',(-7.57302297093047E-17,0.,-1.));
#966=DIRECTION('',(0.,-1.,0.));
#967=DIRECTION('',(-7.57302297093047E-17,0.,-1.));
#968=DIRECTION('',(0.,-1.,0.));
#969=DIRECTION('',(-7.57302297093047E-17,0.,-1.));
#970=DIRECTION('',(-7.57302297093047E-17,0.,-1.));
#971=DIRECTION('',(-1.,0.,7.57302297093047E-17));
#972=DIRECTION('',(7.57302297093047E-17,0.,1.));
#973=DIRECTION('',(1.,0.,-7.57302297093047E-17));
#974=DIRECTION('',(-7.57302297093047E-17,0.,-1.));
#975=DIRECTION('',(7.57302297093047E-17,0.,1.));
#976=DIRECTION('',(1.,0.,-7.57302297093047E-17));
#977=DIRECTION('',(1.,0.,-7.57302297093047E-17));
#978=DIRECTION('',(-7.57302297093047E-17,0.,-1.));
#979=DIRECTION('',(0.,-1.,0.));
#980=DIRECTION('',(-7.57302297093047E-17,0.,-1.));
#981=DIRECTION('',(0.,-1.,0.));
#982=DIRECTION('',(0.,1.,0.));
#983=DIRECTION('',(0.,0.,1.));
#984=DIRECTION('',(1.,0.,-7.57302297093047E-17));
#985=DIRECTION('',(-7.57302297093047E-17,0.,-1.));
#986=DIRECTION('',(1.,0.,-7.57302297093047E-17));
#987=DIRECTION('',(-7.57302297093047E-17,0.,-1.));
#988=DIRECTION('',(1.,0.,-7.57302297093047E-17));
#989=DIRECTION('',(-7.57302297093047E-17,0.,-1.));
#990=DIRECTION('',(0.,-1.,0.));
#991=DIRECTION('',(-7.57302297093047E-17,0.,-1.));
#992=DIRECTION('',(0.,-1.,0.));
#993=DIRECTION('',(-7.57302297093047E-17,0.,-1.));
#994=DIRECTION('',(-7.57302297093047E-17,0.,-1.));
#995=DIRECTION('',(-1.,0.,7.57302297093047E-17));
#996=DIRECTION('',(7.57302297093047E-17,0.,1.));
#997=DIRECTION('',(1.,0.,-7.57302297093047E-17));
#998=DIRECTION('',(-7.57302297093047E-17,0.,-1.));
#999=DIRECTION('',(7.57302297093047E-17,0.,1.));
#1000=DIRECTION('',(1.,0.,-7.57302297093047E-17));
#1001=DIRECTION('',(1.,0.,-7.57302297093047E-17));
#1002=DIRECTION('',(-7.57302297093047E-17,0.,-1.));
#1003=DIRECTION('',(0.,-1.,0.));
#1004=DIRECTION('',(-7.57302297093047E-17,0.,-1.));
#1005=DIRECTION('',(0.,-1.,0.));
#1006=DIRECTION('',(0.,1.,0.));
#1007=DIRECTION('',(0.,0.,1.));
#1008=DIRECTION('',(1.,0.,-7.57302297093047E-17));
#1009=DIRECTION('',(-7.57302297093047E-17,0.,-1.));
#1010=DIRECTION('',(1.,0.,-7.57302297093047E-17));
#1011=DIRECTION('',(-7.57302297093047E-17,0.,-1.));
#1012=DIRECTION('',(7.57302297093047E-17,0.,1.));
#1013=DIRECTION('',(1.,0.,-7.57302297093047E-17));
#1014=DIRECTION('',(7.57302297093047E-17,0.,1.));
#1015=DIRECTION('',(1.,0.,-7.57302297093047E-17));
#1016=DIRECTION('',(7.57302297093047E-17,0.,1.));
#1017=DIRECTION('',(1.,0.,-7.57302297093047E-17));
#1018=DIRECTION('',(7.57302297093047E-17,0.,1.));
#1019=DIRECTION('',(1.,0.,-7.57302297093047E-17));
#1020=DIRECTION('',(7.57302297093047E-17,0.,1.));
#1021=DIRECTION('',(1.,0.,-7.57302297093047E-17));
#1022=DIRECTION('',(7.57302297093047E-17,0.,1.));
#1023=DIRECTION('',(1.,0.,-7.57302297093047E-17));
#1024=DIRECTION('',(7.57302297093047E-17,0.,1.));
#1025=DIRECTION('',(1.,0.,-7.57302297093047E-17));
#1026=DIRECTION('',(7.57302297093047E-17,0.,1.));
#1027=DIRECTION('',(1.,0.,-7.57302297093047E-17));
#1028=DIRECTION('',(7.57302297093047E-17,0.,1.));
#1029=DIRECTION('',(1.,0.,-7.57302297093047E-17));
#1030=DIRECTION('',(7.57302297093047E-17,0.,1.));
#1031=DIRECTION('',(1.,0.,-7.57302297093047E-17));
#1032=DIRECTION('',(7.57302297093047E-17,0.,1.));
#1033=DIRECTION('',(1.,0.,-7.57302297093047E-17));
#1034=DIRECTION('',(7.57302297093047E-17,0.,1.));
#1035=DIRECTION('',(1.,0.,-7.57302297093047E-17));
#1036=DIRECTION('',(7.57302297093047E-17,0.,1.));
#1037=DIRECTION('',(1.,0.,-7.57302297093047E-17));
#1038=DIRECTION('',(7.57302297093047E-17,0.,1.));
#1039=DIRECTION('',(1.,0.,-7.57302297093047E-17));
#1040=DIRECTION('',(7.57302297093047E-17,0.,1.));
#1041=DIRECTION('',(1.,0.,-7.57302297093047E-17));
#1042=DIRECTION('',(7.57302297093047E-17,0.,1.));
#1043=DIRECTION('',(1.,0.,-7.57302297093047E-17));
#1044=DIRECTION('',(7.57302297093047E-17,0.,1.));
#1045=DIRECTION('',(1.,0.,-7.57302297093047E-17));
#1046=DIRECTION('',(7.57302297093047E-17,0.,1.));
#1047=DIRECTION('',(1.,0.,-7.57302297093047E-17));
#1048=DIRECTION('',(7.57302297093047E-17,0.,1.));
#1049=DIRECTION('',(1.,0.,-7.57302297093047E-17));
#1050=DIRECTION('',(7.57302297093047E-17,0.,1.));
#1051=DIRECTION('',(1.,0.,-7.57302297093047E-17));
#1052=DIRECTION('',(7.57302297093047E-17,0.,1.));
#1053=DIRECTION('',(1.,0.,-7.57302297093047E-17));
#1054=DIRECTION('',(7.57302297093047E-17,0.,1.));
#1055=DIRECTION('',(1.,0.,-7.57302297093047E-17));
#1056=DIRECTION('',(7.57302297093047E-17,0.,1.));
#1057=DIRECTION('',(1.,0.,-7.57302297093047E-17));
#1058=DIRECTION('',(7.57302297093047E-17,0.,1.));
#1059=DIRECTION('',(1.,0.,-7.57302297093047E-17));
#1060=DIRECTION('',(7.57302297093047E-17,0.,1.));
#1061=DIRECTION('',(1.,0.,-7.57302297093047E-17));
#1062=DIRECTION('',(7.57302297093047E-17,0.,1.));
#1063=DIRECTION('',(1.,0.,-7.57302297093047E-17));
#1064=DIRECTION('',(7.57302297093047E-17,0.,1.));
#1065=DIRECTION('',(1.,0.,-7.57302297093047E-17));
#1066=DIRECTION('',(7.57302297093047E-17,0.,1.));
#1067=DIRECTION('',(1.,0.,-7.57302297093047E-17));
#1068=DIRECTION('',(7.57302297093047E-17,0.,1.));
#1069=DIRECTION('',(1.,0.,-7.57302297093047E-17));
#1070=DIRECTION('',(7.57302297093047E-17,0.,1.));
#1071=DIRECTION('',(1.,0.,-7.57302297093047E-17));
#1072=DIRECTION('',(7.57302297093047E-17,0.,1.));
#1073=DIRECTION('',(1.,0.,-7.57302297093047E-17));
#1074=DIRECTION('',(7.57302297093047E-17,0.,1.));
#1075=DIRECTION('',(1.,0.,-7.57302297093047E-17));
#1076=DIRECTION('',(7.57302297093047E-17,0.,1.));
#1077=DIRECTION('',(1.,0.,-7.57302297093047E-17));
#1078=DIRECTION('',(7.57302297093047E-17,0.,1.));
#1079=DIRECTION('',(1.,0.,-7.57302297093047E-17));
#1080=DIRECTION('',(7.57302297093047E-17,0.,1.));
#1081=DIRECTION('',(1.,0.,-7.57302297093047E-17));
#1082=DIRECTION('',(7.57302297093047E-17,0.,1.));
#1083=DIRECTION('',(1.,0.,-7.57302297093047E-17));
#1084=DIRECTION('',(7.57302297093047E-17,0.,1.));
#1085=DIRECTION('',(1.,0.,-7.57302297093047E-17));
#1086=DIRECTION('',(7.57302297093047E-17,0.,1.));
#1087=DIRECTION('',(1.,0.,-7.57302297093047E-17));
#1088=DIRECTION('',(7.57302297093047E-17,0.,1.));
#1089=DIRECTION('',(1.,0.,-7.57302297093047E-17));
#1090=DIRECTION('',(7.57302297093047E-17,0.,1.));
#1091=DIRECTION('',(1.,0.,-7.57302297093047E-17));
#1092=DIRECTION('',(7.57302297093047E-17,0.,1.));
#1093=DIRECTION('',(1.,0.,-7.57302297093047E-17));
#1094=DIRECTION('',(7.57302297093047E-17,0.,1.));
#1095=DIRECTION('',(1.,0.,-7.57302297093047E-17));
#1096=DIRECTION('',(7.57302297093047E-17,0.,1.));
#1097=DIRECTION('',(1.,0.,-7.57302297093047E-17));
#1098=DIRECTION('',(7.57302297093047E-17,0.,1.));
#1099=DIRECTION('',(1.,0.,-7.57302297093047E-17));
#1100=DIRECTION('',(7.57302297093047E-17,0.,1.));
#1101=DIRECTION('',(1.,0.,-7.57302297093047E-17));
#1102=DIRECTION('',(7.57302297093047E-17,0.,1.));
#1103=DIRECTION('',(1.,0.,-7.57302297093047E-17));
#1104=DIRECTION('',(7.57302297093047E-17,0.,1.));
#1105=DIRECTION('',(1.,0.,-7.57302297093047E-17));
#1106=DIRECTION('',(7.57302297093047E-17,0.,1.));
#1107=DIRECTION('',(1.,0.,-7.57302297093047E-17));
#1108=DIRECTION('',(7.57302297093047E-17,0.,1.));
#1109=DIRECTION('',(1.,0.,-7.57302297093047E-17));
#1110=DIRECTION('',(7.57302297093047E-17,0.,1.));
#1111=DIRECTION('',(1.,0.,-7.57302297093047E-17));
#1112=DIRECTION('',(7.57302297093047E-17,0.,1.));
#1113=DIRECTION('',(1.,0.,-7.57302297093047E-17));
#1114=DIRECTION('',(7.57302297093047E-17,0.,1.));
#1115=DIRECTION('',(1.,0.,-7.57302297093047E-17));
#1116=DIRECTION('',(-7.57302297093047E-17,0.,-1.));
#1117=DIRECTION('',(-1.,0.,7.57302297093047E-17));
#1118=DIRECTION('',(-7.57302297093047E-17,0.,-1.));
#1119=DIRECTION('',(-1.,0.,7.57302297093047E-17));
#1120=DIRECTION('',(-7.57302297093047E-17,0.,-1.));
#1121=DIRECTION('',(-1.,0.,7.57302297093047E-17));
#1122=DIRECTION('',(7.57302297093047E-17,0.,1.));
#1123=DIRECTION('',(1.,0.,-7.57302297093047E-17));
#1124=DIRECTION('',(7.57302297093047E-17,0.,1.));
#1125=DIRECTION('',(1.,0.,-7.57302297093047E-17));
#1126=DIRECTION('',(7.57302297093047E-17,0.,1.));
#1127=DIRECTION('',(1.,0.,-7.57302297093047E-17));
#1128=DIRECTION('',(-7.57302297093047E-17,0.,-1.));
#1129=DIRECTION('',(-1.,0.,7.57302297093047E-17));
#1130=DIRECTION('',(-7.57302297093047E-17,0.,-1.));
#1131=DIRECTION('',(-1.,0.,7.57302297093047E-17));
#1132=DIRECTION('',(-7.57302297093047E-17,0.,-1.));
#1133=DIRECTION('',(-1.,0.,7.57302297093047E-17));
#1134=DIRECTION('',(7.57302297093047E-17,0.,1.));
#1135=DIRECTION('',(1.,0.,-7.57302297093047E-17));
#1136=CARTESIAN_POINT('',(0.,0.,0.));
#1137=CARTESIAN_POINT('',(-0.0118560527510536,0.123725,-0.05625));
#1138=CARTESIAN_POINT('',(-0.0118560527510536,0.123725,-0.05625));
#1139=CARTESIAN_POINT('',(-0.0118560527510536,0.118654058411375,-0.05625));
#1140=CARTESIAN_POINT('',(-0.0118560527510536,0.123725,-0.05625));
#1141=CARTESIAN_POINT('',(-0.0118560527510536,0.123725,-0.05625));
#1142=CARTESIAN_POINT('',(-0.0118560527510536,0.123725,-0.06));
#1143=CARTESIAN_POINT('',(-0.0118560527510536,0.123725,-0.06));
#1144=CARTESIAN_POINT('',(-0.0118560527510536,0.118654058411375,-0.06));
#1145=CARTESIAN_POINT('',(-0.0118560527510536,0.118654058411375,-0.05625));
#1146=CARTESIAN_POINT('',(-0.0111060527510537,0.114725,-0.05625));
#1147=CARTESIAN_POINT('',(-0.0111060527510537,0.114725,-0.06));
#1148=CARTESIAN_POINT('',(-0.0103560527510536,0.118654058411375,-0.06));
#1149=CARTESIAN_POINT('',(-0.0103560527510536,0.118654058411375,-0.05625));
#1150=CARTESIAN_POINT('',(-0.0103560527510536,0.118654058411375,-0.05625));
#1151=CARTESIAN_POINT('',(-0.0111060527510537,0.114725,-0.05625));
#1152=CARTESIAN_POINT('',(-0.0103560527510536,0.120689529205688,-0.05625));
#1153=CARTESIAN_POINT('',(-0.0103560527510536,0.120689529205688,-0.06));
#1154=CARTESIAN_POINT('',(-0.0103560527510536,0.121725,-0.06));
#1155=CARTESIAN_POINT('',(-0.0103560527510536,0.121725,-0.05625));
#1156=CARTESIAN_POINT('',(-0.0103560527510536,0.121725,-0.05625));
#1157=CARTESIAN_POINT('',(-0.0103560527510536,0.120689529205688,-0.05625));
#1158=CARTESIAN_POINT('',(-0.00210605275105361,0.122725,-0.05625));
#1159=CARTESIAN_POINT('',(-0.00210605275105361,0.122725,-0.05625));
#1160=CARTESIAN_POINT('',(-0.0093560527510536,0.122725,-0.05625));
#1161=CARTESIAN_POINT('',(0.00514394724894636,0.122725,-0.05625));
#1162=CARTESIAN_POINT('',(-0.0093560527510536,0.122725,-0.05625));
#1163=CARTESIAN_POINT('',(-0.0093560527510536,0.122725,-0.06));
#1164=CARTESIAN_POINT('',(-0.00210605275105362,0.122725,-0.06));
#1165=CARTESIAN_POINT('',(0.00514394724894636,0.122725,-0.06));
#1166=CARTESIAN_POINT('',(0.00514394724894636,0.122725,-0.05625));
#1167=CARTESIAN_POINT('',(0.00614394724894636,0.120689529205688,-0.05625));
#1168=CARTESIAN_POINT('',(0.00614394724894636,0.120689529205688,-0.05625));
#1169=CARTESIAN_POINT('',(0.00614394724894636,0.121725,-0.05625));
#1170=CARTESIAN_POINT('',(0.00614394724894636,0.118654058411375,-0.05625));
#1171=CARTESIAN_POINT('',(0.00614394724894636,0.121725,-0.06));
#1172=CARTESIAN_POINT('',(0.00614394724894636,0.121725,-0.06));
#1173=CARTESIAN_POINT('',(0.00614394724894636,0.120689529205688,-0.06));
#1174=CARTESIAN_POINT('',(0.00614394724894636,0.118654058411375,-0.06));
#1175=CARTESIAN_POINT('',(0.00614394724894636,0.118654058411375,-0.05625));
#1176=CARTESIAN_POINT('',(0.00689394724894625,0.114725,-0.05625));
#1177=CARTESIAN_POINT('',(0.00689394724894625,0.114725,-0.06));
#1178=CARTESIAN_POINT('',(0.00764394724894636,0.118654058411375,-0.06));
#1179=CARTESIAN_POINT('',(0.00764394724894636,0.118654058411375,-0.05625));
#1180=CARTESIAN_POINT('',(0.00764394724894636,0.118654058411375,-0.05625));
#1181=CARTESIAN_POINT('',(0.00689394724894625,0.114725,-0.05625));
#1182=CARTESIAN_POINT('',(0.00764394724894636,0.120689529205688,-0.05625));
#1183=CARTESIAN_POINT('',(0.00764394724894636,0.120689529205688,-0.06));
#1184=CARTESIAN_POINT('',(0.00764394724894636,0.121725,-0.06));
#1185=CARTESIAN_POINT('',(0.00764394724894636,0.121725,-0.05625));
#1186=CARTESIAN_POINT('',(0.00764394724894636,0.121725,-0.05625));
#1187=CARTESIAN_POINT('',(0.00764394724894636,0.120689529205688,-0.05625));
#1188=CARTESIAN_POINT('',(0.0158939472489464,0.122725,-0.05625));
#1189=CARTESIAN_POINT('',(0.0158939472489464,0.122725,-0.06));
#1190=CARTESIAN_POINT('',(0.00864394724894636,0.122725,-0.06));
#1191=CARTESIAN_POINT('',(0.0231439472489464,0.122725,-0.06));
#1192=CARTESIAN_POINT('',(0.0231439472489464,0.122725,-0.05625));
#1193=CARTESIAN_POINT('',(0.0231439472489464,0.122725,-0.05625));
#1194=CARTESIAN_POINT('',(0.0158939472489464,0.122725,-0.05625));
#1195=CARTESIAN_POINT('',(0.00864394724894636,0.122725,-0.05625));
#1196=CARTESIAN_POINT('',(0.00864394724894636,0.122725,-0.05625));
#1197=CARTESIAN_POINT('',(0.0241439472489464,0.120689529205688,-0.05625));
#1198=CARTESIAN_POINT('',(0.0241439472489464,0.120689529205688,-0.05625));
#1199=CARTESIAN_POINT('',(0.0241439472489464,0.121725,-0.05625));
#1200=CARTESIAN_POINT('',(0.0241439472489464,0.118654058411375,-0.05625));
#1201=CARTESIAN_POINT('',(0.0241439472489464,0.121725,-0.06));
#1202=CARTESIAN_POINT('',(0.0241439472489464,0.121725,-0.06));
#1203=CARTESIAN_POINT('',(0.0241439472489464,0.120689529205688,-0.06));
#1204=CARTESIAN_POINT('',(0.0241439472489464,0.118654058411375,-0.06));
#1205=CARTESIAN_POINT('',(0.0241439472489464,0.118654058411375,-0.05625));
#1206=CARTESIAN_POINT('',(0.0248939472489462,0.114725,-0.05625));
#1207=CARTESIAN_POINT('',(0.0248939472489462,0.114725,-0.06));
#1208=CARTESIAN_POINT('',(0.0256439472489463,0.118654058411375,-0.06));
#1209=CARTESIAN_POINT('',(0.0256439472489463,0.118654058411375,-0.05625));
#1210=CARTESIAN_POINT('',(0.0256439472489463,0.118654058411375,-0.05625));
#1211=CARTESIAN_POINT('',(0.0248939472489462,0.114725,-0.05625));
#1212=CARTESIAN_POINT('',(0.0256439472489463,0.120689529205688,-0.05625));
#1213=CARTESIAN_POINT('',(0.0256439472489463,0.120689529205688,-0.06));
#1214=CARTESIAN_POINT('',(0.0256439472489463,0.121725,-0.06));
#1215=CARTESIAN_POINT('',(0.0256439472489463,0.121725,-0.05625));
#1216=CARTESIAN_POINT('',(0.0256439472489463,0.121725,-0.05625));
#1217=CARTESIAN_POINT('',(0.0256439472489463,0.120689529205688,-0.05625));
#1218=CARTESIAN_POINT('',(0.0338939472489464,0.122725,-0.05625));
#1219=CARTESIAN_POINT('',(0.0338939472489464,0.122725,-0.06));
#1220=CARTESIAN_POINT('',(0.0266439472489464,0.122725,-0.06));
#1221=CARTESIAN_POINT('',(0.0411439472489463,0.122725,-0.06));
#1222=CARTESIAN_POINT('',(0.0411439472489463,0.122725,-0.05625));
#1223=CARTESIAN_POINT('',(0.0411439472489463,0.122725,-0.05625));
#1224=CARTESIAN_POINT('',(0.0338939472489464,0.122725,-0.05625));
#1225=CARTESIAN_POINT('',(0.0266439472489464,0.122725,-0.05625));
#1226=CARTESIAN_POINT('',(0.0266439472489464,0.122725,-0.05625));
#1227=CARTESIAN_POINT('',(0.0421439472489463,0.120689529205688,-0.05625));
#1228=CARTESIAN_POINT('',(0.0421439472489463,0.120689529205688,-0.05625));
#1229=CARTESIAN_POINT('',(0.0421439472489463,0.121725,-0.05625));
#1230=CARTESIAN_POINT('',(0.0421439472489463,0.118654058411375,-0.05625));
#1231=CARTESIAN_POINT('',(0.0421439472489463,0.121725,-0.06));
#1232=CARTESIAN_POINT('',(0.0421439472489463,0.121725,-0.06));
#1233=CARTESIAN_POINT('',(0.0421439472489463,0.120689529205688,-0.06));
#1234=CARTESIAN_POINT('',(0.0421439472489463,0.118654058411375,-0.06));
#1235=CARTESIAN_POINT('',(0.0421439472489463,0.118654058411375,-0.05625));
#1236=CARTESIAN_POINT('',(0.0428939472489462,0.114725,-0.05625));
#1237=CARTESIAN_POINT('',(0.0428939472489462,0.114725,-0.06));
#1238=CARTESIAN_POINT('',(0.0436439472489463,0.118654058411375,-0.06));
#1239=CARTESIAN_POINT('',(0.0436439472489463,0.118654058411375,-0.05625));
#1240=CARTESIAN_POINT('',(0.0436439472489463,0.118654058411375,-0.05625));
#1241=CARTESIAN_POINT('',(0.0428939472489462,0.114725,-0.05625));
#1242=CARTESIAN_POINT('',(0.0436439472489463,0.120689529205688,-0.05625));
#1243=CARTESIAN_POINT('',(0.0436439472489463,0.120689529205688,-0.06));
#1244=CARTESIAN_POINT('',(0.0436439472489463,0.121725,-0.06));
#1245=CARTESIAN_POINT('',(0.0436439472489463,0.121725,-0.05625));
#1246=CARTESIAN_POINT('',(0.0436439472489463,0.121725,-0.05625));
#1247=CARTESIAN_POINT('',(0.0436439472489463,0.120689529205688,-0.05625));
#1248=CARTESIAN_POINT('',(0.0548939472489464,0.122725,-0.05625));
#1249=CARTESIAN_POINT('',(0.0548939472489464,0.122725,-0.05625));
#1250=CARTESIAN_POINT('',(0.0446439472489463,0.122725,-0.05625));
#1251=CARTESIAN_POINT('',(0.0651439472489463,0.122725,-0.05625));
#1252=CARTESIAN_POINT('',(0.0446439472489463,0.122725,-0.05625));
#1253=CARTESIAN_POINT('',(0.0446439472489463,0.122725,-0.06));
#1254=CARTESIAN_POINT('',(0.0548939472489464,0.122725,-0.06));
#1255=CARTESIAN_POINT('',(0.0651439472489463,0.122725,-0.06));
#1256=CARTESIAN_POINT('',(0.0651439472489463,0.122725,-0.05625));
#1257=CARTESIAN_POINT('',(0.0661439472489463,0.120689529205688,-0.05625));
#1258=CARTESIAN_POINT('',(0.0661439472489463,0.120689529205688,-0.05625));
#1259=CARTESIAN_POINT('',(0.0661439472489463,0.121725,-0.05625));
#1260=CARTESIAN_POINT('',(0.0661439472489463,0.118654058411375,-0.05625));
#1261=CARTESIAN_POINT('',(0.0661439472489463,0.121725,-0.06));
#1262=CARTESIAN_POINT('',(0.0661439472489463,0.121725,-0.06));
#1263=CARTESIAN_POINT('',(0.0661439472489463,0.120689529205688,-0.06));
#1264=CARTESIAN_POINT('',(0.0661439472489463,0.118654058411375,-0.06));
#1265=CARTESIAN_POINT('',(0.0661439472489463,0.118654058411375,-0.05625));
#1266=CARTESIAN_POINT('',(0.0668939472489463,0.114725,-0.05625));
#1267=CARTESIAN_POINT('',(0.0668939472489463,0.114725,-0.06));
#1268=CARTESIAN_POINT('',(0.0676439472489464,0.118654058411375,-0.06));
#1269=CARTESIAN_POINT('',(0.0676439472489464,0.118654058411375,-0.05625));
#1270=CARTESIAN_POINT('',(0.0676439472489464,0.118654058411375,-0.05625));
#1271=CARTESIAN_POINT('',(0.0668939472489463,0.114725,-0.05625));
#1272=CARTESIAN_POINT('',(0.0676439472489464,0.120689529205688,-0.05625));
#1273=CARTESIAN_POINT('',(0.0676439472489464,0.120689529205688,-0.06));
#1274=CARTESIAN_POINT('',(0.0676439472489464,0.123725,-0.06));
#1275=CARTESIAN_POINT('',(0.0676439472489464,0.123725,-0.05625));
#1276=CARTESIAN_POINT('',(0.0676439472489464,0.123725,-0.05625));
#1277=CARTESIAN_POINT('',(0.0676439472489464,0.120689529205688,-0.05625));
#1278=CARTESIAN_POINT('',(0.0668939472489463,0.124725,-0.05625));
#1279=CARTESIAN_POINT('',(0.0668939472489463,0.124725,-0.06));
#1280=CARTESIAN_POINT('',(-0.0108560527510536,0.124725,-0.06));
#1281=CARTESIAN_POINT('',(0.0666439472489463,0.124725,-0.06));
#1282=CARTESIAN_POINT('',(-0.0108560527510536,0.124725,-0.05625));
#1283=CARTESIAN_POINT('',(-0.0108560527510536,0.124725,-0.05625));
#1284=CARTESIAN_POINT('',(0.0668939472489463,0.124725,-0.05625));
#1285=CARTESIAN_POINT('',(0.0666439472489463,0.124725,-0.05625));
#1286=CARTESIAN_POINT('',(0.0666439472489463,0.124725,-0.05625));
#1287=CARTESIAN_POINT('',(-4.25982542114839E-18,0.108543577871374,-0.05625));
#1288=CARTESIAN_POINT('',(-0.0108560527510536,0.123725,-0.05625));
#1289=CARTESIAN_POINT('',(-0.0093560527510536,0.121725,-0.05625));
#1290=CARTESIAN_POINT('',(0.00514394724894636,0.121725,-0.05625));
#1291=CARTESIAN_POINT('',(0.00864394724894636,0.121725,-0.05625));
#1292=CARTESIAN_POINT('',(0.0231439472489464,0.121725,-0.05625));
#1293=CARTESIAN_POINT('',(0.0266439472489464,0.121725,-0.05625));
#1294=CARTESIAN_POINT('',(0.0411439472489463,0.121725,-0.05625));
#1295=CARTESIAN_POINT('',(0.0446439472489463,0.121725,-0.05625));
#1296=CARTESIAN_POINT('',(0.0651439472489463,0.121725,-0.05625));
#1297=CARTESIAN_POINT('',(0.0666439472489463,0.123725,-0.05625));
#1298=CARTESIAN_POINT('',(-4.54381378255828E-18,0.108543577871374,-0.06));
#1299=CARTESIAN_POINT('',(-0.0111060527510537,0.114725,-0.06));
#1300=CARTESIAN_POINT('',(-0.0085060527510537,0.114725,-0.06));
#1301=CARTESIAN_POINT('',(0.00689394724894625,0.114725,-0.06));
#1302=CARTESIAN_POINT('',(0.00949394724894602,0.114725,-0.06));
#1303=CARTESIAN_POINT('',(0.0248939472489462,0.114725,-0.06));
#1304=CARTESIAN_POINT('',(0.027493947248946,0.114725,-0.06));
#1305=CARTESIAN_POINT('',(0.0428939472489462,0.114725,-0.06));
#1306=CARTESIAN_POINT('',(0.045493947248946,0.114725,-0.06));
#1307=CARTESIAN_POINT('',(0.0668939472489462,0.114725,-0.06));
#1308=CARTESIAN_POINT('',(0.0694939472489459,0.114725,-0.06));
#1309=CARTESIAN_POINT('',(-0.0108560527510536,0.123725,-0.06));
#1310=CARTESIAN_POINT('',(0.0666439472489463,0.123725,-0.06));
#1311=CARTESIAN_POINT('',(0.0651439472489463,0.121725,-0.06));
#1312=CARTESIAN_POINT('',(0.0446439472489463,0.121725,-0.06));
#1313=CARTESIAN_POINT('',(0.0411439472489463,0.121725,-0.06));
#1314=CARTESIAN_POINT('',(0.0266439472489464,0.121725,-0.06));
#1315=CARTESIAN_POINT('',(0.0231439472489464,0.121725,-0.06));
#1316=CARTESIAN_POINT('',(0.00864394724894636,0.121725,-0.06));
#1317=CARTESIAN_POINT('',(0.00514394724894636,0.121725,-0.06));
#1318=CARTESIAN_POINT('',(-0.0093560527510536,0.121725,-0.06));
#1319=CARTESIAN_POINT('',(0.0668939472489462,0.114725,-0.0645));
#1320=CARTESIAN_POINT('',(0.0668939472489462,0.114725,-0.064));
#1321=CARTESIAN_POINT('',(0.0694939472489459,0.114725,-0.064));
#1322=CARTESIAN_POINT('',(-4.88459981625015E-18,0.108543577871374,-0.0645));
#1323=CARTESIAN_POINT('',(0.0668939472489462,0.114725,-0.0645));
#1324=CARTESIAN_POINT('',(0.0689939472489459,0.114725,-0.0645));
#1325=CARTESIAN_POINT('',(0.0428939472489462,0.114725,-0.0645));
#1326=CARTESIAN_POINT('',(0.0428939472489462,0.114725,-0.064));
#1327=CARTESIAN_POINT('',(0.045493947248946,0.114725,-0.064));
#1328=CARTESIAN_POINT('',(-4.88459981625015E-18,0.108543577871374,-0.0645));
#1329=CARTESIAN_POINT('',(0.0428939472489462,0.114725,-0.0645));
#1330=CARTESIAN_POINT('',(0.044993947248946,0.114725,-0.0645));
#1331=CARTESIAN_POINT('',(0.0248939472489462,0.114725,-0.0645));
#1332=CARTESIAN_POINT('',(0.0248939472489462,0.114725,-0.064));
#1333=CARTESIAN_POINT('',(0.027493947248946,0.114725,-0.064));
#1334=CARTESIAN_POINT('',(-4.88459981625015E-18,0.108543577871374,-0.0645));
#1335=CARTESIAN_POINT('',(0.0248939472489462,0.114725,-0.0645));
#1336=CARTESIAN_POINT('',(0.026993947248946,0.114725,-0.0645));
#1337=CARTESIAN_POINT('',(0.00689394724894625,0.114725,-0.0645));
#1338=CARTESIAN_POINT('',(0.00689394724894625,0.114725,-0.064));
#1339=CARTESIAN_POINT('',(0.00949394724894602,0.114725,-0.064));
#1340=CARTESIAN_POINT('',(-4.88459981625015E-18,0.108543577871374,-0.0645));
#1341=CARTESIAN_POINT('',(0.00689394724894625,0.114725,-0.0645));
#1342=CARTESIAN_POINT('',(0.00899394724894602,0.114725,-0.0645));
#1343=CARTESIAN_POINT('',(-0.0111060527510537,0.114725,-0.0645));
#1344=CARTESIAN_POINT('',(-0.0111060527510537,0.114725,-0.064));
#1345=CARTESIAN_POINT('',(-0.0085060527510537,0.114725,-0.064));
#1346=CARTESIAN_POINT('',(-4.88459981625015E-18,0.108543577871374,-0.0645));
#1347=CARTESIAN_POINT('',(-0.0111060527510537,0.114725,-0.0645));
#1348=CARTESIAN_POINT('',(-0.0090060527510537,0.114725,-0.0645));
#1349=CARTESIAN_POINT('',(0.0668939472489462,0.114725,-0.064));
#1350=CARTESIAN_POINT('',(0.0428939472489462,0.114725,-0.064));
#1351=CARTESIAN_POINT('',(0.0248939472489462,0.114725,-0.064));
#1352=CARTESIAN_POINT('',(0.00689394724894625,0.114725,-0.064));
#1353=CARTESIAN_POINT('',(-0.0111060527510537,0.114725,-0.064));
#1354=CARTESIAN_POINT('',(-0.0108560527510536,0.123725,-0.05625));
#1355=CARTESIAN_POINT('',(0.0666439472489463,0.123725,-0.05625));
#1356=CARTESIAN_POINT('',(0.0446439472489463,0.121725,-0.05625));
#1357=CARTESIAN_POINT('',(0.0651439472489463,0.121725,-0.05625));
#1358=CARTESIAN_POINT('',(0.0411439472489463,0.121725,-0.05625));
#1359=CARTESIAN_POINT('',(0.0231439472489464,0.121725,-0.05625));
#1360=CARTESIAN_POINT('',(0.0266439472489464,0.121725,-0.05625));
#1361=CARTESIAN_POINT('',(-0.0093560527510536,0.121725,-0.05625));
#1362=CARTESIAN_POINT('',(0.00864394724894636,0.121725,-0.05625));
#1363=CARTESIAN_POINT('',(0.00514394724894636,0.121725,-0.05625));
#1364=MECHANICAL_DESIGN_GEOMETRIC_PRESENTATION_REPRESENTATION('',(#786),
#1365);
#1365=(
GEOMETRIC_REPRESENTATION_CONTEXT(3)
GLOBAL_UNCERTAINTY_ASSIGNED_CONTEXT((#1366))
GLOBAL_UNIT_ASSIGNED_CONTEXT((#1369,#1368,#1367))
REPRESENTATION_CONTEXT('Buttons finglonger','TOP_LEVEL_ASSEMBLY_PART')
);
#1366=UNCERTAINTY_MEASURE_WITH_UNIT(LENGTH_MEASURE(1.E-8),#1369,
'DISTANCE_ACCURACY_VALUE','Maximum Tolerance applied to model');
#1367=(
NAMED_UNIT(*)
SI_UNIT($,.STERADIAN.)
SOLID_ANGLE_UNIT()
);
#1368=(
NAMED_UNIT(*)
PLANE_ANGLE_UNIT()
SI_UNIT($,.RADIAN.)
);
#1369=(
LENGTH_UNIT()
NAMED_UNIT(*)
SI_UNIT($,.METRE.)
);
#1370=PRODUCT_DEFINITION_SHAPE('','',#1371);
#1371=PRODUCT_DEFINITION('','',#1373,#1372);
#1372=PRODUCT_DEFINITION_CONTEXT('',#1379,'design');
#1373=PRODUCT_DEFINITION_FORMATION_WITH_SPECIFIED_SOURCE('','',#1375,
 .NOT_KNOWN.);
#1374=PRODUCT_RELATED_PRODUCT_CATEGORY('','',(#1375));
#1375=PRODUCT('Buttons finglonger','Buttons finglonger',
'Buttons finglonger',(#1377));
#1376=PRODUCT_CATEGORY('','');
#1377=PRODUCT_CONTEXT('',#1379,'mechanical');
#1378=APPLICATION_PROTOCOL_DEFINITION('international standard',
'ap242_managed_model_based_3d_engineering',2020,#1379);
#1379=APPLICATION_CONTEXT('managed model based 3d engineering');
ENDSEC;
END-ISO-10303-21;
